<svg xmlns="http://www.w3.org/2000/svg" width="194.715" height="194.714" viewBox="0 0 194.715 194.714">
  <g id="fav" transform="translate(1034 -40.928)">
    <path id="Path_3457" data-name="Path 3457" d="M194.66,116.528c0,53.005-43.389,95.976-96.914,95.976S.834,169.533.834,116.528,44.223,20.554,97.746,20.554s96.914,42.97,96.914,95.974" transform="translate(-1034.395 21.229)" fill="#fff"/>
    <path id="Path_3458" data-name="Path 3458" d="M2.731,185.626l2.375,4.826,1.588-5.644,2.227,5.725,1.828-5.805,2.149,5.648,1.826-5.489,2.148,5.565,1.751-5.485,1.987,5.724,1.747-5.724,2.15,5.566,1.828-5.646,2.306,5.646,1.908-5.725,1.906,5.883,1.751-5.883,1.75,5.644,2.743-4.989s-5.98,69.223,66.536,69.223c0,0,56.193-10.028,52.9-66.069l-.541-3.688,2.585,5.647,1.641-5.891,2.1,5.943,1.792-5.841,2.048,5.789,1.743-5.84,2,5.892,1.912-5.9,2.046,5.849,2.066-5.869,2.025,5.913,1.924-5.869,1.982,5.888,1.842-5.932,1.922,5.913,1.942-5.869,1.881,5.847,2.107-4.857s12.219,74.888-68.923,102.407c0,0-64.97,21.563-108.094-41.706,0,0-15.7-20.856-14.647-59.546Z" transform="translate(-1034.682 -56.563)" fill="#82123c"/>
    <path id="Path_3459" data-name="Path 3459" d="M71.423,149.832a59.927,59.927,0,1,1,59.917,59.927,59.921,59.921,0,0,1-59.917-59.927" transform="translate(-1067.852 -11.643)" fill="#f0e132"/>
    <path id="Path_3460" data-name="Path 3460" d="M130.829,209.819a60.491,60.491,0,1,1,60.505-60.494,60.56,60.56,0,0,1-60.505,60.494m0-119.848A59.357,59.357,0,1,0,190.2,149.325a59.418,59.418,0,0,0-59.368-59.355" transform="translate(-1067.34 -11.134)" fill="#82123c"/>
    <path id="Path_3461" data-name="Path 3461" d="M155.684,32.766a2.232,2.232,0,1,1,2.225,2.208,2.214,2.214,0,0,1-2.225-2.208" transform="translate(-1107.789 16.486)" fill="#18161d"/>
    <path id="Path_3462" data-name="Path 3462" d="M165.252,31.036a2.236,2.236,0,1,1,2.237,2.209,2.222,2.222,0,0,1-2.237-2.209" transform="translate(-1112.324 17.306)" fill="#18161d"/>
    <path id="Path_3463" data-name="Path 3463" d="M193.982,36.87a2.236,2.236,0,1,1,2.239,2.212,2.22,2.22,0,0,1-2.239-2.212" transform="translate(-1125.941 14.538)" fill="#18161d"/>
    <path id="Path_3464" data-name="Path 3464" d="M203.723,36.8A2.234,2.234,0,1,1,205.97,39a2.226,2.226,0,0,1-2.247-2.2" transform="translate(-1130.558 14.577)" fill="#18161d"/>
    <path id="Path_3465" data-name="Path 3465" d="M296.855,114.013l5.615.284a10.448,10.448,0,0,0,.978,2.813c.866,1.846,1.838,3.777,3.5,7.3a76.068,76.068,0,0,1,4.472,11.391,6.6,6.6,0,0,1-1.3,5.7c-2.021,2.28-6.929,3.419-6.929,3.419s-2.1-8.169-3.508-11.8a76.888,76.888,0,0,0-8.593-15.575l3.248-2.6s6.438,10.238,7.532,12.814a104.876,104.876,0,0,1,3.858,10.9s1.385.069,1.5-1.216c.167-2.079-2.458-8.469-4.612-13.032-2.137-4.535-5.759-10.4-5.759-10.4" transform="translate(-1171.966 -23.067)" fill="#18161d"/>
    <path id="Path_3466" data-name="Path 3466" d="M246.411,58.916A9.91,9.91,0,0,1,243,58.165l-.181,1.557-8.055,9.086a95.9,95.9,0,0,0-17.435-10.47c-3.072-1.387-15.345-4.762-15.345-4.762l.612-9.693a21.734,21.734,0,0,1-2.539,1.213,24.462,24.462,0,0,1-4.728.693c-2.888.308-3.506,4.065-3.506,4.065V56.6a74.552,74.552,0,0,1,21.818,4.761c11.575,4.672,21.817,13.426,21.817,13.426L249.01,59.345a15.152,15.152,0,0,0-2.6-.428M195.942,52.71c-.222,0-.2-1.314.089-1.987.639-1.5,1.833-.867,1.833-.867l.089,3.026a18.482,18.482,0,0,0-2.011-.171" transform="translate(-1124.916 10.172)" fill="#18161d"/>
    <path id="Path_3467" data-name="Path 3467" d="M283.961,96.772c-.862-.553-3.148-1.521-4.329-2.069-1.72-.8-3.75.637-3.75.637s-3.837,3.672-4.114,4.638c-.246.895,2.626,3.522,2.995,3.879.35.354-.539,1.726-1.757,2.159a1.91,1.91,0,0,1-2.454-.987c-.61-.876-1.161-2.97-1.674-3.68a4.761,4.761,0,0,0-2-1.734,4.99,4.99,0,0,0-2.463.089s-.783,1.037.616,1.732a5.609,5.609,0,0,0,1.991.531c.711.15.52.274,1.147,1,.8.925.213.854.941,2.7s1.444,3.206,3.821,3.419,4.7-2.357,6.471-3.851,7.886-7.27,7.886-7.27a9.883,9.883,0,0,1-3.325-1.2M278.068,101s-1.3-.357-1.072-1.138a1.432,1.432,0,0,1,1.346-.769,3.478,3.478,0,0,1,1.5.516Z" transform="translate(-1159.219 -13.799)" fill="#18161d"/>
    <path id="Path_3468" data-name="Path 3468" d="M114.812,35.695a38.208,38.208,0,0,0-6.216,1.567c-1.936.783-1.576,4.482-1.653,5.483s.331,3.37.87,3.539a43.821,43.821,0,0,0,4.83-.191l.065,2.064a77.7,77.7,0,0,0-7.878.983c-2.981.61-6.229,1.3-6.229,1.3a13.157,13.157,0,0,0-3.41-3.205c-1.58-.784-4.595-.448-6.271.071a80.846,80.846,0,0,0-12.11,5.768c-2.741,1.635-9.667,6.764-9.667,6.764a64.916,64.916,0,0,0-4.614-5.129c-1.387-1.263-2.308-2.066-2.308-2.066l-1.295,6.625a4.419,4.419,0,0,1,2.3.144,86.085,86.085,0,0,1,5.987,6.549,1.751,1.751,0,0,1-.289,2.353c-3.543,3.33-7.558,8.73-9.6,11.29-2.453,3.064-5.787,9.695-6.7,11.781-.243.541-.433-.146-1.795.068a29.268,29.268,0,0,0-3.4.855l3.247,4.275a9.066,9.066,0,0,1,3.221-1.228,3.262,3.262,0,0,1,3.056.8,3.4,3.4,0,0,1,1.009,2.772,4.516,4.516,0,0,1-1.655,2.779c-1.088.923-1.06.934-1.279,2.219-.084.541.355,1.82,1.315,1.552,1.757.094.972-2.275.972-2.275s-.147-.287.144-1.427,1.8-1.141,2.379-2.49a8.25,8.25,0,0,0,.279-4.537c-.3-1.071-1.5-1.445-2.227-1.943a1.115,1.115,0,0,1-.431-1.282,67.421,67.421,0,0,1,4.689-8.474c3.456-5.556,9.065-10.574,11.532-12.96,8.864-8.578,21.244-13.448,24.995-14.632a80.852,80.852,0,0,1,20.073-3.321V34.7a6.466,6.466,0,0,1-1.944.994M111.05,42.82a6.628,6.628,0,0,1-.086-1.643c.218-.711,1.541-.667,1.541-.667l.031,2.31ZM84.144,56.238A65.877,65.877,0,0,0,71.83,64.391s-2.4-1.284-1.088-2.359c1.293-1.066,5.507-3.834,8.37-5.757a54.872,54.872,0,0,1,9.808-4.987,7.538,7.538,0,0,1,3.25-.5A3.225,3.225,0,0,1,93.7,52s-5.856,2.386-9.559,4.239" transform="translate(-1055.536 14.524)" fill="#18161d"/>
    <path id="Path_3469" data-name="Path 3469" d="M97.351,213.642a97.357,97.357,0,1,1,97.364-97.357,97.463,97.463,0,0,1-97.364,97.357m0-193.013a95.656,95.656,0,1,0,95.662,95.656A95.757,95.757,0,0,0,97.351,20.629" transform="translate(-1034 22)" fill="#82123c"/>
    <path id="Path_3470" data-name="Path 3470" d="M177.984,208.855l-.2-.332a60.154,60.154,0,0,1,7.1-3.694l.139.363a59.784,59.784,0,0,0-7.039,3.663" transform="translate(-1118.263 -66.111)" fill="#121416"/>
    <path id="Path_3471" data-name="Path 3471" d="M151.612,213.256a49.693,49.693,0,0,1-1.7-4.878h.541c.021.287.874,2.63,1.668,4.684Z" transform="translate(-1105.052 -67.793)" fill="#121416"/>
    <path id="Path_3472" data-name="Path 3472" d="M176.344,207.37l-.541,0a18.34,18.34,0,0,1,.157-3.305l.487.237c-.05.18-.094,1.71-.1,3.072" transform="translate(-1117.325 -65.747)" fill="#121416"/>
    <path id="Path_3473" data-name="Path 3473" d="M158.15,209.466a49.7,49.7,0,0,1-1.7-4.878h.541c.021.288.874,2.63,1.668,4.684Z" transform="translate(-1108.151 -65.996)" fill="#121416"/>
    <path id="Path_3474" data-name="Path 3474" d="M165.132,206.106c-.334-.933-1.426-4-1.426-4.391h.541c.018.26.732,2.363,1.395,4.207Z" transform="translate(-1111.591 -64.635)" fill="#121416"/>
    <path id="Path_3475" data-name="Path 3475" d="M132.474,201.123s-1.044.571-1.587.916-1.714.96-1.714.96a2.951,2.951,0,0,0,.061,1.311c.211.336,1.035.611,1.035,1.09s-.544,4.675-.823,5.9c-.108.48.069.688.2,1.1s.278.2.685.755a6.078,6.078,0,0,1,.62,2.535,3.9,3.9,0,0,0,2.393,2.747c1.1.292,2.343.089,4.4-.823a8.668,8.668,0,0,1,5.423-.414c1.782.414,2.539,1.3,4.805.827,1.253-.277,3.22-1.51,4.8-1.717s1.785.208,1.785.208a17.439,17.439,0,0,0,1.238-3.982,29.967,29.967,0,0,0,.341-3.29s-2.47-5.549-4.359-5.191c-1.692.324-5.04,2.51-7.855,4.224a33.033,33.033,0,0,0-4.938,3.575,5.471,5.471,0,0,1-4.345,1.279c-1.917-.287-2.151-.262-3.254-1.078a4.958,4.958,0,0,0-1.6-.89A4.9,4.9,0,0,1,130.2,210c.205-.27,1.85-1.541,2.523-2.082.9-.718,1.526-1.166,1.526-1.166a16.634,16.634,0,0,0-.63-1.618,4.131,4.131,0,0,1-.556-1.505c-.348-1.3-.589-2.506-.589-2.506" transform="translate(-1095.2 -64.354)" fill="#87153b"/>
    <path id="Path_3476" data-name="Path 3476" d="M220.246,199.94s-2.413-.011-4.107,0c-1.925.013-1.511-.793-4.12-.032a13.253,13.253,0,0,1-4.206.865c-2.605.273-2.271-.044-4.325-.252s-1.925-.826-4.024-.824a9.433,9.433,0,0,0-3.406.41s.175-1.92,1.341-2.4,1.035-.96,3.642-.96a18.809,18.809,0,0,0,4.325-.338c.749-.195,2.382-.091,2.055-2.335-.34-2.436-2.129-10.916-2.257-13.178-.11-1.593-.9-11.8-.9-11.8s.337-2.2.408-2.816.693-2.676.693-2.676,1.3.07,1.517.615c.2.551,1.174.684.825,1.506-.5,1.163-.559,6.2-.145,9.531.356,2.8.812,6.362,1.171,8.594.417,2.608,1.779,9.126,2.678,10.36.5.738.89.345,1.367.072s1.048-5.343,1.3-7.48a79.447,79.447,0,0,0-.17-8.04,26.382,26.382,0,0,0-3.53-12.138c-.652-1.083,0,.072.062-.618s.074-1.165.074-1.165a12.73,12.73,0,0,1,1.372.205,1.99,1.99,0,0,1,.69.206,17.169,17.169,0,0,1,2.807,5.487,31.676,31.676,0,0,1,1.721,10.773c-.122,3.642-.413,12.288-.413,12.288a2.9,2.9,0,0,0,1.985.958c1.376.14,5.039-.065,7.575.347l-5.338,5.34Z" transform="translate(-1126.925 -46.57)" fill="#87153b"/>
    <path id="Path_3477" data-name="Path 3477" d="M168.96,220.15l-.331-.2a8.626,8.626,0,0,0,.966-2.249,54.353,54.353,0,0,0,.623-6.288,34.488,34.488,0,0,1,.454-4.248l.383.063a34.907,34.907,0,0,0-.449,4.185,53.86,53.86,0,0,1-.63,6.362,8.834,8.834,0,0,1-1.016,2.377" transform="translate(-1113.924 -67.217)" fill="#fff"/>
    <path id="Path_3478" data-name="Path 3478" d="M125.834,232.227a3.963,3.963,0,0,1,4.418-.213c2.391,1.428,3.992.714,6.152-.173a7.843,7.843,0,0,1,6.385.1,5.592,5.592,0,0,0,4.726-.038,9.353,9.353,0,0,1,8.3-.521c4.59,1.717,4.4.829,5.612.636a20.476,20.476,0,0,1,9.085.213c4.128,1.158,9.76-1.1,9.76-1.1s4.168-.539,6.906.848c0,0-15.678,14-30.837,20.31,0,0-26-14.4-30.5-20.059" transform="translate(-1093.641 -78.357)" fill="#fff"/>
    <path id="Path_3479" data-name="Path 3479" d="M130.42,235.6s3.968,1.432,5.886.888c1.18-.333,2.308-1.638,4.575-1.638s3.188,1.165,6.208,1.37,3.928-1.176,4.887-1.451a6.356,6.356,0,0,1,4.8-.044c1.991.655,3.259,1.495,4.7,1.495a23.37,23.37,0,0,0,5.231-1.248,7.846,7.846,0,0,1,3.792.047,20.9,20.9,0,0,0,4.373.92c2.519.1,7.013-1.6,8.185-1.612a14.075,14.075,0,0,1,3.825.928l-.6.6a8.374,8.374,0,0,0-3.227-.9c-1.988,0-4.234,1.615-7.195,1.8-2.439.15-5.13-1.524-7.912-1.258-1.169.113-4.534,1.617-6.111,1.617s-6.043-2.247-7.192-2.247c-2.341,0-3.775,1.888-6.291,2.155-2.267.249-5.3-1.525-7.732-1.434-1.8.065-2.812,1.48-3.6,1.709a9.479,9.479,0,0,1-5.121-.364Z" transform="translate(-1095.815 -80.072)" fill="#059ad6"/>
    <path id="Path_3480" data-name="Path 3480" d="M139.729,241.223c1.176-.328,3.3-2.087,5.564-2.087s3.188,1.166,6.209,1.37,3.928-1.174,4.887-1.454a6.41,6.41,0,0,1,4.8-.036c1.991.649,3.26,1.491,4.7,1.491a23.82,23.82,0,0,0,5.231-1.241,7.734,7.734,0,0,1,3.792.042,32.111,32.111,0,0,0,4.373.918c3.584.37,7.013-2.421,9.616-1.43.51.2.272.717-.267.717-1.993,0-5.4,1.353-8.36,1.533-2.438.146-5.13-1.533-7.912-1.26-1.169.114-4.534,1.618-6.111,1.618s-6.043-2.248-7.192-2.248c-2.341,0-3.776,1.891-6.291,2.157-2.267.245-5.3-1.527-7.732-1.434-1.8.066-3.944,1.7-4.671,2.066Z" transform="translate(-1100.227 -82.103)" fill="#059ad6"/>
    <path id="Path_3481" data-name="Path 3481" d="M144,245.072c1.183-.334,1.063-1.007,3.318-1.188,3.151-.252,3.188,1.165,6.209,1.37s3.928-1.179,4.887-1.453a6.392,6.392,0,0,1,4.8-.042c1.991.656,3.26,1.495,4.7,1.495a23.815,23.815,0,0,0,5.231-1.243,7.767,7.767,0,0,1,3.792.044,20.887,20.887,0,0,0,4.373.914c2.519.1,6.556-1.683,7.728-1.694l-.987.9c-1.988,0-3.157,1.324-6.114,1.62-2.694.264-4.767-1.533-7.549-1.26-1.169.11-4.534,1.62-6.111,1.62s-6.043-2.254-7.192-2.254c-2.341,0-3.775,1.895-6.291,2.159-2.267.245-5.338-1.884-7.732-1.436-1.436.27-1.734.856-2.516,1.076Z" transform="translate(-1102.251 -84.333)" fill="#059ad6"/>
    <path id="Path_3482" data-name="Path 3482" d="M147.585,248.65c3.238-.9,4.62.875,7.64,1.076s3.928-1.174,4.887-1.45a6.385,6.385,0,0,1,4.8-.038c1.991.655,3.26,1.489,4.7,1.489a24.062,24.062,0,0,0,5.231-1.239,7.767,7.767,0,0,1,3.792.045,41.376,41.376,0,0,0,6,1.106l-.635.63c-2.52-.091-5.13-1.529-7.912-1.26-1.169.114-4.534,1.618-6.111,1.618s-6.043-2.248-7.192-2.248c-2.341,0-3.786,1.821-6.291,2.161-3.331.444-5.3-1.888-7.823-.994Z" transform="translate(-1103.95 -86.474)" fill="#059ad6"/>
    <path id="Path_3483" data-name="Path 3483" d="M154.763,253.2c2.264,0,.755.6,3.776.81s4.017-1.176,4.976-1.453a6.36,6.36,0,0,1,4.8-.034c1.991.648,3.26,1.487,4.7,1.487a23.694,23.694,0,0,0,5.232-1.244,7.917,7.917,0,0,1,3.792.04c1.226.277,1.262.366,3.021.664.544.086-.361.539-.361.539-2.062,0-2.428-.994-5.209-.719-1.169.112-4.534,1.618-6.11,1.618s-6.043-2.25-7.192-2.25c-2.341,0-3.776,1.888-6.291,2.155-2.267.25-2.608-.8-3.867-.8Z" transform="translate(-1107.352 -88.502)" fill="#059ad6"/>
    <path id="Path_3484" data-name="Path 3484" d="M163.824,258.335c2.966,0,3.32-.877,4.22-1.3.862-.4,1.894-.973,4.562-.1,1.991.649,3.26,1.491,4.7,1.491a23.8,23.8,0,0,0,5.231-1.244,10.054,10.054,0,0,1,4.3.078l-.811.628c-2.34-.812-6.78,1.438-8.357,1.438s-6.042-2.269-7.191-2.25c-2.6.047-2.515,1.578-5.346,1.846Z" transform="translate(-1111.647 -90.588)" fill="#059ad6"/>
    <path id="Path_3485" data-name="Path 3485" d="M168.859,262.2c1.571-.315,1.792-.914,2.741-1.209.719-.225.772-.349,3.438.529,1.986.649,3.256,1.489,4.7,1.489,1.432,0,4.224-1.675,5.217-1.239.17.074-.683.662-.683.662-1.711.131-2.653,1.3-4.533,1.3-1.987,0-6.074-2.337-7.241-2.112-2.217.427-1.617.581-2.562.989Z" transform="translate(-1114.033 -92.65)" fill="#059ad6"/>
    <path id="Path_3486" data-name="Path 3486" d="M173.811,265.217c.5-.137.41-.527,3.081.347,1.988.653,3.256,1.494,4.7,1.494l-.715.4c-1.578,0-4.629-1.842-6.208-1.751Z" transform="translate(-1116.38 -94.635)" fill="#059ad6"/>
    <path id="Path_3487" data-name="Path 3487" d="M124.509,231.4s3.381-1.214,4.682-.412c1.019.647,1.512,1.37,3,1.269,1.748-.123,3.221-1.353,5.63-1.584a12.321,12.321,0,0,1,4.047.484,6.718,6.718,0,0,0,5.293-.123,8.443,8.443,0,0,1,5.62-.905c2.674.478,4.4,1.478,5.982,1.478,1.713,0,5.727-1.068,8.272-.573a27.979,27.979,0,0,0,5.933.9c1.885-.093,5.206-1.212,7.319-1.48a17.148,17.148,0,0,1,5.644.632,6.578,6.578,0,0,1,1.3.482l-1.324.272s-.524-.093-1.438-.353a7.044,7.044,0,0,0-4.14-.454c-2.124.417-5.384,1.442-7.274,1.442a32.224,32.224,0,0,1-6.744-.81c-1.784-.41-6.1.692-7.643.626-2.287-.084-4.805-1.837-8.046-1.655-1.728.093-3.32,1.48-5.3,1.655-2.81.258-3.1-.347-4.811-.626s-2.884-.647-4.811.176a10.383,10.383,0,0,1-3.819,1.083,4.23,4.23,0,0,1-2.337-.807,5.144,5.144,0,0,0-2.471-.542,4.647,4.647,0,0,0-1.579.542Z" transform="translate(-1093.013 -78.026)" fill="#059ad6"/>
    <path id="Path_3488" data-name="Path 3488" d="M93.6,198.692a45.806,45.806,0,0,0,6.917,12.214,92.06,92.06,0,0,0,12.68,12.586c6.761,5.591,19.765,14.768,28.018,17.515,4.866,1.626,10.373,3.734,10.373,3.734a1.318,1.318,0,0,1,.621,1.573,10.039,10.039,0,0,1-1.518,1.994c-.612.821-.72,1.512-.332,1.99a1.582,1.582,0,0,0,2.123.55c1.59-.637,1.437-1.237,1.993-2.679a7.17,7.17,0,0,0,.42-2.825,2.9,2.9,0,0,1,1.673.085,13.587,13.587,0,0,0,3.4.55c1.37.205,2.328-.484,2.677.066s.686,1.3,1.6,1.471c1.165.207,2.17.083,2.725-.719a2.675,2.675,0,0,0-.209-3.295c-.686-.823-2.127-1.1-4.532-1.508s-3.9-.205-4.526-.618-1.032-.687-.965-1.233a3.03,3.03,0,0,1,.415-1.852,8.582,8.582,0,0,1,1.231-1.65,1.3,1.3,0,0,0-.337-1.92,2.34,2.34,0,0,0-2.953.687,4.959,4.959,0,0,0-.892,2.883,7.279,7.279,0,0,1-.137,1.852c-.272,1.093-1.148.956-3.154.34a80.788,80.788,0,0,1-19.15-8.511c-10.457-6.09-21.552-13.986-29.723-22.823-3.613-3.893-8.429-10.459-8.429-10.459" transform="translate(-1078.363 -63.202)" fill="#fff"/>
    <path id="Path_3489" data-name="Path 3489" d="M151.256,251.23a1.988,1.988,0,0,1-1.608-.9c-.3-.368-.661-1.193.326-2.516.238-.315.483-.59.709-.844a3.539,3.539,0,0,0,.744-1.026c.116-.346.084-.644-.426-1.057-.621-.236-5.767-2.192-10.293-3.7-8.453-2.814-21.47-12.062-28.157-17.593A92.734,92.734,0,0,1,99.818,210.95,46.681,46.681,0,0,1,92.824,198.6l.757-.4c.047.066,4.843,6.591,8.4,10.421,9.092,9.833,21.128,17.8,29.624,22.743a80.511,80.511,0,0,0,19.06,8.472,8.25,8.25,0,0,0,2.007.453c.371,0,.507-.109.6-.484a2.156,2.156,0,0,0,.087-.722c.005-.222.013-.541.037-1.047a5.252,5.252,0,0,1,.9-2.982,2.542,2.542,0,0,1,2.32-1.255,2.42,2.42,0,0,1,1.3.328,1.909,1.909,0,0,1,.822,1.369,1.481,1.481,0,0,1-.419,1.219,5.868,5.868,0,0,0-.9,1.161l-.277.421a1.787,1.787,0,0,0-.322,1.172,3.777,3.777,0,0,1-.023.5c-.031.245.128.386.774.814a4.458,4.458,0,0,0,1.608.252,25.175,25.175,0,0,1,2.752.3c2.539.433,4.013.723,4.792,1.657a3.1,3.1,0,0,1,.234,3.816c-.6.865-1.646,1.168-3.158.9a2.6,2.6,0,0,1-1.764-1.46l-.126-.206a2.3,2.3,0,0,0-.625.052,5.186,5.186,0,0,1-1.751.079c-.458-.07-.9-.108-1.307-.144a6.156,6.156,0,0,1-2.218-.448,2.171,2.171,0,0,0-1.033-.107,7.627,7.627,0,0,1-.46,2.614c-.11.285-.19.534-.262.756a2.782,2.782,0,0,1-1.975,2.172,2.834,2.834,0,0,1-1.016.214m-56.249-49.7a41.644,41.644,0,0,0,5.473,8.861A91.9,91.9,0,0,0,113.1,222.923c6.383,5.279,19.6,14.682,27.878,17.439,4.82,1.61,10.336,3.72,10.39,3.741l.112.063a1.737,1.737,0,0,1,.765,2.053,4.03,4.03,0,0,1-.92,1.33c-.211.237-.441.493-.662.787-.272.364-.68,1.04-.341,1.457a1.189,1.189,0,0,0,1.629.419,1.974,1.974,0,0,0,1.469-1.634c.076-.236.161-.5.277-.8a6.8,6.8,0,0,0,.392-2.632l-.032-.368.358-.089a4.126,4.126,0,0,1,.9-.1,2.393,2.393,0,0,1,1.073.22,5.637,5.637,0,0,0,1.9.359c.428.037.885.077,1.362.15a4.374,4.374,0,0,0,1.471-.076c.774-.135,1.241-.079,1.506.337l.136.223c.292.486.568.944,1.176,1.055,1.134.2,1.9.031,2.29-.539a2.255,2.255,0,0,0-.185-2.77c-.583-.7-2-.972-4.272-1.359a24.619,24.619,0,0,0-2.663-.289,4.382,4.382,0,0,1-2.028-.393c-.647-.429-1.257-.834-1.156-1.648a2.913,2.913,0,0,0,.016-.386,2.634,2.634,0,0,1,.466-1.652l.274-.416a6.718,6.718,0,0,1,1.012-1.3.623.623,0,0,0,.168-.519,1.03,1.03,0,0,0-.438-.734,1.6,1.6,0,0,0-.824-.184,1.749,1.749,0,0,0-1.513.722,4.612,4.612,0,0,0-.837,2.691c-.023.5-.031.808-.036,1.026a2.929,2.929,0,0,1-.115.919,1.357,1.357,0,0,1-1.438,1.134,8.489,8.489,0,0,1-2.261-.492,81.268,81.268,0,0,1-19.242-8.552c-8.547-4.977-20.658-12.992-29.822-22.9-2.088-2.25-4.6-5.413-6.336-7.679" transform="translate(-1077.995 -62.969)" fill="#121416"/>
    <path id="Path_3490" data-name="Path 3490" d="M208.446,198.692a46.048,46.048,0,0,1-6.929,12.214,91.683,91.683,0,0,1-12.678,12.586c-6.75,5.591-19.767,14.768-28.021,17.515-4.863,1.626-10.369,3.734-10.369,3.734a1.313,1.313,0,0,0-.61,1.573,9.97,9.97,0,0,0,1.51,1.994c.618.821.723,1.512.342,1.99a1.6,1.6,0,0,1-2.133.55c-1.594-.637-1.436-1.237-1.987-2.679a7.114,7.114,0,0,1-.43-2.825,2.877,2.877,0,0,0-1.668.085,13.546,13.546,0,0,1-3.392.55c-1.382.205-2.325-.484-2.68.066s-.691,1.3-1.6,1.471c-1.153.207-2.167.083-2.72-.719a2.664,2.664,0,0,1,.208-3.295c.682-.823,2.125-1.1,4.531-1.508s3.911-.205,4.529-.618,1.027-.687.96-1.233a2.963,2.963,0,0,0-.4-1.852,8.854,8.854,0,0,0-1.242-1.65,1.3,1.3,0,0,1,.346-1.92,2.332,2.332,0,0,1,2.946.687,4.9,4.9,0,0,1,.891,2.883,6.589,6.589,0,0,0,.147,1.852c.269,1.093,1.145.956,3.157.34a80.91,80.91,0,0,0,19.144-8.511c10.461-6.09,21.547-13.986,29.725-22.823,3.61-3.893,8.431-10.459,8.431-10.459" transform="translate(-1097.798 -63.202)" fill="#fff"/>
    <path id="Path_3491" data-name="Path 3491" d="M150.025,251.23a2.814,2.814,0,0,1-1.015-.212,2.769,2.769,0,0,1-1.977-2.174c-.072-.223-.151-.472-.259-.755a7.59,7.59,0,0,1-.471-2.616,2.152,2.152,0,0,0-1.028.108,6.17,6.17,0,0,1-2.217.448c-.41.036-.847.073-1.305.143a5.251,5.251,0,0,1-1.756-.079,3.232,3.232,0,0,0-.517-.068l-.225.212a2.621,2.621,0,0,1-1.772,1.471c-1.508.27-2.56-.038-3.154-.9a3.093,3.093,0,0,1,.233-3.819c.773-.932,2.248-1.223,4.79-1.656a25.224,25.224,0,0,1,2.756-.3,4.435,4.435,0,0,0,1.607-.251c.643-.432.8-.573.77-.821a3.689,3.689,0,0,1-.019-.493,1.758,1.758,0,0,0-.317-1.172l-.261-.392a6.3,6.3,0,0,0-.927-1.19,1.469,1.469,0,0,1-.413-1.214,1.912,1.912,0,0,1,.827-1.373,2.389,2.389,0,0,1,1.295-.327,2.511,2.511,0,0,1,2.267,1.164,5.3,5.3,0,0,1,.946,3.074c.024.485.032.8.037,1.019a2.013,2.013,0,0,0,.093.732c.1.393.232.5.6.5a8.139,8.139,0,0,0,2.012-.454,80.68,80.68,0,0,0,19.053-8.472c8.484-4.939,20.511-12.894,29.625-22.743,3.553-3.831,8.352-10.356,8.4-10.421l.756.4a46.919,46.919,0,0,1-7,12.345,92.246,92.246,0,0,1-12.734,12.641c-6.414,5.314-19.733,14.788-28.16,17.593-4.519,1.511-9.66,3.464-10.288,3.7-.508.418-.538.713-.42,1.05a3.474,3.474,0,0,0,.741,1.032c.227.255.472.531.707.846.991,1.315.634,2.143.334,2.519a2.006,2.006,0,0,1-1.612.9m-4.069-6.643a4.092,4.092,0,0,1,.9.1l.358.089-.031.368a6.726,6.726,0,0,0,.4,2.634c.115.3.2.564.276.8a1.961,1.961,0,0,0,1.469,1.632,1.237,1.237,0,0,0,1.635-.419c.334-.419-.076-1.093-.351-1.458-.22-.3-.45-.552-.661-.79a3.985,3.985,0,0,1-.914-1.331,1.727,1.727,0,0,1,.753-2.047l.114-.064c.055-.021,5.571-2.13,10.387-3.741,8.317-2.767,21.517-12.165,27.883-17.438a91.5,91.5,0,0,0,12.623-12.532,41.79,41.79,0,0,0,5.475-8.852c-1.742,2.265-4.245,5.423-6.329,7.671-9.187,9.927-21.289,17.934-29.825,22.9a81.476,81.476,0,0,1-19.235,8.551,8.537,8.537,0,0,1-2.265.492,1.358,1.358,0,0,1-1.439-1.143,2.809,2.809,0,0,1-.123-.936c-.005-.216-.013-.523-.036-1a4.423,4.423,0,0,0-.807-2.639,1.76,1.76,0,0,0-1.541-.774,1.576,1.576,0,0,0-.814.181,1.042,1.042,0,0,0-.446.74.621.621,0,0,0,.164.515,7.105,7.105,0,0,1,1.037,1.325l.259.389a2.6,2.6,0,0,1,.463,1.662,2.782,2.782,0,0,0,.012.379c.1.809-.5,1.213-1.143,1.642a4.332,4.332,0,0,1-2.037.4,24.536,24.536,0,0,0-2.666.289c-2.271.387-3.693.66-4.27,1.358a2.247,2.247,0,0,0-.185,2.773c.392.567,1.15.742,2.286.538.61-.112.889-.575,1.184-1.065l.128-.211c.271-.421.736-.474,1.5-.339a4.455,4.455,0,0,0,1.479.076c.475-.072.931-.113,1.358-.149a5.638,5.638,0,0,0,1.9-.359,2.38,2.38,0,0,1,1.07-.22" transform="translate(-1097.406 -62.969)" fill="#121416"/>
    <path id="Path_3492" data-name="Path 3492" d="M136.109,219.383a8.175,8.175,0,0,1-3.851-.9l.167-.279a8.674,8.674,0,0,0,8.568-.562c1.6-.961,3.37-2.075,5.078-3.154,3.986-2.518,6.491-4.078,7.246-4.132a.761.761,0,0,1,.5.007c.7.211,1.9,1.245,3.663,4.97l-.294.138c-1.768-3.735-2.9-4.6-3.421-4.784a.468.468,0,0,0-.332-.028l-.077.019c-.647,0-3.933,2.076-7.111,4.083-1.71,1.079-3.476,2.2-5.084,3.158a9.739,9.739,0,0,1-5.05,1.465" transform="translate(-1096.686 -68.711)" fill="#fff"/>
    <path id="Path_3493" data-name="Path 3493" d="M157.69,161.561s-4.438-5.636-13.145-1.4c0,0-6.045,3.1-5.639,8.818,0,0-14.421-18.429-3.5-54.31l21.547,32.206Z" transform="translate(-1096.24 -23.377)" fill="#121416"/>
    <path id="Path_3494" data-name="Path 3494" d="M157.527,164.9s-5.052-6.181-13.759-1.8c0,0-6.045,3.2-5.639,9.113,0,0-14.077-18.586-3.159-55.669l21.654,32.48Z" transform="translate(-1096.004 -24.264)" fill="#fff"/>
    <path id="Path_3495" data-name="Path 3495" d="M138.247,172.524l-.548-.723c-.142-.187-14.035-19.122-3.2-55.909l.164-.555,22.017,33.024.954,16.782-.527-.642a10.267,10.267,0,0,0-7.494-3.273,13.24,13.24,0,0,0-5.934,1.539c-.054.028-5.878,3.191-5.491,8.852ZM134.853,116.6c-9.277,32.1.4,50.322,2.78,54.123.23-5.426,5.736-8.409,5.794-8.439a13.781,13.781,0,0,1,6.182-1.6A10.755,10.755,0,0,1,157,163.61l-.857-15.072Z" transform="translate(-1095.79 -23.695)" fill="#121416"/>
    <path id="Path_3496" data-name="Path 3496" d="M214.139,139.139s.665-2.079,4.034-2.079c.491,0,.993.073,1.482.1-.325-1.088-1.971-1.7-2.948-1.73a5.562,5.562,0,0,0-3.945.726c-.294.219-.4-1.409,3.083-2.2a8.476,8.476,0,0,1,2.789-.078c.431.041,1.4.438,1.671.132-1.479-1.856-2.607-3.026-5.1-3.114a5.166,5.166,0,0,0-2.217.229,5.448,5.448,0,0,0-3.447,2.045s-.244-.3.819-2.094a4.794,4.794,0,0,1,2.342-1.688,5.076,5.076,0,0,1,2.587-.249,7.483,7.483,0,0,0-3.845-1.016,5.6,5.6,0,0,0-4.059,1.959c-.377.408-.122-.134-1.349,1.626-.367.534.205-1.107.556-1.6a5.339,5.339,0,0,1,1.136-1.221c.359-.281,2.2-1.442,2.49-1.772-1.833-.868-5.945.429-6.477,2.028a4.254,4.254,0,0,1,.067-1.284c.473-2.3,1.045-2.449,1.045-2.449-.793.392-1.762.064-3.636,1.96-2.027,2.3-.975,3.086-1.973,3.038a4.81,4.81,0,0,0-3.571.958,8.723,8.723,0,0,0-3.073,4.492c-.268,1.038,2.2-3.145,5.7-2-1.409.087-5.222.8-6.282,8.132a6.771,6.771,0,0,1,4.593-3.942c.359-.081-.158.207-1.617,1.826a8.741,8.741,0,0,0-2.134,7.727,5.581,5.581,0,0,1,4.479-4.657s-4.557,3.725-1.331,10.464l.671,1.021s-.315-5.542,1.991-7.581c1.728-1.535-1.107,3.279,3.272,9.129,0,0-1.734-6.54,1.5-9.439,1.245-1.113,1.152-1.774,2.709,3.01,1.43,4.443-.315,6.348-.315,6.348a10.5,10.5,0,0,0,3.257-8.462,5.463,5.463,0,0,1,4.408,2.6c1.557,2.587,1.386-3.121-1.2-4.389,0,0,2.589-.587,4.578,3.088a10.89,10.89,0,0,1,1.547,5.025c0-1.082.319-1.988.319-3.076a7.716,7.716,0,0,0-.616-3.292,8.9,8.9,0,0,0-1.97-2.629,8.592,8.592,0,0,0-2.155-1.349c-.606-.284-1.461-.211-1.967-.592a.819.819,0,0,1,.457-.408,3.473,3.473,0,0,1,2.831.1c2.586,1.038,4.4,5.7,4.4,5.7a6.834,6.834,0,0,0-5.588-9.065" transform="translate(-1125.012 -28.462)" fill="#0dab59"/>
    <path id="Path_3497" data-name="Path 3497" d="M49.593,227.882l1.952.76.982-1.854-1.726-.716.947-1.82-1.926-.764-.982,2.017,1.588.549Z" transform="translate(-1057.149 -74.954)" fill="#fff"/>
    <path id="Path_3498" data-name="Path 3498" d="M25.762,245.367l-1.979-.539-.819,2.083,1.648.349-.685,1.907,2.015.572.816-1.943-1.812-.542Z" transform="translate(-1044.884 -85.069)" fill="#fff"/>
    <path id="Path_3499" data-name="Path 3499" d="M60.437,248.337l-2.049-.362-.629,2.105,2.026.3Z" transform="translate(-1061.375 -86.56)" fill="#fff"/>
    <path id="Path_3500" data-name="Path 3500" d="M38.172,245.73a14.225,14.225,0,0,0,2.288-1.073,10.358,10.358,0,0,0,1.853-1.387q1.642-1.588,1.224-2.715a1.589,1.589,0,0,0-.962-.982,5.227,5.227,0,0,0-1.868-.242q-.858.016-1.6.069a4.7,4.7,0,0,0-1.313.264,2.583,2.583,0,0,0-.669.371,2.148,2.148,0,0,0-.519.56,1.8,1.8,0,0,0-.262.71,1.671,1.671,0,0,0,.107.831,2.608,2.608,0,0,0,.864,1.278,2.122,2.122,0,0,0,.663.294,5.541,5.541,0,0,0,.915.157,11.042,11.042,0,0,1-1.3,1.1.8.8,0,0,1-.845-.262,5.062,5.062,0,0,1-.87-1.139,14.85,14.85,0,0,1-.827-1.644c-.259-.6-.765-2.2-.987-2.811a2.867,2.867,0,0,1-.056-.654,1.782,1.782,0,0,1,.205-.763,1.747,1.747,0,0,1,.48-.549,3.564,3.564,0,0,1,.688-.4l.01-.17a6.016,6.016,0,0,1-1.071-.388,3.14,3.14,0,0,1-.77-.518,2.659,2.659,0,0,1-.531-.7c-.142-.264-.569-1.768-.669-2.135a4.2,4.2,0,0,1-.023-.425,1.842,1.842,0,0,1,.111-.67,1.017,1.017,0,0,1,.352-.458,2.129,2.129,0,0,1,.633-.3c.078-.023.184-.057.318-.1s.3-.1.512-.17l.745-.245q.434-.144,1.032-.328,1.171-.367,2.032-.652t1.44-.508l-.012-.067q-1.506-1.028-1.972-.948a4.773,4.773,0,0,0-.751.253,6.1,6.1,0,0,1-.671.238,18.832,18.832,0,0,0-1.673-1.917,3.041,3.041,0,0,0-1.357-.643,6.99,6.99,0,0,0-2.353-.307,1.152,1.152,0,0,0-.844.83,2.43,2.43,0,0,0-.144,1.312q.174,1.011,2.5,2.09a13.8,13.8,0,0,0-1.347.533,4.769,4.769,0,0,0-.993.6,1.759,1.759,0,0,0-.52.795,2.729,2.729,0,0,0-.032,1.327c.016.076.035.144.053.215h0c.011.039.025.09.039.141l.013.047a12.516,12.516,0,0,0,.522,1.594,2.989,2.989,0,0,0,.577.76,2.954,2.954,0,0,0,.795.532,5.5,5.5,0,0,0,1.068.354l.011.038a5.768,5.768,0,0,0-.657.542,2.962,2.962,0,0,0-.506.634,2.057,2.057,0,0,0-.262.735,1.988,1.988,0,0,0,.06.837c.013.048.038.085.053.132l-.014,0c.206.557.6,1.9.849,2.447a12.116,12.116,0,0,0,.833,1.527,7.353,7.353,0,0,0,1.015,1.258,4.356,4.356,0,0,0,1.218.858,3.638,3.638,0,0,0,1.456.33,4.6,4.6,0,0,0,1.729-.326m1.1-5.087a.785.785,0,0,1,.474-.45.5.5,0,0,1,.251-.021.958.958,0,0,1,.279.091,1.044,1.044,0,0,1,.251.173.594.594,0,0,1,.157.23,1.959,1.959,0,0,1-.314,1.557,1.5,1.5,0,0,1-1.061-.8,1.056,1.056,0,0,1-.037-.777m-6.256-13.591q.559-.1,2.071,1.767a8.194,8.194,0,0,1-1.783.622q-.4.069-.479-.4-.328-1.9.191-1.992" transform="translate(-1047.869 -75.938)" fill="#fff"/>
    <path id="Path_3501" data-name="Path 3501" d="M71.268,275.312h-2.1l-.19,2.146,2.058-.008Z" transform="translate(-1066.695 -99.517)" fill="#fff"/>
    <path id="Path_3502" data-name="Path 3502" d="M80.947,294.662l-.077-2.143-2.068.332.1,2.193Z" transform="translate(-1071.349 -107.673)" fill="#fff"/>
    <path id="Path_3503" data-name="Path 3503" d="M75.461,297.521l.14,1.966,2.048-.315-.059-2.123-1.863.282-.055-2.055-2.042.344.146,2.225Z" transform="translate(-1068.898 -108.981)" fill="#fff"/>
    <path id="Path_3504" data-name="Path 3504" d="M67.9,289.564a32.112,32.112,0,0,1,2.078-2.979,2.958,2.958,0,0,1,2.227-.9,9.822,9.822,0,0,1,.342-2.7,5.26,5.26,0,0,0-1.654.165,2.6,2.6,0,0,0-1.059.754,14.235,14.235,0,0,0-1.016,1.373q-.664.982-1.649,2.583a34.486,34.486,0,0,1-2.711,4.007,1.309,1.309,0,0,1-.59.414,1.088,1.088,0,0,1-.6,0,1.95,1.95,0,0,1-.624-.316c-.208-.152-1.969-1.54-2.252-1.786-.065-.095-.136-.193-.19-.283a2.765,2.765,0,0,1-.376-.928,1.835,1.835,0,0,1,.05-.881,3.011,3.011,0,0,1,.5-.925l-.209-.247q-1.442.739-2.191-.148-.783-.929.425-1.947l-.156-.31a3.738,3.738,0,0,1-4.007-1.548q-.757-.9.227-1.992l-.049-.1a6.347,6.347,0,0,1-.921.017,2.224,2.224,0,0,1-.706-.146,2.692,2.692,0,0,1-.823-.578c-.3-.282-1.2-1.885-1.514-2.282a10.177,10.177,0,0,1-.471-.915,2.7,2.7,0,0,1-.269-.933,5.381,5.381,0,0,0,1.611-.031,4.281,4.281,0,0,0,1.486-.554,6.4,6.4,0,0,0,2-1.754q.647-.941.279-1.553-.6-.995-3.13-1.174a6.889,6.889,0,0,0-4.042.744.943.943,0,0,0-.437.609,2.579,2.579,0,0,1-.664-.593c-.186-.234-.826-1.509-.974-1.769a3.475,3.475,0,0,1-.177-.582,1.667,1.667,0,0,1,.016-.778,1.375,1.375,0,0,1,.365-.6,3.35,3.35,0,0,1,.672-.5q.526-.311,1.468-.874t2.31-1.4q2.856-1.756,3.73-2.369-1.232-.353-1.587-.408a2.062,2.062,0,0,0-1.193.166,11.5,11.5,0,0,0-1.436,1q-.716.537-1.754,1.183t-2.405,1.48q-1.019.622-1.755,1.116a5.216,5.216,0,0,0-1.088.917,2.069,2.069,0,0,0-.322.514,1.61,1.61,0,0,0-.125.583,2.436,2.436,0,0,0,.093.711,4.982,4.982,0,0,0,.281.748h0l.013.022c.015.033.026.062.042.1a2.7,2.7,0,0,0,.275.45,16.577,16.577,0,0,0,1.477,2.3,8.375,8.375,0,0,0,1.906,1.548,6.762,6.762,0,0,0,.171,1.857,6.385,6.385,0,0,0,.759,1.788c.019.032.046.056.066.087.365.514,1.22,2.18,1.457,2.389a2.852,2.852,0,0,0,.753.495,2.2,2.2,0,0,0,.794.178,4.7,4.7,0,0,0,.974-.08l.026.031a2.251,2.251,0,0,0,.25,2.809,2.978,2.978,0,0,0,3.349,1.061l.026.031q-.855,1.374-.115,2.251.9,1.063,3.207.139l.017.02a7.7,7.7,0,0,0-.656,1.181,2.887,2.887,0,0,0-.242.937,2.016,2.016,0,0,0,.109.852,2.988,2.988,0,0,0,.578.969,3.51,3.51,0,0,0,.41.41l0,0c.018.016.048.039.073.059l.035.028c.376.288,1.265.842,1.5,1.036a5.436,5.436,0,0,0,.814.549,2.974,2.974,0,0,0,.843.314,2.353,2.353,0,0,0,.913-.006A5.207,5.207,0,0,0,65.5,292.9a29.675,29.675,0,0,0,2.4-3.34m-17.793-17.6a1,1,0,0,1,.944,0,2.024,2.024,0,0,1,.906.826,1.663,1.663,0,0,1,.2,1.231,1.424,1.424,0,0,1-.669.984q-.683.41-2.125-.943.218-1.785.739-2.1" transform="translate(-1054.173 -93.405)" fill="#fff"/>
    <path id="Path_3505" data-name="Path 3505" d="M93.828,313.077a13.032,13.032,0,0,0-1.079,1.777q-.742,1.39-1.475,2.788a38.475,38.475,0,0,1-2.829,4.436l.393.307a9.12,9.12,0,0,0,2.5-2.126,43.479,43.479,0,0,0,2.549-3.9q1.78-2.96,2.791-4.431a14.859,14.859,0,0,0-1.559.307,2.529,2.529,0,0,0-1.29.842" transform="translate(-1075.92 -116.872)" fill="#fff"/>
    <path id="Path_3506" data-name="Path 3506" d="M94.6,328.515a7.038,7.038,0,0,0-1.3.925,6.276,6.276,0,0,0-1.033,1.2,2.093,2.093,0,0,0-.318.745,1.822,1.822,0,0,0,0,.754,1.928,1.928,0,0,0,.306.7,2.147,2.147,0,0,0,.587.569,2.871,2.871,0,0,0,2.464.146l-.187.281q-1.4,2.1-5.073,2.608a10.522,10.522,0,0,1-2.792.065,4.755,4.755,0,0,1-2.043-.719,3.725,3.725,0,0,1-.388-.306,6.69,6.69,0,0,1-.481-.482l-.4.138a10.624,10.624,0,0,0,2.658,3.195,4.232,4.232,0,0,0,4.422.152,13.007,13.007,0,0,0,5.24-4.589,9.091,9.091,0,0,0,1.482-3.424q.3-1.617-.5-2.148a2.423,2.423,0,0,0-2.64.19M95.588,332a3.057,3.057,0,0,1-1.176-.425q-1.1-.733-.691-1.351a.608.608,0,0,1,.2-.181.8.8,0,0,1,.32-.1,1.21,1.21,0,0,1,.4.022,1.32,1.32,0,0,1,.45.2,1.457,1.457,0,0,1,.5,1.837" transform="translate(-1073.782 -124.497)" fill="#fff"/>
    <path id="Path_3507" data-name="Path 3507" d="M133.9,330.329l1.141,1.655,1.654-1.287L135.6,328.9l-1.5,1.115-1.077-1.746-1.643,1.261,1.229,1.877Z" transform="translate(-1096.271 -124.618)" fill="#fff"/>
    <path id="Path_3508" data-name="Path 3508" d="M140.951,363.313l-1.244-1.7-1.387,1.276-1.194-1.672-1.549,1.4,1.362,1.776,1.2-1.216,1.28,1.57Z" transform="translate(-1098.259 -140.233)" fill="#fff"/>
    <path id="Path_3509" data-name="Path 3509" d="M131.19,348.113a6.748,6.748,0,0,0,1.081.146,4.323,4.323,0,0,0,1.058-.071,2.185,2.185,0,0,0,.926-.418A5.307,5.307,0,0,0,136,344.884a6.732,6.732,0,0,0,.235-1.743,14.245,14.245,0,0,0-.145-2.133l-.065-.018a13.268,13.268,0,0,0-1.978,2.469,1.373,1.373,0,0,0,.237.994q.361.608.29.855a.394.394,0,0,1-.338.275,2.233,2.233,0,0,1-.677.012,7.03,7.03,0,0,1-.868-.156c-.3-.073-1.5-.377-1.836-.469a5.126,5.126,0,0,1-.607-.3,1.816,1.816,0,0,1-.518-.439,1.012,1.012,0,0,1-.213-.537,2.126,2.126,0,0,1,.066-.7c.021-.078.045-.187.075-.326s.068-.314.116-.527.106-.467.173-.765.149-.649.247-1.055q.286-1.191.483-2.078t.3-1.5l-.064-.024q-1.655.765-1.824,1.206a4.694,4.694,0,0,0-.168.774,6.177,6.177,0,0,1-.139.7,18.852,18.852,0,0,0-2.5.453,3.045,3.045,0,0,0-1.248.835,6.961,6.961,0,0,0-1.47,1.864,1.153,1.153,0,0,0,.28,1.15,2.438,2.438,0,0,0,1.053.8q.958.37,3.076-1.07a13.354,13.354,0,0,0-.232,1.428,4.763,4.763,0,0,0,0,1.159,1.764,1.764,0,0,0,.416.854,2.726,2.726,0,0,0,1.123.708c.151.053.292.093.427.127h0c.311.088,1.126.326,1.483.4m-2.986-5.807q-.146.378-.587.209-1.8-.7-1.612-1.186.2-.53,2.579-.873a8.184,8.184,0,0,1-.38,1.85" transform="translate(-1092.537 -128.626)" fill="#fff"/>
    <path id="Path_3510" data-name="Path 3510" d="M148.849,352.684q-.1.462.745,1.734a2.942,2.942,0,0,1,.655,2.157q-.329,1.531-2.7,2.857a6.228,6.228,0,0,1-4.316.936,3.454,3.454,0,0,1-.958-.358l-.254.345a6.838,6.838,0,0,0,3.065,2.054,4.107,4.107,0,0,0,3.735-1.378,8.478,8.478,0,0,0,2.456-4.484,9.266,9.266,0,0,0-1.127-6.7,25.569,25.569,0,0,0-1.3,2.841" transform="translate(-1101.314 -134.842)" fill="#fff"/>
    <path id="Path_3511" data-name="Path 3511" d="M168.169,339.913a2.523,2.523,0,0,0-.662,1.391,13.076,13.076,0,0,0,.005,2.079q.092,1.573.2,3.148a38.377,38.377,0,0,1-.1,5.26l.5.057a9.1,9.1,0,0,0,1.024-3.117,43.3,43.3,0,0,0,.142-4.658q-.025-3.454.072-5.237a14.845,14.845,0,0,0-1.17,1.075" transform="translate(-1113.374 -129.626)" fill="#fff"/>
    <path id="Path_3512" data-name="Path 3512" d="M179.379,344.592,178,347.783q1.941.99,2.8,1.53,1.831,1.151,1.818,1.947-.018,1.079-4.864,1c-.422-.007-.855-.032-1.295-.075l-.635,3.392a14.112,14.112,0,0,0,1.955.167,7.978,7.978,0,0,0,4.539-.979,3.465,3.465,0,0,0,1.265-3.044,7.415,7.415,0,0,0-1.807-5.093,13.037,13.037,0,0,0-2.4-2.037" transform="translate(-1117.335 -132.354)" fill="#fff"/>
    <path id="Path_3513" data-name="Path 3513" d="M205.293,345.07a12.563,12.563,0,0,0-.854-1.762,10.124,10.124,0,0,0,.43-1.7q.112-.753.14-1.138c.006-.146,0-.366-.011-.66s-.04-.625-.079-1-.084-.77-.134-1.195-.1-.837-.16-1.239a7.514,7.514,0,0,1-.12-1.823,3.277,3.277,0,0,1,.558-1.169,13.589,13.589,0,0,1-1.123-.961,7.308,7.308,0,0,1-.818-.921,3.069,3.069,0,0,0-.941,2.231,10.861,10.861,0,0,0,.656,1.762,8.6,8.6,0,0,1,.287.825q.141.477.261.986t.214.992q.095.485.145.845a9.327,9.327,0,0,1,.13,1.508c-.009.129-.018.341-.026.638a4.05,4.05,0,0,1-.147.941,26.218,26.218,0,0,0-1.974-2.552q-1.08-1.232-2.171-2.305-.379-.369-.946-.87t-1.146-.93a11.864,11.864,0,0,0-1.076-.721,1.338,1.338,0,0,0-.738-.258c-.08.012-.187.14-.32.386a8.124,8.124,0,0,0-.393.846q-.191.477-.326.932a1.8,1.8,0,0,0-.106.655,3.531,3.531,0,0,0,1.622,2.035q1.259.915,1.527.876.387-.054.755-1.128a24.068,24.068,0,0,1,2.334,1.969,33.8,33.8,0,0,1,2.4,2.559,16.4,16.4,0,0,1-2.212,2.791l-1.043.147.419,2.981,2.058-.289a5.229,5.229,0,0,0,2.83-1.011,2.084,2.084,0,0,0,.459-1.877,6.772,6.772,0,0,0-.368-1.407m-1.208.96a4.833,4.833,0,0,1-.928.185l-.655.092a8.021,8.021,0,0,0,1.226-1.658l.17.235a2.99,2.99,0,0,1,.475.765c.026.187-.07.314-.287.381" transform="translate(-1126.187 -126.154)" fill="#fff"/>
    <path id="Path_3514" data-name="Path 3514" d="M204.784,369.448a1.525,1.525,0,0,1,.833-.567,2.249,2.249,0,0,1,1.145.289,1.912,1.912,0,0,0,.26-.963q-.1-.75-.8-.652-1.029.144-1.957,1.883a1.011,1.011,0,0,0-.145.621q.087.615,1.028.919a3.424,3.424,0,0,0-.9.6,1.281,1.281,0,0,0-.286.776l3.541-1.574a.542.542,0,0,0,.268-.419,3.11,3.11,0,0,0,.064-.513,4.64,4.64,0,0,1-1.016.333,3.029,3.029,0,0,1-2.039-.736" transform="translate(-1130.672 -143.232)" fill="#fff"/>
    <path id="Path_3515" data-name="Path 3515" d="M222.726,339.607q-1.3-3.2-1.874-4.891a14.865,14.865,0,0,0-.688,1.432,2.523,2.523,0,0,0-.1,1.538,13.112,13.112,0,0,0,.776,1.929q.668,1.427,1.348,2.851a38.53,38.53,0,0,1,1.856,4.924l.481-.131a9.1,9.1,0,0,0-.2-3.274,43.307,43.307,0,0,0-1.595-4.378" transform="translate(-1138.266 -127.673)" fill="#fff"/>
    <path id="Path_3516" data-name="Path 3516" d="M243.757,324.67l-2.052-.436-.216,1.856-2.01-.41-.206,2.062,2.21.389.092-1.677,1.988.3Z" transform="translate(-1147.407 -122.705)" fill="#fff"/>
    <path id="Path_3517" data-name="Path 3517" d="M268.363,344.743l.007,2.088,2.16.217-.019-2.081Z" transform="translate(-1161.195 -132.425)" fill="#fff"/>
    <path id="Path_3518" data-name="Path 3518" d="M255.241,330.289a14.509,14.509,0,0,0-1.649-1.349l-.058.035q.113,1.4.226,2.177a3.583,3.583,0,0,0,.211.944,1.38,1.38,0,0,0,.887.508q.69.154.821.373a.385.385,0,0,1-.032.42,2.278,2.278,0,0,1-.44.5,6.01,6.01,0,0,1-.7.529c-.261.171-1.239.809-1.543.994a5.315,5.315,0,0,1-.717.277,1.871,1.871,0,0,1-.674.077,1.022,1.022,0,0,1-.537-.214,2.14,2.14,0,0,1-.463-.527q-.066-.1-.186-.277c-.082-.116-.183-.264-.3-.445s-.268-.4-.44-.65-.371-.553-.6-.9q-.674-1.024-1.184-1.774t-.884-1.246l-.061.03a3.982,3.982,0,0,0-.37,2.155,4.706,4.706,0,0,0,.449.653,6.189,6.189,0,0,1,.414.58,18.826,18.826,0,0,0-1.385,2.134,3.051,3.051,0,0,0-.246,1.482,6.987,6.987,0,0,0,.351,2.348,1.153,1.153,0,0,0,1.029.583,2.425,2.425,0,0,0,1.3-.223q.925-.444,1.325-2.975a13.558,13.558,0,0,0,.882,1.149,4.746,4.746,0,0,0,.846.791,1.765,1.765,0,0,0,.908.282,2.732,2.732,0,0,0,1.285-.334c.1-.052.188-.1.275-.157v0c.317-.19,1.184-.705,1.493-.916a6.327,6.327,0,0,0,.841-.684,3.92,3.92,0,0,0,.633-.8,2.262,2.262,0,0,0,.306-.946,5.314,5.314,0,0,0-.906-3.249,6.7,6.7,0,0,0-1.105-1.36m-6.37,5.848q-1.739.838-1.968.363-.245-.511,1.13-2.476a8.157,8.157,0,0,1,1.087,1.543q.176.365-.25.57" transform="translate(-1150.487 -124.935)" fill="#fff"/>
    <path id="Path_3519" data-name="Path 3519" d="M266.254,308.341l2.236-.159-.372-1.631,2.017-.186-.362-2.1-2.1.084.293,1.892-2.064.049Z" transform="translate(-1160.026 -113.24)" fill="#fff"/>
    <path id="Path_3520" data-name="Path 3520" d="M275.348,313.993a14.211,14.211,0,0,0-1.786-1.787,10.347,10.347,0,0,0-1.934-1.271q-2.052-1-2.969-.228a1.585,1.585,0,0,0-.594,1.22,5.172,5.172,0,0,0,.406,1.858q.3.81.6,1.487a4.883,4.883,0,0,0,.7,1.14,2.6,2.6,0,0,0,.576.5,2.159,2.159,0,0,0,.7.3,1.786,1.786,0,0,0,.756,0,1.657,1.657,0,0,0,.745-.383,2.609,2.609,0,0,0,.908-1.246,2.142,2.142,0,0,0,.05-.724,5.5,5.5,0,0,0-.164-.913,11.068,11.068,0,0,1,1.481.851.761.761,0,0,1,.078.792,4.167,4.167,0,0,1-.658,1.114,12.993,12.993,0,0,1-1.227,1.34c-.486.468-1.809,1.51-2.414,2.018a4.009,4.009,0,0,1-.717.381,1.665,1.665,0,0,1-.77.113,1.377,1.377,0,0,1-.652-.259,3.427,3.427,0,0,1-.607-.58q-.394-.466-1.106-1.3T265,316.372q-2.205-2.526-2.955-3.286-.144,1.274-.139,1.632a2.054,2.054,0,0,0,.362,1.148,11.4,11.4,0,0,0,1.226,1.25q.648.617,1.457,1.533t1.858,2.126q.783.9,1.393,1.546a5.184,5.184,0,0,0,1.085.921,2.073,2.073,0,0,0,.56.233,1.634,1.634,0,0,0,.6.026,2.4,2.4,0,0,0,.686-.21,5.083,5.083,0,0,0,.8-.471,2.767,2.767,0,0,0,.334-.279,28.035,28.035,0,0,0,2.562-2.276,7.385,7.385,0,0,0,1.312-2.074,3.989,3.989,0,0,0,.265-2.09,4.246,4.246,0,0,0-1.05-2.108m-4.439.4a1.054,1.054,0,0,1-.719.3.781.781,0,0,1-.584-.292.491.491,0,0,1-.105-.23.945.945,0,0,1-.009-.293,1.064,1.064,0,0,1,.077-.3.6.6,0,0,1,.163-.226,1.965,1.965,0,0,1,1.571-.234,1.5,1.5,0,0,1-.393,1.27" transform="translate(-1158.134 -116.133)" fill="#fff"/>
    <path id="Path_3521" data-name="Path 3521" d="M294.936,301.113l.334-.334a3.573,3.573,0,0,0,.466-.562h0c.233-.286.632-.813.834-1.089a5.517,5.517,0,0,0,.51-.838,3,3,0,0,0,.274-.857,2.35,2.35,0,0,0-.048-.912,5.211,5.211,0,0,0-1.88-2.651,29.8,29.8,0,0,0-3.449-2.242,31.957,31.957,0,0,1-3.074-1.935,2.951,2.951,0,0,1-1.006-2.182,9.837,9.837,0,0,1-2.718-.215,5.271,5.271,0,0,0,.243,1.644,2.6,2.6,0,0,0,.8,1.023,14.111,14.111,0,0,0,1.42.95q1.012.618,2.658,1.526a34.378,34.378,0,0,1,4.129,2.52,1.3,1.3,0,0,1,.441.569,1.094,1.094,0,0,1,.027.6,1.931,1.931,0,0,1-.286.638c-.144.219-.708,1.1-.9,1.335a3.815,3.815,0,0,1-.692.568,1.783,1.783,0,0,1-.639.249,2,2,0,0,1-.682-.014,6.983,6.983,0,0,1-.84-.219l-.048.047.564,2.777a5.172,5.172,0,0,0,.921.329,9.893,9.893,0,0,0,1.294.242q.611.077,1.317.114,1.014,5.536-1.161,7.714a8.19,8.19,0,0,1-1.059.812l.115.4q.744-.173,1.245-.3a7.841,7.841,0,0,0,.778-.234,4.834,4.834,0,0,0,1.737-1.108,3.646,3.646,0,0,0,.82-3.475,12.017,12.017,0,0,0-2.446-4.886" transform="translate(-1169.165 -105.197)" fill="#fff"/>
    <path id="Path_3522" data-name="Path 3522" d="M303.954,287.21a43.736,43.736,0,0,0-4.017-2.362q-3.041-1.638-4.558-2.58a14.923,14.923,0,0,0,.381,1.543,2.528,2.528,0,0,0,.9,1.25,13.2,13.2,0,0,0,1.826.994q1.423.676,2.855,1.341a38.436,38.436,0,0,1,4.564,2.617l.289-.408a9.123,9.123,0,0,0-2.241-2.4" transform="translate(-1174 -102.814)" fill="#fff"/>
    <path id="Path_3523" data-name="Path 3523" d="M305.545,263.378l1.954-1.1-1-1.352,1.726-1.031-1.176-1.734-1.861.968,1.014,1.57-1.813.961Z" transform="translate(-1178.272 -91.386)" fill="#fff"/>
    <path id="Path_3524" data-name="Path 3524" d="M319.421,253.247q.547.193,1.229-.483a2.449,2.449,0,0,0,.13.933,2.229,2.229,0,0,0,.556.7l.147-3.383a1.821,1.821,0,0,0-.064-.753,1.517,1.517,0,0,0-.589-.48,2.2,2.2,0,0,1-.156,1.133,3.454,3.454,0,0,1-1.54,1.447,1.187,1.187,0,0,1-.163-1,2.3,2.3,0,0,1,.8-.862,2.381,2.381,0,0,0-.809-.671.615.615,0,0,0-.875.451,2.044,2.044,0,0,0,.239,1.558q.619,1.248,1.09,1.414" transform="translate(-1184.731 -87.41)" fill="#fff"/>
    <path id="Path_3525" data-name="Path 3525" d="M345.137,244.656l-1.456-1.506L342,244.42l1.294,1.379-1.653,1.222,1.441,1.46,1.754-1.39-1.25-1.13Z" transform="translate(-1195.927 -84.273)" fill="#fff"/>
    <path id="Path_3526" data-name="Path 3526" d="M328.274,229.927a4.309,4.309,0,0,0-.12-1.132,5.315,5.315,0,0,0-.431-1.145,12.86,12.86,0,0,0-.81-1.353,13.384,13.384,0,0,0,2.072-3.793q.1-.627-.768-1.224a5.1,5.1,0,0,0-2.173-.8,6.2,6.2,0,0,0-4.792,1.5q-2.095,1.632-2.306,3.006a1.318,1.318,0,0,0,.4,1.223,6.056,6.056,0,0,0,1.948,1.009,1.877,1.877,0,0,1,.007-.668,2.807,2.807,0,0,1,.233-.715l1.278,1.371a3.741,3.741,0,0,0,.854.712,2.2,2.2,0,0,0,.742.285,1.539,1.539,0,0,0,.958-.194,2.524,2.524,0,0,1,.071.871c-.024.333-.273,1.316-.332,1.7l.014.007a.914.914,0,0,0-.061.13,3.262,3.262,0,0,1-.406.968,1.69,1.69,0,0,1-1.251.791,3.536,3.536,0,0,1-.8,0l-.094.142a6.015,6.015,0,0,1,.731.874,3.109,3.109,0,0,1,.406.834,2.673,2.673,0,0,1,.111.867,11.691,11.691,0,0,1-.315,1.568,4.28,4.28,0,0,1-.381.839,1.49,1.49,0,0,1-.439.474,1.154,1.154,0,0,1-.558.183,2.879,2.879,0,0,1-.733-.051l-.105.135a4.354,4.354,0,0,1,.511.8,2.851,2.851,0,0,1,.245.708,2.685,2.685,0,0,1-.064,1.037c-.092.392-.43,1.54-.58,1.969a5.4,5.4,0,0,1-.422.759,1.859,1.859,0,0,1-.471.489,1.017,1.017,0,0,1-.551.177,2.153,2.153,0,0,1-.692-.112q-.116-.039-.32-.1c-.136-.038-.309-.088-.518-.15l-.753-.222q-.439-.129-1.036-.316-1.17-.364-2.042-.618t-1.474-.4l-.028.061q.656,1.7,1.084,1.9a4.827,4.827,0,0,0,.762.219,6.054,6.054,0,0,1,.688.184,18.8,18.8,0,0,0,.288,2.528,3.046,3.046,0,0,0,.752,1.3,6.982,6.982,0,0,0,1.763,1.59,1.151,1.151,0,0,0,1.166-.2,2.429,2.429,0,0,0,.864-1q.431-.93-.868-3.139a13.455,13.455,0,0,0,1.411.327,4.763,4.763,0,0,0,1.156.073,1.765,1.765,0,0,0,.88-.359,2.721,2.721,0,0,0,.78-1.074c.057-.134.1-.261.145-.383.123-.348.438-1.2.514-1.514a3.088,3.088,0,0,0,.088-.921,2.6,2.6,0,0,0-.211-.883,3.287,3.287,0,0,0-.608-.895l.013-.038a2.275,2.275,0,0,0,2.3-1.622c.011-.031.017-.061.026-.09l0,0a14.233,14.233,0,0,0,.428-1.784,3.006,3.006,0,0,0-.118-.946,2.973,2.973,0,0,0-.42-.86,5.51,5.51,0,0,0-.746-.842l.01-.039a5.829,5.829,0,0,0,.841-.139,2.945,2.945,0,0,0,.756-.295,2.04,2.04,0,0,0,.6-.5,2.014,2.014,0,0,0,.369-.754c.02-.076.032-.149.046-.223l0,0a10.16,10.16,0,0,0,.479-2.126m-9.684,16.182q-.81,1.752-1.289,1.531-.514-.238-.7-2.63a8.129,8.129,0,0,1,1.821.5q.368.17.169.6m5.046-19.195a.991.991,0,0,1-.652-.551,1.61,1.61,0,0,1-.214-1.1.978.978,0,0,1,.157-.4,1.218,1.218,0,0,1,.294-.31,1.239,1.239,0,0,1,.383-.187.98.98,0,0,1,.428-.03q.68.1.861,1.334-.7,1.327-1.256,1.241m.107-3.63a7.484,7.484,0,0,1,1.526-1.309,2.155,2.155,0,0,1,1.211-.51q.227.035.176.368a11.625,11.625,0,0,1-1.07,2.525,4.74,4.74,0,0,0-1.843-1.074" transform="translate(-1182.366 -73.502)" fill="#fff"/>
  </g>
</svg>
