<svg xmlns="http://www.w3.org/2000/svg" width="186.049" height="186.049" viewBox="0 0 186.049 186.049">
  <g id="menu-logo" transform="translate(-621.309 -197.229)">
    <g id="Group_1" data-name="Group 1" transform="translate(621.728 198.051)">
      <path id="Path_1" data-name="Path 1" d="M808.008,291.871c0,50.646-41.458,91.7-92.6,91.7s-92.6-41.058-92.6-91.7,41.458-91.7,92.6-91.7S808.008,241.226,808.008,291.871Z" transform="translate(-622.808 -200.169)" fill="#fff"/>
    </g>
    <g id="Group_4" data-name="Group 4" transform="translate(622.033 280.546)">
      <g id="Group_3" data-name="Group 3" transform="translate(0)">
        <g id="Group_2" data-name="Group 2">
          <path id="Path_2" data-name="Path 2" d="M625.132,496.274l2.269,4.611,1.517-5.393,2.128,5.47,1.747-5.547,2.053,5.4,1.745-5.245,2.053,5.318,1.673-5.242,1.9,5.47,1.67-5.47,2.055,5.319,1.747-5.395,2.2,5.395,1.824-5.47,1.822,5.621,1.673-5.621,1.672,5.393,2.621-4.767s-5.713,66.142,63.575,66.142c0,0,53.691-9.582,50.548-63.129l-.517-3.524,2.47,5.4,1.568-5.629,2.006,5.679,1.713-5.581L782.821,501l1.666-5.58,1.908,5.63,1.827-5.638L790.177,501l1.974-5.608,1.935,5.65,1.839-5.608,1.893,5.626,1.76-5.668,1.837,5.65,1.855-5.608,1.8,5.586,2.014-4.641s11.675,71.555-65.855,97.85c0,0-62.078,20.6-103.283-39.849,0,0-15-19.927-13.995-56.9Z" transform="translate(-623.899 -495.375)" fill="#891638"/>
        </g>
      </g>
    </g>
    <g id="Group_7" data-name="Group 7" transform="translate(657.208 232.91)">
      <g id="Group_6" data-name="Group 6" transform="translate(0 0)">
        <g id="Group_5" data-name="Group 5">
          <path id="Path_3" data-name="Path 3" d="M749.772,382.168a57.26,57.26,0,1,1,57.25,57.26A57.255,57.255,0,0,1,749.772,382.168Z" transform="translate(-749.772 -324.913)" fill="#f6e30f"/>
        </g>
      </g>
    </g>
    <g id="Group_10" data-name="Group 10" transform="translate(656.665 232.369)">
      <g id="Group_9" data-name="Group 9" transform="translate(0)">
        <g id="Group_8" data-name="Group 8">
          <path id="Path_4" data-name="Path 4" d="M805.622,438.574a57.8,57.8,0,1,1,57.813-57.8A57.865,57.865,0,0,1,805.622,438.574Zm0-114.515a56.715,56.715,0,1,0,56.726,56.713A56.774,56.774,0,0,0,805.622,324.06Z" transform="translate(-747.828 -322.976)" fill="#891638"/>
        </g>
      </g>
    </g>
    <g id="Group_43" data-name="Group 43" transform="translate(644.148 202.209)">
      <g id="Group_17" data-name="Group 17" transform="translate(55.412 0.869)">
        <g id="Group_13" data-name="Group 13">
          <g id="Group_12" data-name="Group 12">
            <g id="Group_11" data-name="Group 11">
              <path id="Path_5" data-name="Path 5" d="M901.325,220.267a2.133,2.133,0,1,1,2.126,2.11A2.117,2.117,0,0,1,901.325,220.267Z" transform="translate(-901.325 -218.159)" fill="#221e20"/>
            </g>
          </g>
        </g>
        <g id="Group_16" data-name="Group 16" transform="translate(2.126 2.108)">
          <g id="Group_15" data-name="Group 15">
            <g id="Group_14" data-name="Group 14">
              <path id="Path_6" data-name="Path 6" d="M908.934,225.7" transform="translate(-908.934 -225.701)" fill="#221e20"/>
            </g>
          </g>
        </g>
      </g>
      <g id="Group_24" data-name="Group 24" transform="translate(60.221 0)">
        <g id="Group_20" data-name="Group 20">
          <g id="Group_19" data-name="Group 19">
            <g id="Group_18" data-name="Group 18">
              <path id="Path_7" data-name="Path 7" d="M918.534,217.158a2.137,2.137,0,1,1,2.138,2.11A2.124,2.124,0,0,1,918.534,217.158Z" transform="translate(-918.534 -215.051)" fill="#221e20"/>
            </g>
          </g>
        </g>
        <g id="Group_23" data-name="Group 23" transform="translate(2.138 2.107)">
          <g id="Group_22" data-name="Group 22">
            <g id="Group_21" data-name="Group 21">
              <path id="Path_8" data-name="Path 8" d="M926.184,222.592" transform="translate(-926.184 -222.592)" fill="#221e20"/>
            </g>
          </g>
        </g>
      </g>
      <g id="Group_27" data-name="Group 27" transform="translate(74.661 2.936)">
        <g id="Group_26" data-name="Group 26">
          <g id="Group_25" data-name="Group 25">
            <path id="Path_9" data-name="Path 9" d="M970.209,227.657a2.137,2.137,0,1,1,2.139,2.114A2.121,2.121,0,0,1,970.209,227.657Z" transform="translate(-970.209 -225.556)" fill="#221e20"/>
          </g>
        </g>
      </g>
      <g id="Group_30" data-name="Group 30" transform="translate(79.557 2.891)">
        <g id="Group_29" data-name="Group 29">
          <g id="Group_28" data-name="Group 28">
            <path id="Path_10" data-name="Path 10" d="M987.728,227.51a2.135,2.135,0,1,1,2.147,2.1A2.127,2.127,0,0,1,987.728,227.51Z" transform="translate(-987.728 -225.398)" fill="#221e20"/>
          </g>
        </g>
      </g>
      <g id="Group_33" data-name="Group 33" transform="translate(123.468 42.814)">
        <g id="Group_32" data-name="Group 32">
          <g id="Group_31" data-name="Group 31">
            <path id="Path_11" data-name="Path 11" d="M1150.375,368.259l5.366.272a9.936,9.936,0,0,0,.935,2.687c.827,1.765,1.755,3.611,3.34,6.977a72.736,72.736,0,0,1,4.274,10.884,6.312,6.312,0,0,1-1.241,5.446c-1.931,2.179-6.621,3.267-6.621,3.267s-2.01-7.806-3.352-11.279a73.453,73.453,0,0,0-8.21-14.882l3.1-2.485s6.151,9.782,7.2,12.244a100.223,100.223,0,0,1,3.687,10.419s1.323.066,1.433-1.162c.16-1.986-2.348-8.091-4.407-12.453C1153.836,373.861,1150.375,368.259,1150.375,368.259Z" transform="translate(-1144.864 -368.259)" fill="#221e20"/>
          </g>
        </g>
      </g>
      <g id="Group_36" data-name="Group 36" transform="translate(73.574 7.565)">
        <g id="Group_35" data-name="Group 35">
          <g id="Group_34" data-name="Group 34">
            <path id="Path_12" data-name="Path 12" d="M1018.481,256.486a9.443,9.443,0,0,1-3.262-.717l-.173,1.488-7.7,8.68a91.611,91.611,0,0,0-16.659-10c-2.935-1.327-14.662-4.55-14.662-4.55l.585-9.262a20.79,20.79,0,0,1-2.425,1.16,23.424,23.424,0,0,1-4.518.662c-2.76.294-3.35,3.884-3.35,3.884v6.449a71.238,71.238,0,0,1,20.848,4.549c11.06,4.464,20.846,12.829,20.846,12.829l12.951-14.76A14.394,14.394,0,0,0,1018.481,256.486Zm-48.223-5.93c-.212,0-.192-1.256.085-1.9.611-1.436,1.752-.828,1.752-.828l.085,2.891A17.706,17.706,0,0,0,970.259,250.556Z" transform="translate(-966.32 -242.122)" fill="#221e20"/>
          </g>
        </g>
      </g>
      <g id="Group_39" data-name="Group 39" transform="translate(109.951 32.987)">
        <g id="Group_38" data-name="Group 38">
          <g id="Group_37" data-name="Group 37">
            <path id="Path_13" data-name="Path 13" d="M1115.38,335.3c-.823-.528-3.008-1.454-4.136-1.978-1.644-.766-3.584.609-3.584.609s-3.666,3.508-3.931,4.43c-.235.856,2.51,3.366,2.861,3.707.335.337-.515,1.65-1.679,2.063a1.825,1.825,0,0,1-2.344-.943c-.583-.838-1.11-2.839-1.6-3.517a4.542,4.542,0,0,0-1.912-1.656,4.756,4.756,0,0,0-2.354.085s-.748.991.589,1.655a5.36,5.36,0,0,0,1.9.507c.679.144.5.261,1.1.957.763.883.2.815.9,2.584s1.38,3.062,3.651,3.266,4.493-2.252,6.184-3.68,7.535-6.946,7.535-6.946A9.471,9.471,0,0,1,1115.38,335.3Zm-5.63,4.044s-1.239-.34-1.025-1.088a1.369,1.369,0,0,1,1.286-.734,3.324,3.324,0,0,1,1.431.493Z" transform="translate(-1096.493 -333.093)" fill="#221e20"/>
          </g>
        </g>
      </g>
      <g id="Group_42" data-name="Group 42" transform="translate(0 2.948)">
        <g id="Group_41" data-name="Group 41">
          <g id="Group_40" data-name="Group 40">
            <path id="Path_14" data-name="Path 14" d="M769.322,226.55a36.487,36.487,0,0,0-5.939,1.5c-1.85.748-1.506,4.284-1.579,5.239s.316,3.22.831,3.382a42.028,42.028,0,0,0,4.615-.183l.062,1.972a74.444,74.444,0,0,0-7.528.939c-2.848.584-5.952,1.24-5.952,1.24a12.582,12.582,0,0,0-3.258-3.063c-1.51-.749-4.39-.428-5.992.068a77.3,77.3,0,0,0-11.571,5.511c-2.619,1.562-9.237,6.463-9.237,6.463a62.012,62.012,0,0,0-4.409-4.9c-1.325-1.207-2.205-1.973-2.205-1.973l-1.237,6.33a4.216,4.216,0,0,1,2.2.138,81.913,81.913,0,0,1,5.721,6.257,1.674,1.674,0,0,1-.276,2.249c-3.386,3.182-7.221,8.341-9.169,10.788-2.344,2.927-5.529,9.263-6.4,11.256-.232.517-.414-.139-1.715.066a27.823,27.823,0,0,0-3.25.817l3.1,4.084a8.677,8.677,0,0,1,3.078-1.173,3.117,3.117,0,0,1,2.92.766,3.25,3.25,0,0,1,.964,2.649,4.316,4.316,0,0,1-1.581,2.655c-1.04.882-1.013.893-1.222,2.12-.081.517.339,1.739,1.256,1.483,1.679.089.929-2.173.929-2.173s-.141-.274.137-1.363,1.718-1.09,2.273-2.379a7.884,7.884,0,0,0,.267-4.335c-.284-1.024-1.436-1.381-2.128-1.856a1.065,1.065,0,0,1-.412-1.225,64.438,64.438,0,0,1,4.48-8.1c3.3-5.308,8.661-10.1,11.019-12.383,8.469-8.2,20.3-12.848,23.882-13.981a77.231,77.231,0,0,1,19.18-3.173V225.6A6.178,6.178,0,0,1,769.322,226.55Zm-3.595,6.808a6.338,6.338,0,0,1-.083-1.57c.208-.68,1.472-.638,1.472-.638l.03,2.208Zm-25.71,12.82a62.91,62.91,0,0,0-11.765,7.791s-2.29-1.228-1.04-2.255c1.235-1.017,5.262-3.663,8-5.5a52.42,52.42,0,0,1,9.372-4.766,7.2,7.2,0,0,1,3.106-.478,3.085,3.085,0,0,1,1.463,1.159S743.556,244.408,740.018,246.179Z" transform="translate(-703.036 -225.6)" fill="#221e20"/>
          </g>
        </g>
      </g>
    </g>
    <g id="Group_46" data-name="Group 46" transform="translate(621.309 197.229)">
      <g id="Group_45" data-name="Group 45" transform="translate(0)">
        <g id="Group_44" data-name="Group 44">
          <path id="Path_15" data-name="Path 15" d="M714.327,383.278a93.025,93.025,0,1,1,93.031-93.024A93.126,93.126,0,0,1,714.327,383.278Zm0-184.423a91.4,91.4,0,1,0,91.4,91.4A91.5,91.5,0,0,0,714.327,198.855Z" transform="translate(-621.309 -197.229)" fill="#891638"/>
        </g>
      </g>
    </g>
    <g id="Group_151" data-name="Group 151" transform="translate(667.965 245.351)">
      <g id="Group_49" data-name="Group 49" transform="translate(42.702 45.319)">
        <g id="Group_48" data-name="Group 48">
          <g id="Group_47" data-name="Group 47">
            <path id="Path_16" data-name="Path 16" d="M941.265,535.45l-.192-.317a57.5,57.5,0,0,1,6.785-3.529l.133.346A57.081,57.081,0,0,0,941.265,535.45Z" transform="translate(-941.073 -531.604)" fill="#1d1c1a"/>
          </g>
        </g>
      </g>
      <g id="Group_62" data-name="Group 62" transform="translate(28.692 43.752)">
        <g id="Group_52" data-name="Group 52" transform="translate(0 3.352)">
          <g id="Group_51" data-name="Group 51">
            <g id="Group_50" data-name="Group 50">
              <path id="Path_17" data-name="Path 17" d="M892.566,542.655a47.477,47.477,0,0,1-1.628-4.662h.518c.02.275.836,2.512,1.593,4.475Z" transform="translate(-890.938 -537.993)" fill="#1d1c1a"/>
            </g>
          </g>
        </g>
        <g id="Group_55" data-name="Group 55" transform="translate(13.015 1.178)">
          <g id="Group_54" data-name="Group 54">
            <g id="Group_53" data-name="Group 53">
              <path id="Path_18" data-name="Path 18" d="M938.029,533.376l-.517,0a17.446,17.446,0,0,1,.151-3.158l.465.226C938.08,530.613,938.037,532.074,938.029,533.376Z" transform="translate(-937.512 -530.214)" fill="#1d1c1a"/>
            </g>
          </g>
        </g>
        <g id="Group_58" data-name="Group 58" transform="translate(3.286 1.447)">
          <g id="Group_57" data-name="Group 57">
            <g id="Group_56" data-name="Group 56">
              <path id="Path_19" data-name="Path 19" d="M904.325,535.836a47.5,47.5,0,0,1-1.627-4.661h.517c.02.275.836,2.513,1.593,4.476Z" transform="translate(-902.698 -531.175)" fill="#1d1c1a"/>
            </g>
          </g>
        </g>
        <g id="Group_61" data-name="Group 61" transform="translate(6.935)">
          <g id="Group_60" data-name="Group 60">
            <g id="Group_59" data-name="Group 59">
              <path id="Path_20" data-name="Path 20" d="M917.116,530.194c-.319-.891-1.363-3.825-1.363-4.2h.517c.018.249.7,2.258,1.333,4.02Z" transform="translate(-915.753 -525.998)" fill="#1d1c1a"/>
            </g>
          </g>
        </g>
      </g>
      <g id="Group_65" data-name="Group 65" transform="translate(18.245 43.456)">
        <g id="Group_64" data-name="Group 64">
          <g id="Group_63" data-name="Group 63">
            <path id="Path_21" data-name="Path 21" d="M856.755,524.939s-1,.545-1.517.875-1.637.917-1.637.917a2.822,2.822,0,0,0,.057,1.253c.2.321.99.584.99,1.041s-.521,4.467-.787,5.638c-.1.459.067.657.2,1.053s.266.192.655.721a5.809,5.809,0,0,1,.592,2.423,3.725,3.725,0,0,0,2.287,2.624c1.055.279,2.239.085,4.2-.786a8.283,8.283,0,0,1,5.182-.4c1.7.4,2.426,1.245,4.592.79,1.2-.264,3.076-1.443,4.586-1.64s1.706.2,1.706.2a16.669,16.669,0,0,0,1.183-3.8,28.633,28.633,0,0,0,.326-3.144s-2.36-5.3-4.165-4.96c-1.617.309-4.816,2.4-7.505,4.036a31.551,31.551,0,0,0-4.719,3.416,5.227,5.227,0,0,1-4.151,1.223c-1.832-.275-2.055-.251-3.109-1.031a4.73,4.73,0,0,0-1.529-.851,4.7,4.7,0,0,1,.4-1.113c.2-.258,1.768-1.472,2.412-1.989.856-.686,1.458-1.114,1.458-1.114a15.8,15.8,0,0,0-.6-1.546,3.947,3.947,0,0,1-.531-1.438C856.985,526.089,856.755,524.939,856.755,524.939Z" transform="translate(-853.553 -524.939)" fill="#8e1735"/>
          </g>
        </g>
      </g>
      <g id="Group_68" data-name="Group 68" transform="translate(51.887 24.595)">
        <g id="Group_67" data-name="Group 67">
          <g id="Group_66" data-name="Group 66">
            <path id="Path_22" data-name="Path 22" d="M997.053,492.166s-2.305-.01-3.924,0c-1.84.012-1.444-.758-3.937-.03a12.688,12.688,0,0,1-4.019.826c-2.489.261-2.17-.042-4.132-.241s-1.84-.79-3.846-.788a9,9,0,0,0-3.254.392s.168-1.835,1.282-2.3.989-.917,3.48-.917a17.938,17.938,0,0,0,4.132-.323c.715-.186,2.276-.087,1.964-2.231-.325-2.328-2.035-10.43-2.157-12.591-.1-1.522-.859-11.278-.859-11.278s.322-2.1.39-2.69.662-2.557.662-2.557,1.241.067,1.45.588c.189.526,1.121.654.788,1.439-.482,1.111-.534,5.924-.138,9.106.339,2.678.776,6.079,1.12,8.211.4,2.491,1.7,8.72,2.558,9.9.483.7.851.329,1.306.068s1-5.1,1.24-7.146a75.929,75.929,0,0,0-.163-7.682,25.212,25.212,0,0,0-3.373-11.6c-.623-1.034,0,.069.06-.59s.071-1.113.071-1.113a12.254,12.254,0,0,1,1.311.2,1.9,1.9,0,0,1,.659.2,16.4,16.4,0,0,1,2.682,5.243,30.258,30.258,0,0,1,1.644,10.294c-.116,3.479-.395,11.741-.395,11.741a2.767,2.767,0,0,0,1.9.915c1.314.133,4.815-.063,7.237.331l-5.1,5.1Z" transform="translate(-973.942 -457.444)" fill="#8e1735"/>
          </g>
        </g>
      </g>
      <g id="Group_71" data-name="Group 71" transform="translate(38.101 46.491)">
        <g id="Group_70" data-name="Group 70">
          <g id="Group_69" data-name="Group 69">
            <path id="Path_23" data-name="Path 23" d="M924.924,548.209l-.316-.194a8.238,8.238,0,0,0,.922-2.149,51.872,51.872,0,0,0,.6-6.008,32.957,32.957,0,0,1,.434-4.059l.366.061a33.35,33.35,0,0,0-.429,4,51.326,51.326,0,0,1-.6,6.079A8.459,8.459,0,0,1,924.924,548.209Z" transform="translate(-924.608 -535.799)" fill="#fff"/>
          </g>
        </g>
      </g>
      <g id="Group_74" data-name="Group 74" transform="translate(16.591 58.305)">
        <g id="Group_73" data-name="Group 73">
          <g id="Group_72" data-name="Group 72">
            <path id="Path_24" data-name="Path 24" d="M847.635,579.565a3.786,3.786,0,0,1,4.221-.2c2.285,1.364,3.815.682,5.879-.166a7.5,7.5,0,0,1,6.1.092,5.343,5.343,0,0,0,4.516-.037,8.936,8.936,0,0,1,7.925-.5c4.386,1.641,4.2.792,5.362.608a19.566,19.566,0,0,1,8.681.2c3.944,1.106,9.326-1.051,9.326-1.051s3.982-.515,6.6.811c0,0-14.981,13.372-29.465,19.406C876.78,598.732,851.939,584.968,847.635,579.565Z" transform="translate(-847.635 -578.076)" fill="#fff"/>
          </g>
        </g>
      </g>
      <g id="Group_120" data-name="Group 120" transform="translate(15.925 57.953)">
        <g id="Group_79" data-name="Group 79" transform="translate(2.971 2.173)">
          <g id="Group_78" data-name="Group 78">
            <g id="Group_77" data-name="Group 77">
              <g id="Group_76" data-name="Group 76">
                <g id="Group_75" data-name="Group 75">
                  <path id="Path_25" data-name="Path 25" d="M855.885,585.851s3.791,1.368,5.624.849c1.127-.319,2.205-1.566,4.372-1.566s3.046,1.113,5.932,1.31,3.753-1.123,4.669-1.386a6.07,6.07,0,0,1,4.583-.043c1.9.626,3.115,1.429,4.489,1.429a22.3,22.3,0,0,0,5-1.192,7.493,7.493,0,0,1,3.623.045,19.949,19.949,0,0,0,4.179.879c2.406.1,6.7-1.528,7.82-1.54a13.436,13.436,0,0,1,3.655.887l-.572.576a8,8,0,0,0-3.083-.859c-1.9,0-4.046,1.544-6.875,1.718-2.329.143-4.9-1.457-7.56-1.2-1.116.107-4.332,1.546-5.839,1.546s-5.773-2.147-6.872-2.147c-2.237,0-3.608,1.8-6.011,2.059-2.166.239-5.067-1.457-7.388-1.37-1.724.063-2.688,1.414-3.437,1.633a9.059,9.059,0,0,1-4.894-.347Z" transform="translate(-855.885 -584.59)" fill="#169ad7"/>
                </g>
              </g>
            </g>
          </g>
        </g>
        <g id="Group_84" data-name="Group 84" transform="translate(7.65 4.324)">
          <g id="Group_83" data-name="Group 83">
            <g id="Group_82" data-name="Group 82">
              <g id="Group_81" data-name="Group 81">
                <g id="Group_80" data-name="Group 80">
                  <path id="Path_26" data-name="Path 26" d="M872.627,594.823c1.123-.313,3.151-1.994,5.317-1.994s3.046,1.113,5.932,1.31,3.753-1.122,4.669-1.39a6.126,6.126,0,0,1,4.584-.034c1.9.62,3.115,1.425,4.489,1.425a22.743,22.743,0,0,0,5-1.186,7.4,7.4,0,0,1,3.623.04,30.7,30.7,0,0,0,4.179.877c3.425.353,6.7-2.314,9.188-1.366.488.188.26.685-.255.685-1.9,0-5.159,1.293-7.988,1.465-2.33.139-4.9-1.465-7.56-1.2-1.117.109-4.332,1.546-5.839,1.546s-5.773-2.148-6.872-2.148c-2.237,0-3.607,1.807-6.011,2.061-2.166.234-5.067-1.459-7.388-1.37-1.725.063-3.768,1.622-4.463,1.974Z" transform="translate(-872.627 -592.29)" fill="#169ad7"/>
                </g>
              </g>
            </g>
          </g>
        </g>
        <g id="Group_89" data-name="Group 89" transform="translate(9.796 6.688)">
          <g id="Group_88" data-name="Group 88">
            <g id="Group_87" data-name="Group 87">
              <g id="Group_86" data-name="Group 86">
                <g id="Group_85" data-name="Group 85">
                  <path id="Path_27" data-name="Path 27" d="M880.309,602.466c1.13-.319,1.015-.962,3.17-1.136,3.011-.24,3.046,1.113,5.932,1.31s3.753-1.128,4.67-1.388a6.108,6.108,0,0,1,4.584-.04c1.9.627,3.115,1.429,4.489,1.429a22.739,22.739,0,0,0,5-1.188,7.424,7.424,0,0,1,3.623.042,19.946,19.946,0,0,0,4.179.873c2.406.1,6.264-1.608,7.384-1.619l-.942.859c-1.9,0-3.017,1.265-5.843,1.548-2.574.252-4.555-1.465-7.213-1.2-1.117.105-4.332,1.548-5.839,1.548s-5.773-2.154-6.871-2.154c-2.237,0-3.608,1.811-6.011,2.063-2.166.234-5.1-1.8-7.388-1.372-1.372.259-1.657.818-2.4,1.028Z" transform="translate(-880.309 -600.749)" fill="#169ad7"/>
                </g>
              </g>
            </g>
          </g>
        </g>
        <g id="Group_94" data-name="Group 94" transform="translate(11.599 8.961)">
          <g id="Group_93" data-name="Group 93">
            <g id="Group_92" data-name="Group 92">
              <g id="Group_91" data-name="Group 91">
                <g id="Group_90" data-name="Group 90">
                  <path id="Path_28" data-name="Path 28" d="M886.759,609.7c3.094-.859,4.414.836,7.3,1.028s3.753-1.121,4.669-1.386a6.1,6.1,0,0,1,4.584-.036c1.9.626,3.115,1.422,4.489,1.422a22.989,22.989,0,0,0,5-1.184,7.42,7.42,0,0,1,3.623.042,39.574,39.574,0,0,0,5.731,1.057l-.607.6c-2.408-.087-4.9-1.461-7.56-1.2-1.117.109-4.332,1.545-5.839,1.545s-5.773-2.148-6.872-2.148c-2.236,0-3.618,1.74-6.011,2.065-3.184.425-5.067-1.8-7.475-.95Z" transform="translate(-886.759 -608.88)" fill="#169ad7"/>
                </g>
              </g>
            </g>
          </g>
        </g>
        <g id="Group_99" data-name="Group 99" transform="translate(15.206 11.109)">
          <g id="Group_98" data-name="Group 98">
            <g id="Group_97" data-name="Group 97">
              <g id="Group_96" data-name="Group 96">
                <g id="Group_95" data-name="Group 95">
                  <path id="Path_29" data-name="Path 29" d="M899.668,617.643c2.163,0,.722.572,3.608.774s3.838-1.123,4.754-1.388a6.078,6.078,0,0,1,4.584-.032c1.9.618,3.115,1.42,4.489,1.42a22.611,22.611,0,0,0,5-1.188,7.57,7.57,0,0,1,3.623.039c1.171.265,1.206.35,2.886.634.52.083-.345.515-.345.515-1.97,0-2.319-.95-4.977-.687-1.117.107-4.332,1.545-5.839,1.545s-5.773-2.15-6.872-2.15c-2.237,0-3.608,1.8-6.011,2.059-2.167.238-2.493-.768-3.7-.768Z" transform="translate(-899.668 -616.568)" fill="#169ad7"/>
                </g>
              </g>
            </g>
          </g>
        </g>
        <g id="Group_104" data-name="Group 104" transform="translate(19.761 13.324)">
          <g id="Group_103" data-name="Group 103">
            <g id="Group_102" data-name="Group 102">
              <g id="Group_101" data-name="Group 101">
                <g id="Group_100" data-name="Group 100">
                  <path id="Path_30" data-name="Path 30" d="M915.966,626.275A5.722,5.722,0,0,0,920,625.028c.823-.386,1.809-.929,4.359-.093,1.9.62,3.115,1.424,4.489,1.424a22.745,22.745,0,0,0,5-1.188,9.6,9.6,0,0,1,4.109.075l-.775.6c-2.236-.776-6.478,1.374-7.985,1.374s-5.773-2.168-6.872-2.149c-2.488.044-2.4,1.507-5.108,1.764Z" transform="translate(-915.966 -624.495)" fill="#169ad7"/>
                </g>
              </g>
            </g>
          </g>
        </g>
        <g id="Group_109" data-name="Group 109" transform="translate(22.291 15.507)">
          <g id="Group_108" data-name="Group 108">
            <g id="Group_107" data-name="Group 107">
              <g id="Group_106" data-name="Group 106">
                <g id="Group_105" data-name="Group 105">
                  <path id="Path_31" data-name="Path 31" d="M925.022,633.619c1.5-.3,1.712-.873,2.618-1.156.687-.214.738-.333,3.286.505,1.9.62,3.111,1.422,4.495,1.422,1.369,0,4.036-1.6,4.984-1.184.163.071-.653.633-.653.633-1.634.126-2.534,1.243-4.332,1.243-1.9,0-5.8-2.233-6.918-2.019a4.975,4.975,0,0,0-2.448.945Z" transform="translate(-925.022 -632.307)" fill="#169ad7"/>
                </g>
              </g>
            </g>
          </g>
        </g>
        <g id="Group_114" data-name="Group 114" transform="translate(24.78 17.615)">
          <g id="Group_113" data-name="Group 113">
            <g id="Group_112" data-name="Group 112">
              <g id="Group_111" data-name="Group 111">
                <g id="Group_110" data-name="Group 110">
                  <path id="Path_32" data-name="Path 32" d="M933.929,640.045c.477-.132.392-.5,2.944.331,1.9.624,3.111,1.428,4.488,1.428l-.684.384c-1.507,0-4.423-1.76-5.931-1.673Z" transform="translate(-933.929 -639.848)" fill="#169ad7"/>
                </g>
              </g>
            </g>
          </g>
        </g>
        <g id="Group_119" data-name="Group 119">
          <g id="Group_118" data-name="Group 118">
            <g id="Group_117" data-name="Group 117">
              <g id="Group_116" data-name="Group 116">
                <g id="Group_115" data-name="Group 115">
                  <path id="Path_33" data-name="Path 33" d="M845.253,578.179s3.231-1.16,4.474-.394c.974.618,1.445,1.31,2.871,1.212,1.67-.117,3.077-1.293,5.379-1.513a11.765,11.765,0,0,1,3.867.463,6.421,6.421,0,0,0,5.058-.117,8.071,8.071,0,0,1,5.369-.865c2.555.456,4.207,1.412,5.716,1.412,1.637,0,5.473-1.021,7.9-.548a26.755,26.755,0,0,0,5.668.861c1.8-.089,4.974-1.158,6.993-1.415a16.388,16.388,0,0,1,5.393.6,6.327,6.327,0,0,1,1.241.461l-1.265.261s-.5-.089-1.374-.337a6.737,6.737,0,0,0-3.956-.435c-2.03.4-5.145,1.378-6.951,1.378a30.8,30.8,0,0,1-6.443-.774c-1.7-.392-5.828.661-7.3.6-2.185-.081-4.592-1.756-7.688-1.582-1.651.089-3.172,1.414-5.064,1.582-2.686.246-2.958-.331-4.6-.6s-2.756-.618-4.6.168a9.926,9.926,0,0,1-3.649,1.034,4.04,4.04,0,0,1-2.233-.772,4.917,4.917,0,0,0-2.361-.517,4.436,4.436,0,0,0-1.508.517Z" transform="translate(-845.253 -576.815)" fill="#169ad7"/>
                </g>
              </g>
            </g>
          </g>
        </g>
      </g>
      <g id="Group_135" data-name="Group 135" transform="translate(0 41.987)">
        <g id="Group_127" data-name="Group 127">
          <g id="Group_123" data-name="Group 123" transform="translate(0.39 0.245)">
            <g id="Group_122" data-name="Group 122">
              <g id="Group_121" data-name="Group 121">
                <path id="Path_34" data-name="Path 34" d="M789.659,520.557a43.767,43.767,0,0,0,6.609,11.671,87.965,87.965,0,0,0,12.115,12.026c6.459,5.342,18.885,14.111,26.771,16.736,4.649,1.554,9.911,3.568,9.911,3.568a1.26,1.26,0,0,1,.593,1.5,9.6,9.6,0,0,1-1.45,1.905c-.585.784-.689,1.445-.318,1.9a1.511,1.511,0,0,0,2.028.525c1.52-.608,1.373-1.182,1.9-2.56a6.845,6.845,0,0,0,.4-2.7,2.764,2.764,0,0,1,1.6.081,12.983,12.983,0,0,0,3.244.525c1.309.2,2.224-.463,2.558.062s.656,1.247,1.529,1.407a2.424,2.424,0,0,0,2.6-.687,2.555,2.555,0,0,0-.2-3.148c-.656-.786-2.033-1.049-4.33-1.441s-3.726-.2-4.325-.59-.986-.657-.922-1.178a2.894,2.894,0,0,1,.4-1.77,8.231,8.231,0,0,1,1.176-1.576,1.239,1.239,0,0,0-.322-1.834,2.236,2.236,0,0,0-2.822.657,4.741,4.741,0,0,0-.853,2.754,6.977,6.977,0,0,1-.13,1.77c-.261,1.045-1.1.913-3.014.326a77.2,77.2,0,0,1-18.3-8.133c-9.991-5.82-20.593-13.364-28.4-21.808C794.261,526.831,789.659,520.557,789.659,520.557Z" transform="translate(-789.659 -520.557)" fill="#fff"/>
              </g>
            </g>
          </g>
          <g id="Group_126" data-name="Group 126">
            <g id="Group_125" data-name="Group 125">
              <g id="Group_124" data-name="Group 124">
                <path id="Path_35" data-name="Path 35" d="M844.1,570.35a1.9,1.9,0,0,1-1.537-.859c-.285-.352-.631-1.14.311-2.4.227-.3.462-.564.678-.807a3.388,3.388,0,0,0,.711-.981c.111-.33.08-.616-.407-1.01-.593-.226-5.511-2.094-9.835-3.54-8.077-2.688-20.514-11.525-26.9-16.809a88.547,88.547,0,0,1-12.168-12.078,44.577,44.577,0,0,1-6.682-11.8l.724-.385c.045.063,4.627,6.3,8.023,9.957,8.688,9.4,20.188,17,28.305,21.731a76.95,76.95,0,0,0,18.211,8.094,7.863,7.863,0,0,0,1.918.434c.355,0,.484-.1.574-.463a2.066,2.066,0,0,0,.083-.689c.005-.212.012-.517.035-1a5.026,5.026,0,0,1,.856-2.849,2.429,2.429,0,0,1,2.216-1.2,2.31,2.31,0,0,1,1.245.313,1.822,1.822,0,0,1,.785,1.308,1.414,1.414,0,0,1-.4,1.165,5.635,5.635,0,0,0-.859,1.109l-.264.4a1.707,1.707,0,0,0-.308,1.12,3.6,3.6,0,0,1-.023.476c-.029.234.122.369.74.778a4.254,4.254,0,0,0,1.536.242,23.92,23.92,0,0,1,2.63.286c2.426.413,3.834.691,4.578,1.583a2.966,2.966,0,0,1,.223,3.647c-.572.826-1.572,1.115-3.017.861a2.487,2.487,0,0,1-1.685-1.4l-.12-.2a2.216,2.216,0,0,0-.6.05,4.952,4.952,0,0,1-1.673.076c-.437-.067-.856-.1-1.249-.137a5.888,5.888,0,0,1-2.12-.428,2.07,2.07,0,0,0-.987-.1,7.3,7.3,0,0,1-.439,2.5c-.105.272-.182.51-.251.723a2.659,2.659,0,0,1-1.887,2.076A2.711,2.711,0,0,1,844.1,570.35Zm-53.746-47.487a39.787,39.787,0,0,0,5.229,8.467A87.849,87.849,0,0,0,807.642,543.3c6.1,5.043,18.724,14.027,26.638,16.662,4.6,1.539,9.875,3.554,9.928,3.574l.106.059a1.659,1.659,0,0,1,.731,1.961,3.84,3.84,0,0,1-.879,1.271c-.2.226-.421.472-.633.752-.26.348-.649.994-.326,1.391a1.136,1.136,0,0,0,1.557.4,1.886,1.886,0,0,0,1.4-1.562c.073-.225.155-.476.265-.762a6.5,6.5,0,0,0,.375-2.515l-.03-.352.342-.086a3.965,3.965,0,0,1,.859-.1,2.288,2.288,0,0,1,1.025.211,5.4,5.4,0,0,0,1.819.343c.409.035.845.074,1.3.143a4.159,4.159,0,0,0,1.406-.072c.74-.129,1.186-.076,1.439.322l.13.213c.279.464.543.9,1.124,1.008,1.083.194,1.812.029,2.188-.515a2.156,2.156,0,0,0-.177-2.647c-.557-.667-1.914-.928-4.082-1.3a23.557,23.557,0,0,0-2.545-.276,4.187,4.187,0,0,1-1.938-.376c-.618-.41-1.2-.8-1.1-1.575a2.808,2.808,0,0,0,.015-.369,2.514,2.514,0,0,1,.445-1.578l.262-.4a6.416,6.416,0,0,1,.967-1.243.594.594,0,0,0,.161-.5.985.985,0,0,0-.419-.7,1.529,1.529,0,0,0-.787-.175,1.672,1.672,0,0,0-1.446.689,4.408,4.408,0,0,0-.8,2.571c-.023.474-.029.772-.035.98a2.8,2.8,0,0,1-.11.879,1.3,1.3,0,0,1-1.374,1.083,8.1,8.1,0,0,1-2.16-.47,77.683,77.683,0,0,1-18.386-8.171c-8.166-4.756-19.739-12.414-28.5-21.884C794.409,528.051,792.014,525.028,790.351,522.863Z" transform="translate(-788.265 -519.681)" fill="#1d1c1a"/>
              </g>
            </g>
          </g>
        </g>
        <g id="Group_134" data-name="Group 134" transform="translate(20.584)">
          <g id="Group_130" data-name="Group 130" transform="translate(0.416 0.245)">
            <g id="Group_129" data-name="Group 129">
              <g id="Group_128" data-name="Group 128">
                <path id="Path_36" data-name="Path 36" d="M933.966,520.557a44,44,0,0,1-6.62,11.671,87.625,87.625,0,0,1-12.114,12.026c-6.45,5.342-18.887,14.111-26.775,16.736-4.646,1.554-9.908,3.568-9.908,3.568a1.254,1.254,0,0,0-.583,1.5,9.493,9.493,0,0,0,1.443,1.905c.59.784.691,1.445.326,1.9a1.524,1.524,0,0,1-2.038.525c-1.524-.608-1.372-1.182-1.9-2.56a6.79,6.79,0,0,1-.411-2.7,2.746,2.746,0,0,0-1.593.081,12.945,12.945,0,0,1-3.241.525c-1.32.2-2.221-.463-2.561.062s-.66,1.247-1.531,1.407a2.422,2.422,0,0,1-2.6-.687,2.546,2.546,0,0,1,.2-3.148c.652-.786,2.031-1.049,4.329-1.441s3.737-.2,4.328-.59.981-.657.917-1.178a2.837,2.837,0,0,0-.387-1.77,8.491,8.491,0,0,0-1.187-1.576,1.242,1.242,0,0,1,.33-1.834,2.228,2.228,0,0,1,2.815.657,4.683,4.683,0,0,1,.851,2.754,6.312,6.312,0,0,0,.141,1.77c.257,1.045,1.094.913,3.017.326a77.324,77.324,0,0,0,18.292-8.133c10-5.82,20.588-13.364,28.4-21.808C929.359,526.831,933.966,520.557,933.966,520.557Z" transform="translate(-863.411 -520.557)" fill="#fff"/>
              </g>
            </g>
          </g>
          <g id="Group_133" data-name="Group 133">
            <g id="Group_132" data-name="Group 132">
              <g id="Group_131" data-name="Group 131">
                <path id="Path_37" data-name="Path 37" d="M877.447,570.35a2.688,2.688,0,0,1-.97-.2,2.645,2.645,0,0,1-1.889-2.077c-.068-.213-.145-.452-.248-.721a7.25,7.25,0,0,1-.449-2.5,2.063,2.063,0,0,0-.983.1,5.888,5.888,0,0,1-2.118.428c-.391.034-.81.07-1.247.137a5.018,5.018,0,0,1-1.679-.076,3.1,3.1,0,0,0-.494-.065l-.215.2a2.5,2.5,0,0,1-1.693,1.405c-1.441.259-2.446-.036-3.013-.859a2.955,2.955,0,0,1,.222-3.649c.738-.891,2.148-1.168,4.576-1.583a24.052,24.052,0,0,1,2.633-.286,4.211,4.211,0,0,0,1.535-.241c.615-.412.765-.547.736-.783a3.594,3.594,0,0,1-.018-.472,1.679,1.679,0,0,0-.3-1.12l-.249-.375a6.008,6.008,0,0,0-.886-1.138,1.4,1.4,0,0,1-.394-1.16,1.827,1.827,0,0,1,.79-1.312,2.284,2.284,0,0,1,1.237-.312,2.4,2.4,0,0,1,2.167,1.112,5.066,5.066,0,0,1,.9,2.937c.023.463.03.763.035.974a1.911,1.911,0,0,0,.089.7c.093.376.221.479.576.479a7.765,7.765,0,0,0,1.922-.434,77.1,77.1,0,0,0,18.205-8.094c8.106-4.719,19.6-12.32,28.307-21.731,3.394-3.661,7.98-9.895,8.026-9.958l.722.386a44.843,44.843,0,0,1-6.692,11.8,88.188,88.188,0,0,1-12.168,12.079c-6.129,5.077-18.854,14.13-26.907,16.809-4.317,1.444-9.229,3.31-9.83,3.539-.485.4-.514.682-.4,1a3.318,3.318,0,0,0,.708.986c.217.244.451.508.676.809.946,1.256.606,2.047.318,2.407A1.915,1.915,0,0,1,877.447,570.35ZM873.559,564a3.934,3.934,0,0,1,.856.1l.341.085-.029.352a6.45,6.45,0,0,0,.385,2.517c.11.286.191.538.263.764a1.874,1.874,0,0,0,1.4,1.559,1.182,1.182,0,0,0,1.562-.4c.319-.4-.072-1.044-.335-1.392-.211-.283-.43-.528-.632-.755a3.81,3.81,0,0,1-.873-1.272,1.65,1.65,0,0,1,.72-1.956l.109-.061c.052-.02,5.323-2.036,9.924-3.574,7.946-2.644,20.559-11.623,26.642-16.662a87.428,87.428,0,0,0,12.062-11.975,39.923,39.923,0,0,0,5.231-8.458c-1.664,2.164-4.056,5.182-6.047,7.329-8.778,9.485-20.341,17.136-28.5,21.884a77.822,77.822,0,0,1-18.379,8.171,8.157,8.157,0,0,1-2.164.47h0a1.3,1.3,0,0,1-1.375-1.092,2.666,2.666,0,0,1-.118-.894c-.005-.206-.013-.5-.034-.955a4.227,4.227,0,0,0-.771-2.521,1.683,1.683,0,0,0-1.473-.74,1.5,1.5,0,0,0-.777.173.994.994,0,0,0-.426.707.592.592,0,0,0,.156.492,6.777,6.777,0,0,1,.991,1.265l.248.372a2.479,2.479,0,0,1,.442,1.588,2.614,2.614,0,0,0,.012.362c.094.773-.482,1.159-1.092,1.569a4.143,4.143,0,0,1-1.946.382,23.618,23.618,0,0,0-2.548.276c-2.171.37-3.529.631-4.08,1.3a2.147,2.147,0,0,0-.177,2.649c.374.541,1.1.71,2.184.514.583-.107.849-.549,1.132-1.018l.122-.2c.26-.4.7-.453,1.439-.324a4.233,4.233,0,0,0,1.412.073c.454-.069.89-.107,1.3-.143a5.4,5.4,0,0,0,1.818-.343A2.278,2.278,0,0,1,873.559,564Z" transform="translate(-861.923 -519.681)" fill="#1d1c1a"/>
              </g>
            </g>
          </g>
        </g>
      </g>
      <g id="Group_138" data-name="Group 138" transform="translate(19.82 48.075)">
        <g id="Group_137" data-name="Group 137">
          <g id="Group_136" data-name="Group 136">
            <path id="Path_38" data-name="Path 38" d="M862.87,550.131a7.8,7.8,0,0,1-3.68-.863l.159-.266a8.287,8.287,0,0,0,8.186-.537c1.533-.917,3.22-1.983,4.851-3.013,3.809-2.406,6.2-3.9,6.923-3.948a.729.729,0,0,1,.478.007c.666.2,1.814,1.19,3.5,4.749l-.281.133c-1.689-3.569-2.773-4.4-3.268-4.572a.45.45,0,0,0-.318-.027l-.074.019c-.618,0-3.758,1.983-6.794,3.9-1.633,1.031-3.321,2.1-4.858,3.017A9.309,9.309,0,0,1,862.87,550.131Z" transform="translate(-859.19 -541.468)" fill="#fff"/>
          </g>
        </g>
      </g>
      <g id="Group_141" data-name="Group 141" transform="translate(19.348)">
        <g id="Group_140" data-name="Group 140">
          <g id="Group_139" data-name="Group 139">
            <path id="Path_39" data-name="Path 39" d="M882.7,414.239s-4.24-5.386-12.56-1.34c0,0-5.775,2.962-5.388,8.425,0,0-13.779-17.609-3.347-51.893L881.993,400.2Z" transform="translate(-857.501 -369.432)" fill="#1d1c1a"/>
          </g>
        </g>
      </g>
      <g id="Group_148" data-name="Group 148" transform="translate(18.87 0.338)">
        <g id="Group_144" data-name="Group 144" transform="translate(0.227 0.604)">
          <g id="Group_143" data-name="Group 143">
            <g id="Group_142" data-name="Group 142">
              <path id="Path_40" data-name="Path 40" d="M882.123,419.013s-4.827-5.906-13.146-1.725c0,0-5.776,3.061-5.388,8.708,0,0-13.45-17.759-3.019-53.191l20.69,31.035Z" transform="translate(-856.605 -372.805)" fill="#fff"/>
            </g>
          </g>
        </g>
        <g id="Group_147" data-name="Group 147">
          <g id="Group_146" data-name="Group 146">
            <g id="Group_145" data-name="Group 145">
              <path id="Path_41" data-name="Path 41" d="M863.32,425.286l-.523-.691c-.135-.179-13.41-18.27-3.061-53.42l.156-.532L880.929,402.2l.911,16.035-.5-.613a9.813,9.813,0,0,0-7.161-3.127,12.653,12.653,0,0,0-5.669,1.47c-.052.027-5.617,3.049-5.247,8.458Zm-3.243-53.433c-8.864,30.669.384,48.082,2.656,51.714.22-5.185,5.48-8.035,5.536-8.064a13.168,13.168,0,0,1,5.907-1.528,10.275,10.275,0,0,1,7.063,2.793l-.819-14.4Z" transform="translate(-855.792 -370.643)" fill="#1d1c1a"/>
            </g>
          </g>
        </g>
      </g>
      <g id="Group_150" data-name="Group 150" transform="translate(49.859 5.395)">
        <g id="Group_149" data-name="Group 149">
          <path id="Path_42" data-name="Path 42" d="M987.816,401.87s.636-1.987,3.854-1.987c.47,0,.949.07,1.416.092-.31-1.041-1.883-1.623-2.816-1.654a5.315,5.315,0,0,0-3.77.694c-.281.209-.382-1.346,2.945-2.106a8.1,8.1,0,0,1,2.665-.075c.412.038,1.336.418,1.6.126-1.413-1.774-2.491-2.891-4.87-2.976a4.919,4.919,0,0,0-2.119.219,5.2,5.2,0,0,0-3.293,1.954s-.233-.291.782-2a4.577,4.577,0,0,1,2.238-1.613,4.851,4.851,0,0,1,2.471-.238,7.146,7.146,0,0,0-3.673-.971,5.349,5.349,0,0,0-3.879,1.871c-.36.391-.117-.128-1.289,1.553-.35.511.2-1.057.532-1.532a5.125,5.125,0,0,1,1.085-1.166c.343-.27,2.1-1.378,2.379-1.693-1.751-.83-5.68.41-6.189,1.939a4.071,4.071,0,0,1,.065-1.227c.452-2.2,1-2.341,1-2.341-.758.375-1.684.061-3.474,1.873-1.937,2.2-.931,2.948-1.885,2.9a4.591,4.591,0,0,0-3.412.915,8.331,8.331,0,0,0-2.935,4.293c-.256.992,2.1-3,5.449-1.908-1.346.083-4.989.768-6,7.77a6.469,6.469,0,0,1,4.389-3.766c.342-.077-.152.2-1.544,1.746a8.349,8.349,0,0,0-2.039,7.383,5.331,5.331,0,0,1,4.279-4.449s-4.353,3.559-1.271,10l.641.975s-.3-5.295,1.9-7.243c1.651-1.468-1.058,3.133,3.127,8.722,0,0-1.657-6.248,1.435-9.019,1.189-1.063,1.1-1.695,2.588,2.876,1.366,4.245-.3,6.066-.3,6.066A10.031,10.031,0,0,0,983,409.786a5.22,5.22,0,0,1,4.212,2.482c1.487,2.472,1.324-2.982-1.15-4.194,0,0,2.474-.559,4.373,2.951a10.407,10.407,0,0,1,1.478,4.8c0-1.033.305-1.9.305-2.94a7.37,7.37,0,0,0-.589-3.146,8.482,8.482,0,0,0-1.883-2.512,8.228,8.228,0,0,0-2.059-1.289c-.579-.271-1.4-.2-1.88-.566a.782.782,0,0,1,.437-.389,3.316,3.316,0,0,1,2.7.1c2.471.992,4.2,5.446,4.2,5.446a6.529,6.529,0,0,0-5.339-8.661" transform="translate(-966.684 -388.738)" fill="#00a24b"/>
        </g>
      </g>
    </g>
    <g id="Group_182" data-name="Group 182" transform="translate(632.851 298.507)">
      <g id="Group_152" data-name="Group 152" transform="translate(13.007 1.539)">
        <path id="Path_43" data-name="Path 43" d="M709.874,569.353l1.865.726.939-1.771-1.649-.685.905-1.739-1.84-.73-.938,1.928,1.517.524Z" transform="translate(-709.156 -565.154)" fill="#fff"/>
      </g>
      <g id="Group_153" data-name="Group 153" transform="translate(0 12.265)">
        <path id="Path_44" data-name="Path 44" d="M665.285,604.054l-1.891-.515-.782,1.991,1.574.334-.655,1.822,1.926.547.779-1.856-1.731-.518Z" transform="translate(-662.612 -603.539)" fill="#fff"/>
      </g>
      <g id="Group_154" data-name="Group 154" transform="translate(17.489 13.846)">
        <path id="Path_45" data-name="Path 45" d="M727.753,609.541l-1.958-.346-.6,2.012,1.936.285Z" transform="translate(-725.194 -609.195)" fill="#fff"/>
      </g>
      <g id="Group_155" data-name="Group 155" transform="translate(3.166 2.585)">
        <path id="Path_46" data-name="Path 46" d="M682.455,588.166a13.586,13.586,0,0,0,2.186-1.025,9.916,9.916,0,0,0,1.771-1.325q1.568-1.518,1.17-2.594a1.518,1.518,0,0,0-.92-.938,4.983,4.983,0,0,0-1.785-.232q-.82.016-1.53.066a4.507,4.507,0,0,0-1.255.252,2.464,2.464,0,0,0-.639.355,2.049,2.049,0,0,0-.5.535,1.711,1.711,0,0,0-.251.678,1.59,1.59,0,0,0,.1.794,2.5,2.5,0,0,0,.825,1.221,2.046,2.046,0,0,0,.634.281,5.352,5.352,0,0,0,.874.15,10.473,10.473,0,0,1-1.246,1.054.765.765,0,0,1-.808-.25,4.86,4.86,0,0,1-.831-1.088,14.319,14.319,0,0,1-.79-1.571c-.248-.571-.732-2.106-.943-2.686a2.744,2.744,0,0,1-.053-.625,1.7,1.7,0,0,1,.2-.729,1.68,1.68,0,0,1,.459-.525,3.418,3.418,0,0,1,.657-.386l.009-.163a5.805,5.805,0,0,1-1.023-.371,2.982,2.982,0,0,1-.736-.5,2.549,2.549,0,0,1-.508-.664c-.135-.252-.543-1.69-.639-2.04a4.044,4.044,0,0,1-.021-.405,1.754,1.754,0,0,1,.106-.64.972.972,0,0,1,.337-.438,2.054,2.054,0,0,1,.6-.287c.075-.022.176-.055.3-.1s.29-.1.489-.162l.713-.234q.414-.137.986-.314,1.118-.35,1.941-.623t1.376-.485l-.011-.064q-1.439-.982-1.884-.906a4.591,4.591,0,0,0-.717.241,5.742,5.742,0,0,1-.641.228,17.967,17.967,0,0,0-1.6-1.832,2.9,2.9,0,0,0-1.3-.614,6.669,6.669,0,0,0-2.249-.294,1.1,1.1,0,0,0-.806.793,2.327,2.327,0,0,0-.137,1.254q.166.966,2.386,2a13.057,13.057,0,0,0-1.287.509,4.541,4.541,0,0,0-.949.569,1.683,1.683,0,0,0-.5.759A2.616,2.616,0,0,0,674,576.07c.015.073.033.137.05.206h0l.037.135.012.045a11.961,11.961,0,0,0,.5,1.523,2.859,2.859,0,0,0,.552.726,2.812,2.812,0,0,0,.76.508,5.183,5.183,0,0,0,1.02.338l.01.037a5.584,5.584,0,0,0-.627.518,2.833,2.833,0,0,0-.484.606,1.962,1.962,0,0,0-.25.7,1.9,1.9,0,0,0,.057.8c.013.046.036.081.051.126l-.013,0c.2.532.572,1.816.811,2.337a11.6,11.6,0,0,0,.8,1.459,7.035,7.035,0,0,0,.969,1.2,4.155,4.155,0,0,0,1.164.82,3.479,3.479,0,0,0,1.39.316A4.408,4.408,0,0,0,682.455,588.166ZM683.5,583.3a.747.747,0,0,1,.453-.43.473.473,0,0,1,.24-.02.908.908,0,0,1,.266.087.985.985,0,0,1,.24.165.556.556,0,0,1,.15.219,1.87,1.87,0,0,1-.3,1.487,1.432,1.432,0,0,1-1.014-.766A1.01,1.01,0,0,1,683.5,583.3Zm-5.977-12.986q.534-.092,1.979,1.688a7.826,7.826,0,0,1-1.7.594q-.381.065-.457-.379Q677.031,570.4,677.527,570.319Z" transform="translate(-673.941 -568.897)" fill="#fff"/>
      </g>
      <g id="Group_156" data-name="Group 156" transform="translate(23.13 27.587)">
        <path id="Path_47" data-name="Path 47" d="M747.565,658.368h-2l-.182,2.05,1.966-.008Z" transform="translate(-745.381 -658.367)" fill="#fff"/>
      </g>
      <g id="Group_157" data-name="Group 157" transform="translate(28.066 36.238)">
        <path id="Path_48" data-name="Path 48" d="M765.093,691.37l-.073-2.047-1.976.317.1,2.1Z" transform="translate(-763.044 -689.323)" fill="#fff"/>
      </g>
      <g id="Group_158" data-name="Group 158" transform="translate(25.466 37.626)">
        <path id="Path_49" data-name="Path 49" d="M755.49,696.433l.133,1.879,1.957-.3-.056-2.028-1.78.269-.052-1.963-1.95.328.14,2.126Z" transform="translate(-753.74 -694.29)" fill="#fff"/>
      </g>
      <g id="Group_159" data-name="Group 159" transform="translate(9.851 21.11)">
        <path id="Path_50" data-name="Path 50" d="M722.073,661.128a30.694,30.694,0,0,1,1.985-2.847,2.822,2.822,0,0,1,2.128-.862,9.379,9.379,0,0,1,.327-2.584,5.035,5.035,0,0,0-1.581.157,2.481,2.481,0,0,0-1.012.721,13.421,13.421,0,0,0-.971,1.312q-.635.938-1.576,2.468a32.841,32.841,0,0,1-2.59,3.829,1.247,1.247,0,0,1-.564.4,1.039,1.039,0,0,1-.571,0,1.865,1.865,0,0,1-.6-.3c-.2-.145-1.882-1.472-2.152-1.707-.062-.091-.13-.185-.182-.27a2.65,2.65,0,0,1-.359-.886,1.76,1.76,0,0,1,.048-.842,2.87,2.87,0,0,1,.478-.884l-.2-.237q-1.378.707-2.093-.142-.748-.888.406-1.86l-.149-.3a3.573,3.573,0,0,1-3.829-1.479q-.723-.857.217-1.9l-.046-.1a6.126,6.126,0,0,1-.88.017,2.135,2.135,0,0,1-.674-.14,2.574,2.574,0,0,1-.786-.552c-.282-.27-1.144-1.8-1.447-2.18a9.823,9.823,0,0,1-.45-.875,2.583,2.583,0,0,1-.257-.891,5.145,5.145,0,0,0,1.539-.029,4.1,4.1,0,0,0,1.42-.53,6.125,6.125,0,0,0,1.912-1.676q.618-.9.266-1.485-.571-.951-2.991-1.122a6.581,6.581,0,0,0-3.862.71.9.9,0,0,0-.417.582,2.448,2.448,0,0,1-.635-.567c-.178-.224-.789-1.441-.931-1.69a3.362,3.362,0,0,1-.17-.556,1.6,1.6,0,0,1,.016-.744,1.318,1.318,0,0,1,.348-.573,3.244,3.244,0,0,1,.643-.479q.5-.3,1.4-.835t2.207-1.334q2.729-1.678,3.564-2.263-1.177-.337-1.516-.39a1.969,1.969,0,0,0-1.14.159,11.058,11.058,0,0,0-1.372.957q-.685.513-1.676,1.131t-2.3,1.414q-.974.595-1.678,1.067a4.971,4.971,0,0,0-1.039.876,1.971,1.971,0,0,0-.308.491,1.533,1.533,0,0,0-.12.557,2.32,2.32,0,0,0,.089.68,4.8,4.8,0,0,0,.268.714h0l.013.021c.014.031.024.06.04.092a2.555,2.555,0,0,0,.262.43,15.836,15.836,0,0,0,1.411,2.193,8.009,8.009,0,0,0,1.821,1.479,6.459,6.459,0,0,0,.164,1.775,6.1,6.1,0,0,0,.725,1.709c.018.031.044.053.063.083.348.491,1.166,2.083,1.392,2.282a2.724,2.724,0,0,0,.72.473,2.1,2.1,0,0,0,.759.17,4.478,4.478,0,0,0,.93-.076l.025.029a2.149,2.149,0,0,0,.239,2.684,2.846,2.846,0,0,0,3.2,1.014l.025.029q-.817,1.312-.11,2.151.856,1.016,3.065.132l.017.02a7.339,7.339,0,0,0-.627,1.128,2.755,2.755,0,0,0-.231.9,1.931,1.931,0,0,0,.1.814,2.855,2.855,0,0,0,.553.926,3.318,3.318,0,0,0,.391.392l0,0c.018.015.046.037.07.056l.034.027c.359.275,1.208.8,1.438.99a5.178,5.178,0,0,0,.777.524,2.835,2.835,0,0,0,.806.3,2.237,2.237,0,0,0,.872-.006,4.975,4.975,0,0,0,2.614-1.674A28.454,28.454,0,0,0,722.073,661.128Zm-17-16.82a.953.953,0,0,1,.9,0,1.934,1.934,0,0,1,.865.789,1.591,1.591,0,0,1,.2,1.177,1.361,1.361,0,0,1-.639.94q-.653.392-2.031-.9Q704.574,644.607,705.072,644.309Z" transform="translate(-697.862 -635.188)" fill="#fff"/>
      </g>
      <g id="Group_160" data-name="Group 160" transform="translate(32.912 45.994)">
        <path id="Path_51" data-name="Path 51" d="M785.53,725.335a12.439,12.439,0,0,0-1.032,1.7q-.709,1.327-1.409,2.663a36.747,36.747,0,0,1-2.7,4.239l.376.294a8.711,8.711,0,0,0,2.387-2.031,41.415,41.415,0,0,0,2.436-3.727q1.7-2.828,2.667-4.234a13.978,13.978,0,0,0-1.489.294A2.412,2.412,0,0,0,785.53,725.335Z" transform="translate(-780.386 -724.237)" fill="#fff"/>
      </g>
      <g id="Group_161" data-name="Group 161" transform="translate(30.645 54.079)">
        <path id="Path_52" data-name="Path 52" d="M782.461,753.646a6.725,6.725,0,0,0-1.246.883,6,6,0,0,0-.987,1.148,1.991,1.991,0,0,0-.3.712,1.74,1.74,0,0,0,0,.721,1.85,1.85,0,0,0,.292.666,2.042,2.042,0,0,0,.561.543,2.743,2.743,0,0,0,2.354.141l-.179.268q-1.335,2.008-4.847,2.492a10.045,10.045,0,0,1-2.667.062,4.546,4.546,0,0,1-1.952-.687,3.5,3.5,0,0,1-.371-.293,6.242,6.242,0,0,1-.46-.461l-.382.133a10.15,10.15,0,0,0,2.54,3.052,4.044,4.044,0,0,0,4.225.145,12.429,12.429,0,0,0,5.007-4.384,8.691,8.691,0,0,0,1.416-3.272q.283-1.545-.479-2.053A2.314,2.314,0,0,0,782.461,753.646Zm.948,3.326a2.933,2.933,0,0,1-1.124-.406q-1.053-.7-.66-1.291a.589.589,0,0,1,.193-.174.781.781,0,0,1,.306-.1,1.17,1.17,0,0,1,.381.021,1.263,1.263,0,0,1,.429.193A1.393,1.393,0,0,1,783.409,756.973Z" transform="translate(-772.273 -753.169)" fill="#fff"/>
      </g>
      <g id="Group_162" data-name="Group 162" transform="translate(54.493 54.208)">
        <path id="Path_53" data-name="Path 53" d="M860.017,755.594l1.09,1.581,1.58-1.229-1.039-1.714-1.434,1.065-1.03-1.669-1.57,1.206,1.174,1.794Z" transform="translate(-857.614 -753.628)" fill="#fff"/>
      </g>
      <g id="Group_163" data-name="Group 163" transform="translate(56.602 70.768)">
        <path id="Path_54" data-name="Path 54" d="M870.3,814.892l-1.189-1.625-1.325,1.219-1.141-1.6-1.48,1.337,1.3,1.7,1.148-1.162,1.223,1.5Z" transform="translate(-865.162 -812.889)" fill="#fff"/>
      </g>
      <g id="Group_164" data-name="Group 164" transform="translate(50.534 58.457)">
        <path id="Path_55" data-name="Path 55" d="M850.79,779.713a6.446,6.446,0,0,0,1.033.139,4.13,4.13,0,0,0,1.011-.068,2.09,2.09,0,0,0,.885-.4,5.073,5.073,0,0,0,1.668-2.757,6.434,6.434,0,0,0,.224-1.667,13.6,13.6,0,0,0-.138-2.037l-.062-.017a12.635,12.635,0,0,0-1.89,2.359,1.313,1.313,0,0,0,.227.949q.345.581.278.817a.377.377,0,0,1-.323.263,2.18,2.18,0,0,1-.647.011,6.813,6.813,0,0,1-.83-.149c-.289-.069-1.434-.36-1.754-.449a4.885,4.885,0,0,1-.58-.284,1.756,1.756,0,0,1-.495-.419.965.965,0,0,1-.2-.513,2.039,2.039,0,0,1,.063-.667q.029-.113.072-.311c.027-.132.065-.3.111-.5s.1-.446.165-.731.142-.62.236-1.008q.273-1.138.461-1.985t.288-1.43l-.061-.023q-1.581.732-1.743,1.152a4.473,4.473,0,0,0-.161.74,5.892,5.892,0,0,1-.133.667,17.923,17.923,0,0,0-2.393.433,2.9,2.9,0,0,0-1.192.8,6.678,6.678,0,0,0-1.405,1.78,1.1,1.1,0,0,0,.268,1.1,2.332,2.332,0,0,0,1.006.761q.915.353,2.938-1.024a12.865,12.865,0,0,0-.222,1.365,4.541,4.541,0,0,0,0,1.106,1.679,1.679,0,0,0,.4.817,2.6,2.6,0,0,0,1.073.676c.144.05.279.089.408.121v0C849.67,779.412,850.449,779.638,850.79,779.713Zm-2.853-5.549c-.093.241-.28.307-.561.2q-1.721-.664-1.54-1.134.195-.505,2.464-.833A7.834,7.834,0,0,1,847.937,774.164Z" transform="translate(-843.445 -768.833)" fill="#fff"/>
      </g>
      <g id="Group_165" data-name="Group 165" transform="translate(59.841 65.049)">
        <path id="Path_56" data-name="Path 56" d="M883.275,795.137q-.094.441.713,1.657a2.811,2.811,0,0,1,.625,2.061q-.314,1.462-2.579,2.73a5.951,5.951,0,0,1-4.124.894,3.3,3.3,0,0,1-.916-.342l-.243.33a6.534,6.534,0,0,0,2.929,1.962,3.924,3.924,0,0,0,3.568-1.317,8.1,8.1,0,0,0,2.346-4.284,8.853,8.853,0,0,0-1.077-6.406A24.572,24.572,0,0,0,883.275,795.137Z" transform="translate(-876.752 -792.423)" fill="#fff"/>
      </g>
      <g id="Group_166" data-name="Group 166" transform="translate(72.631 59.519)">
        <path id="Path_57" data-name="Path 57" d="M923.19,773.661a2.408,2.408,0,0,0-.633,1.329,12.516,12.516,0,0,0,0,1.987q.087,1.5.187,3.008a36.721,36.721,0,0,1-.1,5.026l.474.055a8.694,8.694,0,0,0,.978-2.978,41.51,41.51,0,0,0,.136-4.45q-.024-3.3.069-5A14.184,14.184,0,0,0,923.19,773.661Z" transform="translate(-922.521 -772.634)" fill="#fff"/>
      </g>
      <g id="Group_167" data-name="Group 167" transform="translate(76.832 62.41)">
        <path id="Path_58" data-name="Path 58" d="M940.949,782.981l-1.314,3.049q1.855.946,2.673,1.462,1.75,1.1,1.737,1.861-.017,1.032-4.647.956-.605-.01-1.237-.072l-.607,3.241a13.55,13.55,0,0,0,1.868.159,7.623,7.623,0,0,0,4.337-.936,3.311,3.311,0,0,0,1.208-2.909,7.085,7.085,0,0,0-1.727-4.866A12.468,12.468,0,0,0,940.949,782.981Z" transform="translate(-937.554 -782.981)" fill="#fff"/>
      </g>
      <g id="Group_168" data-name="Group 168" transform="translate(86.219 55.838)">
        <path id="Path_59" data-name="Path 59" d="M981.454,772.416a12.027,12.027,0,0,0-.816-1.683,9.6,9.6,0,0,0,.411-1.62q.108-.719.134-1.087.009-.209-.01-.63t-.075-.953q-.056-.533-.127-1.141t-.153-1.184a7.187,7.187,0,0,1-.114-1.742,3.124,3.124,0,0,1,.533-1.117,12.979,12.979,0,0,1-1.072-.918,6.947,6.947,0,0,1-.782-.88,2.933,2.933,0,0,0-.9,2.132,10.431,10.431,0,0,0,.627,1.683,8.1,8.1,0,0,1,.274.788q.135.457.25.943t.2.948q.091.463.139.807a8.954,8.954,0,0,1,.124,1.441q-.013.184-.025.609a3.863,3.863,0,0,1-.141.9,24.97,24.97,0,0,0-1.886-2.438q-1.032-1.177-2.074-2.2-.362-.353-.9-.831t-1.1-.888a11.386,11.386,0,0,0-1.028-.689,1.279,1.279,0,0,0-.705-.247q-.115.017-.306.369a7.846,7.846,0,0,0-.376.808q-.183.456-.311.891a1.713,1.713,0,0,0-.1.626,3.372,3.372,0,0,0,1.549,1.944q1.2.874,1.459.837.371-.052.722-1.078a22.9,22.9,0,0,1,2.23,1.882,32.19,32.19,0,0,1,2.3,2.445,15.665,15.665,0,0,1-2.113,2.667l-1,.14.4,2.848,1.967-.275a5,5,0,0,0,2.7-.966,1.991,1.991,0,0,0,.439-1.794A6.473,6.473,0,0,0,981.454,772.416Zm-1.154.917a4.65,4.65,0,0,1-.887.176l-.626.088a7.64,7.64,0,0,0,1.171-1.584l.163.225a2.858,2.858,0,0,1,.454.731Q980.611,773.238,980.3,773.333Z" transform="translate(-971.143 -759.461)" fill="#fff"/>
      </g>
      <g id="Group_169" data-name="Group 169" transform="translate(90.975 73.948)">
        <path id="Path_60" data-name="Path 60" d="M988.946,826.086a1.457,1.457,0,0,1,.8-.542,2.157,2.157,0,0,1,1.095.276,1.827,1.827,0,0,0,.248-.92q-.1-.716-.764-.622-.984.138-1.871,1.8a.966.966,0,0,0-.138.593q.083.587.983.878a3.267,3.267,0,0,0-.857.576,1.223,1.223,0,0,0-.274.742l3.384-1.5a.52.52,0,0,0,.256-.4,2.951,2.951,0,0,0,.061-.491,4.469,4.469,0,0,1-.971.32A2.9,2.9,0,0,1,988.946,826.086Z" transform="translate(-988.164 -824.267)" fill="#fff"/>
      </g>
      <g id="Group_170" data-name="Group 170" transform="translate(99.028 57.446)">
        <path id="Path_61" data-name="Path 61" d="M1019.6,769.891q-1.244-3.057-1.791-4.673a14.221,14.221,0,0,0-.657,1.368,2.416,2.416,0,0,0-.1,1.47,12.546,12.546,0,0,0,.742,1.843q.638,1.363,1.288,2.724a36.8,36.8,0,0,1,1.773,4.7l.46-.126a8.692,8.692,0,0,0-.195-3.128A41.415,41.415,0,0,0,1019.6,769.891Z" transform="translate(-1016.982 -765.218)" fill="#fff"/>
      </g>
      <g id="Group_171" data-name="Group 171" transform="translate(108.722 52.176)">
        <path id="Path_62" data-name="Path 62" d="M1055.954,746.775l-1.961-.416-.206,1.773-1.921-.392-.2,1.97,2.111.372.088-1.6,1.9.288Z" transform="translate(-1051.669 -746.359)" fill="#fff"/>
      </g>
      <g id="Group_172" data-name="Group 172" transform="translate(123.343 62.484)">
        <path id="Path_63" data-name="Path 63" d="M1103.992,783.246l.007,2,2.064.208-.018-1.988Z" transform="translate(-1103.992 -783.246)" fill="#fff"/>
      </g>
      <g id="Group_173" data-name="Group 173" transform="translate(111.988 54.542)">
        <path id="Path_64" data-name="Path 64" d="M1072.406,756.112a13.784,13.784,0,0,0-1.575-1.289l-.056.033q.107,1.333.215,2.081a3.4,3.4,0,0,0,.2.9,1.316,1.316,0,0,0,.847.485q.658.147.784.357a.368.368,0,0,1-.031.4,2.207,2.207,0,0,1-.42.477,5.817,5.817,0,0,1-.668.505c-.249.163-1.183.773-1.474.95a5.05,5.05,0,0,1-.685.265,1.771,1.771,0,0,1-.644.074.973.973,0,0,1-.513-.2,2.071,2.071,0,0,1-.443-.5q-.062-.1-.178-.265c-.078-.111-.174-.252-.291-.425l-.42-.621q-.246-.361-.573-.863-.643-.978-1.131-1.7t-.844-1.19l-.058.028a3.8,3.8,0,0,0-.354,2.059,4.456,4.456,0,0,0,.429.624,5.8,5.8,0,0,1,.4.555,18.009,18.009,0,0,0-1.323,2.039,2.917,2.917,0,0,0-.234,1.416,6.67,6.67,0,0,0,.336,2.243,1.1,1.1,0,0,0,.984.558,2.318,2.318,0,0,0,1.243-.213q.884-.424,1.266-2.842a13.048,13.048,0,0,0,.843,1.1,4.552,4.552,0,0,0,.808.756,1.688,1.688,0,0,0,.868.27,2.6,2.6,0,0,0,1.228-.318c.095-.049.179-.1.263-.15v0c.3-.181,1.131-.674,1.426-.875a6,6,0,0,0,.8-.654,3.748,3.748,0,0,0,.6-.761,2.158,2.158,0,0,0,.293-.9,5.079,5.079,0,0,0-.866-3.1A6.406,6.406,0,0,0,1072.406,756.112Zm-6.086,5.588q-1.661.8-1.88.347-.234-.488,1.08-2.366a7.814,7.814,0,0,1,1.039,1.475Q1066.727,761.5,1066.32,761.7Z" transform="translate(-1063.358 -754.823)" fill="#fff"/>
      </g>
      <g id="Group_174" data-name="Group 174" transform="translate(122.104 42.141)">
        <path id="Path_65" data-name="Path 65" d="M1099.9,714.34l2.136-.152-.356-1.558,1.928-.178-.347-2.006-2.01.08.28,1.808-1.972.047Z" transform="translate(-1099.557 -710.447)" fill="#fff"/>
      </g>
      <g id="Group_175" data-name="Group 175" transform="translate(120.097 45.21)">
        <path id="Path_66" data-name="Path 66" d="M1105.22,724.894a13.662,13.662,0,0,0-1.706-1.708,9.913,9.913,0,0,0-1.849-1.215q-1.96-.959-2.838-.218a1.516,1.516,0,0,0-.568,1.166,4.931,4.931,0,0,0,.388,1.775q.283.775.577,1.421a4.665,4.665,0,0,0,.669,1.09,2.47,2.47,0,0,0,.55.48,2.068,2.068,0,0,0,.672.285,1.707,1.707,0,0,0,.722.005,1.6,1.6,0,0,0,.713-.366,2.5,2.5,0,0,0,.868-1.191,2.036,2.036,0,0,0,.048-.691,5.273,5.273,0,0,0-.156-.873,10.665,10.665,0,0,1,1.415.813.728.728,0,0,1,.074.757,3.981,3.981,0,0,1-.628,1.065,12.335,12.335,0,0,1-1.173,1.279c-.463.448-1.728,1.443-2.306,1.928a3.824,3.824,0,0,1-.685.364,1.59,1.59,0,0,1-.736.108,1.313,1.313,0,0,1-.623-.248,3.3,3.3,0,0,1-.58-.554q-.376-.445-1.056-1.244t-1.682-1.955q-2.108-2.413-2.823-3.139-.138,1.217-.133,1.56a1.961,1.961,0,0,0,.346,1.1,10.9,10.9,0,0,0,1.171,1.194q.619.59,1.392,1.465t1.775,2.031q.749.862,1.331,1.477a4.97,4.97,0,0,0,1.036.88,1.991,1.991,0,0,0,.535.223,1.553,1.553,0,0,0,.569.025,2.3,2.3,0,0,0,.656-.2,4.911,4.911,0,0,0,.763-.45,2.647,2.647,0,0,0,.319-.267,26.785,26.785,0,0,0,2.448-2.174,7.051,7.051,0,0,0,1.254-1.982,3.806,3.806,0,0,0,.253-2A4.051,4.051,0,0,0,1105.22,724.894Zm-4.241.379a1.007,1.007,0,0,1-.687.286.748.748,0,0,1-.558-.28.469.469,0,0,1-.1-.219.889.889,0,0,1-.009-.28.985.985,0,0,1,.074-.282.571.571,0,0,1,.154-.216,1.876,1.876,0,0,1,1.5-.223A1.433,1.433,0,0,1,1100.979,725.273Z" transform="translate(-1092.376 -721.43)" fill="#fff"/>
      </g>
      <g id="Group_176" data-name="Group 176" transform="translate(131.795 33.612)">
        <path id="Path_67" data-name="Path 67" d="M1143.56,693.129l.319-.319a3.383,3.383,0,0,0,.445-.537h0c.223-.273.6-.777.8-1.041a5.24,5.24,0,0,0,.488-.8,2.873,2.873,0,0,0,.262-.819,2.249,2.249,0,0,0-.047-.871,4.982,4.982,0,0,0-1.8-2.532,28.364,28.364,0,0,0-3.3-2.142,30.456,30.456,0,0,1-2.937-1.85,2.817,2.817,0,0,1-.962-2.084,9.409,9.409,0,0,1-2.6-.205,5.039,5.039,0,0,0,.232,1.571,2.481,2.481,0,0,0,.768.977,13.569,13.569,0,0,0,1.356.908q.968.59,2.54,1.458a32.845,32.845,0,0,1,3.946,2.407,1.243,1.243,0,0,1,.422.544,1.047,1.047,0,0,1,.026.57,1.852,1.852,0,0,1-.274.609c-.137.209-.677,1.048-.862,1.275a3.65,3.65,0,0,1-.661.543,1.687,1.687,0,0,1-.611.238,1.91,1.91,0,0,1-.652-.013,6.716,6.716,0,0,1-.8-.209l-.046.045.539,2.654a4.957,4.957,0,0,0,.88.314,9.386,9.386,0,0,0,1.235.232q.583.073,1.259.109.969,5.289-1.11,7.37a7.827,7.827,0,0,1-1.012.776l.109.383q.711-.164,1.189-.288a7.423,7.423,0,0,0,.744-.223,4.612,4.612,0,0,0,1.659-1.059,3.481,3.481,0,0,0,.783-3.32A11.487,11.487,0,0,0,1143.56,693.129Z" transform="translate(-1134.237 -679.927)" fill="#fff"/>
      </g>
      <g id="Group_177" data-name="Group 177" transform="translate(136.922 31.087)">
        <path id="Path_68" data-name="Path 68" d="M1160.778,675.615a41.728,41.728,0,0,0-3.839-2.257q-2.906-1.565-4.355-2.465a14.048,14.048,0,0,0,.364,1.474,2.411,2.411,0,0,0,.861,1.194,12.552,12.552,0,0,0,1.745.95q1.36.646,2.727,1.281a36.762,36.762,0,0,1,4.361,2.5l.276-.39A8.712,8.712,0,0,0,1160.778,675.615Z" transform="translate(-1152.584 -670.893)" fill="#fff"/>
      </g>
      <g id="Group_178" data-name="Group 178" transform="translate(141.453 18.965)">
        <path id="Path_69" data-name="Path 69" d="M1169.9,632.5l1.866-1.055-.951-1.293,1.649-.985-1.123-1.656-1.778.925.969,1.5-1.732.918Z" transform="translate(-1168.797 -627.512)" fill="#fff"/>
      </g>
      <g id="Group_179" data-name="Group 179" transform="translate(148.302 14.75)">
        <path id="Path_70" data-name="Path 70" d="M1194.644,615.756q.523.185,1.175-.461a2.342,2.342,0,0,0,.124.891,2.137,2.137,0,0,0,.531.666l.141-3.233a1.737,1.737,0,0,0-.061-.719,1.443,1.443,0,0,0-.563-.458,2.1,2.1,0,0,1-.149,1.082,3.3,3.3,0,0,1-1.472,1.383,1.133,1.133,0,0,1-.155-.957,2.2,2.2,0,0,1,.769-.823,2.27,2.27,0,0,0-.772-.641.587.587,0,0,0-.835.43,1.952,1.952,0,0,0,.228,1.489Q1194.194,615.6,1194.644,615.756Z" transform="translate(-1193.306 -612.432)" fill="#fff"/>
      </g>
      <g id="Group_180" data-name="Group 180" transform="translate(160.175 11.422)">
        <path id="Path_71" data-name="Path 71" d="M1239.133,601.961l-1.391-1.439-1.606,1.214,1.237,1.318-1.579,1.168,1.376,1.395,1.676-1.328-1.194-1.08Z" transform="translate(-1235.794 -600.522)" fill="#fff"/>
      </g>
      <g id="Group_181" data-name="Group 181" transform="translate(145.795)">
        <path id="Path_72" data-name="Path 72" d="M1198.9,568.729a4.122,4.122,0,0,0-.115-1.081,5.056,5.056,0,0,0-.412-1.094,12.234,12.234,0,0,0-.773-1.293,12.778,12.778,0,0,0,1.979-3.624q.091-.6-.734-1.17a4.874,4.874,0,0,0-2.075-.763,5.921,5.921,0,0,0-4.579,1.437,5.136,5.136,0,0,0-2.2,2.872,1.26,1.26,0,0,0,.382,1.168,5.781,5.781,0,0,0,1.862.964,1.784,1.784,0,0,1,.007-.639,2.651,2.651,0,0,1,.223-.683l1.222,1.31a3.582,3.582,0,0,0,.815.68,2.091,2.091,0,0,0,.708.272,1.47,1.47,0,0,0,.916-.185,2.4,2.4,0,0,1,.068.832c-.023.318-.261,1.257-.317,1.623l.012.007a.961.961,0,0,0-.058.124,3.121,3.121,0,0,1-.387.924,1.611,1.611,0,0,1-1.2.755,3.359,3.359,0,0,1-.762,0l-.09.136a5.81,5.81,0,0,1,.7.834,2.975,2.975,0,0,1,.388.8,2.546,2.546,0,0,1,.106.829,11.115,11.115,0,0,1-.3,1.5,4.118,4.118,0,0,1-.365.8,1.428,1.428,0,0,1-.42.454,1.11,1.11,0,0,1-.533.175,2.78,2.78,0,0,1-.7-.049l-.1.129a4.185,4.185,0,0,1,.489.767,2.727,2.727,0,0,1,.234.677,2.572,2.572,0,0,1-.061.99c-.087.375-.411,1.471-.554,1.881a5.263,5.263,0,0,1-.4.725,1.775,1.775,0,0,1-.45.467.97.97,0,0,1-.526.169,2.073,2.073,0,0,1-.661-.107c-.074-.025-.176-.055-.306-.092s-.295-.084-.495-.144l-.719-.212q-.419-.123-.99-.3-1.118-.348-1.951-.59t-1.408-.382l-.027.058q.626,1.626,1.036,1.816a4.553,4.553,0,0,0,.728.209,5.691,5.691,0,0,1,.657.176,18.03,18.03,0,0,0,.275,2.415,2.913,2.913,0,0,0,.719,1.242,6.661,6.661,0,0,0,1.685,1.518,1.1,1.1,0,0,0,1.114-.2,2.329,2.329,0,0,0,.825-.954q.411-.889-.829-3a12.891,12.891,0,0,0,1.348.312,4.529,4.529,0,0,0,1.1.07,1.686,1.686,0,0,0,.841-.343,2.606,2.606,0,0,0,.745-1.027c.054-.128.1-.25.139-.367h0c.118-.333.419-1.149.492-1.447a2.952,2.952,0,0,0,.083-.879,2.47,2.47,0,0,0-.2-.844,3.139,3.139,0,0,0-.581-.855l.013-.036a2.173,2.173,0,0,0,2.2-1.55c.01-.029.016-.057.025-.086l0,0a13.615,13.615,0,0,0,.408-1.7,2.78,2.78,0,0,0-.514-1.726,5.26,5.26,0,0,0-.713-.8l.01-.037a5.5,5.5,0,0,0,.8-.133,2.855,2.855,0,0,0,.722-.281,1.952,1.952,0,0,0,.569-.482,1.906,1.906,0,0,0,.353-.72c.02-.072.031-.142.044-.213l0,0A9.684,9.684,0,0,0,1198.9,568.729Zm-9.253,15.462q-.775,1.674-1.231,1.463-.492-.228-.67-2.513a7.785,7.785,0,0,1,1.74.478Q1189.834,583.781,1189.645,584.191Zm4.821-18.341a.949.949,0,0,1-.624-.527,1.539,1.539,0,0,1-.2-1.05.939.939,0,0,1,.15-.381,1.168,1.168,0,0,1,.281-.3,1.154,1.154,0,0,1,.366-.178.94.94,0,0,1,.409-.029q.65.1.822,1.275Q1195,565.932,1194.466,565.85Zm.1-3.468a7.132,7.132,0,0,1,1.458-1.251,2.066,2.066,0,0,1,1.158-.488c.145.022.2.14.168.352a11.087,11.087,0,0,1-1.023,2.414A4.52,4.52,0,0,0,1194.569,562.382Z" transform="translate(-1184.333 -559.648)" fill="#fff"/>
      </g>
    </g>
  </g>
</svg>
