<svg xmlns="http://www.w3.org/2000/svg" xmlns:xlink="http://www.w3.org/1999/xlink" width="214.08" height="214.078" viewBox="0 0 214.08 214.078">
  <defs>
    <clipPath id="clip-path">
      <rect id="Rectangle_7414" data-name="Rectangle 7414" width="60.61" height="59.4" transform="translate(1449.27 110.3)" fill="none"/>
    </clipPath>
    <clipPath id="clip-path-2">
      <rect id="Rectangle_7413" data-name="Rectangle 7413" width="60.61" height="59.4" transform="translate(1449.271 110.299)" fill="none"/>
    </clipPath>
  </defs>
  <g id="_1" data-name="1" transform="translate(409.999 2008.999)">
    <g id="Group_39052" data-name="Group 39052" transform="translate(-1758 -2009)" opacity="0.102">
      <g id="Group_39051" data-name="Group 39051">
        <g id="Group_39050" data-name="Group 39050" clip-path="url(#clip-path)">
          <g id="Group_39049" data-name="Group 39049">
            <g id="Group_39048" data-name="Group 39048" clip-path="url(#clip-path-2)">
              <path id="Path_5502" data-name="Path 5502" d="M1449.271,147.88V116.362a6.048,6.048,0,0,1,1.022-3.367,6.093,6.093,0,0,1,.753-.919,6.062,6.062,0,0,1,1.967-1.314,6.1,6.1,0,0,1,2.319-.461h42.428a12.12,12.12,0,0,1,4.639.923,11.985,11.985,0,0,1,2.1,1.12,12.122,12.122,0,0,1,5.388,10.079v41.216a6.059,6.059,0,0,1-1.022,3.367,5.937,5.937,0,0,1-.754.919,6.046,6.046,0,0,1-1.966,1.314,6.046,6.046,0,0,1-2.32.461h-32.73q-1.071,0-2.138-.1t-2.119-.314q-1.05-.209-2.077-.52t-2.016-.722q-.99-.409-1.936-.915t-1.836-1.1q-.891-.6-1.72-1.276a21.4,21.4,0,0,1-1.587-1.438q-.758-.758-1.438-1.586t-1.276-1.72q-.6-.893-1.1-1.837t-.916-1.936q-.409-.99-.721-2.016t-.521-2.077q-.208-1.051-.314-2.118t-.1-2.139" fill="#fff"/>
            </g>
          </g>
        </g>
      </g>
    </g>
    <path id="Path_5503" data-name="Path 5503" d="M1455.041,214.079c-1.751,0-3.519-.043-5.253-.129s-3.5-.216-5.238-.386-3.494-.388-5.214-.643-3.476-.56-5.178-.9c-1.719-.342-3.444-.729-5.127-1.151-1.711-.429-3.415-.9-5.063-1.4s-3.333-1.056-4.987-1.647-3.294-1.225-4.9-1.893-3.218-1.379-4.8-2.128c-1.558-.737-3.137-1.531-4.692-2.362s-3.092-1.7-4.572-2.59c-1.495-.9-2.988-1.842-4.437-2.808s-2.889-1.985-4.3-3.027-2.791-2.124-4.141-3.231-2.691-2.266-3.978-3.433c-1.306-1.183-2.587-2.4-3.807-3.625-1.239-1.238-2.457-2.518-3.623-3.8s-2.327-2.632-3.43-3.978-2.19-2.734-3.233-4.141-2.056-2.846-3.025-4.3-1.92-2.952-2.812-4.439-1.763-3.026-2.588-4.57-1.619-3.119-2.363-4.7-1.46-3.185-2.129-4.8c-.658-1.586-1.3-3.236-1.889-4.9-.578-1.611-1.133-3.29-1.649-4.988-.509-1.68-.98-3.383-1.4-5.064s-.811-3.417-1.15-5.128-.643-3.451-.9-5.177c-.254-1.709-.471-3.463-.643-5.211s-.3-3.5-.387-5.241-.129-3.522-.129-5.252.043-3.5.129-5.251.216-3.506.387-5.24c.172-1.75.389-3.505.644-5.217s.558-3.467.9-5.175.725-3.428,1.149-5.125.9-3.391,1.4-5.064c.518-1.7,1.073-3.381,1.65-4.992.6-1.667,1.234-3.317,1.891-4.9.666-1.61,1.383-3.227,2.128-4.8s1.542-3.159,2.362-4.691,1.687-3.066,2.589-4.572c.891-1.486,1.836-2.979,2.81-4.437s1.993-2.905,3.027-4.3,2.119-2.785,3.232-4.141c1.091-1.33,2.245-2.669,3.429-3.976s2.39-2.572,3.625-3.806,2.515-2.456,3.807-3.625,2.636-2.331,3.976-3.43,2.739-2.192,4.139-3.231,2.859-2.065,4.3-3.026,2.946-1.915,4.442-2.811,3.032-1.768,4.57-2.59,3.122-1.619,4.693-2.362,3.2-1.465,4.8-2.13,3.263-1.3,4.9-1.89,3.32-1.142,4.988-1.648,3.356-.973,5.06-1.4,3.415-.81,5.128-1.152c1.736-.344,3.476-.645,5.179-.9,1.736-.257,3.49-.473,5.214-.643s3.5-.3,5.238-.386c3.468-.171,7.032-.171,10.506,0,1.74.086,3.5.216,5.238.386s3.476.386,5.214.643c1.7.252,3.442.554,5.175.9s3.448.732,5.128,1.152c1.705.428,3.408.9,5.064,1.4s3.347,1.06,4.989,1.648c1.627.582,3.276,1.218,4.9,1.89s3.239,1.389,4.807,2.131c1.583.749,3.161,1.544,4.691,2.362s3.062,1.684,4.571,2.589,3,1.85,4.44,2.811,2.886,1.981,4.293,3.024,2.8,2.129,4.142,3.234,2.682,2.255,3.979,3.431c1.267,1.148,2.548,2.367,3.8,3.62,1.229,1.23,2.447,2.51,3.623,3.806s2.336,2.644,3.432,3.98,2.189,2.736,3.232,4.14,2.054,2.843,3.025,4.3,1.921,2.953,2.812,4.44c.9,1.5,1.773,3.043,2.589,4.572s1.614,3.11,2.362,4.691,1.458,3.184,2.129,4.8,1.305,3.266,1.89,4.9,1.144,3.324,1.649,4.987c.509,1.685.98,3.388,1.4,5.066.428,1.709.815,3.434,1.151,5.128.342,1.714.644,3.456.9,5.177s.472,3.471.642,5.213.3,3.5.387,5.24c.085,1.725.129,3.492.13,5.249s-.045,3.527-.13,5.254-.215,3.5-.387,5.241-.387,3.494-.643,5.214-.555,3.458-.9,5.175c-.337,1.7-.724,3.421-1.15,5.125-.421,1.676-.892,3.378-1.4,5.061-.505,1.665-1.06,3.343-1.649,4.991-.583,1.63-1.22,3.278-1.89,4.9s-1.39,3.241-2.131,4.806-1.538,3.152-2.362,4.692-1.7,3.082-2.589,4.572-1.836,2.979-2.812,4.439c-.964,1.443-1.981,2.887-3.022,4.293-1.057,1.422-2.144,2.815-3.234,4.142-1.108,1.35-2.263,2.688-3.431,3.978s-2.391,2.573-3.624,3.806-2.521,2.46-3.8,3.623-2.624,2.319-3.979,3.431-2.744,2.2-4.144,3.234-2.844,2.056-4.292,3.024-2.93,1.905-4.438,2.81-3.035,1.768-4.574,2.59-3.118,1.618-4.69,2.362-3.186,1.458-4.8,2.129-3.27,1.307-4.9,1.892c-1.654.591-3.332,1.145-4.989,1.647s-3.352.972-5.062,1.4c-1.674.42-3.4.807-5.125,1.151-1.7.339-3.446.642-5.176.9s-3.479.472-5.216.642-3.5.3-5.238.387-3.5.129-5.254.129m0-206.079c-1.62,0-3.255.04-4.858.119s-3.245.2-4.85.358-3.218.357-4.825.595c-1.575.233-3.187.513-4.791.831-1.582.315-3.18.674-4.743,1.065s-3.152.832-4.683,1.3-3.1.981-4.615,1.525-3.042,1.13-4.536,1.749-2.981,1.277-4.442,1.969-2.917,1.424-4.345,2.187-2.844,1.566-4.227,2.4-2.768,1.7-4.108,2.6-2.669,1.832-3.977,2.8-2.585,1.967-3.832,2.99-2.475,2.083-3.678,3.174-2.379,2.209-3.52,3.351-2.272,2.329-3.355,3.522c-1.094,1.209-2.163,2.448-3.173,3.679-1.03,1.256-2.036,2.545-2.99,3.833s-1.9,2.626-2.8,3.975-1.777,2.733-2.6,4.108c-.835,1.392-1.641,2.815-2.4,4.228s-1.494,2.879-2.185,4.342-1.352,2.951-1.969,4.443c-.609,1.467-1.2,2.993-1.751,4.538-.533,1.489-1.047,3.041-1.525,4.617-.469,1.546-.906,3.123-1.3,4.684s-.75,3.165-1.065,4.742-.593,3.192-.83,4.788-.436,3.21-.6,4.828-.279,3.234-.358,4.846-.119,3.259-.119,4.86.04,3.235.119,4.86.2,3.242.358,4.848.36,3.239.595,4.822.517,3.209.831,4.79.674,3.18,1.066,4.745.826,3.131,1.3,4.685c.476,1.57.989,3.123,1.524,4.612.552,1.542,1.14,3.068,1.749,4.536.62,1.5,1.282,2.993,1.97,4.444s1.425,2.921,2.185,4.345,1.57,2.85,2.4,4.228,1.7,2.758,2.6,4.108,1.838,2.678,2.8,3.975,1.971,2.59,2.989,3.831,2.091,2.484,3.176,3.681,2.205,2.374,3.353,3.521c1.13,1.131,2.313,2.258,3.521,3.352,1.192,1.081,2.431,2.149,3.681,3.177s2.538,2.029,3.831,2.988,2.64,1.908,3.976,2.8,2.721,1.769,4.106,2.6c1.369.821,2.792,1.627,4.229,2.4s2.9,1.5,4.341,2.184c1.466.694,2.961,1.357,4.444,1.971s3.015,1.206,4.536,1.75,3.084,1.06,4.615,1.524,3.1.9,4.688,1.3c1.554.39,3.15.748,4.742,1.065,1.575.314,3.186.594,4.79.832s3.214.435,4.824.6,3.235.277,4.849.357c3.206.158,6.5.158,9.718,0,1.61-.08,3.242-.2,4.848-.358s3.231-.358,4.825-.6,3.212-.517,4.789-.831c1.6-.318,3.194-.676,4.74-1.065,1.584-.4,3.161-.833,4.687-1.3s3.086-.978,4.617-1.525c1.512-.541,3.038-1.13,4.536-1.75s2.992-1.283,4.443-1.97,2.916-1.424,4.342-2.186,2.847-1.567,4.23-2.4,2.778-1.713,4.107-2.6,2.675-1.836,3.971-2.8,2.586-1.966,3.834-2.991,2.493-2.1,3.683-3.176,2.371-2.2,3.52-3.353,2.268-2.324,3.352-3.52,2.151-2.433,3.177-3.681c1.006-1.228,2.013-2.518,2.991-3.834.961-1.3,1.9-2.635,2.8-3.972s1.777-2.731,2.6-4.105,1.635-2.8,2.4-4.231,1.5-2.885,2.184-4.342,1.349-2.944,1.971-4.445,1.21-3.028,1.75-4.536c.545-1.524,1.058-3.078,1.525-4.616.471-1.557.908-3.134,1.3-4.684.4-1.577.753-3.173,1.066-4.743.315-1.588.594-3.2.829-4.787s.436-3.216.6-4.826.279-3.237.357-4.847.119-3.236.12-4.863-.041-3.259-.12-4.858-.2-3.242-.357-4.846-.359-3.236-.595-4.825-.515-3.205-.83-4.789c-.312-1.568-.67-3.164-1.067-4.746-.388-1.552-.825-3.13-1.3-4.687-.466-1.537-.98-3.09-1.525-4.615-.541-1.509-1.13-3.036-1.75-4.534s-1.283-2.992-1.969-4.443-1.427-2.924-2.185-4.342-1.562-2.837-2.4-4.23c-.824-1.375-1.7-2.756-2.6-4.107s-1.84-2.682-2.8-3.974-1.972-2.59-2.991-3.833-2.082-2.474-3.176-3.682-2.215-2.383-3.352-3.52c-1.161-1.159-2.345-2.287-3.518-3.349-1.2-1.09-2.44-2.157-3.682-3.176s-2.535-2.029-3.833-2.991-2.64-1.908-3.975-2.8-2.71-1.763-4.106-2.6-2.819-1.643-4.228-2.394-2.879-1.5-4.345-2.189c-1.448-.685-2.944-1.348-4.443-1.969s-3.028-1.21-4.535-1.749-3.073-1.057-4.616-1.525-3.11-.9-4.688-1.3c-1.552-.388-3.149-.747-4.743-1.066s-3.213-.6-4.786-.829c-1.609-.239-3.232-.439-4.825-.595s-3.238-.278-4.849-.358S1456.66,8,1455.041,8" transform="translate(-1758 -2009)" fill="#fff"/>
    <path id="Path_5504" data-name="Path 5504" d="M1493.96,105.738l8.926,5.441-14.9,24.447a41.663,41.663,0,0,1-11.458,12.288,2.012,2.012,0,0,1-3.137-1.943,41.664,41.664,0,0,1,5.668-15.786Zm29.551-24.858a7.124,7.124,0,0,0-3.258-9.282,7.3,7.3,0,0,0-9.456,2.865L1493.7,102.507l12.173,7.419,15.947-26.163a4.831,4.831,0,0,1-.129,4.793l-11.278,18.5a1.559,1.559,0,0,0,.167,1.9,1.522,1.522,0,0,0,2.4-.261l11.31-18.555a7.886,7.886,0,0,0-.779-9.257" transform="translate(-1758 -2009)" fill="#fff"/>
    <path id="Path_5505" data-name="Path 5505" d="M1461.711,121.75h-33.452a1.648,1.648,0,0,0-1.648,1.648v7.222a1.649,1.649,0,0,0,1.648,1.649h44.435c.592-1.516,4.059-9.068,4.817-10.519h-15.8Z" transform="translate(-1758 -2009)" fill="#fff"/>
    <path id="Path_5506" data-name="Path 5506" d="M1490.854,137.374c-.33.541-.677,1.068-1.027,1.592v18.7H1415.57V56.42h51.251V80.228h23.006v22.194l7.416-12.167V81.047a11.226,11.226,0,0,0-3.161-7.81l-20.156-20.816A11.228,11.228,0,0,0,1465.86,49h-46.479a11.227,11.227,0,0,0-11.227,11.227v93.628a11.228,11.228,0,0,0,11.227,11.228h66.635a11.227,11.227,0,0,0,11.227-11.228V126.891ZM1471.271,60.34l14.948,15.438h-14.948Z" transform="translate(-1758 -2009)" fill="#fff"/>
    <path id="Path_5507" data-name="Path 5507" d="M1477.791,105.05h0a1.648,1.648,0,0,0-1.649-1.648h-47.885a1.648,1.648,0,0,0-1.649,1.648v7.221a1.649,1.649,0,0,0,1.649,1.649h47.885a1.649,1.649,0,0,0,1.649-1.649Z" transform="translate(-1758 -2009)" fill="#fff"/>
    <path id="Path_5508" data-name="Path 5508" d="M1426.611,90.55v1.825c0,1.442.738,2.611,1.649,2.611h23.279c.91,0,1.649-1.169,1.649-2.611V90.55c0-1.442-.739-2.611-1.649-2.611H1428.26c-.911,0-1.649,1.169-1.649,2.611" transform="translate(-1758 -2009)" fill="#fff"/>
    <path id="Path_5509" data-name="Path 5509" d="M1426.611,76.16v1.825c0,1.443.738,2.612,1.649,2.612h23.279c.91,0,1.649-1.169,1.649-2.612V76.16c0-1.442-.739-2.611-1.649-2.611H1428.26c-.911,0-1.649,1.169-1.649,2.611" transform="translate(-1758 -2009)" fill="#fff"/>
    <path id="Path_5510" data-name="Path 5510" d="M1435.321,140l-1.039,1.392-1.418-1-.559,1.645-1.658-.515-.023,1.736-1.736.023.514,1.659-1.644.558,1,1.418-1.391,1.039,1.391,1.04-1,1.418,1.644.558-.514,1.658,1.736.023.023,1.737,1.658-.515.559,1.644,1.418-1,1.039,1.392,1.039-1.392,1.418,1,.559-1.644,1.658.515.023-1.737,1.736-.023-.514-1.658,1.644-.558-1-1.418,1.391-1.04-1.391-1.039,1-1.418-1.644-.558.514-1.659-1.736-.023-.023-1.736-1.658.515-.559-1.645-1.418,1Z" transform="translate(-1758 -2009)" fill="#fff"/>
    <path id="Path_5511" data-name="Path 5511" d="M1453.981,146.41c1,.346,5.037,2.208,5.392.331a.613.613,0,0,1,.964-.424l4.611,3.433q-.328-1.651-.658-3.3a.66.66,0,0,1,.957-.736,29.763,29.763,0,0,1,9.331,7.769c.516.65-.4,1.579-.922.922a28.886,28.886,0,0,0-7.822-6.86l.711,3.564c.1.493-.46,1.106-.958.736l-5.249-3.909c-1.179,2.046-5.024.312-6.7-.266-.788-.271-.449-1.531.347-1.257" transform="translate(-1758 -2009)" fill="#fff"/>
  </g>
</svg>
