<svg id="_10" data-name="10" xmlns="http://www.w3.org/2000/svg" xmlns:xlink="http://www.w3.org/1999/xlink" width="193.534" height="158.56" viewBox="0 0 193.534 158.56">
  <defs>
    <clipPath id="clip-path">
      <rect id="Rectangle_7426" data-name="Rectangle 7426" width="193.534" height="158.56" fill="#e6e4dc"/>
    </clipPath>
  </defs>
  <g id="Group_39081" data-name="Group 39081" clip-path="url(#clip-path)">
    <path id="Path_5571" data-name="Path 5571" d="M193.534,141.056a84.42,84.42,0,0,1-41.652-7.128,72.636,72.636,0,0,1-16.705-9.875,40.552,40.552,0,0,0,36.306-25.54c.891-2.3.891-2.3-1.633-2.08-6.163.6-10.841.446-14.628-1.039,3.49-1.114,6.683-1.93,9.578-3.563,13.29-7.425,20.418-18.711,21.532-34.006.223-1.855-.3-2-1.931-1.187a37.426,37.426,0,0,1-15.74,4.083,81.861,81.861,0,0,0,6.831-6.088c11.063-11.731,13.736-30.812,6.237-45.216-.966-1.931-1.411-1.931-2.821-.223-18.488,21.309-41.58,34.3-69.421,38.757-2.973.445-6.014.594-9.055,1.039-1.863.371-2.159-.594-1.863-2.153A40,40,0,0,0,31.6,11.05a3.826,3.826,0,0,1-4.235,1.04A80.94,80.94,0,0,1,6.21,3.848a11.136,11.136,0,0,1-1.635-.965C7.548,12.238,13.189,19.217,21.43,24.86,13.638,24.118,6.8,21.816.044,19.217c-.221,1.04.448,1.633.9,2.228A79.145,79.145,0,0,0,17.424,38.373a3.16,3.16,0,0,1,1.558,3.267c-.372,29.327,8.911,55.388,27.69,77.958,17.449,20.79,39.8,33.188,66.525,37.421,28.366,4.381,54.944-.52,79.446-15.444a2.177,2.177,0,0,1,.891-.519" transform="translate(0)" fill="#e6e4dc" fill-rule="evenodd"/>
  </g>
</svg>
