<svg xmlns="http://www.w3.org/2000/svg" width="77.409" height="55.313" viewBox="0 0 77.409 55.313">
  <g id="_11" data-name="11" transform="translate(931 604)">
    <path id="Path_5573" data-name="Path 5573" d="M23.674,41.485Q15.6,51.109,6.306,55.313L4.2,50.888q10.62-5.975,14.658-12.943T22.9,26.329a1.938,1.938,0,0,0-1-1.991,5.109,5.109,0,0,0-2.1-.443l-7.412.775a13.48,13.48,0,0,1-8.518-3.042Q0,18.586,0,12.833A14.091,14.091,0,0,1,3.208,4.2Q6.415,0,13.717,0a17.337,17.337,0,0,1,12.5,5.476q5.531,5.477,5.532,15.211,0,11.172-8.076,20.8" transform="translate(-931 -604)" fill="#e6e4dc"/>
    <path id="Path_5574" data-name="Path 5574" d="M23.674,41.485Q15.6,51.109,6.306,55.313L4.2,50.888q10.62-5.975,14.658-12.943T22.9,26.329a1.938,1.938,0,0,0-1-1.991,5.109,5.109,0,0,0-2.1-.443l-7.412.775a13.48,13.48,0,0,1-8.518-3.042Q0,18.586,0,12.833A14.091,14.091,0,0,1,3.208,4.2Q6.415,0,13.717,0a17.337,17.337,0,0,1,12.5,5.476q5.531,5.477,5.532,15.211,0,11.172-8.076,20.8" transform="translate(-885.341 -604)" fill="#e6e4dc"/>
  </g>
</svg>
