<svg id="_12" data-name="12" xmlns="http://www.w3.org/2000/svg" width="77.409" height="55.313" viewBox="0 0 77.409 55.313">
  <path id="Path_5573" data-name="Path 5573" d="M23.674,13.828Q15.6,4.2,6.306,0L4.2,4.425Q14.824,10.4,18.862,17.368T22.9,28.984a1.938,1.938,0,0,1-1,1.991,5.109,5.109,0,0,1-2.1.443l-7.412-.775a13.48,13.48,0,0,0-8.518,3.042Q0,36.727,0,42.48a14.091,14.091,0,0,0,3.208,8.629q3.207,4.2,10.509,4.2a17.337,17.337,0,0,0,12.5-5.476q5.531-5.476,5.532-15.211,0-11.172-8.076-20.8" transform="translate(0 0)" fill="#e6e4dc"/>
  <path id="Path_5574" data-name="Path 5574" d="M23.674,13.828Q15.6,4.2,6.306,0L4.2,4.425Q14.824,10.4,18.862,17.368T22.9,28.984a1.938,1.938,0,0,1-1,1.991,5.109,5.109,0,0,1-2.1.443l-7.412-.775a13.48,13.48,0,0,0-8.518,3.042Q0,36.727,0,42.48a14.091,14.091,0,0,0,3.208,8.629q3.207,4.2,10.509,4.2a17.337,17.337,0,0,0,12.5-5.476q5.531-5.476,5.532-15.211,0-11.172-8.076-20.8" transform="translate(45.659 0)" fill="#e6e4dc"/>
</svg>
