<svg xmlns="http://www.w3.org/2000/svg" width="326.928" height="326.927" viewBox="0 0 326.928 326.927">
  <g id="Group_38989" data-name="Group 38989" transform="translate(-1517.17 -6868.993)">
    <rect id="Rectangle_6496" data-name="Rectangle 6496" width="326.928" height="46.704" transform="translate(1517.17 6868.993)" fill="#8c1538"/>
    <text id="أكتوبر_2021" data-name="أكتوبر 2021" transform="translate(1620.459 6897.852)" fill="#fff" font-size="18.591" font-family="ArialMT, Arial"><tspan x="0" y="0">2021</tspan><tspan y="0">أكتوبر </tspan></text>
    <path id="Path_3352" data-name="Path 3352" d="M1544.414,6885.339l-7.784,7.784,7.784,7.784" fill="#fff" stroke="#000" stroke-width="1.2"/>
    <path id="Path_3353" data-name="Path 3353" d="M1816.854,6885.339l7.784,7.784-7.784,7.784" fill="#fff" stroke="#000" stroke-width="1.2"/>
    <rect id="Rectangle_6497" data-name="Rectangle 6497" width="46.704" height="46.704" transform="translate(1517.17 6915.697)" fill="#ebebeb"/>
    <text id="اثنين" transform="translate(1532.285 6942.832)" font-size="14.217" font-family="ArialMT, Arial"><tspan x="0" y="0">اثنين</tspan></text>
    <rect id="Rectangle_6498" data-name="Rectangle 6498" width="46.704" height="46.704" transform="translate(1563.874 6915.697)" fill="#ebebeb"/>
    <text id="ثلاثاء" transform="translate(1582.163 6940.645)" font-size="12.029" font-family="ArialMT, Arial"><tspan x="0" y="0">ثلاثاء</tspan></text>
    <rect id="Rectangle_6499" data-name="Rectangle 6499" width="46.704" height="46.704" transform="translate(1610.578 6915.697)" fill="#ebebeb"/>
    <text id="أربعاء" transform="translate(1625.999 6942.832)" font-size="14.217" font-family="ArialMT, Arial"><tspan x="0" y="0">أربعاء</tspan></text>
    <rect id="Rectangle_6500" data-name="Rectangle 6500" width="46.704" height="46.704" transform="translate(1657.281 6915.697)" fill="#ebebeb"/>
    <text id="خميس" transform="translate(1675.57 6940.645)" font-size="12.029" font-family="ArialMT, Arial"><tspan x="0" y="0">خميس</tspan></text>
    <rect id="Rectangle_6501" data-name="Rectangle 6501" width="46.704" height="46.704" transform="translate(1703.986 6915.697)" fill="#ebebeb"/>
    <text id="جمعة" transform="translate(1722.275 6940.645)" font-size="12.029" font-family="ArialMT, Arial"><tspan x="0" y="0">جمعة</tspan></text>
    <rect id="Rectangle_6502" data-name="Rectangle 6502" width="46.704" height="46.704" transform="translate(1750.69 6915.697)" fill="#ebebeb"/>
    <text id="سبت" transform="translate(1767.448 6942.832)" font-size="14.217" font-family="ArialMT, Arial"><tspan x="0" y="0">سبت</tspan></text>
    <rect id="Rectangle_6503" data-name="Rectangle 6503" width="46.704" height="46.704" transform="translate(1797.393 6915.697)" fill="#ebebeb"/>
    <text id="أحد" transform="translate(1814.152 6942.832)" font-size="14.217" font-family="ArialMT, Arial"><tspan x="0" y="0">أحد</tspan></text>
    <rect id="Rectangle_6504" data-name="Rectangle 6504" width="46.704" height="46.704" transform="translate(1517.17 6962.401)" fill="#f2f2f2"/>
    <text id="_27" data-name="27" transform="translate(1529.128 6991.26)" fill="#aaa" font-size="18.591" font-family="ArialMT, Arial"><tspan x="0" y="0">27</tspan></text>
    <rect id="Rectangle_6505" data-name="Rectangle 6505" width="46.704" height="46.704" transform="translate(1563.874 6962.401)" fill="#f2f2f2"/>
    <text id="_28" data-name="28" transform="translate(1575.832 6991.26)" fill="#aaa" font-size="18.591" font-family="ArialMT, Arial"><tspan x="0" y="0">28</tspan></text>
    <rect id="Rectangle_6506" data-name="Rectangle 6506" width="46.704" height="46.704" transform="translate(1610.578 6962.401)" fill="#f2f2f2"/>
    <text id="_29" data-name="29" transform="translate(1622.536 6991.26)" fill="#aaa" font-size="18.591" font-family="ArialMT, Arial"><tspan x="0" y="0">29</tspan></text>
    <rect id="Rectangle_6507" data-name="Rectangle 6507" width="46.704" height="46.704" transform="translate(1657.281 6962.401)" fill="#f2f2f2"/>
    <text id="_30" data-name="30" transform="translate(1669.239 6991.26)" fill="#aaa" font-size="18.591" font-family="ArialMT, Arial"><tspan x="0" y="0">30</tspan></text>
    <rect id="Rectangle_6508" data-name="Rectangle 6508" width="46.704" height="46.704" transform="translate(1703.986 6962.401)" fill="#f2f2f2"/>
    <text id="_1" data-name="1" transform="translate(1722.299 6986.885)" font-size="13.123" font-family="ArialMT, Arial"><tspan x="0" y="0">1</tspan></text>
    <rect id="Rectangle_6509" data-name="Rectangle 6509" width="46.704" height="46.704" transform="translate(1750.69 6962.401)" fill="#f2f2f2"/>
    <text id="_2" data-name="2" transform="translate(1769.003 6986.885)" font-size="13.123" font-family="ArialMT, Arial"><tspan x="0" y="0">2</tspan></text>
    <rect id="Rectangle_6510" data-name="Rectangle 6510" width="46.704" height="46.704" transform="translate(1797.393 6962.401)" fill="#f2f2f2"/>
    <text id="_3" data-name="3" transform="translate(1815.707 6986.885)" font-size="13.123" font-family="ArialMT, Arial"><tspan x="0" y="0">3</tspan></text>
    <rect id="Rectangle_6511" data-name="Rectangle 6511" width="46.704" height="46.704" transform="translate(1517.17 7009.105)" fill="#f2f2f2"/>
    <text id="_4" data-name="4" transform="translate(1535.483 7033.589)" font-size="13.123" font-family="ArialMT, Arial"><tspan x="0" y="0">4</tspan></text>
    <rect id="Rectangle_6512" data-name="Rectangle 6512" width="46.704" height="46.704" transform="translate(1563.874 7009.105)" fill="#f2f2f2"/>
    <text id="_5" data-name="5" transform="translate(1582.187 7033.589)" font-size="13.123" font-family="ArialMT, Arial"><tspan x="0" y="0">5</tspan></text>
    <rect id="Rectangle_6513" data-name="Rectangle 6513" width="46.704" height="46.704" transform="translate(1610.578 7009.105)" fill="#f2f2f2"/>
    <text id="_6" data-name="6" transform="translate(1628.891 7033.589)" font-size="13.123" font-family="ArialMT, Arial"><tspan x="0" y="0">6</tspan></text>
    <rect id="Rectangle_6514" data-name="Rectangle 6514" width="46.704" height="46.704" transform="translate(1657.281 7009.105)" fill="#f2f2f2"/>
    <text id="_7" data-name="7" transform="translate(1675.596 7033.589)" font-size="13.123" font-family="ArialMT, Arial"><tspan x="0" y="0">7</tspan></text>
    <rect id="Rectangle_6515" data-name="Rectangle 6515" width="46.704" height="46.704" transform="translate(1703.986 7009.105)" fill="#f2f2f2"/>
    <text id="_8" data-name="8" transform="translate(1722.299 7033.589)" font-size="13.123" font-family="ArialMT, Arial"><tspan x="0" y="0">8</tspan></text>
    <rect id="Rectangle_6516" data-name="Rectangle 6516" width="46.704" height="46.704" transform="translate(1750.69 7009.105)" fill="#f2f2f2"/>
    <text id="_9" data-name="9" transform="translate(1769.003 7033.589)" font-size="13.123" font-family="ArialMT, Arial"><tspan x="0" y="0">9</tspan></text>
    <rect id="Rectangle_6517" data-name="Rectangle 6517" width="46.704" height="46.704" transform="translate(1797.393 7009.105)" fill="#f2f2f2"/>
    <text id="_10" data-name="10" transform="translate(1809.351 7037.964)" font-size="18.591" font-family="ArialMT, Arial"><tspan x="0" y="0">10</tspan></text>
    <rect id="Rectangle_6518" data-name="Rectangle 6518" width="46.704" height="46.704" transform="translate(1517.17 7055.809)" fill="#f2f2f2"/>
    <text id="_1-2" data-name="1" transform="translate(1530.848 7083.573)" font-size="17.497" font-family="ArialMT, Arial"><tspan x="0" y="0">1</tspan></text>
    <text id="_1-3" data-name="1" transform="translate(1539.28 7083.573)" font-size="17.497" font-family="ArialMT, Arial"><tspan x="0" y="0">1</tspan></text>
    <rect id="Rectangle_6519" data-name="Rectangle 6519" width="46.704" height="46.704" transform="translate(1563.874 7055.809)" fill="#f2f2f2"/>
    <text id="_12" data-name="12" transform="translate(1575.832 7084.667)" font-size="18.591" font-family="ArialMT, Arial"><tspan x="0" y="0">12</tspan></text>
    <rect id="Rectangle_6520" data-name="Rectangle 6520" width="46.704" height="46.704" transform="translate(1610.578 7055.809)" fill="#f2f2f2"/>
    <text id="_13" data-name="13" transform="translate(1622.536 7084.667)" font-size="18.591" font-family="ArialMT, Arial"><tspan x="0" y="0">13</tspan></text>
    <rect id="Rectangle_6521" data-name="Rectangle 6521" width="45.61" height="45.61" transform="translate(1657.828 7056.355)" fill="#f2f2f2"/>
    <rect id="Rectangle_6522" data-name="Rectangle 6522" width="45.61" height="45.61" transform="translate(1657.828 7056.355)" fill="none" stroke="#8c1538" stroke-width="1"/>
    <text id="_14" data-name="14" transform="translate(1669.239 7084.667)" font-size="18.591" font-family="ArialMT, Arial"><tspan x="0" y="0">14</tspan></text>
    <rect id="Rectangle_6523" data-name="Rectangle 6523" width="46.704" height="46.704" transform="translate(1703.986 7055.809)" fill="#f2f2f2"/>
    <text id="_15" data-name="15" transform="translate(1715.943 7084.667)" font-size="18.591" font-family="ArialMT, Arial"><tspan x="0" y="0">15</tspan></text>
    <rect id="Rectangle_6524" data-name="Rectangle 6524" width="46.704" height="46.704" transform="translate(1750.69 7055.809)" fill="#f2f2f2"/>
    <text id="_16" data-name="16" transform="translate(1762.647 7084.667)" font-size="18.591" font-family="ArialMT, Arial"><tspan x="0" y="0">16</tspan></text>
    <rect id="Rectangle_6525" data-name="Rectangle 6525" width="46.704" height="46.704" transform="translate(1797.393 7055.809)" fill="#f2f2f2"/>
    <text id="_17" data-name="17" transform="translate(1809.351 7084.667)" font-size="18.591" font-family="ArialMT, Arial"><tspan x="0" y="0">17</tspan></text>
    <rect id="Rectangle_6526" data-name="Rectangle 6526" width="46.704" height="46.704" transform="translate(1517.17 7102.513)" fill="#f2f2f2"/>
    <text id="_18" data-name="18" transform="translate(1529.128 7131.371)" font-size="18.591" font-family="ArialMT, Arial"><tspan x="0" y="0">18</tspan></text>
    <rect id="Rectangle_6527" data-name="Rectangle 6527" width="46.704" height="46.704" transform="translate(1563.874 7102.513)" fill="#f2f2f2"/>
    <text id="_19" data-name="19" transform="translate(1575.832 7131.371)" font-size="18.591" font-family="ArialMT, Arial"><tspan x="0" y="0">19</tspan></text>
    <rect id="Rectangle_6528" data-name="Rectangle 6528" width="46.704" height="46.704" transform="translate(1610.578 7102.513)" fill="#f2f2f2"/>
    <text id="_20" data-name="20" transform="translate(1622.536 7131.371)" font-size="18.591" font-family="ArialMT, Arial"><tspan x="0" y="0">20</tspan></text>
    <rect id="Rectangle_6529" data-name="Rectangle 6529" width="46.704" height="46.704" transform="translate(1657.281 7102.513)" fill="#f2f2f2"/>
    <text id="_21" data-name="21" transform="translate(1669.239 7131.371)" font-size="18.591" font-family="ArialMT, Arial"><tspan x="0" y="0">21</tspan></text>
    <rect id="Rectangle_6530" data-name="Rectangle 6530" width="46.704" height="46.704" transform="translate(1703.986 7102.513)" fill="#f2f2f2"/>
    <text id="_22" data-name="22" transform="translate(1715.943 7131.371)" font-size="18.591" font-family="ArialMT, Arial"><tspan x="0" y="0">22</tspan></text>
    <rect id="Rectangle_6531" data-name="Rectangle 6531" width="46.704" height="46.704" transform="translate(1750.69 7102.513)" fill="#f2f2f2"/>
    <text id="_23" data-name="23" transform="translate(1762.647 7131.371)" font-size="18.591" font-family="ArialMT, Arial"><tspan x="0" y="0">23</tspan></text>
    <rect id="Rectangle_6532" data-name="Rectangle 6532" width="46.704" height="46.704" transform="translate(1797.393 7102.513)" fill="#f2f2f2"/>
    <text id="_24" data-name="24" transform="translate(1809.351 7131.371)" font-size="18.591" font-family="ArialMT, Arial"><tspan x="0" y="0">24</tspan></text>
    <rect id="Rectangle_6533" data-name="Rectangle 6533" width="46.704" height="46.704" transform="translate(1517.17 7149.217)" fill="#f2f2f2"/>
    <text id="_25" data-name="25" transform="translate(1529.128 7178.075)" font-size="18.591" font-family="ArialMT, Arial"><tspan x="0" y="0">25</tspan></text>
    <rect id="Rectangle_6534" data-name="Rectangle 6534" width="46.704" height="46.704" transform="translate(1563.874 7149.217)" fill="#f2f2f2"/>
    <text id="_26" data-name="26" transform="translate(1575.832 7178.075)" font-size="18.591" font-family="ArialMT, Arial"><tspan x="0" y="0">26</tspan></text>
    <rect id="Rectangle_6535" data-name="Rectangle 6535" width="46.704" height="46.704" transform="translate(1610.578 7149.217)" fill="#f2f2f2"/>
    <text id="_27-2" data-name="27" transform="translate(1622.536 7178.075)" font-size="18.591" font-family="ArialMT, Arial"><tspan x="0" y="0">27</tspan></text>
    <rect id="Rectangle_6536" data-name="Rectangle 6536" width="46.704" height="46.704" transform="translate(1657.281 7149.217)" fill="#f2f2f2"/>
    <text id="_28-2" data-name="28" transform="translate(1669.239 7178.075)" font-size="18.591" font-family="ArialMT, Arial"><tspan x="0" y="0">28</tspan></text>
    <rect id="Rectangle_6537" data-name="Rectangle 6537" width="46.704" height="46.704" transform="translate(1703.986 7149.217)" fill="#f2f2f2"/>
    <text id="_29-2" data-name="29" transform="translate(1715.943 7178.075)" font-size="18.591" font-family="ArialMT, Arial"><tspan x="0" y="0">29</tspan></text>
    <rect id="Rectangle_6538" data-name="Rectangle 6538" width="46.704" height="46.704" transform="translate(1750.69 7149.217)" fill="#f2f2f2"/>
    <text id="_30-2" data-name="30" transform="translate(1762.647 7178.075)" font-size="18.591" font-family="ArialMT, Arial"><tspan x="0" y="0">30</tspan></text>
    <rect id="Rectangle_6539" data-name="Rectangle 6539" width="46.704" height="46.704" transform="translate(1797.393 7149.217)" fill="#f2f2f2"/>
    <text id="_31" data-name="31" transform="translate(1809.351 7178.075)" font-size="18.591" font-family="ArialMT, Arial"><tspan x="0" y="0">31</tspan></text>
  </g>
</svg>
