<svg xmlns="http://www.w3.org/2000/svg" xmlns:xlink="http://www.w3.org/1999/xlink" width="214.08" height="214.078" viewBox="0 0 214.08 214.078">
  <defs>
    <clipPath id="clip-path">
      <rect id="Rectangle_7416" data-name="Rectangle 7416" width="60.612" height="59.4" transform="translate(926.711 121.67)" fill="none"/>
    </clipPath>
    <clipPath id="clip-path-2">
      <rect id="Rectangle_7415" data-name="Rectangle 7415" width="60.61" height="59.4" transform="translate(926.711 121.67)" fill="none"/>
    </clipPath>
  </defs>
  <g id="_2" data-name="2" transform="translate(873.068 2008.999)">
    <g id="Group_39057" data-name="Group 39057" transform="translate(-1758 -2009)" opacity="0.102">
      <g id="Group_39056" data-name="Group 39056">
        <g id="Group_39055" data-name="Group 39055" clip-path="url(#clip-path)">
          <g id="Group_39054" data-name="Group 39054">
            <g id="Group_39053" data-name="Group 39053" clip-path="url(#clip-path-2)">
              <path id="Path_5512" data-name="Path 5512" d="M926.711,159.25V127.732a6.047,6.047,0,0,1,1.022-3.367,6.089,6.089,0,0,1,.753-.919,6.063,6.063,0,0,1,1.967-1.314,6.1,6.1,0,0,1,2.319-.461H975.2a12.119,12.119,0,0,1,4.639.923,11.984,11.984,0,0,1,2.1,1.12,12.121,12.121,0,0,1,5.388,10.079v41.216a6.012,6.012,0,0,1-.117,1.182,6.047,6.047,0,0,1-.9,2.185,5.941,5.941,0,0,1-.754.919,6.044,6.044,0,0,1-1.966,1.314,6.047,6.047,0,0,1-2.32.461h-32.73q-1.071,0-2.139-.105t-2.118-.314q-1.051-.209-2.077-.52t-2.016-.722q-.99-.409-1.936-.915t-1.836-1.1q-.892-.6-1.72-1.276a21.389,21.389,0,0,1-1.587-1.438q-.758-.758-1.438-1.586t-1.276-1.72q-.6-.893-1.1-1.837t-.916-1.936q-.41-.99-.721-2.016t-.521-2.077q-.208-1.052-.314-2.118t-.1-2.139" fill="#fff"/>
            </g>
          </g>
        </g>
      </g>
    </g>
    <path id="Path_5513" data-name="Path 5513" d="M991.972,214.079c-1.751,0-3.519-.043-5.254-.129s-3.505-.216-5.238-.386-3.492-.388-5.213-.643-3.475-.56-5.178-.9c-1.721-.342-3.447-.73-5.127-1.151-1.712-.429-3.416-.9-5.064-1.4s-3.326-1.053-4.986-1.646c-1.635-.585-3.286-1.222-4.9-1.892s-3.225-1.383-4.8-2.129c-1.56-.739-3.139-1.533-4.691-2.362s-3.09-1.7-4.573-2.59c-1.508-.9-3-1.85-4.437-2.809s-2.886-1.981-4.3-3.026-2.795-2.127-4.141-3.232-2.7-2.271-3.978-3.432-2.575-2.392-3.806-3.624-2.462-2.523-3.624-3.806-2.312-2.615-3.429-3.975c-1.1-1.342-2.191-2.736-3.234-4.143-1.028-1.387-2.045-2.832-3.024-4.294s-1.925-2.96-2.813-4.443-1.762-3.024-2.587-4.568-1.624-3.129-2.364-4.7c-.75-1.586-1.466-3.2-2.129-4.8s-1.295-3.236-1.889-4.9c-.584-1.63-1.139-3.309-1.649-4.988s-.976-3.37-1.4-5.064-.814-3.43-1.151-5.128-.643-3.451-.9-5.177-.471-3.471-.642-5.211-.3-3.5-.387-5.241-.129-3.522-.129-5.252.043-3.5.129-5.251.216-3.506.387-5.24.388-3.5.642-5.215.559-3.469.9-5.177c.336-1.691.723-3.415,1.15-5.125s.9-3.4,1.4-5.064c.512-1.684,1.067-3.362,1.65-4.99.6-1.669,1.234-3.319,1.891-4.9s1.375-3.21,2.127-4.8c.743-1.572,1.538-3.15,2.364-4.693s1.687-3.066,2.589-4.572c.886-1.48,1.832-2.973,2.809-4.437s2-2.919,3.027-4.3,2.119-2.785,3.232-4.141,2.26-2.685,3.431-3.978,2.384-2.566,3.623-3.8,2.526-2.465,3.807-3.625,2.63-2.326,3.977-3.43,2.734-2.189,4.138-3.231,2.863-2.067,4.3-3.026,2.931-1.907,4.439-2.811,3.037-1.77,4.573-2.59,3.118-1.618,4.69-2.362,3.19-1.461,4.8-2.13,3.274-1.308,4.9-1.89c1.647-.59,3.326-1.144,4.989-1.648s3.355-.973,5.06-1.4c1.688-.422,3.411-.81,5.126-1.152,1.738-.344,3.479-.646,5.18-.9C978,.9,979.758.685,981.48.515s3.495-.3,5.238-.386c3.47-.171,7.035-.171,10.507,0,1.74.086,3.5.216,5.238.386s3.476.386,5.213.643c1.7.252,3.44.553,5.175.9s3.444.731,5.128,1.152c1.706.428,3.41.9,5.065,1.4s3.345,1.06,4.989,1.648,3.279,1.22,4.9,1.89,3.238,1.389,4.806,2.131c1.583.749,3.162,1.544,4.692,2.363s3.061,1.683,4.57,2.588,2.99,1.842,4.44,2.811,2.886,1.981,4.293,3.024,2.8,2.129,4.142,3.233,2.676,2.25,3.979,3.432c1.279,1.158,2.559,2.377,3.805,3.621s2.458,2.52,3.623,3.806c1.181,1.3,2.336,2.643,3.432,3.98,1.111,1.355,2.2,2.748,3.232,4.14s2.04,2.823,3.023,4.293,1.922,2.955,2.813,4.44c.9,1.507,1.774,3.045,2.59,4.574s1.617,3.116,2.362,4.693,1.466,3.2,2.129,4.8,1.3,3.246,1.889,4.9c.583,1.628,1.138,3.306,1.649,4.987s.981,3.388,1.4,5.068c.427,1.707.814,3.432,1.15,5.126s.643,3.448.9,5.175.472,3.473.642,5.215.3,3.5.387,5.24c.085,1.725.129,3.492.13,5.249s-.045,3.527-.13,5.254-.215,3.5-.387,5.241-.387,3.494-.643,5.214-.557,3.465-.9,5.175-.724,3.421-1.15,5.125c-.42,1.676-.891,3.38-1.4,5.064s-1.066,3.36-1.65,4.99c-.589,1.646-1.224,3.295-1.89,4.9s-1.381,3.222-2.13,4.8-1.534,3.147-2.361,4.692-1.7,3.082-2.589,4.572-1.836,2.979-2.811,4.437-2,2.909-3.025,4.3c-1.045,1.407-2.132,2.8-3.233,4.141s-2.262,2.688-3.432,3.979-2.379,2.561-3.622,3.8-2.511,2.45-3.805,3.623-2.63,2.325-3.978,3.431-2.745,2.2-4.143,3.233-2.846,2.057-4.292,3.025-2.945,1.913-4.441,2.81-3.034,1.768-4.573,2.59-3.117,1.618-4.691,2.362-3.185,1.458-4.8,2.129-3.266,1.306-4.9,1.892c-1.656.592-3.335,1.146-4.991,1.648s-3.35.971-5.061,1.4c-1.678.421-3.4.808-5.126,1.151-1.706.34-3.448.642-5.176.9s-3.477.471-5.214.642-3.5.3-5.239.387-3.5.129-5.253.129M991.972,8c-1.62,0-3.255.04-4.859.119s-3.245.2-4.85.358-3.215.357-4.824.595c-1.573.233-3.186.512-4.792.831-1.583.316-3.181.674-4.741,1.065-1.577.4-3.154.832-4.683,1.3s-3.092.979-4.616,1.525c-1.509.539-3.035,1.127-4.538,1.749s-2.986,1.28-4.441,1.969-2.918,1.425-4.344,2.187-2.843,1.564-4.228,2.4-2.778,1.712-4.106,2.6-2.669,1.831-3.979,2.8-2.587,1.969-3.83,2.989-2.483,2.09-3.68,3.175-2.369,2.2-3.521,3.352-2.274,2.33-3.352,3.52-2.152,2.435-3.176,3.682-2.035,2.543-2.989,3.831-1.889,2.614-2.8,3.977-1.777,2.734-2.6,4.1c-.836,1.394-1.642,2.817-2.4,4.23-.764,1.429-1.5,2.89-2.186,4.342-.7,1.472-1.358,2.967-1.969,4.443s-1.2,2.993-1.751,4.538c-.539,1.5-1.052,3.058-1.525,4.617-.465,1.534-.9,3.11-1.3,4.684s-.754,3.177-1.066,4.742c-.314,1.581-.593,3.192-.83,4.788s-.436,3.216-.6,4.828-.279,3.234-.358,4.846-.119,3.259-.119,4.86.04,3.235.119,4.86.2,3.242.358,4.848.36,3.234.6,4.824.516,3.207.83,4.788.671,3.167,1.067,4.745.828,3.144,1.3,4.685.984,3.106,1.524,4.614c.552,1.54,1.14,3.066,1.749,4.534s1.276,2.978,1.971,4.446c.683,1.448,1.419,2.908,2.185,4.343s1.57,2.85,2.4,4.228,1.7,2.754,2.6,4.108,1.847,2.691,2.8,3.975c.965,1.3,1.971,2.59,2.989,3.831,1.036,1.259,2.1,2.5,3.176,3.68s2.2,2.372,3.353,3.522,2.323,2.267,3.521,3.352,2.425,2.144,3.682,3.177,2.534,2.027,3.83,2.988,2.643,1.91,3.976,2.8,2.71,1.762,4.107,2.6c1.371.823,2.794,1.629,4.228,2.4s2.9,1.5,4.342,2.186,2.953,1.353,4.444,1.97,3.023,1.209,4.536,1.75c1.536.549,3.089,1.062,4.614,1.524s3.1.9,4.688,1.3c1.553.39,3.149.748,4.742,1.065,1.577.314,3.188.594,4.791.832s3.215.436,4.823.6,3.234.277,4.849.357c3.208.158,6.507.158,9.717,0,1.613-.08,3.245-.2,4.85-.358s3.231-.358,4.824-.6,3.209-.517,4.789-.831,3.19-.676,4.741-1.065c1.584-.4,3.161-.833,4.685-1.3s3.087-.977,4.619-1.525c1.514-.541,3.039-1.13,4.534-1.75s2.993-1.283,4.444-1.97,2.917-1.424,4.341-2.185,2.848-1.568,4.231-2.4,2.768-1.706,4.109-2.6,2.673-1.835,3.972-2.8,2.584-1.966,3.833-2.991,2.485-2.092,3.681-3.175,2.381-2.213,3.519-3.351,2.279-2.335,3.352-3.52,2.152-2.434,3.177-3.682,2.024-2.531,2.991-3.833c.951-1.283,1.892-2.62,2.8-3.975s1.776-2.73,2.6-4.106,1.634-2.8,2.4-4.229,1.5-2.889,2.182-4.34c.695-1.467,1.357-2.961,1.971-4.445s1.205-3.014,1.751-4.538c.54-1.508,1.053-3.061,1.525-4.616s.909-3.133,1.3-4.682c.4-1.579.754-3.175,1.067-4.745s.593-3.193.83-4.789.436-3.214.6-4.824.279-3.237.357-4.847.119-3.236.12-4.863-.041-3.259-.12-4.858-.2-3.242-.357-4.846-.359-3.236-.6-4.825-.517-3.21-.831-4.789-.67-3.164-1.067-4.746c-.387-1.553-.824-3.129-1.3-4.685s-.986-3.109-1.524-4.615c-.548-1.528-1.137-3.054-1.75-4.534s-1.276-2.979-1.97-4.445-1.425-2.92-2.184-4.342-1.562-2.837-2.4-4.23c-.824-1.374-1.7-2.757-2.6-4.109s-1.851-2.7-2.8-3.971-1.963-2.579-2.992-3.834c-1.013-1.235-2.081-2.474-3.175-3.681-1.078-1.19-2.206-2.374-3.353-3.521s-2.335-2.278-3.518-3.349c-1.208-1.1-2.446-2.163-3.681-3.176s-2.536-2.029-3.834-2.992-2.64-1.907-3.975-2.8-2.72-1.769-4.1-2.6-2.82-1.644-4.229-2.395-2.878-1.5-4.344-2.188c-1.449-.686-2.945-1.349-4.444-1.97s-3.025-1.209-4.534-1.749-3.074-1.058-4.616-1.525-3.109-.9-4.688-1.3c-1.556-.389-3.153-.748-4.743-1.065s-3.215-.6-4.787-.83c-1.609-.238-3.232-.439-4.824-.595s-3.237-.278-4.85-.358S993.591,8,991.972,8" transform="translate(-1758 -2009)" fill="#fff"/>
    <path id="Path_5514" data-name="Path 5514" d="M1032.742,43.777H951.185a9.323,9.323,0,0,0-9.322,9.321V160.989a9.321,9.321,0,0,0,9.322,9.32h81.557a9.319,9.319,0,0,0,9.322-9.32V53.1a9.32,9.32,0,0,0-9.322-9.321m3.419,110.883a8.328,8.328,0,0,1-8.221,8.429H955.989a8.328,8.328,0,0,1-8.223-8.429V57.1a8.327,8.327,0,0,1,8.223-8.428h71.951a8.328,8.328,0,0,1,8.221,8.428Z" transform="translate(-1758 -2009)" fill="#fff"/>
    <path id="Path_5515" data-name="Path 5515" d="M995.061,142.79h-39c-.815,0-1.476-1.221-1.476-2.726v0c0-1.506.661-2.727,1.476-2.727h39c.815,0,1.476,1.221,1.476,2.727v0c0,1.505-.661,2.726-1.476,2.726" transform="translate(-1758 -2009)" fill="#fff"/>
    <path id="Path_5516" data-name="Path 5516" d="M995.061,156.41h-39c-.815,0-1.476-1.221-1.476-2.726v0c0-1.505.661-2.726,1.476-2.726h39c.815,0,1.476,1.221,1.476,2.726v0c0,1.5-.661,2.726-1.476,2.726" transform="translate(-1758 -2009)" fill="#fff"/>
    <path id="Path_5517" data-name="Path 5517" d="M978.661,125.7H966.426V81.139a1.857,1.857,0,0,1,1.857-1.858H976.8a1.858,1.858,0,0,1,1.857,1.858Z" transform="translate(-1758 -2009)" fill="#fff"/>
    <path id="Path_5518" data-name="Path 5518" d="M993.631,126.469H981.4V97.6a1.858,1.858,0,0,1,1.857-1.858h8.517a1.857,1.857,0,0,1,1.857,1.858Z" transform="translate(-1758 -2009)" fill="#fff"/>
    <path id="Path_5519" data-name="Path 5519" d="M1008.6,126.469H996.362V87.6a1.857,1.857,0,0,1,1.857-1.858h8.525A1.858,1.858,0,0,1,1008.6,87.6Z" transform="translate(-1758 -2009)" fill="#fff"/>
    <path id="Path_5520" data-name="Path 5520" d="M1023.561,126.469h-12.235V112.962a1.857,1.857,0,0,1,1.857-1.858h8.521a1.858,1.858,0,0,1,1.857,1.858Z" transform="translate(-1758 -2009)" fill="#fff"/>
    <path id="Path_5521" data-name="Path 5521" d="M960.731,124.19V58.419a1.857,1.857,0,0,0-1.857-1.857h0a1.857,1.857,0,0,0-1.857,1.857v67.628a1.857,1.857,0,0,0,1.857,1.857h69.465a1.857,1.857,0,0,0,0-3.714Z" transform="translate(-1758 -2009)" fill="#fff"/>
    <path id="Path_5522" data-name="Path 5522" d="M1017.391,94.81l-15.049-19.839-14.421,14.32L977.357,69.368l-11.472,6.143L965,73.865l13.127-7.026L988.392,86.2l14.146-14.051L1017.5,91.87l10.463-11.826,1.4,1.234Z" transform="translate(-1758 -2009)" fill="#fff"/>
    <path id="Path_5523" data-name="Path 5523" d="M966.351,76.17a2,2,0,1,1,.431-2.788,2,2,0,0,1-.431,2.788" transform="translate(-1758 -2009)" fill="#fff"/>
    <path id="Path_5524" data-name="Path 5524" d="M1003.461,75.31a1.994,1.994,0,1,1,.431-2.788,1.992,1.992,0,0,1-.431,2.788" transform="translate(-1758 -2009)" fill="#fff"/>
    <path id="Path_5525" data-name="Path 5525" d="M989.6,89.44a2,2,0,1,1,.431-2.789,2,2,0,0,1-.431,2.789" transform="translate(-1758 -2009)" fill="#fff"/>
    <path id="Path_5526" data-name="Path 5526" d="M978.691,69.94a1.993,1.993,0,1,1,.435-2.786,1.99,1.99,0,0,1-.435,2.786" transform="translate(-1758 -2009)" fill="#fff"/>
    <path id="Path_5527" data-name="Path 5527" d="M1018.622,94.949a1.994,1.994,0,1,1,.435-2.788,1.993,1.993,0,0,1-.435,2.788" transform="translate(-1758 -2009)" fill="#fff"/>
    <path id="Path_5528" data-name="Path 5528" d="M1029.641,82.02a1.994,1.994,0,1,1,.427-2.785,2,2,0,0,1-.427,2.785" transform="translate(-1758 -2009)" fill="#fff"/>
    <path id="Path_5529" data-name="Path 5529" d="M1015.862,144.66l6.375-9.858a12.045,12.045,0,0,0-5.995-1.6A12.186,12.186,0,0,0,1004.1,144.66h11.757Z" transform="translate(-1758 -2009)" fill="#fff"/>
    <path id="Path_5530" data-name="Path 5530" d="M1004.091,145.9a12.136,12.136,0,0,0,19.164,9.363l-7.327-9.363Z" transform="translate(-1758 -2009)" fill="#fff"/>
    <path id="Path_5531" data-name="Path 5531" d="M1015.921,145.9h-.865l.009-.014h-10.977l0,.021h11.837Z" transform="translate(-1758 -2009)" fill="#fff"/>
    <path id="Path_5532" data-name="Path 5532" d="M1017.481,145.9l6.735,8.605c.108-.094.219-.185.324-.283.079-.073.156-.149.232-.224.209-.206.412-.418.606-.639.051-.057.1-.117.149-.175.205-.243.4-.491.589-.749.028-.04.055-.082.083-.122.194-.278.381-.562.552-.856.015-.026.028-.054.044-.08.175-.307.341-.621.49-.944.011-.024.02-.05.031-.075.147-.324.283-.655.4-.994.016-.046.027-.094.043-.14.108-.321.207-.645.288-.976.027-.111.043-.225.066-.336.059-.274.119-.546.159-.826q.084-.586.111-1.186Z" transform="translate(-1758 -2009)" fill="#fff"/>
    <path id="Path_5533" data-name="Path 5533" d="M1017.481,145.9h10.9v-.007h-10.91Z" transform="translate(-1758 -2009)" fill="#fff"/>
    <path id="Path_5534" data-name="Path 5534" d="M1026.751,151.46c-.171.294-.357.578-.552.855.2-.278.382-.562.552-.855" transform="translate(-1758 -2009)" fill="#fff"/>
    <path id="Path_5535" data-name="Path 5535" d="M1027.281,150.44c-.149.323-.314.637-.49.944.176-.308.342-.622.49-.944" transform="translate(-1758 -2009)" fill="#fff"/>
    <path id="Path_5536" data-name="Path 5536" d="M1026.111,152.44c-.186.258-.384.506-.589.749.206-.244.4-.492.589-.749" transform="translate(-1758 -2009)" fill="#fff"/>
    <path id="Path_5537" data-name="Path 5537" d="M1024.231,154.53c.109-.1.206-.2.311-.3-.1.1-.216.189-.324.283Z" transform="translate(-1758 -2009)" fill="#fff"/>
    <path id="Path_5538" data-name="Path 5538" d="M1025.381,153.36c-.193.221-.4.432-.6.639.209-.207.412-.419.6-.639" transform="translate(-1758 -2009)" fill="#fff"/>
    <path id="Path_5539" data-name="Path 5539" d="M1027.721,149.37c-.119.339-.254.67-.4,1,.147-.327.283-.657.4-1" transform="translate(-1758 -2009)" fill="#fff"/>
    <path id="Path_5540" data-name="Path 5540" d="M1028.271,147.09c-.04.28-.1.552-.159.826.059-.274.12-.547.159-.826" transform="translate(-1758 -2009)" fill="#fff"/>
    <path id="Path_5541" data-name="Path 5541" d="M1028.051,148.25c-.081.331-.18.655-.288.976.107-.322.208-.645.288-.976" transform="translate(-1758 -2009)" fill="#fff"/>
    <path id="Path_5542" data-name="Path 5542" d="M1028.371,144.66a12.264,12.264,0,0,0-.156-1.347c0-.013-.006-.026-.008-.038a11.989,11.989,0,0,0-.288-1.244c-.014-.051-.031-.1-.046-.151q-.165-.549-.38-1.078l-.084-.2c-.142-.332-.3-.657-.471-.974-.038-.071-.074-.144-.114-.214-.187-.334-.392-.658-.611-.973-.027-.04-.051-.081-.078-.12a12.277,12.277,0,0,0-.8-1.007c-.057-.064-.119-.121-.177-.184-.226-.245-.461-.483-.708-.71-.1-.1-.216-.189-.325-.282-.216-.185-.437-.364-.667-.534-.064-.048-.13-.093-.195-.14l-5.95,9.2Z" transform="translate(-1758 -2009)" fill="#fff"/>
    <path id="Path_5543" data-name="Path 5543" d="M1027.871,141.88c.015.05.032.1.046.15-.014-.05-.031-.1-.046-.15" transform="translate(-1758 -2009)" fill="#fff"/>
    <path id="Path_5544" data-name="Path 5544" d="M1024.121,136.13c.109.093.22.185.326.282-.106-.1-.217-.189-.326-.282" transform="translate(-1758 -2009)" fill="#fff"/>
    <path id="Path_5545" data-name="Path 5545" d="M1023.271,135.449l-.007.011c.065.047.131.092.2.139-.065-.048-.122-.1-.188-.15" transform="translate(-1758 -2009)" fill="#fff"/>
    <path id="Path_5546" data-name="Path 5546" d="M1025.161,137.13c.058.062.12.12.176.184-.056-.064-.118-.122-.176-.184" transform="translate(-1758 -2009)" fill="#fff"/>
    <path id="Path_5547" data-name="Path 5547" d="M1028.211,143.27c0,.013.006.025.008.038,0-.013-.006-.025-.008-.038" transform="translate(-1758 -2009)" fill="#fff"/>
    <path id="Path_5548" data-name="Path 5548" d="M1026.821,139.41c.04.07.075.143.113.214-.037-.071-.073-.143-.113-.214" transform="translate(-1758 -2009)" fill="#fff"/>
    <path id="Path_5549" data-name="Path 5549" d="M1027.411,140.6c.029.068.057.136.085.2-.028-.068-.056-.136-.085-.2" transform="translate(-1758 -2009)" fill="#fff"/>
    <path id="Path_5550" data-name="Path 5550" d="M1026.131,138.32c.028.039.052.081.079.12-.027-.039-.051-.081-.079-.12" transform="translate(-1758 -2009)" fill="#fff"/>
    <path id="Path_5551" data-name="Path 5551" d="M1028.371,144.67l0-.015h-11.058l-.01.015Z" transform="translate(-1758 -2009)" fill="#fff"/>
  </g>
</svg>
