<svg xmlns="http://www.w3.org/2000/svg" xmlns:xlink="http://www.w3.org/1999/xlink" width="214.08" height="214.078" viewBox="0 0 214.08 214.078">
  <defs>
    <clipPath id="clip-path">
      <rect id="Rectangle_7418" data-name="Rectangle 7418" width="60.612" height="59.4" transform="translate(522.653 105.9)" fill="none"/>
    </clipPath>
    <clipPath id="clip-path-2">
      <rect id="Rectangle_7417" data-name="Rectangle 7417" width="60.611" height="59.4" transform="translate(522.653 105.9)" fill="none"/>
    </clipPath>
  </defs>
  <g id="_3" data-name="3" transform="translate(1331.295 2008.999)">
    <g id="Group_39062" data-name="Group 39062" transform="translate(-1758 -2009)" opacity="0.102">
      <g id="Group_39061" data-name="Group 39061">
        <g id="Group_39060" data-name="Group 39060" clip-path="url(#clip-path)">
          <g id="Group_39059" data-name="Group 39059">
            <g id="Group_39058" data-name="Group 39058" clip-path="url(#clip-path-2)">
              <path id="Path_5552" data-name="Path 5552" d="M522.653,143.48V111.962a6.056,6.056,0,0,1,1.022-3.368,6.058,6.058,0,0,1,2.72-2.232,6.046,6.046,0,0,1,2.319-.461h42.428a12.122,12.122,0,0,1,12.123,12.122v41.216a6.012,6.012,0,0,1-.117,1.182,6.118,6.118,0,0,1-.345,1.138,6.052,6.052,0,0,1-.56,1.047,6.053,6.053,0,0,1-2.72,2.233,6.047,6.047,0,0,1-2.32.461h-32.73q-1.071,0-2.139-.1t-2.118-.314q-1.051-.21-2.077-.521t-2.016-.721q-.99-.41-1.936-.915t-1.836-1.1q-.893-.6-1.72-1.276t-1.587-1.438q-.758-.757-1.438-1.587T526.33,155.6q-.6-.893-1.1-1.837t-.916-1.936q-.41-.99-.721-2.016t-.521-2.077q-.209-1.052-.314-2.118t-.1-2.139" fill="#fff"/>
            </g>
          </g>
        </g>
      </g>
    </g>
    <path id="Path_5553" data-name="Path 5553" d="M533.745,214.079c-1.751,0-3.519-.043-5.253-.129s-3.5-.216-5.238-.386-3.494-.388-5.214-.643-3.476-.56-5.178-.9c-1.719-.342-3.444-.729-5.127-1.151-1.711-.429-3.415-.9-5.063-1.4s-3.333-1.056-4.987-1.647-3.294-1.225-4.9-1.893-3.218-1.379-4.8-2.128c-1.558-.737-3.137-1.531-4.692-2.362s-3.092-1.7-4.572-2.59-2.988-1.842-4.437-2.808-2.889-1.985-4.3-3.027-2.791-2.124-4.141-3.231-2.691-2.266-3.978-3.433c-1.306-1.183-2.587-2.4-3.807-3.625-1.242-1.242-2.461-2.522-3.623-3.8s-2.324-2.627-3.43-3.977-2.19-2.734-3.233-4.141c-1.028-1.387-2.046-2.832-3.024-4.294s-1.921-2.954-2.813-4.441-1.763-3.026-2.588-4.57-1.619-3.119-2.363-4.7-1.46-3.185-2.129-4.8-1.3-3.253-1.889-4.9c-.584-1.63-1.139-3.309-1.649-4.988s-.98-3.383-1.4-5.064c-.428-1.714-.814-3.437-1.15-5.128-.341-1.709-.643-3.451-.9-5.177s-.472-3.472-.642-5.213-.3-3.5-.387-5.241-.13-3.513-.13-5.25.044-3.5.13-5.253.215-3.505.387-5.241.387-3.494.643-5.214.558-3.467.9-5.175c.335-1.683.721-3.407,1.149-5.122.424-1.692.9-3.394,1.4-5.067s1.067-3.362,1.65-4.99c.591-1.652,1.227-3.3,1.89-4.9s1.384-3.229,2.129-4.8,1.542-3.159,2.362-4.691,1.687-3.066,2.589-4.572c.891-1.486,1.836-2.979,2.81-4.437.986-1.474,2-2.919,3.027-4.3S449.89,40.49,451,39.134c1.1-1.335,2.25-2.674,3.431-3.978,1.165-1.286,2.384-2.566,3.623-3.8s2.515-2.456,3.807-3.625S464.5,25.4,465.84,24.3s2.739-2.192,4.139-3.231,2.859-2.065,4.3-3.026,2.946-1.915,4.442-2.811,3.032-1.768,4.57-2.59,3.122-1.619,4.693-2.362,3.2-1.465,4.8-2.13,3.263-1.3,4.9-1.89,3.32-1.142,4.988-1.648,3.356-.973,5.06-1.4,3.415-.81,5.128-1.152c1.736-.344,3.476-.645,5.179-.9,1.736-.257,3.49-.473,5.214-.643s3.5-.3,5.238-.386c3.469-.171,7.036-.171,10.507,0,1.738.086,3.5.216,5.238.386,1.722.17,3.476.386,5.213.643,1.7.252,3.442.554,5.175.9s3.447.732,5.128,1.152c1.708.429,3.41.9,5.064,1.4s3.341,1.058,4.989,1.648,3.284,1.221,4.9,1.89,3.238,1.389,4.806,2.131c1.583.749,3.161,1.544,4.691,2.362s3.062,1.684,4.571,2.589,3,1.85,4.44,2.811,2.883,1.979,4.293,3.024,2.8,2.129,4.142,3.233,2.685,2.259,3.979,3.432c1.279,1.158,2.559,2.377,3.8,3.621,1.229,1.229,2.447,2.509,3.623,3.8s2.327,2.633,3.432,3.98,2.2,2.749,3.233,4.141,2.044,2.828,3.024,4.295,1.921,2.953,2.812,4.44c.9,1.5,1.773,3.043,2.589,4.572s1.611,3.1,2.362,4.689,1.461,3.192,2.129,4.806,1.3,3.266,1.89,4.9,1.144,3.324,1.649,4.987c.509,1.685.98,3.388,1.4,5.066.428,1.709.815,3.434,1.151,5.128.342,1.714.644,3.456.9,5.177s.472,3.471.642,5.213.3,3.5.387,5.24.13,3.513.13,5.251-.044,3.5-.13,5.252-.215,3.5-.387,5.241-.387,3.494-.643,5.214-.555,3.458-.9,5.175c-.337,1.7-.724,3.421-1.15,5.125-.421,1.676-.892,3.378-1.4,5.061-.505,1.665-1.06,3.343-1.649,4.991-.583,1.63-1.22,3.278-1.89,4.9s-1.387,3.234-2.129,4.8-1.543,3.16-2.364,4.694-1.7,3.082-2.589,4.572-1.836,2.979-2.812,4.439-1.991,2.9-3.023,4.294c-1.045,1.407-2.132,2.8-3.233,4.141-1.118,1.362-2.272,2.7-3.432,3.979s-2.39,2.572-3.623,3.8-2.51,2.45-3.8,3.623-2.619,2.316-3.977,3.43-2.746,2.2-4.144,3.234-2.85,2.06-4.294,3.025-2.93,1.905-4.438,2.81-3.035,1.768-4.574,2.59-3.118,1.618-4.69,2.362-3.186,1.458-4.8,2.129-3.262,1.3-4.9,1.892c-1.66.593-3.338,1.147-4.99,1.648s-3.349.971-5.059,1.4c-1.677.421-3.4.808-5.127,1.151-1.7.339-3.446.642-5.176.9s-3.478.471-5.215.642-3.5.3-5.239.387-3.5.129-5.254.129M533.745,8c-1.62,0-3.255.04-4.858.119s-3.244.2-4.85.358-3.218.357-4.825.595c-1.575.233-3.187.513-4.791.831-1.582.315-3.18.674-4.743,1.065s-3.152.832-4.683,1.3-3.1.981-4.615,1.525-3.042,1.13-4.536,1.749-2.981,1.277-4.442,1.969-2.917,1.424-4.345,2.187-2.844,1.566-4.227,2.4-2.768,1.7-4.108,2.6-2.669,1.832-3.977,2.8-2.585,1.967-3.832,2.99-2.475,2.083-3.678,3.174-2.379,2.209-3.52,3.351-2.275,2.331-3.353,3.521c-1.094,1.207-2.162,2.446-3.175,3.68-1.03,1.256-2.036,2.545-2.99,3.833s-1.89,2.614-2.8,3.977c-.9,1.348-1.775,2.731-2.6,4.106-.835,1.392-1.641,2.815-2.4,4.228s-1.494,2.879-2.185,4.342-1.352,2.951-1.969,4.443-1.2,3.009-1.751,4.538c-.538,1.5-1.052,3.058-1.525,4.617s-.906,3.123-1.3,4.684c-.4,1.586-.754,3.183-1.065,4.742-.314,1.581-.593,3.192-.83,4.788s-.437,3.215-.6,4.826-.279,3.236-.357,4.846-.12,3.255-.12,4.862.04,3.241.12,4.858.2,3.243.357,4.847.359,3.236.6,4.825.517,3.209.831,4.79c.312,1.565.67,3.162,1.066,4.748.388,1.552.826,3.128,1.3,4.682s.984,3.106,1.524,4.614c.546,1.524,1.135,3.05,1.75,4.536s1.281,2.991,1.969,4.442,1.425,2.921,2.185,4.345,1.57,2.85,2.4,4.228,1.7,2.758,2.6,4.108,1.847,2.691,2.8,3.975c.965,1.3,1.971,2.59,2.989,3.831s2.093,2.486,3.176,3.68,2.2,2.372,3.353,3.522c1.13,1.131,2.313,2.258,3.521,3.352,1.192,1.081,2.431,2.149,3.681,3.177s2.538,2.029,3.831,2.988,2.64,1.908,3.976,2.8,2.721,1.769,4.106,2.6c1.369.821,2.792,1.627,4.229,2.4s2.9,1.5,4.341,2.184c1.466.694,2.961,1.357,4.444,1.971s3.015,1.206,4.536,1.75,3.084,1.06,4.615,1.524,3.1.9,4.688,1.3c1.554.39,3.15.748,4.742,1.065,1.575.314,3.186.594,4.79.832s3.214.435,4.824.6,3.237.277,4.849.357c3.207.158,6.508.158,9.717,0,1.611-.08,3.243-.2,4.85-.358s3.231-.358,4.824-.6,3.212-.517,4.789-.831c1.6-.318,3.193-.676,4.742-1.065,1.584-.4,3.161-.833,4.685-1.3s3.081-.976,4.617-1.525c1.519-.543,3.044-1.132,4.535-1.75s2.993-1.283,4.444-1.97,2.916-1.424,4.342-2.186,2.847-1.567,4.23-2.4,2.778-1.713,4.107-2.6,2.672-1.834,3.974-2.8,2.584-1.966,3.833-2.991,2.494-2.1,3.681-3.175,2.381-2.213,3.519-3.351,2.269-2.326,3.353-3.522,2.141-2.422,3.177-3.681c1.016-1.24,2.023-2.53,2.99-3.832s1.895-2.624,2.8-3.974,1.777-2.731,2.6-4.105,1.635-2.8,2.4-4.231,1.494-2.881,2.186-4.344,1.349-2.946,1.969-4.443,1.21-3.028,1.75-4.536c.545-1.524,1.058-3.078,1.525-4.616.471-1.557.908-3.134,1.3-4.684.395-1.577.753-3.173,1.066-4.743.315-1.588.594-3.2.829-4.787s.436-3.216.6-4.826.279-3.237.357-4.847.12-3.255.12-4.861-.04-3.242-.12-4.86-.2-3.242-.357-4.846-.359-3.236-.595-4.825-.515-3.205-.83-4.789c-.312-1.568-.67-3.164-1.067-4.746-.388-1.552-.825-3.13-1.3-4.687-.466-1.537-.98-3.09-1.525-4.615-.541-1.509-1.13-3.036-1.75-4.534s-1.281-2.989-1.969-4.445-1.43-2.927-2.185-4.34-1.562-2.837-2.4-4.23c-.824-1.375-1.7-2.756-2.6-4.107s-1.848-2.694-2.8-3.973-1.963-2.579-2.992-3.834-2.091-2.484-3.175-3.681-2.216-2.384-3.353-3.521-2.335-2.278-3.518-3.349c-1.2-1.087-2.437-2.155-3.682-3.177s-2.535-2.028-3.833-2.991-2.643-1.909-3.975-2.8-2.71-1.763-4.106-2.6-2.819-1.643-4.228-2.394-2.879-1.5-4.345-2.189c-1.448-.685-2.944-1.348-4.443-1.969s-3.021-1.208-4.535-1.749-3.078-1.059-4.615-1.525-3.109-.9-4.689-1.3c-1.553-.389-3.15-.747-4.743-1.066s-3.213-.6-4.786-.829c-1.609-.238-3.232-.439-4.824-.595s-3.239-.278-4.85-.358S535.365,8,533.745,8" transform="translate(-1758 -2009)" fill="#fff"/>
    <path id="Path_5554" data-name="Path 5554" d="M533.746,140.2c-12.65,0-18.349-2.605-21.11-10.1l-.119.06-.618-2.4c-.074-.291-.146-.588-.216-.889-.138-.584-.27-1.194-.4-1.826l-.366-1.828,1.8-.494A36.648,36.648,0,0,0,539.6,89.79l.4-6.188,3.291,5.255q.792,1.266,1.484,2.594c.029-.129.057-.258.084-.388a53.862,53.862,0,0,0-1.433-27.926,52.14,52.14,0,0,1-13.622,14.572l-.2.143c-.191.137-.382.274-.575.407-.268.188-.544.376-.822.562l-.508.331c-.215.141-.44.286-.668.429l-.088.053a51.912,51.912,0,0,1-4.542,2.541,14.734,14.734,0,0,0,7,1l2.841-.2-.776,2.742a33.661,33.661,0,0,1-5.739,11.7l-.006-.005c-.058.085-.123.172-.194.261l-.136.169q-.237.288-.475.563l-.147.169c-.184.21-.376.42-.568.625l-.051.055c-.2.211-.4.415-.607.615l-.26.248c-.107.1-.233.223-.358.337l-1.755,1.449c-.32.235-.6.433-.887.622l-.906.571c-.135.081-.28.165-.426.246l-.234.128c-.143.078-.3.16-.455.24l-.123.06c-.542.27-1.094.513-1.652.727l-.2.077c-.154.057-.315.113-.477.167l-.169.056c-.209.068-.371.118-.533.165l-.139.039c-.588.162-1.133.285-1.672.378l-.2.036c-.159.024-.309.045-.459.064l-.269.033c-.139.016-.289.032-.437.043-.082.008-.188.015-.294.022s-.258.017-.4.022l-.216.006c-.313.006-.541,0-.769,0l-.674-.031c-.166-.012-.295-.021-.424-.035l-1.724-.274c-.233-.051-.457-.107-.681-.168l-.11-.033c-.22-.063-.394-.116-.565-.172l-.267-.092c-.122-.043-.271-.1-.418-.154l-.191-.075c-.214-.086-.372-.154-.528-.225l-.2-.09c-.185-.086-.38-.183-.574-.284-.281-.149-.5-.272-.715-.4l-.09-.056c-.188-.116-.36-.225-.53-.339l-.17-.119c-.149-.1-.3-.212-.451-.326l-.155-.117c-.164-.127-.328-.26-.489-.4l-.088-.073a15.061,15.061,0,0,1-1.124-1.07l-.1-.107c-.142-.155-.284-.314-.422-.476l-.12-.14c-.134-.16-.268-.326-.4-.5l-.087-.112c-.341-.45-.651-.9-.934-1.364-.163-.27-.285-.481-.4-.7l-.072-.132c-.127-.237-.227-.429-.323-.626l-.1-.2c-.094-.195-.188-.4-.281-.614l-.069-.156c-.226-.528-.434-1.083-.619-1.647l-.07-.224c-.064-.2-.129-.414-.191-.634l-.074-.266c-.055-.205-.109-.418-.161-.633l-.062-.256c-.059-.259-.111-.508-.161-.762l-.032-.158c-.06-.319-.114-.636-.162-.957l-.021-.157c-.042-.293-.075-.544-.1-.8l-.036-.352c-.021-.2-.041-.425-.06-.652l-.026-.368c-.015-.222-.026-.458-.037-.7l-.015-.314c-.01-.359-.017-.705-.017-1.059s0-.714.015-1.069l.069-1.452c.014-.229.029-.448.048-.668l.148-1.462c.023-.209.053-.427.083-.645l.221-1.42c.042-.244.088-.486.135-.728l.059-.3c.134-.661.289-1.331.461-1.994l.088-.322c.058-.219.118-.441.183-.661l.418-1.354c.071-.214.3-.863.349-1.013l.044-.114c1.875-4.4,12.438-26.339,36.569-25.5,21.731.747,38.753,17.749,38.753,38.707,0,10.864-4.4,17.146-8.648,23.221-1.4,2-2.849,4.069-4.1,6.266l.009.006a31.383,31.383,0,0,0-3.646,9.543l-1.362,5.138c-.078.214-.156.417-.236.615l-.554,1.231c-.062.131-.161.32-.263.508l-.512.866c-.115.177-.2.308-.3.436l-.654.854-1.606-1.2,1.53,1.287-.1.118c-.1.112-.193.214-.286.313l-.827.794c-.115.1-.232.2-.352.3-.154.122-.271.213-.39.3l-.114.083c-.1.074-.21.149-.318.222l-.095.064a13.53,13.53,0,0,1-1.32.772l-.5.242a27.672,27.672,0,0,1-10.194,2.1l-.109.005c-.238.014-.514.028-.794.038l-.12.005ZM515.663,126.32l.114.432c1.719,6.531,4.721,9.445,17.969,9.445l2.948-.057c.238-.009.491-.021.741-.036,4.1-.225,7.055-.844,9.128-1.9l.094-.047a9.37,9.37,0,0,0,.885-.521l.294-.205c.141-.1.224-.168.306-.232s.171-.143.25-.211l1.42,1.412-1.34-1.484.142-.131,1.458,1.374-1.384-1.444.826-.936,1.713,1.047-1.629-1.159,1.722,1.027-1.638-1.146c.063-.092.127-.185.189-.281l1.757.966-1.694-1.063.32-.547c.075-.139.148-.278.219-.421l.25-.541,1.888.671-1.843-.778.114-.271c.054-.138.117-.3.178-.469l.249-.723,1.952.46-1.91-.594.907-3.694c.007-.033.013-.067.02-.1l4.037-10.6c1.351-2.377,2.864-4.538,4.327-6.628,4.076-5.823,7.925-11.324,7.925-20.927,0-18.791-15.325-34.037-34.889-34.709-21.379-.76-30.967,18.9-32.729,23.014-.069.2-.236.681-.283.822l-.389,1.256c-.058.2-.112.4-.166.6l-.078.287q-.229.884-.414,1.794l-.033.172c-.061.31-.1.525-.139.739l-.2,1.27c-.028.2-.052.389-.074.576l-.134,1.323c-.017.2-.029.4-.042.591l-.063,1.31c-.008.322-.013.639-.013.957s.007.618.015.922l.012.254c.01.229.02.434.033.637l.024.31c.014.193.032.383.051.572l.032.308c.022.195.051.408.081.621l-1.953.479,1.978-.294c.04.27.086.536.135.8l.028.141c.04.205.084.415.132.622l.05.207c.046.194.09.368.137.537l.061.224c.052.186.106.359.16.53l.054.172c.148.455.316.9.5,1.326l.062.138c.065.149.14.314.217.475l.074.148c.079.161.155.309.232.451l-1.675,1.11,1.746-.975c.1.17.193.338.292.5a12.472,12.472,0,0,0,.734,1.081l.062.081c.113.146.211.267.31.385l.092.108c.1.123.211.241.318.356l-1.383,1.451,1.45-1.377c.266.279.545.545.829.789.185.155.3.25.425.345l.113.084c.109.083.221.163.335.242l.1.071c.131.088.256.168.382.246l.092.056c.138.084.293.172.45.255.179.093.317.162.459.228l.125.056c.142.065.248.11.353.153l.169.067c.1.039.211.079.321.116l.173.062c.124.04.254.079.386.117l-.432,1.958.549-1.923c.157.043.315.081.474.117l2.064.248c.163,0,.332.007.5,0l.735-.037c.126-.011.225-.02.325-.032l.7-.1c.413-.072.827-.165,1.235-.278l.166-.046c.119-.033.237-.071.355-.109l.16-.053c.137-.046.257-.087.375-.131l.183-.069c.411-.158.846-.349,1.263-.557l1.013,1.731-.9-1.785c.12-.06.239-.125.358-.189l.2-.107c.1-.059.218-.125.334-.194l.724-.457c.235-.155.462-.314.688-.481l1.982-1.7c.179-.173.35-.346.52-.524l.021-.022h0c.165-.176.328-.356.491-.54l.138-.16c.121-.139.254-.3.385-.456l.289-.365a28.049,28.049,0,0,0,4.208-7.753,15.6,15.6,0,0,1-9.871-3.86l-2.331-2.13,2.921-1.2a48.43,48.43,0,0,0,7.324-3.765c.281-.176.485-.308.688-.44l.468-.3q.381-.255.756-.518c.182-.125.355-.25.529-.375l.108-.076A48.142,48.142,0,0,0,542.037,57.5l1.974-3.858,1.655,4.005a57.765,57.765,0,0,1,3.125,34.181c-.1.452-.181.83-.269,1.207l-.046.192c-.078.33-.164.678-.253,1.025l-.055.213c-.09.341-.18.674-.274,1.005l-.069.248c-.093.326-.191.661-.294,1l-.062.209c-.124.4-.252.8-.385,1.2L545.2,103.8l-1.914-5.671q-.286-.856-.621-1.694a40.687,40.687,0,0,1-27.073,29.6c.022.1.045.19.067.284" transform="translate(-1758 -2009)" fill="#fff"/>
    <path id="Path_5555" data-name="Path 5555" d="M533.751,140.7h-.005c-12.63,0-18.5-2.7-21.378-9.9l-.18.091-.773-3c-.075-.3-.149-.6-.219-.9-.139-.586-.272-1.2-.4-1.84l-.458-2.285,2.248-.617A36.145,36.145,0,0,0,539.1,89.758l.5-7.735,4.114,6.568c.292.466.575.942.847,1.422a53.668,53.668,0,0,0-1.292-25.7A53,53,0,0,1,530.1,78.114l-.2.145c-.207.149-.392.282-.581.412-.267.187-.547.378-.828.566l-.514.334c-.215.142-.443.289-.674.434l-.1.057c-1.153.723-2.349,1.409-3.565,2.045a15.3,15.3,0,0,0,5.729.567l3.552-.252-.969,3.427a34.19,34.19,0,0,1-5.827,11.871l-.116.148-.088.112-.115.145h0l-.02.025c-.165.2-.326.392-.488.578l-.146.168c-.19.217-.386.432-.582.64-.258.273-.464.481-.672.685l-.265.253c-.106.1-.236.226-.366.344l-1.773,1.466c-.35.257-.639.46-.93.653l-.915.577c-.15.09-.3.176-.451.26l-.235.129c-.15.081-.307.166-.47.248l-.129.063c-.55.274-1.121.525-1.693.745l-.207.078c-.16.06-.327.118-.495.173l-.169.056c-.218.071-.385.123-.552.171l-.142.04c-.6.166-1.166.294-1.723.39l-.2.035c-.175.027-.33.049-.482.068l-.272.033c-.149.017-.306.034-.461.045l-.248.02c-.168.011-.317.02-.466.026l-.221.006c-.328,0-.561,0-.8,0l-.684-.032c-.185-.013-.32-.023-.454-.037l-1.749-.277c-.27-.059-.5-.116-.734-.18l-.122-.036c-.222-.063-.4-.118-.577-.175l-.275-.1c-.129-.045-.284-.1-.436-.16l-.192-.076c-.227-.091-.391-.161-.554-.235l-.2-.091c-.195-.089-.4-.19-.6-.3-.294-.156-.52-.283-.742-.417l-.1-.059c-.193-.119-.37-.231-.546-.349l-.178-.125c-.151-.1-.309-.218-.465-.336l-.155-.117c-.175-.135-.345-.272-.512-.413l-.083-.07a15.589,15.589,0,0,1-1.168-1.111l-.1-.108c-.15-.164-.3-.329-.439-.5l-.118-.137c-.142-.171-.281-.342-.417-.517l-.086-.111c-.341-.451-.665-.923-.963-1.407-.169-.281-.294-.5-.416-.716l-.074-.135c-.133-.248-.235-.445-.334-.648l-.1-.2c-.1-.205-.2-.418-.29-.634l-.069-.154c-.232-.543-.446-1.111-.637-1.694l-.073-.23c-.063-.2-.131-.423-.194-.649l-.074-.266c-.058-.215-.114-.432-.166-.651l-.062-.256c-.061-.269-.114-.523-.165-.783l-.032-.154c-.062-.333-.117-.657-.166-.983l-.023-.167c-.042-.291-.075-.547-.1-.805l-.036-.358c-.022-.2-.042-.432-.061-.662l-.027-.374c-.013-.192-.023-.392-.032-.6l-.02-.426c-.011-.374-.017-.725-.017-1.083s0-.723.014-1.083l.071-1.462c.013-.24.029-.464.048-.688l.149-1.468c.02-.189.047-.379.072-.57l.235-1.522c.044-.255.091-.5.138-.747l.059-.3c.136-.674.294-1.353.467-2.025l.09-.328c.06-.22.12-.447.187-.672l.42-1.359c.073-.225.3-.881.355-1.033l.048-.126c1.9-4.474,12.607-26.685,37.054-25.821,22,.757,39.235,17.979,39.235,39.207,0,11.022-4.442,17.37-8.739,23.507-1.32,1.887-2.685,3.835-3.883,5.893l-.183.34a30.849,30.849,0,0,0-3.59,9.4l-1.369,5.166c-.094.263-.174.471-.256.675l-.562,1.248c-.068.145-.172.343-.279.541l-.522.883c-.13.2-.223.339-.319.473l-.443.58.014.012-.534.666-.024-.018-.169.184-.846.813c-.139.121-.262.225-.387.325-.16.128-.281.222-.405.313l-.117.085c-.109.079-.22.157-.331.232l-.1.065a13.681,13.681,0,0,1-1.368.8l-.508.248a28.074,28.074,0,0,1-10.386,2.151l-.114.005c-.233.015-.513.028-.8.039l-.118,0Zm-20.839-11.3.193.526c2.658,7.214,8.059,9.771,20.637,9.771l3.07-.059c.279-.011.551-.024.785-.038l.117-.005a27.172,27.172,0,0,0,10.006-2.056l.489-.239a12.773,12.773,0,0,0,1.259-.737l.512-.359c.112-.082.225-.169.372-.287.115-.091.226-.187.336-.282l.809-.778.017-.018-1.137-.956.033-.041-.681.686-.013-.013-.256.245-1.1-1.093c-.063.049-.134.1-.229.172l-.3.212a9.791,9.791,0,0,1-.941.555l-.1.05c-2.135,1.082-5.186,1.72-9.324,1.947-.251.016-.508.027-.749.037l-2.958.057c-13.587,0-16.676-3.029-18.462-9.818l-.285-1.177.433-.142a40.331,40.331,0,0,0,26.739-29.234l.358-1.567.595,1.493c.225.568.437,1.14.63,1.721l1.435,4.251,1.41-4.262c.133-.4.26-.792.383-1.191l.06-.2q.156-.507.293-.992l.068-.246c.094-.329.182-.659.271-1l.056-.212c.087-.341.172-.686.25-1.013l.046-.193c.087-.371.171-.747.266-1.194a57.272,57.272,0,0,0-3.1-33.887l-1.241-3-1.481,2.894a48.756,48.756,0,0,1-14.8,17.205l-.114.08c-.2.147-.364.263-.534.379-.248.173-.5.349-.76.521l-.473.307c-.2.133-.411.267-.7.445a48.954,48.954,0,0,1-7.4,3.8l-2.191.9,1.748,1.6a15.211,15.211,0,0,0,9.562,3.73l.672.037-.231.633a28.547,28.547,0,0,1-4.284,7.89l-.291.367c-.138.17-.275.332-.4.474l-.136.158c-.171.193-.337.377-.506.556-.2.209-.373.386-.556.564l-2,1.718c-.263.195-.5.359-.74.519l-1.22.741.682,1.347-.878.478-.78-1.333c-.293.134-.593.261-.885.374l-.185.07c-.125.046-.249.088-.391.137l-.165.054c-.139.045-.258.083-.378.116l-.164.046c-.426.117-.855.213-1.284.289l-.717.1c-.116.014-.22.024-.352.035l-.752.038c-.185.006-.366.005-.538,0l-2.113-.252-.065-.014-.417,1.461-.969-.244.333-1.51-.14-.049c-.108-.037-.223-.079-.331-.12l-.176-.07c-.115-.046-.226-.094-.375-.162l-.123-.055c-.154-.071-.3-.143-.485-.24-.169-.09-.334-.184-.479-.272l-.091-.056c-.135-.083-.266-.166-.4-.258l-.111-.077c-.118-.082-.237-.166-.351-.254l-.108-.079c-.135-.107-.259-.205-.448-.364s-.35-.309-.519-.473l-1.094,1.041-.707-.708,1.064-1.117-.018-.022-.091-.106c-.106-.126-.207-.252-.325-.4l-.065-.086a13.382,13.382,0,0,1-.764-1.123c-.016-.029-.033-.056-.049-.085l-1.317.736-.52-.854,1.3-.862c-.011-.02-.021-.041-.032-.062l-.072-.144c-.084-.175-.161-.346-.229-.5l-.059-.131q-.287-.672-.517-1.377l-.055-.178c-.061-.192-.114-.363-.164-.545l-.062-.228c-.048-.171-.1-.351-.142-.552l-.049-.205c-.05-.217-.1-.432-.137-.643l-.027-.139c-.021-.11-.04-.219-.06-.329l-1.489.222-.193-.98,1.517-.373c-.008-.063-.016-.126-.022-.187l-.033-.311c-.02-.195-.038-.391-.052-.589l-.024-.306c-.014-.214-.024-.422-.035-.655l-.011-.252c-.009-.319-.015-.628-.015-.945s0-.644.012-.969l.107-1.93.135-1.333c.023-.2.047-.386.076-.592l.2-1.279c.04-.228.081-.445.142-.759l.033-.171c.126-.619.265-1.227.422-1.825l.638-2.163c.051-.152.219-.643.289-.841,1.739-4.059,11.476-24.131,33.219-23.346A38.364,38.364,0,0,1,544,52.568l.063-.122.068.164c14.588,4.684,24.939,17.846,24.939,33.4,0,9.764-3.893,15.325-8.015,21.213-1.471,2.1-2.97,4.244-4.3,6.589l-4.005,10.529-.8,3.279,1.462.454-.263.965-1.512-.357-.218.6,1.388.586-.361.932-1.458-.518-.058.127c-.081.161-.157.306-.235.449l-.083.143,1.283.806-.506.861-.023-.012-.3.464-.009-.005-.008.013,1.162.866.352-.462c.079-.109.163-.235.273-.4l.5-.85c.087-.162.182-.341.241-.466l.55-1.223c.07-.175.146-.374.222-.582l1.349-5.094a31.607,31.607,0,0,1,3.466-9.257h0l.222-.411c1.266-2.222,2.719-4.3,4.126-6.305,4.207-6.011,8.557-12.227,8.557-22.934,0-20.687-16.81-37.47-38.27-38.207C510.012,46.993,499.559,68.651,497.7,73l-.037.1c-.049.137-.271.778-.341.989l-.415,1.345c-.063.211-.121.428-.178.643l-.089.325c-.168.648-.321,1.309-.453,1.961l-.057.3c-.047.24-.092.478-.133.719l-.221,1.412c-.036.265-.061.448-.08.624l-.148,1.456c-.018.209-.032.424-.045.648l-.07,1.446c-.009.34-.013.692-.013,1.045s.006.691.016,1.045l.02.416c.009.2.018.392.031.576l.026.365c.018.219.038.439.058.637l.036.352c.028.243.062.49.1.778l.021.164c.045.305.1.616.157.929l.032.15c.048.253.1.5.158.75l.06.251c.051.211.1.42.159.621l.072.26c.059.214.123.425.184.615l.073.228c.179.55.382,1.09.6,1.6l.067.15c.09.207.182.41.274.6l.1.195c.094.194.191.38.314.61l.07.129c.116.207.235.413.394.678.28.453.585.9.9,1.319l.084.109c.127.165.258.327.388.482l.115.134q.2.239.411.463l.1.1a14.752,14.752,0,0,0,1.086,1.034l.08.067c.16.134.318.263.477.385l.15.114c.146.109.29.214.434.313l.173.122c.157.1.324.21.505.322l.091.057c.2.122.415.241.687.385.183.1.371.189.549.272l.195.089c.149.069.3.133.507.216l.187.074c.14.054.284.106.4.147l.263.091c.157.052.326.1.54.164l.115.035c.205.055.42.11.646.159l1.694.268c.1.01.222.019.381.03l.662.03c.212.006.435.008.737,0l.212-.006c.132-.005.271-.013.381-.021l.278-.021c.154-.011.3-.027.429-.042l.267-.033c.144-.018.29-.038.445-.062l.192-.033c.527-.091,1.058-.211,1.627-.368l.135-.039c.155-.044.312-.093.515-.159l.166-.055c.156-.052.312-.106.459-.161l.2-.076c.539-.207,1.08-.445,1.606-.707l.126-.061c.147-.075.3-.155.435-.23l.233-.128c.139-.077.279-.158.411-.236l.894-.565c.27-.179.545-.373.859-.6l1.732-1.432c.1-.093.224-.209.326-.309l.265-.252c.194-.191.392-.391.59-.6.237-.253.425-.46.6-.665l.145-.167c.157-.18.312-.365.468-.553l.131-.164c.064-.079.12-.156.173-.232l.311-.451.027.023a33.5,33.5,0,0,0,5.337-11.117l.582-2.057-2.131.151a15.249,15.249,0,0,1-7.236-1.038l-.984-.43.962-.476c1.535-.76,3.048-1.607,4.5-2.516l.095-.058c.219-.137.441-.28.652-.419l.51-.332c.27-.18.543-.366.808-.552.186-.129.368-.259.55-.389l.223-.159a51.976,51.976,0,0,0,13.489-14.43l.568-.909.331,1.02a54.644,54.644,0,0,1,1.446,28.183l-.387,1.724-.629-1.208c-.451-.866-.945-1.728-1.465-2.56L540.4,85.181l-.3,4.641a37.145,37.145,0,0,1-27.252,33.383l-1.349.371.274,1.371c.126.626.256,1.23.394,1.808.069.3.14.594.214.882l.462,1.8Zm3.28-3.035.069.259c1.651,6.274,4.567,9.073,17.485,9.073l2.938-.057c.226-.009.475-.021.721-.035,4-.22,6.921-.822,8.932-1.842l.1-.048a8.469,8.469,0,0,0,.83-.49l.287-.2c.126-.093.206-.155.285-.217l.489-.432,1.2-1.492.3-.509c.065-.12.135-.254.2-.392l.566-1.338.274-.8.945-3.854,4.037-10.6c1.388-2.454,2.9-4.615,4.363-6.705,4.051-5.786,7.856-11.222,7.856-20.671,0-14.822-9.679-27.4-23.433-32.18l1.494,3.618a58.262,58.262,0,0,1,3.152,34.476c-.1.455-.183.837-.27,1.217l-.047.194c-.078.332-.165.683-.255,1.033l-.057.215c-.091.345-.181.681-.275,1.015l-.07.246c-.094.332-.193.671-.3,1.009l-.06.2c-.127.412-.256.814-.391,1.218l-2.349,7.1-2.393-7.09c-.017-.053-.036-.107-.054-.16a41.359,41.359,0,0,1-26.57,28.235m33.176,6.341,1.062,1.109.473-.6-1.291-.789Zm-41.377-31.941c.135.036.271.068.406.1l2.014.239c.106,0,.266,0,.424,0l1.018-.065.69-.1c.382-.067.78-.156,1.173-.265l.164-.046c.108-.029.213-.063.318-.1l.175-.058c.127-.043.243-.082.357-.125l.18-.068c.394-.152.814-.336,1.217-.536l.968-.527.711-.45c.22-.145.44-.3.659-.46l1.953-1.675c.151-.148.318-.316.483-.49.178-.19.338-.368.5-.549l.133-.155c.12-.137.249-.289.377-.445l.284-.359a27.23,27.23,0,0,0,3.9-6.993,15.97,15.97,0,0,1-9.505-3.941l-2.913-2.662,3.651-1.5a47.925,47.925,0,0,0,7.247-3.726c.278-.174.481-.3.682-.435l.467-.3c.246-.164.5-.336.743-.509.166-.114.321-.225.475-.337l.161-.113a47.744,47.744,0,0,0,14.493-16.847l1.943-3.8a37.389,37.389,0,0,0-9.874-1.667c-21.062-.736-30.57,18.787-32.252,22.71-.057.165-.223.644-.269.784l-.625,2.114c-.149.575-.285,1.165-.406,1.763l-.032.167c-.061.307-.1.52-.138.732l-.2,1.258c-.025.19-.05.373-.07.557l-.175,1.892-.063,1.3c-.007.306-.011.619-.011.933s.006.609.014.909l.011.244c.01.227.02.429.033.629l.024.3c.013.191.031.376.049.56l.033.307c.02.188.049.4.078.605l.026.189c.039.261.083.517.13.771l.027.134c.039.2.082.406.129.607l.049.2c.045.189.088.357.133.52l.061.228c.047.168.1.327.147.485l.062.2c.142.435.3.867.48,1.279l.059.128c.064.151.137.31.211.465l.071.14c.077.158.149.3.223.436l.116.212q.115.206.236.4a11.474,11.474,0,0,0,.705,1.037l.062.082c.105.136.2.252.293.365l.09.1c.1.12.2.232.305.342l.087.094c.247.258.505.5.768.729.175.146.291.239.408.331l.1.075c.109.083.214.158.322.233l.1.073c.117.078.236.155.357.229l.089.054c.132.08.278.163.425.241.168.087.3.153.436.217l.119.053c.138.062.237.105.337.146l.166.066c.088.033.191.071.295.106l.182.065c.1.033.229.071.356.108Z" transform="translate(-1758 -2009)" fill="#fff"/>
    <path id="Path_5556" data-name="Path 5556" d="M546.269,140.26l-.155.047c-.212.066-.426.129-.64.189l-.127.035c-.244.066-.489.13-.737.189l-.018.005a47.3,47.3,0,0,1-10.847,1c-4.223,0-9.082-.211-13.281-1.716-1.486,1.834-1.439,5.714.685,7.2,1.866,1.309,8.181,1.9,14.089,1.784l-.007,0c.991-.023,1.958-.047,2.878-.118a40.87,40.87,0,0,0,4.913-.57l.037-.007q.139-.026.276-.054l.254-.053.1-.021.238-.054.017,0a8.711,8.711,0,0,0,2.11-.729l.063-.035c.029-.017.058-.033.085-.05.05-.031.1-.061.143-.092,2.122-1.482,2.168-5.362.683-7.2-.25.089-.5.173-.756.254" transform="translate(-1758 -2009)" fill="#fff" fill-rule="evenodd"/>
    <path id="Path_5557" data-name="Path 5557" d="M540.341,160.13a49.849,49.849,0,0,1-6.6.383c-2.6,0-7.5-.117-10.451-1.317a10.393,10.393,0,0,0,2.431,3.693c1.891,1.484,6.015,2.092,9.738,1.825l-.02.009a19.169,19.169,0,0,0,3.4-.538l.055-.014c.139-.037.275-.076.408-.116l.088-.026c.136-.042.269-.086.4-.131l.052-.017c.141-.05.278-.1.412-.157l.123-.052c.088-.038.176-.076.26-.115l.151-.073c.072-.036.143-.073.213-.11.048-.026.1-.052.143-.079.071-.04.139-.082.206-.124.039-.024.079-.048.117-.074.1-.068.2-.136.292-.208a10.735,10.735,0,0,0,2.43-3.693,17.381,17.381,0,0,1-3.847.917l-.008.017" transform="translate(-1758 -2009)" fill="#fff" fill-rule="evenodd"/>
    <path id="Path_5558" data-name="Path 5558" d="M543.16,151.88l-.222.038-.181.029a60.459,60.459,0,0,1-9.012.6,48.761,48.761,0,0,1-11.725-1.177,4.034,4.034,0,0,0,1.18,4.21c1.65,1.16,8.433,1.6,13.938,1.306l-.02.011c1.037-.047,2.053-.141,2.949-.236a10.7,10.7,0,0,0,4.221-1.081,4.032,4.032,0,0,0,1.18-4.21c-.725.19-1.5.365-2.308.511" transform="translate(-1758 -2009)" fill="#fff" fill-rule="evenodd"/>
  </g>
</svg>
