<svg xmlns="http://www.w3.org/2000/svg" xmlns:xlink="http://www.w3.org/1999/xlink" width="214.08" height="214.078" viewBox="0 0 214.08 214.078">
  <defs>
    <clipPath id="clip-path">
      <rect id="Rectangle_7420" data-name="Rectangle 7420" width="60.612" height="59.4" transform="translate(113.429 97.36)" fill="none"/>
    </clipPath>
  </defs>
  <g id="_4" data-name="4" transform="translate(1758 2008.999)">
    <g id="Group_39067" data-name="Group 39067" transform="translate(-1758 -2009)" opacity="0.102">
      <g id="Group_39066" data-name="Group 39066">
        <g id="Group_39065" data-name="Group 39065" clip-path="url(#clip-path)">
          <g id="Group_39064" data-name="Group 39064">
            <g id="Group_39063" data-name="Group 39063" clip-path="url(#clip-path)">
              <path id="Path_5559" data-name="Path 5559" d="M113.429,134.94V103.422a6.075,6.075,0,0,1,1.775-4.286,6.156,6.156,0,0,1,.919-.754,6.054,6.054,0,0,1,3.367-1.021h42.428a12.12,12.12,0,0,1,4.639.923,11.985,11.985,0,0,1,2.1,1.12,12.122,12.122,0,0,1,5.388,10.079V150.7a6.012,6.012,0,0,1-.117,1.182,6.048,6.048,0,0,1-.9,2.185,5.939,5.939,0,0,1-.754.919A6.044,6.044,0,0,1,170.3,156.3a6.047,6.047,0,0,1-2.32.461h-32.73q-1.071,0-2.139-.1t-2.118-.314q-1.052-.209-2.077-.52T126.9,155.1q-.99-.409-1.936-.915t-1.836-1.1q-.893-.6-1.72-1.276a21.394,21.394,0,0,1-1.587-1.438q-.757-.758-1.438-1.586t-1.276-1.72q-.6-.893-1.1-1.837t-.916-1.936q-.409-.99-.721-2.016t-.521-2.077q-.208-1.052-.314-2.118t-.1-2.139" fill="#fff"/>
            </g>
          </g>
        </g>
      </g>
    </g>
    <path id="Path_5560" data-name="Path 5560" d="M107.04,214.079c-1.751,0-3.519-.043-5.253-.129s-3.5-.216-5.238-.386-3.491-.388-5.214-.643-3.472-.56-5.177-.9-3.445-.729-5.128-1.151c-1.711-.429-3.415-.9-5.063-1.4s-3.333-1.056-4.987-1.647-3.294-1.225-4.9-1.893-3.224-1.382-4.8-2.128c-1.561-.738-3.141-1.533-4.692-2.362s-3.089-1.7-4.572-2.59-2.988-1.842-4.437-2.808-2.889-1.985-4.3-3.027-2.8-2.127-4.141-3.232-2.687-2.262-3.978-3.432-2.587-2.4-3.807-3.625c-1.242-1.242-2.461-2.522-3.623-3.8s-2.324-2.627-3.43-3.977-2.2-2.747-3.233-4.141-2.046-2.832-3.024-4.294-1.921-2.954-2.813-4.441-1.763-3.026-2.588-4.57-1.619-3.119-2.363-4.7-1.466-3.2-2.129-4.8-1.295-3.236-1.889-4.9c-.584-1.63-1.139-3.309-1.649-4.988s-.982-3.39-1.4-5.067c-.426-1.7-.814-3.427-1.15-5.125s-.643-3.451-.9-5.177-.472-3.472-.642-5.213-.3-3.5-.387-5.241S0,108.777,0,107.04s.044-3.5.13-5.253.215-3.505.387-5.241.387-3.494.643-5.214.558-3.467.9-5.175c.336-1.691.723-3.415,1.15-5.125.421-1.681.893-3.385,1.4-5.064s1.067-3.362,1.65-4.99c.6-1.669,1.234-3.319,1.891-4.9s1.375-3.21,2.127-4.8,1.543-3.161,2.363-4.693,1.687-3.066,2.589-4.572c.891-1.486,1.836-2.979,2.81-4.437.986-1.474,2-2.919,3.027-4.3S23.175,40.5,24.3,39.136c1.1-1.337,2.251-2.676,3.432-3.98,1.165-1.286,2.384-2.566,3.623-3.8s2.515-2.456,3.807-3.625S37.8,25.393,39.137,24.3s2.733-2.188,4.137-3.23S46.133,19,47.57,18.04s2.946-1.915,4.442-2.811,3.036-1.77,4.572-2.59,3.117-1.618,4.691-2.362,3.189-1.461,4.8-2.13,3.264-1.3,4.9-1.89,3.32-1.142,4.988-1.648,3.356-.973,5.06-1.4,3.415-.81,5.128-1.152c1.739-.344,3.481-.646,5.179-.9C93.074.9,94.828.685,96.549.515s3.5-.3,5.238-.386c3.469-.171,7.036-.171,10.507,0,1.738.086,3.5.216,5.238.386s3.476.386,5.213.643c1.7.252,3.442.554,5.175.9s3.447.732,5.128,1.152c1.708.429,3.41.9,5.064,1.4s3.341,1.058,4.989,1.648c1.628.582,3.278,1.219,4.9,1.89s3.238,1.389,4.806,2.131c1.583.749,3.161,1.544,4.691,2.362s3.062,1.684,4.571,2.589,3,1.85,4.44,2.811,2.883,1.979,4.293,3.024,2.8,2.129,4.142,3.233,2.685,2.259,3.979,3.432c1.279,1.158,2.559,2.377,3.8,3.621s2.458,2.52,3.624,3.806,2.326,2.632,3.431,3.979c1.123,1.369,2.211,2.762,3.234,4.143s2.039,2.821,3.022,4.291,1.926,2.961,2.813,4.442c.9,1.5,1.773,3.043,2.589,4.572s1.62,3.12,2.363,4.691c.752,1.591,1.467,3.208,2.129,4.806s1.3,3.246,1.889,4.9,1.144,3.324,1.649,4.987.975,3.368,1.4,5.066.815,3.434,1.151,5.128.643,3.448.9,5.175.472,3.48.641,5.215.3,3.5.387,5.24.13,3.513.13,5.251-.044,3.5-.13,5.252-.215,3.5-.387,5.241-.386,3.487-.641,5.211-.558,3.468-.9,5.178-.724,3.421-1.15,5.125-.9,3.4-1.4,5.064-1.06,3.34-1.649,4.988-1.225,3.3-1.891,4.9-1.378,3.215-2.128,4.8c-.74,1.565-1.535,3.144-2.364,4.694s-1.7,3.082-2.589,4.572-1.832,2.973-2.81,4.437-2,2.909-3.025,4.3-2.122,2.788-3.233,4.141-2.272,2.7-3.432,3.979-2.379,2.561-3.623,3.8-2.51,2.45-3.8,3.623-2.619,2.316-3.977,3.43-2.746,2.2-4.144,3.234-2.85,2.06-4.294,3.025-2.93,1.905-4.438,2.81-3.035,1.768-4.574,2.59-3.118,1.618-4.69,2.362-3.186,1.458-4.8,2.129-3.269,1.307-4.9,1.892c-1.66.593-3.338,1.147-4.99,1.648s-3.349.971-5.059,1.4c-1.677.421-3.4.808-5.127,1.151-1.7.339-3.446.642-5.176.9s-3.478.471-5.215.642-3.5.3-5.239.387-3.5.129-5.254.129M107.04,8c-1.62,0-3.255.04-4.858.119s-3.245.2-4.85.358-3.215.356-4.825.595c-1.571.233-3.184.512-4.791.831-1.582.315-3.18.674-4.743,1.065s-3.152.832-4.683,1.3-3.1.981-4.615,1.525-3.042,1.13-4.536,1.749-2.987,1.28-4.442,1.969-2.919,1.425-4.343,2.187-2.844,1.564-4.229,2.4-2.768,1.7-4.108,2.6-2.669,1.832-3.977,2.8-2.587,1.969-3.83,2.989-2.474,2.082-3.68,3.175-2.379,2.209-3.52,3.351-2.275,2.331-3.353,3.521c-1.094,1.207-2.162,2.446-3.175,3.68-1.039,1.268-2.045,2.557-2.99,3.833s-1.89,2.614-2.8,3.977c-.9,1.348-1.775,2.731-2.6,4.106-.835,1.392-1.641,2.815-2.4,4.228S18.2,63.231,17.51,64.694s-1.358,2.967-1.969,4.443-1.2,2.993-1.751,4.538c-.538,1.5-1.052,3.058-1.525,4.617s-.907,3.127-1.3,4.682c-.4,1.583-.755,3.179-1.067,4.744-.314,1.581-.593,3.192-.83,4.788s-.437,3.215-.6,4.826-.279,3.236-.357,4.846S8,105.433,8,107.04s.04,3.241.12,4.858.2,3.243.357,4.847.359,3.236.595,4.825.517,3.209.831,4.79.671,3.167,1.067,4.745c.386,1.55.823,3.126,1.3,4.685s.984,3.106,1.524,4.614c.552,1.54,1.14,3.066,1.749,4.534s1.276,2.978,1.971,4.446,1.424,2.919,2.184,4.343,1.57,2.85,2.4,4.228,1.7,2.758,2.6,4.108,1.847,2.691,2.8,3.975,1.963,2.579,2.99,3.832,2.092,2.485,3.175,3.679,2.2,2.372,3.353,3.522c1.13,1.131,2.313,2.258,3.521,3.352s2.434,2.152,3.681,3.176,2.535,2.028,3.831,2.989,2.64,1.908,3.976,2.8,2.721,1.769,4.106,2.6,2.795,1.629,4.229,2.4,2.9,1.5,4.341,2.185,2.954,1.354,4.445,1.971,3.014,1.206,4.535,1.75,3.084,1.06,4.615,1.524,3.1.9,4.688,1.3c1.554.39,3.15.748,4.742,1.065s3.19.594,4.79.832,3.217.436,4.824.6,3.236.277,4.849.357c3.207.158,6.508.158,9.717,0,1.611-.08,3.243-.2,4.85-.358s3.231-.358,4.824-.6,3.212-.517,4.789-.831c1.6-.318,3.193-.676,4.742-1.065,1.584-.4,3.161-.833,4.685-1.3s3.081-.976,4.617-1.525c1.513-.541,3.038-1.129,4.535-1.75s2.993-1.283,4.444-1.97,2.916-1.424,4.342-2.186,2.847-1.567,4.23-2.4,2.778-1.713,4.107-2.6,2.672-1.834,3.974-2.8,2.584-1.966,3.833-2.991,2.494-2.1,3.681-3.175,2.381-2.213,3.519-3.351,2.279-2.335,3.352-3.52,2.142-2.424,3.178-3.683,2.033-2.541,2.989-3.831,1.893-2.621,2.8-3.976,1.778-2.734,2.6-4.1,1.635-2.8,2.4-4.231,1.5-2.9,2.185-4.342c.7-1.469,1.357-2.964,1.969-4.443s1.205-3.014,1.751-4.538,1.058-3.078,1.525-4.616.9-3.116,1.3-4.684.753-3.173,1.066-4.743.593-3.193.83-4.789.436-3.219.6-4.824.279-3.237.357-4.847.12-3.255.12-4.861-.04-3.242-.12-4.86-.2-3.242-.357-4.846-.359-3.231-.6-4.828-.516-3.207-.83-4.786-.67-3.164-1.067-4.746-.829-3.147-1.3-4.685-.98-3.092-1.525-4.617-1.136-3.052-1.749-4.532-1.274-2.974-1.97-4.447c-.686-1.451-1.422-2.912-2.185-4.34s-1.562-2.837-2.4-4.23c-.821-1.371-1.7-2.753-2.6-4.109s-1.851-2.7-2.8-3.971-1.953-2.567-2.992-3.834c-1.023-1.246-2.091-2.484-3.175-3.681s-2.206-2.374-3.353-3.521-2.335-2.278-3.518-3.349c-1.2-1.087-2.437-2.155-3.682-3.177s-2.535-2.028-3.833-2.991-2.643-1.909-3.975-2.8-2.71-1.763-4.106-2.6-2.819-1.643-4.228-2.394-2.879-1.5-4.345-2.189c-1.448-.685-2.944-1.348-4.443-1.969s-3.027-1.21-4.535-1.749c-1.525-.546-3.078-1.059-4.615-1.525s-3.109-.9-4.689-1.3c-1.553-.389-3.15-.747-4.743-1.066s-3.213-.6-4.786-.829c-1.609-.238-3.232-.439-4.824-.595s-3.239-.278-4.85-.358S108.66,8,107.04,8" transform="translate(-1758 -2009)" fill="#fff"/>
    <path id="Path_5561" data-name="Path 5561" d="M77.016,73.68H103.7v6.673H77.016Zm0,56.712H90.36v-6.673H77.016Zm0-33.359h30.023V90.36H77.016Zm0,16.679H93.7v-6.673H77.016Zm30.023,36.694v6.673H63.672a10.018,10.018,0,0,1-10.008-10.007V73.68A10.018,10.018,0,0,1,63.672,63.673V60.337a6.672,6.672,0,0,1,6.672-6.672h43.94A6.679,6.679,0,0,1,119,55.618L141.781,78.4a6.67,6.67,0,0,1,1.954,4.718V93.7h-6.672V87.024h-16.68a10.019,10.019,0,0,1-10.008-10.007V60.337H70.344V140.4H97.032v6.673H70.344a6.673,6.673,0,0,1-6.672-6.673V70.344a3.34,3.34,0,0,0-3.336,3.336v73.392a3.338,3.338,0,0,0,3.336,3.334ZM117.047,63.1V77.017a3.34,3.34,0,0,0,3.336,3.336H134.3Zm-3.336,60.619a10.019,10.019,0,0,1,10.008-10.007,3.336,3.336,0,0,0,0-6.673,16.7,16.7,0,0,0-16.68,16.68,3.336,3.336,0,1,0,6.672,0m45.726,31a3.335,3.335,0,1,1-4.717,4.717l-14.663-14.663a26.775,26.775,0,1,1,4.717-4.716Zm-15.7-31a20.015,20.015,0,1,0-20.016,20.017,20.039,20.039,0,0,0,20.016-20.017" transform="translate(-1758 -2009)" fill="#fff"/>
  </g>
</svg>
