<svg xmlns="http://www.w3.org/2000/svg" width="111.545" height="116.889" viewBox="0 0 111.545 116.889">
  <defs>
    <style>
      .cls-1 {
        fill: #fff;
      }
    </style>
  </defs>
  <path id="_6" data-name="6" class="cls-1" d="M501.331,116.889l-2.758-1.681A177.136,177.136,0,0,0,459.05,98.626l-3.2-.9-.577-3.274c-.036-.2-3.634-20.409-8.964-34.084l-.75-1.922.75-1.922c5.329-13.674,8.928-33.88,8.964-34.083l.577-3.275,3.2-.9A177.093,177.093,0,0,0,498.576,1.678L501.333,0l2.758,1.68a177.137,177.137,0,0,0,39.523,16.583l3.2.9.576,3.275c.036.2,3.634,20.409,8.964,34.083l.75,1.922-.749,1.922c-5.33,13.675-8.929,33.881-8.964,34.084l-.576,3.274-3.2.9a177.1,177.1,0,0,0-39.524,16.583Zm-36.245-27.53a190.4,190.4,0,0,1,36.246,15.222,190.447,190.447,0,0,1,36.246-15.223c1.21-6.158,4.129-19.828,8.187-30.915-4.058-11.088-6.977-24.756-8.187-30.915a190.447,190.447,0,0,1-36.246-15.223,190.449,190.449,0,0,1-36.246,15.223c-1.209,6.159-4.129,19.827-8.187,30.915,4.058,11.087,6.978,24.757,8.187,30.916" transform="translate(-445.559)"/>
</svg>
