<svg xmlns="http://www.w3.org/2000/svg" width="111.994" height="111.634" viewBox="0 0 111.994 111.634">
  <defs>
    <style>
      .cls-1 {
        fill: #fff;
      }
    </style>
  </defs>
  <path id="_7" data-name="7" class="cls-1" d="M56.182,116.539l-1.761-.587c-25.38-8.46-51.894-50.592-53.01-52.381L0,61.309.877,58.79C13.58,22.358,52.252,6.405,53.893,5.745l2.08-.84,2.081.839C59.7,6.4,98.42,22.357,111.123,58.79l.871,2.5-1.386,2.253c-1.1,1.79-27.268,43.945-52.666,52.411ZM12.325,59.964c7.985,12.186,27.4,37.953,43.856,44.764,16.429-6.81,35.629-32.57,43.5-44.744-10.2-25.532-36.156-39.393-43.707-42.972-7.541,3.58-33.449,17.432-43.651,42.952" transform="translate(0 -4.905)"/>
</svg>
