<svg id="_9" data-name="9" xmlns="http://www.w3.org/2000/svg" xmlns:xlink="http://www.w3.org/1999/xlink" width="134.092" height="134.092" viewBox="0 0 134.092 134.092">
  <defs>
    <style>
      .cls-1 {
        fill: none;
      }

      .cls-2 {
        opacity: 0.102;
      }

      .cls-3 {
        clip-path: url(#clip-path);
      }

      .cls-4 {
        clip-path: url(#clip-path-2);
      }

      .cls-5 {
        fill:#851640;
      }
    </style>
    <clipPath id="clip-path">
      <rect id="Rectangle_7423" data-name="Rectangle 7423" class="cls-1" width="37.965" height="37.207"/>
    </clipPath>
    <clipPath id="clip-path-2">
      <rect id="Rectangle_7422" data-name="Rectangle 7422" class="cls-1" width="37.965" height="37.206"/>
    </clipPath>
  </defs>
  <g id="Group_39075" data-name="Group 39075" class="cls-2" transform="translate(71.048 60.983)">
    <g id="Group_39074" data-name="Group 39074" transform="translate(0 0)">
      <g id="Group_39073" data-name="Group 39073" class="cls-3">
        <g id="Group_39072" data-name="Group 39072" transform="translate(0 0.001)">
          <g id="Group_39071" data-name="Group 39071" class="cls-4">
            <path id="Path_5563" data-name="Path 5563" class="cls-5" d="M113.429,142.19V122.448a3.805,3.805,0,0,1,1.112-2.685,3.856,3.856,0,0,1,.576-.472,3.792,3.792,0,0,1,2.109-.64H143.8a7.593,7.593,0,0,1,7.593,7.593v25.816a3.777,3.777,0,0,1-.073.741,3.8,3.8,0,0,1-.567,1.369,3.795,3.795,0,0,1-1.7,1.4,3.787,3.787,0,0,1-1.453.289H127.1q-.672,0-1.34-.066t-1.327-.2q-.659-.131-1.3-.326t-1.263-.452q-.62-.256-1.213-.573t-1.15-.69q-.559-.373-1.077-.8a13.4,13.4,0,0,1-.994-.9q-.474-.474-.9-.993t-.8-1.077q-.373-.558-.689-1.151t-.574-1.213q-.256-.62-.452-1.263t-.326-1.3q-.131-.659-.2-1.327t-.066-1.34" transform="translate(-113.429 -118.651)"/>
          </g>
        </g>
      </g>
    </g>
  </g>
  <path id="Path_5564" data-name="Path 5564" class="cls-5" d="M67.046,155.383c-1.083,0-2.19-.027-3.288-.081s-2.2-.135-3.283-.242-2.179-.241-3.266-.4-2.177-.351-3.243-.564-2.149-.455-3.21-.72-2.137-.564-3.173-.879-2.1-.665-3.124-1.032-2.062-.766-3.07-1.184-2.029-.87-3.01-1.334-1.975-.964-2.938-1.479-1.927-1.06-2.863-1.622-1.87-1.152-2.78-1.76-1.815-1.246-2.69-1.894-1.746-1.329-2.594-2.025-1.678-1.412-2.492-2.149-1.614-1.5-2.383-2.27-1.537-1.575-2.27-2.384-1.453-1.643-2.149-2.491-1.375-1.717-2.026-2.6-1.284-1.778-1.894-2.69-1.2-1.842-1.761-2.782-1.106-1.9-1.621-2.861S6.9,117.99,6.437,117s-.918-2-1.334-3.009c-.422-1.019-.82-2.052-1.184-3.071S3.2,108.84,2.886,107.8s-.614-2.122-.878-3.172-.507-2.133-.72-3.21-.4-2.163-.563-3.244S.43,96,.323,94.908s-.189-2.19-.242-3.282S0,89.434,0,88.337s.027-2.2.081-3.29.135-2.194.242-3.282.242-2.19.4-3.267.349-2.171.562-3.241.456-2.154.721-3.211.559-2.119.877-3.171S3.55,66.783,3.92,65.75c.361-1.014.76-2.046,1.183-3.069.417-1.007.866-2.019,1.334-3.01s.965-1.976,1.48-2.94,1.06-1.927,1.622-2.863S10.7,51.986,11.3,51.087s1.246-1.816,1.894-2.69,1.327-1.743,2.024-2.593,1.414-1.681,2.15-2.492,1.49-1.6,2.269-2.382,1.578-1.54,2.383-2.269,1.652-1.461,2.492-2.15,1.721-1.377,2.594-2.025S28.887,33.2,29.8,32.59s1.833-1.193,2.78-1.76c.93-.558,1.894-1.1,2.863-1.622s1.959-1.017,2.94-1.481,2.007-.918,3.009-1.334c1.018-.421,2.052-.82,3.07-1.184s2.085-.717,3.125-1.033,2.118-.614,3.171-.878,2.135-.507,3.21-.72,2.161-.4,3.243-.563,2.174-.3,3.266-.4,2.192-.189,3.283-.242c2.171-.108,4.406-.108,6.579,0,1.091.053,2.2.135,3.282.242s2.189.242,3.267.4,2.17.349,3.241.562,2.157.457,3.211.721,2.115.557,3.17.877,2.093.664,3.126,1.034,2.056.764,3.07,1.184,2.017.864,3.008,1.333,1.971.963,2.94,1.481,1.932,1.064,2.862,1.622,1.875,1.155,2.781,1.761,1.811,1.242,2.69,1.894,1.75,1.332,2.594,2.025,1.687,1.419,2.492,2.15,1.61,1.5,2.382,2.269,1.536,1.573,2.27,2.383,1.461,1.653,2.149,2.492,1.377,1.72,2.025,2.594,1.284,1.777,1.894,2.69,1.2,1.847,1.761,2.781,1.107,1.9,1.621,2.862,1.013,1.952,1.48,2.94.913,1.992,1.334,3.008.816,2.042,1.184,3.071.715,2.077,1.033,3.126.609,2.1.878,3.17.508,2.141.72,3.211.4,2.157.563,3.241.3,2.175.4,3.267.189,2.193.242,3.282.081,2.207.081,3.29-.027,2.19-.081,3.289-.135,2.2-.242,3.282-.243,2.19-.4,3.266-.351,2.177-.564,3.243-.455,2.152-.72,3.21-.563,2.133-.879,3.173-.665,2.1-1.032,3.124-.768,2.066-1.184,3.07-.869,2.027-1.334,3.01-.964,1.975-1.479,2.938-1.062,1.928-1.622,2.862-1.148,1.862-1.76,2.78-1.248,1.817-1.894,2.69-1.335,1.754-2.026,2.6-1.417,1.684-2.148,2.491-1.5,1.618-2.27,2.384-1.567,1.529-2.382,2.269-1.644,1.453-2.492,2.149-1.718,1.375-2.6,2.026-1.785,1.288-2.69,1.894-1.855,1.206-2.782,1.762-1.9,1.106-2.862,1.62-1.95,1.012-2.939,1.48-1.989.911-3.008,1.334c-1,.416-2.037.814-3.07,1.184s-2.076.715-3.125,1.033-2.106.611-3.171.878-2.138.507-3.211.72-2.158.4-3.242.563-2.189.3-3.268.4-2.19.189-3.281.242-2.207.081-3.29.081m0-129.081c-1.014,0-2.038.025-3.043.075s-2.031.125-3.037.224-2.028.225-3.022.372-2.01.324-3,.521-1.994.423-2.971.668-1.962.517-2.935.812-1.935.613-2.891.955-1.9.706-2.841,1.1c-.927.383-1.863.8-2.784,1.234s-1.822.889-2.72,1.369-1.788.985-2.649,1.5c-.876.526-1.741,1.074-2.571,1.628S30.9,37.909,30.091,38.51s-1.615,1.229-2.4,1.873-1.553,1.307-2.306,1.989-1.486,1.381-2.2,2.1-1.427,1.463-2.1,2.2-1.35,1.528-1.989,2.306-1.276,1.594-1.872,2.4-1.19,1.646-1.754,2.49-1.1,1.7-1.629,2.572-1.025,1.758-1.5,2.65S11.4,60.9,10.967,61.813s-.849,1.853-1.235,2.784-.76,1.9-1.095,2.839c-.343.957-.664,1.93-.955,2.892s-.569,1.961-.812,2.935S6.4,75.241,6.2,76.235s-.371,2-.52,3-.273,2.013-.373,3.022-.175,2.028-.224,3.036-.075,2.031-.075,3.045.025,2.039.075,3.044.125,2.032.224,3.036.224,2.026.372,3.022.324,2.009.521,3,.423,2,.668,2.971.516,1.958.812,2.935c.291.962.613,1.935.955,2.89s.706,1.9,1.1,2.842.8,1.865,1.234,2.784.893,1.828,1.368,2.72.983,1.783,1.5,2.648,1.069,1.735,1.629,2.572,1.154,1.682,1.754,2.49,1.232,1.619,1.873,2.4,1.313,1.56,1.989,2.305,1.386,1.491,2.1,2.206,1.454,1.419,2.205,2.1,1.529,1.35,2.306,1.989,1.592,1.274,2.4,1.873,1.648,1.19,2.49,1.754,1.706,1.11,2.571,1.627,1.759,1.025,2.65,1.5,1.806.936,2.72,1.368,1.844.845,2.784,1.235,1.888.755,2.841,1.1,1.921.661,2.891.954,1.947.566,2.936.813,1.98.47,2.97.667,2,.371,3,.521,2.023.274,3.021.373,2.028.174,3.038.224c2.034.1,4.053.1,6.088,0,1.009-.049,2.031-.125,3.036-.224s2.014-.224,3.022-.373,2.012-.324,3-.521,1.993-.422,2.971-.668,1.972-.52,2.933-.812,1.944-.616,2.891-.955,1.912-.712,2.841-1.1c.943-.391,1.88-.806,2.784-1.234s1.831-.893,2.72-1.369,1.783-.982,2.65-1.5,1.724-1.062,2.573-1.629,1.676-1.151,2.49-1.754,1.619-1.232,2.4-1.873,1.56-1.314,2.306-1.989,1.5-1.391,2.2-2.1,1.415-1.451,2.1-2.206,1.345-1.523,1.988-2.305,1.27-1.586,1.873-2.4,1.189-1.646,1.754-2.49,1.114-1.713,1.626-2.571,1.025-1.758,1.5-2.65.936-1.805,1.368-2.719.846-1.845,1.235-2.784.754-1.885,1.1-2.841.66-1.92.954-2.891.566-1.949.813-2.935.469-1.978.667-2.971.371-2,.521-3,.272-2.013.372-3.022.175-2.026.224-3.036.075-2.041.075-3.044-.025-2.026-.075-3.045-.125-2.029-.224-3.036-.225-2.027-.373-3.022-.324-2.013-.521-3-.422-1.991-.668-2.972-.521-1.975-.812-2.933-.615-1.944-.955-2.893-.71-1.908-1.1-2.841-.8-1.875-1.234-2.782-.893-1.83-1.369-2.72-.982-1.783-1.5-2.65-1.066-1.731-1.629-2.572-1.154-1.682-1.753-2.49-1.23-1.616-1.873-2.4-1.307-1.553-1.989-2.306-1.386-1.491-2.1-2.2-1.457-1.421-2.2-2.1-1.521-1.345-2.306-1.989-1.588-1.271-2.4-1.872-1.652-1.194-2.49-1.754-1.7-1.108-2.573-1.629-1.753-1.022-2.65-1.5-1.811-.94-2.719-1.369-1.853-.849-2.784-1.233-1.9-.759-2.841-1.1-1.929-.664-2.892-.955-1.964-.57-2.934-.812-1.975-.47-2.972-.668-2-.371-3-.52-2.013-.273-3.022-.373-2.026-.175-3.036-.224-2.03-.075-3.045-.075" transform="translate(0 -21.291)"/>
  <path id="Path_5565" data-name="Path 5565" class="cls-5" d="M68.29,87.493H85.006v4.179H68.29Zm0,35.523h8.358v-4.179H68.29Zm0-20.9H87.1V97.941H68.29Zm0,10.448H78.738v-4.179H68.29ZM87.1,135.552v4.179H59.932a6.275,6.275,0,0,1-6.269-6.268V87.493a6.275,6.275,0,0,1,6.269-6.268v-2.09a4.179,4.179,0,0,1,4.179-4.179H91.633a4.181,4.181,0,0,1,2.955,1.224l14.268,14.268a4.179,4.179,0,0,1,1.224,2.955v6.627H105.9V95.851H95.454a6.276,6.276,0,0,1-6.269-6.269V79.135H64.111v50.149H80.827v4.179H64.111a4.179,4.179,0,0,1-4.179-4.179V85.4a2.091,2.091,0,0,0-2.09,2.089v45.97a2.091,2.091,0,0,0,2.09,2.089Zm6.269-54.686v8.717a2.092,2.092,0,0,0,2.09,2.09h8.717Zm-2.09,37.97a6.276,6.276,0,0,1,6.269-6.269,2.09,2.09,0,0,0,0-4.179A10.46,10.46,0,0,0,87.1,118.836a2.09,2.09,0,0,0,4.179,0m28.641,19.418a2.089,2.089,0,1,1-2.955,2.955l-9.184-9.184a16.775,16.775,0,1,1,2.955-2.955Zm-9.835-19.418a12.537,12.537,0,1,0-12.537,12.537,12.551,12.551,0,0,0,12.537-12.537" transform="translate(-20.05 -41.342)"/>
</svg>
