<svg id="Layer_1" data-name="Layer 1" xmlns="http://www.w3.org/2000/svg" viewBox="0 0 300.35 323.74"><defs><style>.cls-1{fill:#13120d;}.cls-2{fill:#c8b02d;}.cls-3{fill:#221f1f;}.cls-4{fill:#d0be70;}.cls-5{fill:#d4c794;}.cls-6{fill:#fff;}.cls-7{fill:#be2026;}.cls-8{fill:#020303;}.cls-9{fill:#5d9942;}</style></defs><path class="cls-1" d="M150.83,266.05a107.37,107.37,0,1,1,41.94-8.46A107.08,107.08,0,0,1,150.83,266.05Zm0-214.19a106.07,106.07,0,1,0,41.44,8.36A105.76,105.76,0,0,0,150.83,51.86Z" transform="translate(0 -4.62)"/><path class="cls-1" d="M150.15,249.24A93.05,93.05,0,0,1,64.4,192.81a92,92,0,0,1,0-71.93A93.38,93.38,0,0,1,216,91.51a92.14,92.14,0,0,1,19.95,29.37,92,92,0,0,1,0,71.93A93.09,93.09,0,0,1,186.38,242,93.19,93.19,0,0,1,150.15,249.24Zm0-183.5A91.8,91.8,0,0,0,85.26,92.43a91,91,0,0,0,29.17,148.35,92.15,92.15,0,0,0,100.62-19.52A91,91,0,0,0,185.88,72.9,91.77,91.77,0,0,0,150.15,65.74Z" transform="translate(0 -4.62)"/><path class="cls-2" d="M150.83,246.12a88.89,88.89,0,1,1,34.71-7A88.58,88.58,0,0,1,150.83,246.12Z" transform="translate(0 -4.62)"/><path class="cls-3" d="M150.83,68.52A88.44,88.44,0,1,1,62.4,157a88.44,88.44,0,0,1,88.43-88.43m0-1.46A89.8,89.8,0,0,0,87.27,93.39,89.84,89.84,0,0,0,68,122a90.24,90.24,0,0,0,0,70,90.06,90.06,0,0,0,47.84,47.83,89.84,89.84,0,0,0,85.25-8.28,90.28,90.28,0,0,0,24.28-24.28,89.81,89.81,0,0,0,0-100.53,91.23,91.23,0,0,0-11-13.3,90.15,90.15,0,0,0-13.31-11,89.5,89.5,0,0,0-50.26-15.36Z" transform="translate(0 -4.62)"/><circle class="cls-4" cx="150.83" cy="143.81" r="79.91"/><circle class="cls-5" cx="150.83" cy="142.98" r="79.08"/><path class="cls-6" d="M150.83,208.22a70.05,70.05,0,1,1,27.35-5.52A69.68,69.68,0,0,1,150.83,208.22Z" transform="translate(0 -4.62)"/><path class="cls-3" d="M150.83,68.52A69.45,69.45,0,1,1,81.38,138a69.45,69.45,0,0,1,69.45-69.45m0-1.62a70.83,70.83,0,1,0,27.67,5.59,70.55,70.55,0,0,0-27.67-5.59Z" transform="translate(0 -4.62)"/><path class="cls-7" d="M51.42,164.68a3.85,3.85,0,0,1-3.85-3.85v-9.18a3.86,3.86,0,1,1,7.71,0v9.18A3.85,3.85,0,0,1,51.42,164.68Z" transform="translate(0 -4.62)"/><path class="cls-3" d="M51.42,148.36a3.29,3.29,0,0,1,3.29,3.29v9.18a3.29,3.29,0,0,1-3.29,3.29h0a3.28,3.28,0,0,1-3.28-3.29v-9.18a3.28,3.28,0,0,1,3.28-3.29h0m0-1.13A4.42,4.42,0,0,0,47,151.65v9.18a4.42,4.42,0,1,0,8.83,0v-9.18a4.42,4.42,0,0,0-4.42-4.42Z" transform="translate(0 -4.62)"/><path class="cls-7" d="M56.2,192.58a3.88,3.88,0,0,1-3.7-2.77L49.91,181a3.86,3.86,0,0,1,2.61-4.78,3.69,3.69,0,0,1,1.09-.16,3.88,3.88,0,0,1,3.7,2.77l2.58,8.81a3.84,3.84,0,0,1-2.61,4.78A3.62,3.62,0,0,1,56.2,192.58Z" transform="translate(0 -4.62)"/><path class="cls-3" d="M53.61,176.62A3.29,3.29,0,0,1,56.76,179l2.59,8.82a3.29,3.29,0,0,1-2.23,4.08h0A3.3,3.3,0,0,1,53,189.65l-2.58-8.81a3.28,3.28,0,0,1,2.22-4.08h0a3.33,3.33,0,0,1,.93-.14m0-1.13h0a4.41,4.41,0,0,0-4.24,5.66L52,190a4.44,4.44,0,0,0,4.24,3.17,4.38,4.38,0,0,0,1.24-.18,4.42,4.42,0,0,0,3-5.48l-2.59-8.81a4.45,4.45,0,0,0-4.24-3.18Z" transform="translate(0 -4.62)"/><path class="cls-7" d="M68.64,218a3.84,3.84,0,0,1-3.25-1.77l-5-7.73a3.86,3.86,0,0,1,3.23-5.94,3.87,3.87,0,0,1,3.25,1.77l5,7.73A3.85,3.85,0,0,1,68.64,218Z" transform="translate(0 -4.62)"/><path class="cls-3" d="M63.66,203.13a3.27,3.27,0,0,1,2.77,1.51l5,7.73a3.28,3.28,0,0,1-1,4.54h0a3.31,3.31,0,0,1-1.77.52,3.27,3.27,0,0,1-2.77-1.51l-5-7.73a3.28,3.28,0,0,1,1-4.54h0a3.31,3.31,0,0,1,1.77-.52m0-1.13h0A4.42,4.42,0,0,0,60,208.8l5,7.73a4.41,4.41,0,1,0,7.43-4.77l-5-7.73a4.39,4.39,0,0,0-3.72-2Z" transform="translate(0 -4.62)"/><path class="cls-7" d="M87.72,238.88a3.84,3.84,0,0,1-2.52-.94l-6.94-6a3.82,3.82,0,0,1-1.32-2.64,3.86,3.86,0,0,1,6.37-3.19l6.94,6a3.85,3.85,0,0,1-2.53,6.76Z" transform="translate(0 -4.62)"/><path class="cls-3" d="M80.78,225.73a3.29,3.29,0,0,1,2.16.8l6.94,6a3.29,3.29,0,0,1,.33,4.64h0a3.3,3.3,0,0,1-4.64.33l-6.94-6a3.29,3.29,0,0,1-.33-4.64h0a3.26,3.26,0,0,1,2.48-1.13m0-1.13h0a4.39,4.39,0,0,0-3.33,1.52,4.42,4.42,0,0,0,.44,6.23l6.94,6a4.42,4.42,0,0,0,5.79-6.68l-6.94-6a4.41,4.41,0,0,0-2.9-1.08Z" transform="translate(0 -4.62)"/><path class="cls-7" d="M111.93,253.55a3.81,3.81,0,0,1-1.6-.35L102,249.38a3.84,3.84,0,0,1-2-2.16,3.8,3.8,0,0,1,.11-2.94,3.86,3.86,0,0,1,3.5-2.26,3.81,3.81,0,0,1,1.6.35l8.36,3.82a3.87,3.87,0,0,1,2,2.16,3.82,3.82,0,0,1-.11,3A3.87,3.87,0,0,1,111.93,253.55Z" transform="translate(0 -4.62)"/><path class="cls-3" d="M103.57,242.59a3.32,3.32,0,0,1,1.37.3l8.35,3.82a3.29,3.29,0,0,1,1.63,4.35h0a3.3,3.3,0,0,1-3,1.92,3.34,3.34,0,0,1-1.37-.29l-8.35-3.82a3.3,3.3,0,0,1-1.63-4.36h0a3.3,3.3,0,0,1,3-1.92m0-1.13h0a4.42,4.42,0,0,0-1.83,8.44l8.35,3.81a4.32,4.32,0,0,0,1.84.4,4.41,4.41,0,0,0,4.14-6,4.38,4.38,0,0,0-2.31-2.47l-8.35-3.82a4.32,4.32,0,0,0-1.84-.4Z" transform="translate(0 -4.62)"/><path class="cls-7" d="M139.29,260.8a3.52,3.52,0,0,1-.56,0l-9.09-1.31a3.85,3.85,0,0,1,.54-7.66,3.52,3.52,0,0,1,.56,0l9.09,1.31a3.85,3.85,0,0,1-.54,7.66Z" transform="translate(0 -4.62)"/><path class="cls-3" d="M130.18,252.35a2.59,2.59,0,0,1,.48,0l9.09,1.31a3.28,3.28,0,0,1,2.78,3.72h0a3.28,3.28,0,0,1-3.24,2.82,2.59,2.59,0,0,1-.48,0l-9.09-1.31a3.28,3.28,0,0,1-2.78-3.72h0a3.28,3.28,0,0,1,3.24-2.82m0-1.13h0a4.43,4.43,0,0,0-4.36,3.79,4.34,4.34,0,0,0,.83,3.27,4.39,4.39,0,0,0,2.91,1.73l9.09,1.31a4.38,4.38,0,0,0,5-3.74,4.4,4.4,0,0,0-3.74-5l-9.09-1.31a4.48,4.48,0,0,0-.64-.05Z" transform="translate(0 -4.62)"/><path class="cls-7" d="M158.47,261.36a3.85,3.85,0,0,1-.54-7.67l9.09-1.3a3.39,3.39,0,0,1,.55,0,3.87,3.87,0,0,1,3.81,3.31,3.78,3.78,0,0,1-.73,2.85,3.82,3.82,0,0,1-2.53,1.51l-9.1,1.3A3.39,3.39,0,0,1,158.47,261.36Z" transform="translate(0 -4.62)"/><path class="cls-3" d="M167.57,252.92a3.29,3.29,0,0,1,.47,6.54l-9.1,1.3a3.71,3.71,0,0,1-.47,0,3.29,3.29,0,0,1-3.25-2.82h0a3.3,3.3,0,0,1,2.79-3.72l9.09-1.3.47,0m0-1.13h0a4.44,4.44,0,0,0-.63,0l-9.09,1.3a4.43,4.43,0,0,0-3.75,5,4.38,4.38,0,0,0,5,3.75l9.1-1.3a4.42,4.42,0,0,0-.63-8.79Z" transform="translate(0 -4.62)"/><path class="cls-7" d="M186.15,255.19a3.86,3.86,0,0,1-3.51-2.26,3.86,3.86,0,0,1,1.91-5.1l8.36-3.81a3.65,3.65,0,0,1,1.59-.35,3.85,3.85,0,0,1,1.6,7.36l-8.36,3.81A3.8,3.8,0,0,1,186.15,255.19Z" transform="translate(0 -4.62)"/><path class="cls-3" d="M194.5,244.23a3.28,3.28,0,0,1,3,1.93h0a3.27,3.27,0,0,1-1.62,4.35l-8.36,3.81a3.31,3.31,0,0,1-1.36.3,3.29,3.29,0,0,1-1.37-6.28l8.36-3.81a3.28,3.28,0,0,1,1.36-.3m0-1.13v0h0a4.47,4.47,0,0,0-1.83.4l-8.36,3.81a4.42,4.42,0,0,0,1.84,8.44,4.31,4.31,0,0,0,1.83-.4l8.36-3.81a4.42,4.42,0,0,0-1.84-8.44Z" transform="translate(0 -4.62)"/><path class="cls-7" d="M211,241.47a3.86,3.86,0,0,1-2.53-6.77l6.95-6a3.85,3.85,0,1,1,5,5.82l-6.94,6A3.89,3.89,0,0,1,211,241.47Z" transform="translate(0 -4.62)"/><path class="cls-3" d="M217.9,228.32a3.26,3.26,0,0,1,2.48,1.13h0a3.29,3.29,0,0,1-.33,4.64l-7,6a3.29,3.29,0,0,1-4.63-.33,3.29,3.29,0,0,1,.33-4.64l6.95-6a3.26,3.26,0,0,1,2.15-.8m0-1.14h0a4.44,4.44,0,0,0-2.89,1.08l-6.95,6a4.42,4.42,0,0,0,5.79,6.68l6.94-6a4.42,4.42,0,0,0-2.89-7.76Z" transform="translate(0 -4.62)"/><path class="cls-7" d="M230.89,221.32a3.86,3.86,0,0,1-3.23-5.94l5-7.73a3.85,3.85,0,0,1,6.48,4.17l-5,7.73A3.82,3.82,0,0,1,230.89,221.32Z" transform="translate(0 -4.62)"/><path class="cls-3" d="M235.87,206.45a3.21,3.21,0,0,1,1.77.53h0a3.28,3.28,0,0,1,1,4.54l-5,7.72a3.29,3.29,0,0,1-5.53-3.55l5-7.73a3.28,3.28,0,0,1,2.77-1.51m0-1.13h0a4.41,4.41,0,0,0-3.72,2l-5,7.72a4.42,4.42,0,1,0,7.43,4.78l5-7.72a4.41,4.41,0,0,0-3.71-6.81Z" transform="translate(0 -4.62)"/><path class="cls-7" d="M244.35,196.37a4.11,4.11,0,0,1-1.09-.16,3.86,3.86,0,0,1-2.6-4.79l2.59-8.81a3.87,3.87,0,0,1,3.69-2.76A4,4,0,0,1,248,180a3.86,3.86,0,0,1,2.61,4.79l-2.59,8.81A3.88,3.88,0,0,1,244.35,196.37Z" transform="translate(0 -4.62)"/><path class="cls-3" d="M246.94,180.41a3.33,3.33,0,0,1,.93.14h0a3.28,3.28,0,0,1,2.23,4.08l-2.59,8.81a3.31,3.31,0,0,1-3.16,2.36,3,3,0,0,1-.93-.14h0a3.28,3.28,0,0,1-2.22-4.08l2.59-8.81a3.29,3.29,0,0,1,3.15-2.36m0-1.13v0h0a4.43,4.43,0,0,0-4.23,3.17l-2.6,8.81a4.42,4.42,0,0,0,8.48,2.5l2.59-8.81a4.42,4.42,0,0,0-3-5.49,4.34,4.34,0,0,0-1.25-.18Z" transform="translate(0 -4.62)"/><path class="cls-7" d="M250.23,168.63a3.86,3.86,0,0,1-3.85-3.85v-9.19a3.86,3.86,0,0,1,7.71,0v9.18a3.85,3.85,0,0,1-3.85,3.85Z" transform="translate(0 -4.62)"/><path class="cls-3" d="M250.24,152.31h0a3.28,3.28,0,0,1,3.28,3.29v9.18a3.28,3.28,0,0,1-3.28,3.29h0a3.29,3.29,0,0,1-3.28-3.29v-9.19a3.28,3.28,0,0,1,3.28-3.28m0-1.13h0a4.42,4.42,0,0,0-4.41,4.41v9.19a4.42,4.42,0,1,0,8.83,0V155.6a4.42,4.42,0,0,0-4.41-4.42Z" transform="translate(0 -4.62)"/><path class="cls-7" d="M248.07,140.37a3.88,3.88,0,0,1-3.7-2.77l-2.58-8.82a3.86,3.86,0,0,1,2.62-4.78,4,4,0,0,1,1.08-.16,3.88,3.88,0,0,1,3.7,2.77l2.58,8.82a3.79,3.79,0,0,1-.32,2.93,3.83,3.83,0,0,1-2.3,1.85A3.92,3.92,0,0,1,248.07,140.37Z" transform="translate(0 -4.62)"/><path class="cls-3" d="M245.49,124.41a3.29,3.29,0,0,1,3.15,2.36l2.59,8.82a3.29,3.29,0,0,1-2.24,4.08h0a3.25,3.25,0,0,1-.92.13,3.29,3.29,0,0,1-3.15-2.36l-2.58-8.82a3.28,3.28,0,0,1,2.23-4.08h0a3.25,3.25,0,0,1,.92-.13m0-1.13h0a4.33,4.33,0,0,0-1.24.18,4.41,4.41,0,0,0-3,5.48l2.58,8.82a4.44,4.44,0,0,0,4.24,3.17,4.33,4.33,0,0,0,1.24-.18,4.42,4.42,0,0,0,3-5.48l-2.58-8.81a4.43,4.43,0,0,0-4.24-3.18Z" transform="translate(0 -4.62)"/><path class="cls-7" d="M238,113.85a3.84,3.84,0,0,1-3.25-1.77l-5-7.73a3.85,3.85,0,0,1,6.48-4.16l5,7.73a3.85,3.85,0,0,1-3.23,5.93Z" transform="translate(0 -4.62)"/><path class="cls-3" d="M233.07,99a3.31,3.31,0,0,1,2.77,1.51l5,7.74a3.29,3.29,0,0,1-1,4.54h0a3.29,3.29,0,0,1-4.54-1l-5-7.74a3.28,3.28,0,0,1,1-4.54h0a3.28,3.28,0,0,1,1.77-.52m0-1.13v0h0a4.42,4.42,0,0,0-3.72,6.8l5,7.74a4.42,4.42,0,0,0,7.44-4.77l-5-7.74a4.41,4.41,0,0,0-3.72-2Z" transform="translate(0 -4.62)"/><path class="cls-7" d="M220.93,91.24a3.82,3.82,0,0,1-2.52-.94l-6.94-6a3.82,3.82,0,0,1-1.32-2.64,3.86,3.86,0,0,1,6.37-3.18l6.94,6a3.85,3.85,0,0,1,1.31,2.64,3.78,3.78,0,0,1-.93,2.8A3.85,3.85,0,0,1,220.93,91.24Z" transform="translate(0 -4.62)"/><path class="cls-3" d="M214,78.08a3.28,3.28,0,0,1,2.15.81l6.94,6a3.28,3.28,0,0,1,.32,4.63h0a3.26,3.26,0,0,1-4.63.33l-6.94-6a3.29,3.29,0,0,1-.33-4.64h0A3.32,3.32,0,0,1,214,78.08M214,77v0h0a4.42,4.42,0,0,0-2.9,7.75l6.94,6a4.42,4.42,0,0,0,5.79-6.68l-6.94-6A4.44,4.44,0,0,0,214,77Z" transform="translate(0 -4.62)"/><path class="cls-7" d="M198.15,74.37a3.74,3.74,0,0,1-1.6-.36l-8.35-3.82a3.85,3.85,0,0,1,1.6-7.35,3.74,3.74,0,0,1,1.61.35L199.76,67a3.86,3.86,0,0,1-1.61,7.36Z" transform="translate(0 -4.62)"/><path class="cls-3" d="M189.8,63.4a3.32,3.32,0,0,1,1.37.3l8.35,3.82a3.29,3.29,0,0,1,1.62,4.36h0a3.27,3.27,0,0,1-4.35,1.62l-8.36-3.82a3.3,3.3,0,0,1-1.62-4.36h0a3.3,3.3,0,0,1,3-1.92m0-1.13h0A4.41,4.41,0,0,0,188,70.7l8.35,3.83a4.51,4.51,0,0,0,1.84.4,4.42,4.42,0,0,0,4-2.58A4.42,4.42,0,0,0,200,66.5l-8.35-3.83a4.32,4.32,0,0,0-1.84-.4Z" transform="translate(0 -4.62)"/><path class="cls-7" d="M171.55,64.59a3.53,3.53,0,0,1-.56,0l-9.09-1.31a3.87,3.87,0,0,1-3.26-4.37,3.87,3.87,0,0,1,3.81-3.3,5.46,5.46,0,0,1,.56,0l9.09,1.32a3.86,3.86,0,0,1,3.26,4.36A3.88,3.88,0,0,1,171.55,64.59Z" transform="translate(0 -4.62)"/><path class="cls-3" d="M162.45,56.13a3.71,3.71,0,0,1,.47,0l9.1,1.32a3.29,3.29,0,0,1,2.78,3.72h0A3.29,3.29,0,0,1,171.55,64a2.59,2.59,0,0,1-.48,0L162,62.67a3.29,3.29,0,0,1-2.78-3.73h0a3.29,3.29,0,0,1,3.25-2.81m0-1.13h0a4.42,4.42,0,0,0-.63,8.79l9.09,1.31a3.45,3.45,0,0,0,.64.05,4.45,4.45,0,0,0,4.37-3.78,4.44,4.44,0,0,0-3.74-5L163.09,55a4.58,4.58,0,0,0-.64,0Z" transform="translate(0 -4.62)"/><path class="cls-7" d="M134.16,64a3.85,3.85,0,0,1-.54-7.66l9.09-1.3a3.48,3.48,0,0,1,.55,0,3.86,3.86,0,0,1,3.81,3.31,3.81,3.81,0,0,1-.73,2.86,3.86,3.86,0,0,1-2.54,1.5L134.71,64A3.39,3.39,0,0,1,134.16,64Z" transform="translate(0 -4.62)"/><path class="cls-3" d="M143.26,55.56a3.28,3.28,0,0,1,3.25,2.82h0a3.28,3.28,0,0,1-2.79,3.72l-9.09,1.29a2.56,2.56,0,0,1-.47,0,3.28,3.28,0,0,1-3.25-2.82h0a3.28,3.28,0,0,1,2.79-3.72l9.09-1.3.47,0m0-1.13h0a4.44,4.44,0,0,0-.63,0l-9.09,1.3a4.42,4.42,0,0,0-3.75,5,4.44,4.44,0,0,0,4.37,3.79c.21,0,.42,0,.63,0l9.09-1.3a4.42,4.42,0,0,0-.62-8.79Z" transform="translate(0 -4.62)"/><path class="cls-7" d="M107.23,72.66a3.85,3.85,0,0,1-1.6-7.36L114,61.49a3.86,3.86,0,0,1,3.19,7l-8.36,3.8A3.83,3.83,0,0,1,107.23,72.66Z" transform="translate(0 -4.62)"/><path class="cls-3" d="M115.58,61.71a3.31,3.31,0,0,1,3,1.93h0A3.29,3.29,0,0,1,117,68l-8.36,3.81a3.33,3.33,0,0,1-1.36.29,3.29,3.29,0,0,1-3-1.92h0a3.29,3.29,0,0,1,1.63-4.35L114.22,62a3.35,3.35,0,0,1,1.36-.3m0-1.13h0a4.24,4.24,0,0,0-1.82.4l-8.37,3.81a4.42,4.42,0,0,0,3.67,8L117.42,69a4.43,4.43,0,0,0,2.19-5.85,4.45,4.45,0,0,0-4-2.59Z" transform="translate(0 -4.62)"/><path class="cls-7" d="M83.82,88.56a3.85,3.85,0,0,1-2.52-6.77l7-6a3.85,3.85,0,0,1,5.43.39,3.85,3.85,0,0,1-.39,5.43l-7,6A3.84,3.84,0,0,1,83.82,88.56Z" transform="translate(0 -4.62)"/><path class="cls-3" d="M90.77,75.41a3.27,3.27,0,0,1,2.48,1.14h0a3.29,3.29,0,0,1-.33,4.64l-7,6a3.3,3.3,0,0,1-4.64-.33h0a3.28,3.28,0,0,1,.34-4.64l7-6a3.3,3.3,0,0,1,2.15-.8m0-1.13h0a4.39,4.39,0,0,0-2.89,1.08l-6.95,6a4.42,4.42,0,1,0,5.78,6.68l7-6a4.43,4.43,0,0,0,.45-6.23,4.42,4.42,0,0,0-3.34-1.53Z" transform="translate(0 -4.62)"/><path class="cls-7" d="M65.83,110.41a3.85,3.85,0,0,1-3.23-5.94l5-7.72a3.85,3.85,0,0,1,6.48,4.17l-5,7.73A3.84,3.84,0,0,1,65.83,110.41Z" transform="translate(0 -4.62)"/><path class="cls-3" d="M70.82,95.55a3.28,3.28,0,0,1,1.77.52h0a3.29,3.29,0,0,1,1,4.55l-5,7.72a3.31,3.31,0,0,1-2.77,1.51,3.21,3.21,0,0,1-1.77-.53h0a3.28,3.28,0,0,1-1-4.54l5-7.72a3.28,3.28,0,0,1,2.77-1.51m0-1.13h0a4.41,4.41,0,0,0-3.72,2l-5,7.73A4.42,4.42,0,1,0,69.55,109l5-7.72a4.41,4.41,0,0,0-3.7-6.81Z" transform="translate(0 -4.62)"/><path class="cls-7" d="M54.74,136.44a3.64,3.64,0,0,1-1.09-.16A3.84,3.84,0,0,1,51,131.5l2.6-8.81a3.87,3.87,0,0,1,3.7-2.76,4.09,4.09,0,0,1,1.09.15,3.86,3.86,0,0,1,2.6,4.79l-2.6,8.81A3.87,3.87,0,0,1,54.74,136.44Z" transform="translate(0 -4.62)"/><path class="cls-3" d="M57.34,120.49a3.38,3.38,0,0,1,.93.14h0a3.29,3.29,0,0,1,2.22,4.08l-2.6,8.81a3.29,3.29,0,0,1-3.15,2.36,3.33,3.33,0,0,1-.93-.14h0a3.29,3.29,0,0,1-2.23-4.08l2.6-8.81a3.31,3.31,0,0,1,3.16-2.36m0-1.13v0h0a4.44,4.44,0,0,0-4.24,3.17l-2.6,8.81a4.43,4.43,0,0,0,3,5.49,4.41,4.41,0,0,0,5.48-3l2.6-8.81a4.41,4.41,0,0,0-4.23-5.67Z" transform="translate(0 -4.62)"/><path class="cls-6" d="M116.88,65.87l-.67-1.82a100.52,100.52,0,0,1,17.07-4.6l.33,1.91A98.9,98.9,0,0,0,116.88,65.87Z" transform="translate(0 -4.62)"/><path class="cls-3" d="M116.71,65.42l-.33-.91a99.48,99.48,0,0,1,17-4.58l.17,1A97.84,97.84,0,0,0,116.71,65.42Z" transform="translate(0 -4.62)"/><path class="cls-6" d="M92.18,79.16,91,77.61a98.93,98.93,0,0,1,15.08-9.22l.86,1.73A99.33,99.33,0,0,0,92.18,79.16Z" transform="translate(0 -4.62)"/><path class="cls-3" d="M91.9,78.77,91.32,78a99.48,99.48,0,0,1,15-9.17l.43.87A98.82,98.82,0,0,0,91.9,78.77Z" transform="translate(0 -4.62)"/><path class="cls-6" d="M72.23,98.87,70.69,97.7A99.51,99.51,0,0,1,82.56,84.61L83.87,86A98.37,98.37,0,0,0,72.23,98.87Z" transform="translate(0 -4.62)"/><path class="cls-3" d="M71.85,98.58,71.07,98A100,100,0,0,1,82.89,85l.65.72A98.54,98.54,0,0,0,71.85,98.58Z" transform="translate(0 -4.62)"/><path class="cls-6" d="M58.64,123.4l-1.81-.69a99.17,99.17,0,0,1,7.7-15.9l1.66,1A98.79,98.79,0,0,0,58.64,123.4Z" transform="translate(0 -4.62)"/><path class="cls-3" d="M58.19,123.23l-.91-.34a99.11,99.11,0,0,1,7.66-15.83l.84.5A97.16,97.16,0,0,0,58.19,123.23Z" transform="translate(0 -4.62)"/><path class="cls-6" d="M52.51,150.77l-1.94-.15a99.91,99.91,0,0,1,2.91-17.43l1.88.48A98.16,98.16,0,0,0,52.51,150.77Z" transform="translate(0 -4.62)"/><path class="cls-3" d="M52,150.73l-1-.07A99,99,0,0,1,54,133.31l.94.24A99.09,99.09,0,0,0,52,150.73Z" transform="translate(0 -4.62)"/><path class="cls-6" d="M52.43,179.15a100.3,100.3,0,0,1-2.12-17.54l1.94-.06a97.5,97.5,0,0,0,2.08,17.2Z" transform="translate(0 -4.62)"/><path class="cls-3" d="M52.91,179.05a98.46,98.46,0,0,1-2.11-17.46l1,0a98.39,98.39,0,0,0,2.08,17.29Z" transform="translate(0 -4.62)"/><path class="cls-6" d="M62.25,206a100.43,100.43,0,0,1-7-16.24l1.84-.6A97.78,97.78,0,0,0,64,205.09Z" transform="translate(0 -4.62)"/><path class="cls-3" d="M62.68,205.78a99.46,99.46,0,0,1-6.94-16.16l.92-.3a97.54,97.54,0,0,0,6.88,16Z" transform="translate(0 -4.62)"/><path class="cls-6" d="M79.24,229A100.61,100.61,0,0,1,68,215.4l1.6-1.1a98.1,98.1,0,0,0,11,13.35Z" transform="translate(0 -4.62)"/><path class="cls-3" d="M79.59,228.67a99,99,0,0,1-11.21-13.55l.8-.55A97.8,97.8,0,0,0,80.28,228Z" transform="translate(0 -4.62)"/><path class="cls-6" d="M102,246.3a101,101,0,0,1-14.64-9.89l1.22-1.51A97.75,97.75,0,0,0,103,244.6Z" transform="translate(0 -4.62)"/><path class="cls-3" d="M102.26,245.88A99.59,99.59,0,0,1,87.69,236l.61-.75A99,99,0,0,0,102.73,245Z" transform="translate(0 -4.62)"/><path class="cls-6" d="M128.75,256.47a99.67,99.67,0,0,1-16.84-5.37l.75-1.79a97.89,97.89,0,0,0,16.51,5.27Z" transform="translate(0 -4.62)"/><path class="cls-3" d="M128.86,256a100.53,100.53,0,0,1-16.76-5.34l.38-.9a97.62,97.62,0,0,0,16.59,5.29Z" transform="translate(0 -4.62)"/><path class="cls-6" d="M150.73,258.91a98.64,98.64,0,0,1-11.14-.62l.22-1.93a97.33,97.33,0,0,0,17.32.4l.13,1.94Q154,258.91,150.73,258.91Z" transform="translate(0 -4.62)"/><path class="cls-3" d="M150.73,258.43a100,100,0,0,1-11.08-.62l.1-1a99.39,99.39,0,0,0,17.42.4l.06,1Q154,258.43,150.73,258.43Z" transform="translate(0 -4.62)"/><path class="cls-6" d="M168.18,257.39l-.34-1.91A97.77,97.77,0,0,0,184.58,251l.66,1.82A99.43,99.43,0,0,1,168.18,257.39Z" transform="translate(0 -4.62)"/><path class="cls-3" d="M168.09,256.92l-.17-1a97.57,97.57,0,0,0,16.82-4.52l.34.91A99.56,99.56,0,0,1,168.09,256.92Z" transform="translate(0 -4.62)"/><path class="cls-6" d="M195.35,248.48l-.86-1.74a98,98,0,0,0,14.79-9l1.16,1.56A100.27,100.27,0,0,1,195.35,248.48Z" transform="translate(0 -4.62)"/><path class="cls-3" d="M195.14,248.05l-.43-.87a98.92,98.92,0,0,0,14.86-9.08l.58.78A99.26,99.26,0,0,1,195.14,248.05Z" transform="translate(0 -4.62)"/><path class="cls-6" d="M218.91,232.28l-1.31-1.43A99.08,99.08,0,0,0,229.25,218l1.54,1.17A100.22,100.22,0,0,1,218.91,232.28Z" transform="translate(0 -4.62)"/><path class="cls-3" d="M218.58,231.92l-.65-.71a99.33,99.33,0,0,0,11.7-12.9l.78.59A100,100,0,0,1,218.58,231.92Z" transform="translate(0 -4.62)"/><path class="cls-6" d="M237,210.09l-1.67-1a97.51,97.51,0,0,0,7.57-15.59l1.81.69A100.07,100.07,0,0,1,237,210.09Z" transform="translate(0 -4.62)"/><path class="cls-3" d="M236.54,209.84l-.83-.5a98.47,98.47,0,0,0,7.6-15.67l.91.35A99.53,99.53,0,0,1,236.54,209.84Z" transform="translate(0 -4.62)"/><path class="cls-6" d="M248,183.72l-1.88-.49A98.09,98.09,0,0,0,249,166.14l1.93.15A99.15,99.15,0,0,1,248,183.72Z" transform="translate(0 -4.62)"/><path class="cls-3" d="M247.55,183.6l-.94-.25a97.29,97.29,0,0,0,2.88-17.17l1,.07A99.17,99.17,0,0,1,247.55,183.6Z" transform="translate(0 -4.62)"/><path class="cls-6" d="M249.27,155.36a98.42,98.42,0,0,0-2.06-17.21l1.89-.4a99.57,99.57,0,0,1,2.11,17.55Z" transform="translate(0 -4.62)"/><path class="cls-3" d="M249.76,155.34a98.51,98.51,0,0,0-2.08-17.29l.95-.2a99.49,99.49,0,0,1,2.1,17.46Z" transform="translate(0 -4.62)"/><path class="cls-6" d="M244.42,127.73a97.74,97.74,0,0,0-6.83-15.92l1.71-.92a99.51,99.51,0,0,1,7,16.24Z" transform="translate(0 -4.62)"/><path class="cls-3" d="M244.88,127.58a97.83,97.83,0,0,0-6.86-16l.85-.46a98.55,98.55,0,0,1,6.93,16.16Z" transform="translate(0 -4.62)"/><path class="cls-6" d="M232,102.6a98.21,98.21,0,0,0-11-13.37l1.38-1.36a100,100,0,0,1,11.25,13.63Z" transform="translate(0 -4.62)"/><path class="cls-3" d="M232.38,102.32a98.29,98.29,0,0,0-11.09-13.43l.69-.68a98.88,98.88,0,0,1,11.2,13.56Z" transform="translate(0 -4.62)"/><path class="cls-6" d="M213,82a97.19,97.19,0,0,0-14.35-9.71l.94-1.7a99.77,99.77,0,0,1,14.64,9.9Z" transform="translate(0 -4.62)"/><path class="cls-3" d="M213.28,81.6a98.5,98.5,0,0,0-14.43-9.76l.47-.85a99.12,99.12,0,0,1,14.57,9.86Z" transform="translate(0 -4.62)"/><path class="cls-6" d="M188.92,67.55a98.54,98.54,0,0,0-16.51-5.28l.43-1.89a100.51,100.51,0,0,1,16.83,5.38Z" transform="translate(0 -4.62)"/><path class="cls-3" d="M189.11,67.1a98.56,98.56,0,0,0-16.59-5.3l.21-.95a100.6,100.6,0,0,1,16.76,5.36Z" transform="translate(0 -4.62)"/><path class="cls-6" d="M161.78,60.48a97.33,97.33,0,0,0-17.32-.41l-.13-1.94a100.31,100.31,0,0,1,17.67.42Z" transform="translate(0 -4.62)"/><path class="cls-3" d="M161.84,60a99.31,99.31,0,0,0-17.41-.42l-.07-1A100.38,100.38,0,0,1,162,59Z" transform="translate(0 -4.62)"/><path class="cls-3" d="M21.07,184.33c0-.14-2.6-13.17-4-17.41S12.22,146.17,12.18,146l.08,0c0,.07,2.46,7.34,4.8,16.2s4.07,16.35,4.09,16.43v5.71Zm-8.66-37.65c.66,3.2,3.47,16.48,4.72,20.22s3.49,14.77,3.94,17v-5.29c0-.07-1.75-7.56-4.09-16.42C15.06,154.9,13.06,148.68,12.41,146.68Z" transform="translate(0 -4.62)"/><path class="cls-1" d="M154.46,307.51s5.38,11.61,40.85,20.85c0,0-7.68-13.76-24.1-25.69,0,0,13.78,4.51,22.81,11.18s15.91,8.6,17.58,4a10.11,10.11,0,0,0-.9-4.84,6.41,6.41,0,0,1,.9-6.89c1.67-1.93.48-8.54-1.24-11.79L202.62,297s-22.74-.05-29.35-2.66c0,0,42.95,4.23,64.53-18.28l-5.18-.67s18.38-4.48,35.47-25.68c0,0-7,3.43-12.57,3.16,0,0,13.65-3.5,21-14.78s4.62-15.27,11-20.22l-2.58.76s15.26-15.63,15.48-57.22a93.11,93.11,0,0,1-10.22,11.74s8.6-13.29,9.14-27.13-6.13-25.65-6-32.86c0,0-6.13,8.82-7.95,14.3a98.31,98.31,0,0,0,2-18.92c-.11-9-3.12-19.57-13.12-30.42,0,0-6.2-6-6.38-10.43,0,0-2.11,2.8-1.79,5.48,0,0-1.68-8-9.44-16.66S236.92,38.74,230.25,35.3c0,0,2.47,4.73,2.58,7.09,0,0-.54-.1-3.33-4.19S215.77,28.42,190,22.51c0,0-14.19,7.41-13,3.22,0,0-1.37-19.14-23.84-15.16l-2.44,31.5,6-3.49,3.87,1.29-7,3s10.91,4.57,18.11,7.21,13.34,5.37,29.14,6.18a18,18,0,0,1-5.32,1.07s20.37,13.51,41.6,21.59c0,0-6.39-.3-8.89.35,0,0,4.59.75,8.62,7.09s13.92,20.8,23.28,28.44a70.75,70.75,0,0,0-8.12-4,24.46,24.46,0,0,1,5.21,10.8c1.62,7,6.4,22.83,10.27,29a63.87,63.87,0,0,0-5-5.58s2,3.28,1.24,10.8-2.9,27.2-1,35.43c0,0-2.1-4.73-2.58-6,0,0-.28,5.48-1.49,7.9S250.77,206,250,218.54c0,0-.56-4.94-1.26-6.23a19.18,19.18,0,0,1-5.86,10.21c-4.78,4.09-11.13,12.89-13.76,18.76,0,0-.16-1.88-.16-3.81a11.8,11.8,0,0,1-6.07,6.34c-4.84,2.36-17.8,10.64-21.07,18.17,0,0,.05-4.12-.38-5,0,0-11.25,3.35-22,20.82,0,0,5.63-9.73-5.71-14l-1.09-.85s-13.8,4.88-23.16,4.35v10.19h1.32s6.32-1.75,9.33,1c0,0,.48,1.67-2.15,4.09,0,0-5.7-.6-5.92-.79a17.63,17.63,0,0,0-2.58-.56v25.62Z" transform="translate(0 -4.62)"/><path class="cls-1" d="M140.19,278.48s3.22-2.37,6.38-.9,7.74-.21,7.74-.21,3.49-.36,5.85,1.11a21.19,21.19,0,0,0,0-2.65c-.12-.25-8.18-1.72-8.18-1.72h-5.34l-3.94.35L141.12,276l-.93,1.05v1.4Z" transform="translate(0 -4.62)"/><path class="cls-8" d="M183,15.41l3.6,6.34L173.52,15a29.06,29.06,0,0,0,4.67-6.29,64.49,64.49,0,0,0-32.3-2.53,106.69,106.69,0,0,0-41.28,1c1.18,4.19,5.69,9,5.69,9-25.8,5.92-36.66,18-39.45,22s-3.33,4.19-3.33,4.19c.1-2.36,2.58-7.09,2.58-7.09-6.67,3.44-18.6,12.47-26.36,21.18S34.3,73.14,34.3,73.14c.32-2.68-1.8-5.48-1.8-5.48-.18,4.41-6.37,10.43-6.37,10.43-10,10.85-13,21.39-13.12,30.42a98.31,98.31,0,0,0,2,18.92c-1.83-5.48-8-14.3-8-14.3.1,7.21-6.56,19-6,32.86s9.13,27.13,9.13,27.13A93.53,93.53,0,0,1,0,161.38C.22,203,15.48,218.6,15.48,218.6l-2.58-.76c6.34,4.95,3.66,8.93,11,20.22s21,14.78,21,14.78c-5.59.27-12.58-3.16-12.58-3.16,17.1,21.2,35.48,25.68,35.48,25.68l-5.18.67c21.58,22.51,64.52,18.28,64.52,18.28-6.6,2.61-29.35,2.66-29.35,2.66L90,294.31c-1.72,3.25-2.9,9.86-1.23,11.79a6.43,6.43,0,0,1,.9,6.89,10.11,10.11,0,0,0-.9,4.84c1.66,4.62,8.54,2.68,17.57-4s22.82-11.18,22.82-11.18C112.72,314.6,105,328.36,105,328.36c35.48-9.24,40.86-20.85,40.86-20.85l4.94-.67V281.22a17.91,17.91,0,0,0-2.58.56c-.21.18-5.91.78-5.91.78-2.63-2.41-2.15-4.08-2.15-4.08,3-2.8,10-2.12,10-2.12l.68,1.08v-10.2c-9.35.54-23.15-4.34-23.15-4.34l-1.09.85c-11.34,4.3-5.72,14-5.72,14-10.71-17.47-22-20.82-22-20.82-.43.9-.38,5-.38,5-3.28-7.53-16.23-15.81-21.07-18.17a11.79,11.79,0,0,1-6.08-6.35c0,1.94-.16,3.82-.16,3.82-2.62-5.87-9-14.67-13.76-18.76a19.26,19.26,0,0,1-5.86-10.21c-.7,1.29-1.25,6.23-1.25,6.23-.77-12.57-7.46-22.95-8.66-25.37s-1.48-7.9-1.48-7.9c-.49,1.24-2.58,6-2.58,6,1.88-8.23-.27-27.9-1-35.43S37.84,145,37.84,145a64.08,64.08,0,0,0-5,5.58c3.87-6.19,8.66-22,10.27-29a24.46,24.46,0,0,1,5.21-10.8,71.25,71.25,0,0,0-8.11,4c9.35-7.64,19.24-22.1,23.27-28.44s8.63-7.1,8.63-7.1c-2.5-.64-8.9-.34-8.9-.34,21.24-8.08,41.61-21.59,41.61-21.59a18,18,0,0,1-5.32-1.07c15.8-.81,21.93-3.55,29.13-6.18s18.12-7.21,18.12-7.21l-7-3,3.87-1.29,6.93,2.74-.89.75a94.38,94.38,0,0,1,16.1,6.13c9,4.35,24.19,7.42,24.19,7.42l-1-18.28L188.47,34l3.21,1,30.43,6.66,10.72.75S222.81,21.37,183,15.41Z" transform="translate(0 -4.62)"/><path class="cls-9" d="M234,41.16l2.8,11.45C239.61,64.06,246.16,74,252.94,81s10.75,9.14,10.75,9.14c1.18-16.34-2.26-20.54-2.26-20.54C251.16,49.17,234,41.16,234,41.16ZM245.77,63.3a58,58,0,0,1,14.62,19.12,17.86,17.86,0,0,0,3.06,5.13l-.17.35a24.41,24.41,0,0,1-5.11-7.05,47.37,47.37,0,0,0-7.6-11.33A37.67,37.67,0,0,1,245.77,63.3Z" transform="translate(0 -4.62)"/><path class="cls-9" d="M219,58.2c4.88.21,18.28,2.08,18.28,2.08l10,19.85a62.32,62.32,0,0,0-6.47-6.24c-2.63-2-7.9-9.78-21.12-8.92,0,0,10.93,1.74,13.69,4.85,0,0,10.64,7.62,13.9,10.31,0,0-8.1-3-21.79-8.24a122.67,122.67,0,0,1-24.94-13.41S214.09,58,219,58.2Z" transform="translate(0 -4.62)"/><path class="cls-9" d="M233.3,80.13s13.54-.72,30.32,17.41c0,0,1.29,6.53,1.57,8.68,0,0-10.46-6.38-14.83-11.4l-.76-.5s2.26,5.41,16,13.51l5.87,12.51a100.54,100.54,0,0,1-22.49-19C238.92,89.7,239,83.75,233.3,80.13Z" transform="translate(0 -4.62)"/><path class="cls-9" d="M267.49,71.6s3.94,8.28,7.88,12.56,14.19,18,6.45,49.94l-.36-.63a5.43,5.43,0,0,0-.07-3.39c-.65-1.86-1.05-12.18-5.33-22.14a12.31,12.31,0,0,0,.81,3.72c.79,2.08,3.66,14.7,3.95,20.29a109.41,109.41,0,0,1-9.36-15.7c-4.12-8.6-6.2-13.11-6.2-27.3C265.26,88.94,265.19,77.91,267.49,71.6Z" transform="translate(0 -4.62)"/><path class="cls-9" d="M291.78,118.62a28.44,28.44,0,0,0,1.94,10,43.83,43.83,0,0,1,0,32.8,76.13,76.13,0,0,1-15.05,24.32,82.82,82.82,0,0,0,0-10c-.36-4.95-2.65-11.61-3.16-13a104.92,104.92,0,0,1,3.94-14.33C281.75,142.41,289.35,121.91,291.78,118.62Z" transform="translate(0 -4.62)"/><path class="cls-9" d="M255.3,113.74s17.78,9.39,25.09,26.09l-2.8,9.32s-5.73-13.12-11.18-16.06c0,0,9.32,13,10.82,17.5L275.51,160s-4.51-5-9.82-16.48S258.38,118.26,255.3,113.74Z" transform="translate(0 -4.62)"/><path class="cls-9" d="M264.62,150.59A53.09,53.09,0,0,1,275,168.36c3.44,10.39,2,18.63,0,21.93s-4.3,14.26-5.45,16.27c0,0-5.09-7.21-5.66-22.24s.5-21.7.93-24.28S265.34,152.24,264.62,150.59Z" transform="translate(0 -4.62)"/><path class="cls-9" d="M271.07,199.75l-1,2.29s.12-4.66.34-10.68-.92-13.26-1.06-15.48,0-5.09,0-5.09.84-.43,1.06,3.94,1.09,11.79.87,14.32S270.35,198.1,271.07,199.75Z" transform="translate(0 -4.62)"/><path class="cls-9" d="M296.9,168.57s-1.25,17.2-6.19,29.89-9.32,19.85-15.7,22.86c0,0-4.71,3.15-5.72,3.94,0,0,1.49-2.36,4-5.59a55.63,55.63,0,0,0,10.82-24.08,75.33,75.33,0,0,0-2.94,7.24c-1.5,4.3-4.64,10.54-11.89,21.43,0,0,.28-11.55,1.72-19.26s6.09-14.5,13.26-21.74A134.69,134.69,0,0,0,296.9,168.57Z" transform="translate(0 -4.62)"/><path class="cls-9" d="M260.25,189.79s5.3,11.82,6.52,21.85,0,15,0,15L252,237.59s2.94-4.66,4.3-7,3.09-5.38,4.45-14.77a26.45,26.45,0,0,0,.07-7.6s-.29-.86-.86,4.16-2.8,15-5.38,18.71a26.82,26.82,0,0,0-3.58,7.45l-1,.58s.5-4.45.71-6.6.79-12.54,1.8-17.63,2.86-11.47,4.87-15.05S260.75,192.22,260.25,189.79Z" transform="translate(0 -4.62)"/><path class="cls-9" d="M247.92,217.31s1.58,4-.65,15.91-8.52,18.7-8.52,18.7-2.53,2.37-10.15,3.44c0,0,9.86-10.39,12.37-19.85,0,0-1.65,1.09-3.94,6.67s-7.32,11.36-9.9,12.38a18.78,18.78,0,0,0,.58-2.21c.21-1.14,2.29-11.32,5.8-16.41s4.45-7,7.82-10.18S247.42,219,247.92,217.31Z" transform="translate(0 -4.62)"/><path class="cls-9" d="M227.13,242.18s-.26,9.31-5.26,16.62-11.34,13.55-15.54,16.13a22.17,22.17,0,0,0-8.65,2.1s7.42-4.86,14.73-17.43c0,0-1,0-3.82,4.47s-9.73,11-12.52,12.74a30.41,30.41,0,0,1,2.41-4.89c2.1-3.76,1.94-8.43,12.85-17.36S222.57,248,227.13,242.18Z" transform="translate(0 -4.62)"/><path class="cls-9" d="M284.11,219.56s-2.47,1.46-4.62,6.88-8.65,22.63-33.17,25.86a43.85,43.85,0,0,1,4.25-3.12c2.15-1.34,14.15-8.6,18.72-16.18a22.87,22.87,0,0,0-4.58,4.25c-2.53,3-16.89,12.63-22.29,15.05,0,0,1.49-2.1,4-5.16s4.62-6.9,5.81-8a58.14,58.14,0,0,1,16.61-12.41C279.6,221.07,284.11,219.56,284.11,219.56Z" transform="translate(0 -4.62)"/><path class="cls-9" d="M246.32,252.3a23.27,23.27,0,0,1-4.13.54l.23-.54,4.3-.33Z" transform="translate(0 -4.62)"/><path class="cls-9" d="M263.27,252s-18.56,21.89-50.11,21.62c0,0,22.74-6.62,34.35-16.34,0,0-6.67,3.49-10,5.53s-19,8.71-22.9,8.76a35.94,35.94,0,0,1,3.22-3.33c1.46-1.23,4.74-6.66,5.27-7.85s2.64-3.49,12.42-4.19S257.26,255.3,263.27,252Z" transform="translate(0 -4.62)"/><path class="cls-9" d="M233.21,277s-8.33-1.35-14.25-.92-17.52-.21-24.88,3.5c0,0-1.29,1.23-3.23,3s-10.7,7-17.58,8.06l1.67.38,1.61-.86a182.65,182.65,0,0,0,37.95-8.39s-5.16,3-15.21,5.38-21.23,3.87-21.23,3.87S209,294.34,233.21,277Z" transform="translate(0 -4.62)"/><path class="cls-9" d="M199.08,260.53a29.52,29.52,0,0,1-8.39,19.62c-8.71,9.08-26.39,12-26.39,12l-.33-1.51,6.88-1.88c2-.54,6.64-.59,16.89-12.44,0,0-6.46,8-14,10.61s-9.79,3.12-9.79,3.12-.48-.22,3.5-1.83a33,33,0,0,0,16.82-14.67C189.29,264.45,199.08,260.53,199.08,260.53Z" transform="translate(0 -4.62)"/><path class="cls-9" d="M164,293.1s10.6,4.94,29.74,5.27a75.14,75.14,0,0,0,8.6,0c1.83-.33,7.2-1.94,7.2-1.94s1.83,4.57,1,8.3-3.22,2.35-1.07,8.58-2.91,7.85-8.82,2.8S178.4,301.7,164,298.37l-.58-2.69Z" transform="translate(0 -4.62)"/><path class="cls-9" d="M163.38,300.41a76.36,76.36,0,0,1,28,25.16s-26.23-6.45-35.15-18.17v-5.7Z" transform="translate(0 -4.62)"/><path class="cls-9" d="M186.55,19.06s15.16,24.79,30.8,36.23l19.14,1.19-6.24-14.3s-16.23-21-43.11-24v.59Zm23.78,21.18c7,1.26,19.67,10.68,22.68,13s2.51,2.43,2.51,2.43a1.78,1.78,0,0,1-1.25-.5c-3.87-3.19-18.5-12.36-21.36-13.51S210.33,40.24,210.33,40.24Z" transform="translate(0 -4.62)"/><path class="cls-9" d="M38.92,69.59s-3.44,4.2-2.26,20.54c0,0,4-2.1,10.75-9.14S60.74,64.06,63.54,52.61l2.79-11.45S49.18,49.17,38.92,69.59Zm10.86-.07a47.53,47.53,0,0,0-7.6,11.32,24.16,24.16,0,0,1-5.12,7.06l-.16-.35A17.86,17.86,0,0,0,40,82.42,58,58,0,0,1,54.58,63.3,37.67,37.67,0,0,1,49.78,69.52Z" transform="translate(0 -4.62)"/><path class="cls-9" d="M81.38,58.2c-4.87.21-18.27,2.08-18.27,2.08l-10,19.85a63.44,63.44,0,0,1,6.47-6.24c2.64-2,7.9-9.78,21.13-8.92,0,0-10.93,1.74-13.69,4.85,0,0-10.64,7.62-13.91,10.31,0,0,8.1-3,21.79-8.24A122.33,122.33,0,0,0,99.87,58.48S86.26,58,81.38,58.2Z" transform="translate(0 -4.62)"/><path class="cls-9" d="M67.05,80.13S53.5,79.41,36.73,97.54c0,0-1.29,6.53-1.57,8.68,0,0,10.46-6.38,14.83-11.4l.75-.5s-2.25,5.41-16,13.51l-5.88,12.51a100.54,100.54,0,0,0,22.49-19C61.42,89.7,61.32,83.75,67.05,80.13Z" transform="translate(0 -4.62)"/><path class="cls-9" d="M32.86,71.6S28.92,79.88,25,84.16s-14.19,18-6.45,49.94l.36-.63a5.34,5.34,0,0,1,.07-3.39c.64-1.86,1.05-12.18,5.33-22.14a12.17,12.17,0,0,1-.82,3.72c-.79,2.08-3.65,14.7-3.94,20.29a109.9,109.9,0,0,0,9.35-15.7c4.13-8.6,6.2-13.11,6.2-27.3C35.08,88.94,35.16,77.91,32.86,71.6Z" transform="translate(0 -4.62)"/><path class="cls-9" d="M8.57,118.62a28.44,28.44,0,0,1-1.94,10,43.78,43.78,0,0,0,0,32.8A76.13,76.13,0,0,0,21.68,185.7a80.53,80.53,0,0,1,0-10c.36-4.95,2.65-11.61,3.15-13a103.34,103.34,0,0,0-3.94-14.33C18.6,142.41,11,121.91,8.57,118.62Z" transform="translate(0 -4.62)"/><path class="cls-9" d="M45.05,113.74S27.27,123.13,20,139.83l2.8,9.32S28.49,136,33.94,133.09c0,0-9.32,13-10.82,17.5L24.84,160s4.51-5,9.81-16.48S42,118.26,45.05,113.74Z" transform="translate(0 -4.62)"/><path class="cls-9" d="M35.73,150.59a53.09,53.09,0,0,0-10.39,17.77c-3.44,10.39-2,18.63,0,21.93s4.3,14.26,5.44,16.27c0,0,5.09-7.21,5.67-22.24s-.51-21.7-.94-24.28S35,152.24,35.73,150.59Z" transform="translate(0 -4.62)"/><path class="cls-9" d="M29.28,199.75l1,2.29s-.12-4.66-.35-10.68.93-13.26,1.07-15.48,0-5.09,0-5.09-.84-.43-1.07,3.94-1.08,11.79-.87,14.32S30,198.1,29.28,199.75Z" transform="translate(0 -4.62)"/><path class="cls-9" d="M3.45,168.57s1.25,17.2,6.19,29.89,9.32,19.85,15.7,22.86c0,0,4.71,3.15,5.72,3.94,0,0-1.5-2.36-4-5.59a55.73,55.73,0,0,1-10.83-24.08,72.31,72.31,0,0,1,2.94,7.24c1.51,4.3,4.65,10.54,11.89,21.43A152.61,152.61,0,0,0,29.35,205c-1.43-7.71-6.09-14.5-13.26-21.74A133.49,133.49,0,0,1,3.45,168.57Z" transform="translate(0 -4.62)"/><path class="cls-9" d="M40.1,189.79s-5.3,11.82-6.52,21.85,0,15,0,15l14.76,10.91s-2.93-4.66-4.3-7S41,225.19,39.6,215.8a26.07,26.07,0,0,1-.07-7.6s.28-.86.86,4.16,2.79,15,5.37,18.71a27,27,0,0,1,3.59,7.45l1,.58s-.5-4.45-.72-6.6-.78-12.54-1.79-17.63S45,203.4,43,199.82,39.6,192.22,40.1,189.79Z" transform="translate(0 -4.62)"/><path class="cls-9" d="M52.43,217.31s-1.58,4,.64,15.91,8.53,18.7,8.53,18.7,2.52,2.37,10.15,3.44c0,0-9.86-10.39-12.37-19.85,0,0,1.65,1.09,3.94,6.67s7.31,11.36,9.89,12.38a17.69,17.69,0,0,1-.57-2.21c-.22-1.14-2.29-11.32-5.81-16.41s-4.44-7-7.81-10.18S52.93,219,52.43,217.31Z" transform="translate(0 -4.62)"/><path class="cls-9" d="M73.21,242.18s.27,9.31,5.27,16.62S89.82,272.35,94,274.93a22.17,22.17,0,0,1,8.65,2.1s-7.42-4.86-14.73-17.43c0,0,1,0,3.82,4.47s9.73,11,12.52,12.74a30.18,30.18,0,0,0-2.42-4.89c-2.09-3.76-1.93-8.43-12.84-17.36S77.78,248,73.21,242.18Z" transform="translate(0 -4.62)"/><path class="cls-9" d="M16.23,219.56s2.48,1.46,4.63,6.88S29.51,249.07,54,252.3a43,43,0,0,0-4.24-3.12c-2.15-1.34-14.16-8.6-18.72-16.18a22.87,22.87,0,0,1,4.58,4.25c2.53,3,16.89,12.63,22.29,15.05,0,0-1.49-2.1-4-5.16s-4.63-6.9-5.81-8A58.14,58.14,0,0,0,31.5,226.68C20.75,221.07,16.23,219.56,16.23,219.56Z" transform="translate(0 -4.62)"/><path class="cls-9" d="M54,252.3a23.44,23.44,0,0,0,4.14.54l-.23-.54-4.3-.33Z" transform="translate(0 -4.62)"/><path class="cls-9" d="M37.08,252s18.56,21.89,50.11,21.62c0,0-22.74-6.62-34.35-16.34,0,0,6.67,3.49,10,5.53s19,8.71,22.9,8.76a36.65,36.65,0,0,0-3.23-3.33c-1.45-1.23-4.73-6.66-5.26-7.85s-2.64-3.49-12.42-4.19S43.09,255.3,37.08,252Z" transform="translate(0 -4.62)"/><path class="cls-9" d="M67.14,277s8.33-1.35,14.24-.92,17.53-.21,24.89,3.5c0,0,1.29,1.23,3.23,3s10.69,7,17.57,8.06l-1.66.38-1.62-.86a182.65,182.65,0,0,1-37.95-8.39s5.17,3,15.22,5.38,21.23,3.87,21.23,3.87S91.38,294.34,67.14,277Z" transform="translate(0 -4.62)"/><path class="cls-9" d="M101.27,260.53a29.52,29.52,0,0,0,8.39,19.62c8.71,9.08,26.39,12,26.39,12l.32-1.51-6.88-1.88c-2-.54-6.63-.59-16.89-12.44,0,0,6.46,8,14,10.61s9.78,3.12,9.78,3.12.49-.22-3.49-1.83a33,33,0,0,1-16.83-14.67C111.06,264.45,101.27,260.53,101.27,260.53Z" transform="translate(0 -4.62)"/><path class="cls-9" d="M158.37,284.75l-.31-1.87.23-.26c.57-.64,2.15-2.76,1.91-4.07a1.19,1.19,0,0,0-.7-.88,4.41,4.41,0,0,0-2-.39,22.34,22.34,0,0,0-4.46.65,15.3,15.3,0,0,1-2.79.44h-.09a15.3,15.3,0,0,1-2.79-.44,22.34,22.34,0,0,0-4.46-.65,4.41,4.41,0,0,0-2,.39,1.23,1.23,0,0,0-.71.88c-.23,1.31,1.35,3.43,1.92,4.07l.23.26-.31,1.87-4.67,4.5-.43-.17c-3.55-1.4-10.25-6.75-12.32-8.51-1.39-1.18-4.06-4.36-4.25-7.92a6.76,6.76,0,0,1,2-5.17,8.44,8.44,0,0,1,6.33-3,21.18,21.18,0,0,1,5.88,1.21c.67.2,1.37.41,2.1.61a79,79,0,0,0,13.59,2,79.05,79.05,0,0,0,13.58-2c.73-.2,1.43-.41,2.1-.61a21.18,21.18,0,0,1,5.88-1.21,8.44,8.44,0,0,1,6.33,3,6.76,6.76,0,0,1,2,5.17c-.19,3.56-2.86,6.74-4.25,7.92-2.07,1.76-8.77,7.11-12.32,8.51l-.43.17Z" transform="translate(0 -4.62)"/><path class="cls-1" d="M171.74,265.18a7.65,7.65,0,0,1,5.8,2.8c4.3,4.51-.29,10.39-2.22,12s-8.68,7-12.12,8.39l-4.15-4-.22-1.29s4-4.48,1-6.07a5,5,0,0,0-2.36-.48c-2.6,0-5.8,1.1-7.25,1.1h-.09c-1.45,0-4.65-1.1-7.25-1.1a5.08,5.08,0,0,0-2.37.48c-3,1.59,1,6.07,1,6.07l-.22,1.29-4.16,4C133.7,287,127,281.67,125,280s-6.52-7.53-2.22-12a7.65,7.65,0,0,1,5.8-2.8c2.27,0,4.72.95,7.78,1.8a79.29,79.29,0,0,0,13.78,2A79.38,79.38,0,0,0,164,267c3-.85,5.5-1.8,7.78-1.8m0-1.46a21.6,21.6,0,0,0-6.09,1.25l-2.08.6a78.13,78.13,0,0,1-13.4,1.92,78,78,0,0,1-13.39-1.92l-2.08-.6a21.6,21.6,0,0,0-6.09-1.25,9.1,9.1,0,0,0-6.85,3.26,7.45,7.45,0,0,0-2.18,5.71c.2,3.81,3,7.18,4.51,8.44,2.09,1.78,8.88,7.19,12.52,8.63l.87.34.67-.65,4.16-4,.35-.33.08-.48.21-1.29.12-.69-.47-.52c-.82-.92-1.89-2.64-1.74-3.45,0-.08,0-.21.33-.37a3.79,3.79,0,0,1,1.69-.3,22.1,22.1,0,0,1,4.31.63,15.54,15.54,0,0,0,2.94.46h.09a15.66,15.66,0,0,0,2.94-.46,21.89,21.89,0,0,1,4.31-.63,3.74,3.74,0,0,1,1.68.3c.3.16.32.29.34.37.14.82-.92,2.53-1.74,3.45l-.47.52.12.69.21,1.29.08.48.35.33,4.15,4,.68.65.87-.34c3.64-1.44,10.43-6.85,12.52-8.63,1.47-1.26,4.3-4.63,4.5-8.44a7.4,7.4,0,0,0-2.17-5.71,9.12,9.12,0,0,0-6.85-3.26Z" transform="translate(0 -4.62)"/><path class="cls-9" d="M136.39,293.1s-10.61,4.94-29.74,5.27a75.16,75.16,0,0,1-8.6,0c-1.83-.33-7.21-1.94-7.21-1.94s-1.82,4.57-1,8.3,3.22,2.35,1.07,8.58,2.9,7.85,8.82,2.8S122,301.7,136.39,298.37l.57-2.69Z" transform="translate(0 -4.62)"/><path class="cls-9" d="M137,300.41A76.36,76.36,0,0,0,109,325.57s26.23-6.45,35.16-18.17v-5.7Z" transform="translate(0 -4.62)"/><path class="cls-9" d="M101.49,38.52s16.88-5.05,38.48,4.63c0,0-16.66,5.69-21.07,7.09a80.7,80.7,0,0,1-30.07,3l5.35-5.7s4.83-2.24,7.42-2.14,9.35-2,9.35-2-5.59,1.18-7.31,1.08S95,46.59,95,46.59A79.56,79.56,0,0,0,101.49,38.52Z" transform="translate(0 -4.62)"/><path class="cls-9" d="M104.61,34.65,111.92,24s10.55-9.78,32.53-9.68c0,0-2.32,9.36-18.77,21.94A84.2,84.2,0,0,0,105.5,34.9a42.09,42.09,0,0,1,5.63-3.4c1.75-.68,9.53-5.09,9.53-5.09a35,35,0,0,0-5.91,2.69c-1.94,1.29-8.28,4.12-9.75,5.59Z" transform="translate(0 -4.62)"/><path class="cls-9" d="M128,36.52s7.81-5.88,11.58-11l17.3-8.93a5.22,5.22,0,0,0-2.25.65c-1.62.71-13.48,6.16-13.48,6.16s4.88-9,6.92-11.5A93.56,93.56,0,0,0,131,14.33s23-13,44.91-4.91a25.44,25.44,0,0,0-3.19,3.87c-.68,1.33-11.08,18.07-35.34,25.7A76.81,76.81,0,0,0,128,36.52Z" transform="translate(0 -4.62)"/><path class="cls-9" d="M146.86,37.2s9.06-3.84,15.48-9.93c0,0,11.18,3.37,14.62,6.13,0,0-16,2.51-22.76,6.41C154.2,39.81,148,37.82,146.86,37.2Z" transform="translate(0 -4.62)"/><path class="cls-9" d="M163.2,26.52s7.38-6.88,8.85-9.21c0,0,14.83,6.63,17.45,8.31l4.94,7.21s-12,0-15.05.35C179.39,33.18,168.79,28,163.2,26.52Z" transform="translate(0 -4.62)"/><path class="cls-9" d="M113.21,18.8v-.6c-26.88,3-43.11,24-43.11,24l-6.24,14.3L83,55.29c15.64-11.45,30.8-36.23,30.8-36.23ZM87.44,41.71C84.57,42.86,70,52,66.08,55.22a1.84,1.84,0,0,1-1.25.51s-.5-.08,2.51-2.44S83,41.5,90,40.24C90,40.24,90.31,40.57,87.44,41.71Z" transform="translate(0 -4.62)"/><circle class="cls-9" cx="150.32" cy="289.69" r="13.26"/><path class="cls-1" d="M150.32,281.78a12.53,12.53,0,1,1-12.53,12.53,12.53,12.53,0,0,1,12.53-12.53m0-1.45a14,14,0,1,0,14,14,14,14,0,0,0-14-14Z" transform="translate(0 -4.62)"/><path class="cls-9" d="M138,7.72s-20.68-2-30.38.53c0,0,1.46,5.79,4.47,7.64,0,0,4.73-1.22,5.92-1.06l-.56,1.2S128.61,9.9,138,7.72Z" transform="translate(0 -4.62)"/><path class="cls-9" d="M197.78,37.2s-19.71-5.88-43.36,4.51A122,122,0,0,0,167,46c5.91,1.58,23.11,9.39,44.18,6.74,0,0-4.52-3-8.17-3.15s-7.88-2.44-7.88-2.44,7.09,1.15,8.52,1.72,6.67,2.72,6.67,2.72A70.8,70.8,0,0,1,197.78,37.2Z" transform="translate(0 -4.62)"/><path class="cls-9" d="M154.42,0" transform="translate(0 -4.62)"/><path class="cls-1" d="M149,124.42c0,.36,0,.62,0,.87a170.59,170.59,0,0,1,.56,20.09,15.28,15.28,0,0,1-1.81,6.79,8.28,8.28,0,0,1-5.37,4.44,1,1,0,0,0-.59.6c-.2.6-.31,1.23-.45,1.83,1.07,0,2.06,0,3.05,0,2.12.07,4.25.07,6.36.31a4,4,0,0,1,3.37,2,7.37,7.37,0,0,1,.87,3,52.49,52.49,0,0,1-.31,5.3c0,.31-.09.62-.15,1.12,1.07-.39,2-.72,3-1.1.12-.05.16-.36.2-.55.28-1.15.54-2.29.83-3.43a1.58,1.58,0,0,1,.32-.5H159c.12,1.11.23,2.22.35,3.35,2.78-1.19,8.17-5.65,8.05-9.77a4.72,4.72,0,0,0-.59-.12c-2.55-.29-4-1.94-4.88-4.13-1.47-3.56-.89-7,.4-10.51a24.54,24.54,0,0,1,3.86-6.84,3.41,3.41,0,0,0,.84-2.85c-.63-4.75-1.15-9.51-1.74-14.26-.24-1.92-.57-3.83-.85-5.75a1,1,0,0,1,.05-.61c.72-1.26,1.46-2.5,2.33-4,1.7,5.47,3.33,10.74,5,16l-.17.09-1.71-1.86-.16.2c.25,9.61.5,19.22.75,29,1-.18,2.11-.33,3.17-.57a25.06,25.06,0,0,0,6.2-2.62c.4-.21.43-.47.3-.86-.75-2.2-1.46-4.42-2.26-6.61-.64-1.73-1.38-3.43-2.07-5.14a1.6,1.6,0,0,0-.13-.3c-1.51-2.08-.32-4.11.15-6.14.11-.49.43-.42.81-.24a5.63,5.63,0,0,1,2.42,2.71c1,2,1.94,3.95,2.76,6,.95,2.33,1.74,4.72,2.64,7.21.68-.6,1.4-1.17,2-1.82,1-1,2-2,2.91-3.11a7.87,7.87,0,0,0,1.15-1.82,1.47,1.47,0,0,0-1.11-2.11c-1.78-.39-3.61-.54-5.4-.86a10.48,10.48,0,0,1-2.61-.7,1.84,1.84,0,0,1-1-1.22,16.77,16.77,0,0,1,0-5.1,7.71,7.71,0,0,1,4.31-5.22c1.63-.76,3.14,0,4.43.94a10.9,10.9,0,0,1,3.52,5.72,23.47,23.47,0,0,1,.94,8.61,9.51,9.51,0,0,1-1.49,4.21,25.21,25.21,0,0,1-6,6.67,1.13,1.13,0,0,0-.23,1c.57,2.46,1.19,4.9,1.78,7.36.17.73.27,1.48.45,2.21a3.32,3.32,0,0,0,2.21,2.06c2.66,1.2,5.23.52,7.7-.6.41-.18.67-.93.81-1.46a10.55,10.55,0,0,0,.25-2.25,109.21,109.21,0,0,0-.51-14.12c-.48-4.71-.87-9.43-1.4-14.14-.48-4.19-1.1-8.37-1.67-12.56a5.6,5.6,0,0,0-.34-1.48c-.45-1,0-1.66.75-2.27l1.52-1.31c.44-.38.88-.43,1.25.07a32.48,32.48,0,0,1,2.78,3.92c1.52,2.9,3,5.85,4.2,8.87a56.8,56.8,0,0,1,3.34,12.43,58.44,58.44,0,0,1,.58,15.06,49.63,49.63,0,0,1-2.38,11.75,36.25,36.25,0,0,1-4.48,8.87,30.62,30.62,0,0,1-13.69,10.81,45,45,0,0,1-21,3,9.55,9.55,0,0,1-.94-.18,3,3,0,0,1,.6-.42c3.18-.89,6.4-1.65,9.54-2.68,3.64-1.19,7.23-2.55,10.78-4a13.78,13.78,0,0,0,3.39-2.27c2-1.6,3.94-3.23,5.81-5a21.28,21.28,0,0,0,4.49-6.43A47.7,47.7,0,0,0,205.34,155a32.43,32.43,0,0,0-.26-11.95c-.57-3.15-1.17-6.29-1.87-9.41-.46-2-1.13-4-1.71-6l-.22,0c0,.08-.08.16-.07.24.27,2.51.67,5,.8,7.54.34,6.53.63,13.07.8,19.61a25.62,25.62,0,0,1-1.11,8.37,10.81,10.81,0,0,1-3.28,5.43,6.72,6.72,0,0,1-4.62,1.36,11.39,11.39,0,0,1-6.45-1.65,8,8,0,0,1-3.34-4.94c-.09-.36-.2-.71-.33-1.19-.63,1-1.17,1.9-1.74,2.78a37.91,37.91,0,0,1-7.11,8.26,23.66,23.66,0,0,1-7,4.36,15.28,15.28,0,0,1-7.1,1.15,2.73,2.73,0,0,1-2.22-2c-.34-.93-.58-1.89-.89-2.91-.74.35-1.52.73-2.31,1.09a12,12,0,0,1-1.7.72,2.22,2.22,0,0,0-1.49,1.34,22.46,22.46,0,0,1-7.57,9.09,18.18,18.18,0,0,1-12.91,3.29,14.28,14.28,0,0,1-7.25-3.29,15.66,15.66,0,0,1-5.82-9.88,18.86,18.86,0,0,1,.33-7.14c.55-2.46,1.24-4.88,1.89-7.41l-1-1c-1.17,1.47-2.27,3-3.47,4.35a27.93,27.93,0,0,1-5.41,4.88,20.34,20.34,0,0,1-6.19,3,24.09,24.09,0,0,1-4.91.81,6,6,0,0,1-6-4.55,9.39,9.39,0,0,1-.13-4.62c.33-1.53.57-3.07.88-4.6A22,22,0,0,1,98,152.44a1.46,1.46,0,0,0,.12-.37l.29.18c0,.35-.09.7-.14,1.05-.5,3.29-1,6.59-1.48,9.89a9,9,0,0,0,0,1.94c.18,2.53,1.42,3.46,3.82,3.45a12.68,12.68,0,0,0,5.63-1.54c2.38-1.17,4.67-2.52,7-3.81.77-.44,1.53-.9,2.26-1.4a3.92,3.92,0,0,0,1.65-2.92,11.15,11.15,0,0,0-1.13-6.43c-.89-1.69-.35-2.84.59-4.06a7.2,7.2,0,0,1,1.11-.93c.14.42.27.83.41,1.24a21.14,21.14,0,0,0,2.76,5.52c.66,1,1.45,1.85,2.19,2.76a5.85,5.85,0,0,0,.43.42c.89-1.3,1.76-2.54,2.62-3.8.69-1,1.39-2,2-3.08a1.75,1.75,0,0,0-1.23-2.86,18.45,18.45,0,0,0-4,0,10.59,10.59,0,0,0-1.81.41,39.56,39.56,0,0,1,0-4.08c.05-.46.63-.91,1.06-1.26a15.89,15.89,0,0,1,5.91-3,20.31,20.31,0,0,1,9-.3,19.77,19.77,0,0,1,6.16,2c1.56.86,1.36,1.94.82,3a5.12,5.12,0,0,1-3.67,2.87,7.69,7.69,0,0,0-3.64,1.72c-.37.33-.5.61-.05.87a8.89,8.89,0,0,0,2.45,1.29,6.41,6.41,0,0,0,6.54-1.89,2.93,2.93,0,0,0,.68-1.65,57,57,0,0,0,.21-6.12c-.17-3.93-.42-7.86-.78-11.77-.43-4.69-1-9.37-1.54-14a2.41,2.41,0,0,1,.86-2.61,24.87,24.87,0,0,0,2.34-2.29c1.59,5.14,3.13,10.15,4.67,15.15l-.13.15Zm-.86,52.88c-.19,0-.29,0-.39,0a11.69,11.69,0,0,1-6.89-1.55c-1.73-1-3-2.31-2.93-4.45.07-1.71.29-3.42.47-5.12.06-.62.2-1.24.34-2a22.71,22.71,0,0,1-14.9-.42c-.47,1.06-1,2-1.33,3.07a11,11,0,0,0-.95,5.81,15.92,15.92,0,0,0,2.89,6.9,12,12,0,0,0,10.52,5,15.68,15.68,0,0,0,10.13-3.78A13,13,0,0,0,148.09,177.3Zm33.43-23.23a2.06,2.06,0,0,0-.3.11c-.18.12-.36.24-.53.37a17.33,17.33,0,0,1-9.62,4.08c-.59.06-.78.29-.84.89a10.29,10.29,0,0,1-.54,3.06,18.15,18.15,0,0,1-5,6.28c-1.29,1.16-2.66,2.23-4,3.34a3.36,3.36,0,0,0,3.73,1.52,17.11,17.11,0,0,0,6-2.41,38,38,0,0,0,10.21-9.17C182.6,159.59,182.08,156.89,181.52,154.07Zm-30.74,17.3a11.3,11.3,0,0,0,.07-4.94c-.5-2.17-1.68-3.32-3.91-3.39a38,38,0,0,0-5.6.51c-.16,0-.4.37-.39.55a20.34,20.34,0,0,0,.44,3.67,4.22,4.22,0,0,0,2.66,3.12A16.75,16.75,0,0,0,150.78,171.37Zm-24.33-11.85a12.81,12.81,0,0,0,2.82.52c3.43-.17,6.86-.44,10.29-.72a.93.93,0,0,0,.67-.5,20,20,0,0,0,.66-2,27.12,27.12,0,0,1-2.77-.52,14.2,14.2,0,0,1-5.76-3.41c-.45-.42-.73-.34-1.14.06A32.46,32.46,0,0,0,126.45,159.52Zm40.7-22.75a27,27,0,0,0-3,7.64,10.28,10.28,0,0,0,.35,5.94c.51,1.25,1.92,2.72,3.33,2.47A119.65,119.65,0,0,0,167.15,136.77Zm-29.5,8a2.63,2.63,0,0,0-.33-.29,1.43,1.43,0,0,0-.43-.21,15.6,15.6,0,0,0-7.65,0c-.56.12-.6.45-.18.77a17.34,17.34,0,0,0,1.78,1.2A5.32,5.32,0,0,0,137.65,144.74Zm51.22-12.83c-1-2.31-3.4-2.75-4.77-1.07-.46.57-.37,1,.35,1C185.88,132,187.32,131.91,188.87,131.91Z" transform="translate(0 -4.62)"/><path class="cls-1" d="M157,107.25c-.87-.88-2.05-1.46-2.23-2.89l-3.26.3-1.29.11a5.82,5.82,0,0,1-4.89-2.16c-1-1-1.15-1.06-2.11-.06-2.57,2.66-7.27,2.57-9.65,1a5.53,5.53,0,0,1-2-2.82c-.32-.79-.66-1.54-1.62-1.71a2.3,2.3,0,0,0-2.41,1.13,36.15,36.15,0,0,0-1.81,3.21,10.27,10.27,0,0,1-2.79,3.86,3.4,3.4,0,0,1-5-1.27c-.89-2-.53-4.12-.25-6.19.13-.93.38-1.84.59-2.76s.27-1.06,1.54-.78c0,1-.08,2.1,0,3.16a19.76,19.76,0,0,0,.58,3.16c.26,1,.81,1.2,1.61.63a7,7,0,0,0,1.81-1.86c.93-1.43,1.65-3,2.58-4.43a3.31,3.31,0,0,1,4.2-1.17,13.63,13.63,0,0,1,4.82,3.53c.32.33.62.67,1,1a3,3,0,0,0,4.16-.26,1.53,1.53,0,0,0,.28-.29c.23-.36.44-.73.66-1.09-.4-.24-.77-.63-1.2-.69-1.24-.18-2.51-.25-3.77-.32a.78.78,0,0,1-.85-.76l0-.25c-.35-2.15-.23-2.57,1.79-3.31,3.6-1.31,7.33-2.07,11.16-1.21a20.79,20.79,0,0,1,4.26,1.63A2.18,2.18,0,0,1,153,97.2c-.95.59-2,1-3,1.56-.7.37-1.38.79-2.06,1.19,0,.1,0,.2,0,.3a28.38,28.38,0,0,0,3.08.89c1,.17,2,.07,3.06.14.59,0,.77-.16.83-.76a15,15,0,0,1,.59-3.62,3.79,3.79,0,0,1,6.37-1,3.44,3.44,0,0,1,.57,2.83,5.73,5.73,0,0,1-4.25,4.68,1.17,1.17,0,0,0-1,1.3C157.2,105.54,157.07,106.39,157,107.25ZM147,95.7a7.21,7.21,0,0,0-4.5-.46l2.21,2.39Zm10.27,4.76c1.34-.21,2.05-.85,2.16-2a1,1,0,0,0-.33-.8.83.83,0,0,0-.77.09A2.76,2.76,0,0,0,157.31,100.46Z" transform="translate(0 -4.62)"/><path class="cls-1" d="M98.17,121.63c.62-.33.35,1.55,0,1.12a29.45,29.45,0,0,0,.36,3.46,31.47,31.47,0,0,0,1.46,5.17c.74,1.82,2.13,2.75,3.69,2.06a5.83,5.83,0,0,0,2.13-1.79c1.43-1.9,2.7-3.93,4.11-5.85a20.24,20.24,0,0,1,2.75-3.23c1.73-1.54,3.17-1.19,4.41.82.8,1.29,1.59,2.59,2.51,3.81a4,4,0,0,0,4.15.94,11.83,11.83,0,0,0,3.46-2.57c.79-.68,1.62-1.31,2.45-1.93.54-.41.81-.16,1.08.41a12.57,12.57,0,0,0,1.65,3,3.25,3.25,0,0,0,3.59,1,2.91,2.91,0,0,0,1.87-2.7c.21-1.56.05-3.17.11-4.75a2.82,2.82,0,0,1,.39-1.3c.52-.83,1.14-1.6,1.84-2.56.07.43.13.67.15.92a34.48,34.48,0,0,1-.14,9,9.89,9.89,0,0,1-2.43,5.6c-2,2-7.11,1.77-8-2-.08-.36-.23-.7-.43-1.31a8.7,8.7,0,0,0-1.18,1.17,7,7,0,0,1-3.52,3c-3.59,1.14-7.23.21-9.13-3.17l-1.59-2.81c-.59.72-1.08,1.26-1.5,1.84-1.65,2.27-3.18,4.64-4.94,6.82a15.7,15.7,0,0,1-3.51,3,4.33,4.33,0,0,1-5.89-1.33,10.47,10.47,0,0,1-1.72-5,29.6,29.6,0,0,1,.46-9.15,10.37,10.37,0,0,1,.54-1.69C97.58,121.05,97.88,121,98.17,121.63Z" transform="translate(0 -4.62)"/><path class="cls-1" d="M170.56,102.62c-.06-2-.16-3.92-.17-5.84a8,8,0,0,1,.37-2,1.46,1.46,0,0,1,1.44-1.17,19.91,19.91,0,0,1,7.13.53c2.83.82,5.65,1.68,8.5,2.42a22.45,22.45,0,0,0,3.28.41c.87.1,1.17.45,1.06,1.32a5.41,5.41,0,0,0-.14,1c.06.66-.27.89-.86,1a27.88,27.88,0,0,0-3.54.78,46.54,46.54,0,0,0-4.74,1.78,36.18,36.18,0,0,1-9.54,2.91c.06.44.12.82.17,1.21s-.11.78-.64.8l-.32,0c-1.73.24-1.74.24-1.81-1.48,0-.41-.1-.68-.55-.72a4.54,4.54,0,0,1-3.28-1.5,7.5,7.5,0,0,1-1.64-4.55c-.07-2.1.07-4.2.05-6.3,0-2.61-.07-5.22-.23-7.83s-.44-5-.69-7.55c-.09-.86.69-1.15,1.07-1.69a4.5,4.5,0,0,1,.76-.69,7.22,7.22,0,0,1,.62,1,16.19,16.19,0,0,1,.83,6.44c-.07,4.2-.27,8.4-.3,12.6a29.86,29.86,0,0,0,.46,4.89A2.39,2.39,0,0,0,170.56,102.62Zm14.65-3.75-.06-.3-1-.26c-2.83-.62-5.66-1.28-8.5-1.84a1.81,1.81,0,0,0-2.35,1.62,34,34,0,0,0-.33,3.5c-.07.72.3.91.94.74,1.35-.36,2.71-.69,4-1.11C180.38,100.47,182.79,99.66,185.21,98.87Z" transform="translate(0 -4.62)"/><path class="cls-1" d="M156.55,109.82c1.78,5.51,3.51,10.85,5.3,16.37-1-.32-1.38-1.25-2.29-1.84a325.44,325.44,0,0,1-.11,39.38c-.24-.32-.45-.49-.49-.69a33.4,33.4,0,0,1-.78-4.18c-.51-6.71-.89-13.43-1.42-20.14-.24-3-.71-5.93-1.07-8.89-.18-1.5-.33-3-.55-4.49-.55-3.64-1.14-7.28-1.7-10.92a.89.89,0,0,1,.07-.65C154.46,112.49,155.45,111.23,156.55,109.82Z" transform="translate(0 -4.62)"/><path class="cls-1" d="M125.66,168.91l4,4.52-3.2,3.44L122.29,173Z" transform="translate(0 -4.62)"/><path class="cls-1" d="M191.48,151.32a7.5,7.5,0,0,1-.82,1.36l.57.54a4.56,4.56,0,0,1,.42,1.34c.14.86.21,1.29,1.14,1.09s1.53-1.41,2.06-1.47,1,.49,1.45.5a1.05,1.05,0,0,0,.9-1.41,10.31,10.31,0,0,1-.57-2.9s-.47-.38-.52.09a14.83,14.83,0,0,1,0,2.5c-.19.52-.5.65-1,.31s-.94-2.53-.94-2.53-.51-.16-.27.93.45,2.23-.42,2.55-1.49-1-1.62-1.49S191.48,151.32,191.48,151.32Z" transform="translate(0 -4.62)"/><path class="cls-1" d="M122.57,112.7a10.29,10.29,0,0,1-1.12,1.84l.78.73a6.4,6.4,0,0,1,.56,1.83c.19,1.17.29,1.75,1.55,1.48s2.07-1.92,2.8-2,1.32.65,2,.68a1.43,1.43,0,0,0,1.22-1.92,13.86,13.86,0,0,1-.78-3.94s-.63-.51-.7.12.31,2.69.05,3.4-.69.88-1.32.42-1.26-3.43-1.26-3.43-.7-.22-.38,1.26.62,3-.57,3.46-2-1.34-2.19-2S122.57,112.7,122.57,112.7Z" transform="translate(0 -4.62)"/><path class="cls-1" d="M175,177.54l-.76-1.47a.27.27,0,0,1,.11-.36l1.58-.93a.27.27,0,0,1,.36.08l1.48,2.07a.28.28,0,0,0,.47,0c.4-.83,1.43-2.56,3.06-2.56l.11,0a9.92,9.92,0,0,1,1.13.59.27.27,0,0,1,0,.44l-.46.38a.25.25,0,0,1-.22.05l-.66-.13a.29.29,0,0,0-.29.12l-2.51,4a.27.27,0,0,1-.42.05l-2.11-2.15a.24.24,0,0,0-.24-.08l-.36.07A.28.28,0,0,1,175,177.54Z" transform="translate(0 -4.62)"/><path class="cls-1" d="M152.1,182.1h-1.67a1,1,0,0,0-1,1.31s-1.84.07-1.7,1.48,1.83,2.26,2.74,2.39l-.2-1.08s-1.38-.68-1.54-1.11.06-.8,1.35-.55H151l.21-.72s.18-.34-.14-.47a2,2,0,0,0-.7-.1l.14-.24,1.46.17Z" transform="translate(0 -4.62)"/><polygon class="cls-1" points="102.04 148.86 98.32 145.79 102.25 142.26 105.34 144.61 108.86 141.09 112.44 144.15 109.38 148.01 105.38 145.71 102.04 148.86"/><path class="cls-1" d="M96.88,144a11.4,11.4,0,0,0-2.82,5.08,4.32,4.32,0,0,0-.06,1.79c.18,1.08.71,2.69,2.18,2.35,2.18-.51,2-4.06,1.83-4.36,0,0-.4,2.37-1.83,2.55,0,0-1,0-.83-2.39A15.42,15.42,0,0,1,96.88,144Z" transform="translate(0 -4.62)"/><path class="cls-1" d="M98.17,121.63l1.54-1.13,2,2.6.86-1.3s.94-1.84,2.64-1.57l1.29.78-.81.83-.91-.19-3,4.33-2.18-2.42-.78-.08-.62-.73,0-.59Z" transform="translate(0 -4.62)"/><path class="cls-1" d="M99.62,115.58l3.9-4.31s4.11,2.43,4.19,2.37,3.47-3.71,3.47-3.71l5.13,3.45L112.12,117l-4-1.56L105,118.48Z" transform="translate(0 -4.62)"/><path class="cls-1" d="M142.78,125.52a4.86,4.86,0,0,0-2.07,3c-.24,1.86.46,1.64,1.21,2s1.7.54,2.05-.21S144.26,128.51,142.78,125.52Zm.22,4.28c-.38,0-1.32-.59-1.32-.59a3.25,3.25,0,0,1,.72-1.83C142.75,127.65,143.38,129.74,143,129.8Z" transform="translate(0 -4.62)"/><path class="cls-1" d="M193.53,156.14l.78.28-.39,2.4.9.29a3.75,3.75,0,0,1-1.54,2.22l-1.76-1.18Z" transform="translate(0 -4.62)"/><polygon class="cls-1" points="187.68 97.77 185.57 100.13 187.97 103 190.34 100.63 187.68 97.77"/><path class="cls-1" d="M184,87.38l.75-.37,1.47,1.93.82-.45a3.7,3.7,0,0,1,.56,2.64l-2.06.47Z" transform="translate(0 -4.62)"/><path class="cls-1" d="M127.69,90.17l.59-.6,2,1.37.64-.69a3.68,3.68,0,0,1,1.36,2.33l-1.81,1.1Z" transform="translate(0 -4.62)"/><polygon class="cls-1" points="184.03 78.06 184.28 80.21 170.88 86.51 170.7 84.11 184.03 78.06"/><polygon class="cls-1" points="189.73 106.26 190.09 108.44 172.81 117.15 172.81 114.75 189.73 106.26"/><path class="cls-1" d="M158.05,80.81s-1.51,1-1.33,1.86,1.44,2.65,1.33,5.06a14.62,14.62,0,0,0,0,2.9s.71.07.85-1.87c0,0,2.61-1.5,2.94-4.08,0,0-1-.29-1.36.18a6.38,6.38,0,0,1-1.21,2.47A9.23,9.23,0,0,0,158.05,80.81Z" transform="translate(0 -4.62)"/><polygon class="cls-1" points="126.26 78.81 123.9 81.1 120.78 79.32 118.56 81.75 121.78 83.97 124.29 82.14 126.73 83.47 129.49 81.39 126.26 78.81"/><polygon class="cls-1" points="155.68 73.9 156.17 75.51 132.29 84.27 132.68 81.39 155.68 73.9"/><polygon class="cls-1" points="134.34 102.55 134.34 103.62 118.97 109.22 118.97 107.5 134.34 102.55"/><polygon class="cls-1" points="114.19 148.23 98.71 153.72 98.71 152.16 113.97 146.95 114.19 148.23"/><polygon class="cls-1" points="180.25 185.71 180.47 186.67 164.93 192.37 165.15 190.65 180.25 185.71"/></svg>