<svg xmlns="http://www.w3.org/2000/svg" width="192" height="192" viewBox="0 0 192 192">
  <g id="footer_logo" data-name="footer logo" transform="translate(-1165 345)">
    <circle id="Ellipse_92" data-name="Ellipse 92" cx="96" cy="96" r="96" transform="translate(1165 -345)" fill="#eeebe6"/>
    <g id="footer_logo-2" data-name="footer logo" transform="translate(546.691 -539.229)">
      <g id="Group_1" data-name="Group 1" transform="translate(621.726 198.047)">
        <path id="Path_1" data-name="Path 1" d="M807.1,291.42c0,50.4-41.254,91.253-92.144,91.253s-92.143-40.856-92.143-91.253,41.254-91.251,92.143-91.251S807.1,241.024,807.1,291.42Z" transform="translate(-622.808 -200.169)" fill="#fff"/>
      </g>
      <g id="Group_4" data-name="Group 4" transform="translate(622.029 280.135)">
        <g id="Group_3" data-name="Group 3" transform="translate(0)">
          <g id="Group_2" data-name="Group 2">
            <path id="Path_2" data-name="Path 2" d="M625.126,496.269l2.258,4.589,1.51-5.366,2.118,5.443,1.738-5.52,2.043,5.37,1.736-5.219,2.043,5.291,1.665-5.216,1.89,5.443,1.661-5.443,2.045,5.293,1.738-5.368,2.193,5.368,1.815-5.443,1.813,5.594,1.665-5.594,1.663,5.366,2.608-4.743s-5.685,65.817,63.262,65.817c0,0,53.427-9.535,50.3-62.818l-.515-3.507,2.458,5.369,1.56-5.6,2,5.651,1.7-5.553,1.948,5.5,1.658-5.552,1.9,5.6,1.818-5.611,1.946,5.561,1.964-5.581,1.925,5.622,1.83-5.58,1.884,5.6,1.751-5.64,1.828,5.622,1.846-5.58L804.175,501l2-4.618s11.617,71.2-65.531,97.367c0,0-61.773,20.5-102.774-39.653,0,0-14.93-19.829-13.926-56.616Z" transform="translate(-623.899 -495.375)" fill="#891638"/>
          </g>
        </g>
      </g>
      <g id="Group_7" data-name="Group 7" transform="translate(657.031 232.734)">
        <g id="Group_6" data-name="Group 6" transform="translate(0 0)">
          <g id="Group_5" data-name="Group 5">
            <path id="Path_3" data-name="Path 3" d="M749.772,381.886a56.978,56.978,0,1,1,56.968,56.978A56.972,56.972,0,0,1,749.772,381.886Z" transform="translate(-749.772 -324.913)" fill="#f6e30f"/>
          </g>
        </g>
      </g>
      <g id="Group_10" data-name="Group 10" transform="translate(656.49 232.196)">
        <g id="Group_9" data-name="Group 9" transform="translate(0)">
          <g id="Group_8" data-name="Group 8">
            <path id="Path_4" data-name="Path 4" d="M805.337,438a57.514,57.514,0,1,1,57.528-57.517A57.58,57.58,0,0,1,805.337,438Zm0-113.951a56.435,56.435,0,1,0,56.446,56.434A56.494,56.494,0,0,0,805.337,324.054Z" transform="translate(-747.828 -322.976)" fill="#891638"/>
          </g>
        </g>
      </g>
      <g id="Group_43" data-name="Group 43" transform="translate(644.035 202.185)">
        <g id="Group_17" data-name="Group 17" transform="translate(55.139 0.864)">
          <g id="Group_13" data-name="Group 13">
            <g id="Group_12" data-name="Group 12">
              <g id="Group_11" data-name="Group 11">
                <path id="Path_5" data-name="Path 5" d="M901.325,220.256a2.123,2.123,0,1,1,2.116,2.1A2.106,2.106,0,0,1,901.325,220.256Z" transform="translate(-901.325 -218.159)" fill="#221e20"/>
              </g>
            </g>
          </g>
          <g id="Group_16" data-name="Group 16" transform="translate(2.116 2.097)">
            <g id="Group_15" data-name="Group 15">
              <g id="Group_14" data-name="Group 14">
                <path id="Path_6" data-name="Path 6" d="M908.934,225.7" transform="translate(-908.934 -225.701)" fill="#221e20"/>
              </g>
            </g>
          </g>
        </g>
        <g id="Group_24" data-name="Group 24" transform="translate(59.924 0)">
          <g id="Group_20" data-name="Group 20">
            <g id="Group_19" data-name="Group 19">
              <g id="Group_18" data-name="Group 18">
                <path id="Path_7" data-name="Path 7" d="M918.534,217.148a2.126,2.126,0,1,1,2.127,2.1A2.113,2.113,0,0,1,918.534,217.148Z" transform="translate(-918.534 -215.051)" fill="#221e20"/>
              </g>
            </g>
          </g>
          <g id="Group_23" data-name="Group 23" transform="translate(2.127 2.097)">
            <g id="Group_22" data-name="Group 22">
              <g id="Group_21" data-name="Group 21">
                <path id="Path_8" data-name="Path 8" d="M926.184,222.592" transform="translate(-926.184 -222.592)" fill="#221e20"/>
              </g>
            </g>
          </g>
        </g>
        <g id="Group_27" data-name="Group 27" transform="translate(74.293 2.921)">
          <g id="Group_26" data-name="Group 26">
            <g id="Group_25" data-name="Group 25">
              <path id="Path_9" data-name="Path 9" d="M970.209,227.647a2.126,2.126,0,1,1,2.129,2.1A2.111,2.111,0,0,1,970.209,227.647Z" transform="translate(-970.209 -225.556)" fill="#221e20"/>
            </g>
          </g>
        </g>
        <g id="Group_30" data-name="Group 30" transform="translate(79.165 2.877)">
          <g id="Group_29" data-name="Group 29">
            <g id="Group_28" data-name="Group 28">
              <path id="Path_10" data-name="Path 10" d="M987.728,227.5a2.124,2.124,0,1,1,2.136,2.094A2.116,2.116,0,0,1,987.728,227.5Z" transform="translate(-987.728 -225.398)" fill="#221e20"/>
            </g>
          </g>
        </g>
        <g id="Group_33" data-name="Group 33" transform="translate(122.86 42.603)">
          <g id="Group_32" data-name="Group 32">
            <g id="Group_31" data-name="Group 31">
              <path id="Path_11" data-name="Path 11" d="M1150.347,368.259l5.339.27a9.894,9.894,0,0,0,.93,2.673c.823,1.757,1.747,3.593,3.324,6.943a72.359,72.359,0,0,1,4.253,10.831,6.281,6.281,0,0,1-1.235,5.419c-1.921,2.168-6.588,3.251-6.588,3.251s-2-7.767-3.336-11.224a73.091,73.091,0,0,0-8.17-14.808l3.089-2.473s6.121,9.734,7.161,12.184a99.716,99.716,0,0,1,3.668,10.368s1.317.065,1.426-1.156c.159-1.976-2.337-8.052-4.385-12.392C1153.792,373.833,1150.347,368.259,1150.347,368.259Z" transform="translate(-1144.864 -368.259)" fill="#221e20"/>
            </g>
          </g>
        </g>
        <g id="Group_36" data-name="Group 36" transform="translate(73.212 7.528)">
          <g id="Group_35" data-name="Group 35">
            <g id="Group_34" data-name="Group 34">
              <path id="Path_12" data-name="Path 12" d="M1018.224,256.415a9.4,9.4,0,0,1-3.246-.714l-.172,1.481-7.659,8.637a91.172,91.172,0,0,0-16.577-9.953c-2.92-1.32-14.59-4.527-14.59-4.527l.582-9.217a20.694,20.694,0,0,1-2.413,1.155,23.308,23.308,0,0,1-4.5.658c-2.746.293-3.334,3.865-3.334,3.865v6.418a70.891,70.891,0,0,1,20.745,4.526c11.005,4.442,20.743,12.766,20.743,12.766l12.888-14.687A14.319,14.319,0,0,0,1018.224,256.415Zm-47.985-5.9c-.211,0-.191-1.25.084-1.89.608-1.428,1.744-.824,1.744-.824l.084,2.877A17.626,17.626,0,0,0,970.239,250.515Z" transform="translate(-966.32 -242.122)" fill="#221e20"/>
            </g>
          </g>
        </g>
        <g id="Group_39" data-name="Group 39" transform="translate(109.41 32.824)">
          <g id="Group_38" data-name="Group 38">
            <g id="Group_37" data-name="Group 37">
              <path id="Path_13" data-name="Path 13" d="M1115.287,335.293c-.819-.526-2.993-1.447-4.116-1.968-1.635-.762-3.566.606-3.566.606s-3.648,3.491-3.912,4.409c-.234.851,2.5,3.35,2.847,3.688.333.336-.512,1.641-1.671,2.053a1.816,1.816,0,0,1-2.333-.938c-.58-.833-1.1-2.825-1.592-3.5a4.519,4.519,0,0,0-1.9-1.648,4.732,4.732,0,0,0-2.342.084s-.745.986.586,1.647a5.333,5.333,0,0,0,1.893.5c.675.143.494.26,1.091.952.76.879.2.811.894,2.572s1.373,3.047,3.633,3.25,4.471-2.241,6.153-3.662,7.5-6.911,7.5-6.911A9.422,9.422,0,0,1,1115.287,335.293Zm-5.6,4.024s-1.233-.339-1.02-1.082a1.363,1.363,0,0,1,1.279-.731,3.307,3.307,0,0,1,1.424.491Z" transform="translate(-1096.493 -333.093)" fill="#221e20"/>
            </g>
          </g>
        </g>
        <g id="Group_42" data-name="Group 42" transform="translate(0 2.933)">
          <g id="Group_41" data-name="Group 41">
            <g id="Group_40" data-name="Group 40">
              <path id="Path_14" data-name="Path 14" d="M769,226.546a36.307,36.307,0,0,0-5.91,1.489c-1.841.744-1.5,4.263-1.571,5.213s.314,3.2.827,3.366a41.815,41.815,0,0,0,4.593-.182l.062,1.962a74.076,74.076,0,0,0-7.491.935c-2.834.581-5.923,1.234-5.923,1.234a12.522,12.522,0,0,0-3.242-3.048c-1.5-.745-4.368-.425-5.962.068a76.921,76.921,0,0,0-11.514,5.484c-2.606,1.554-9.191,6.432-9.191,6.432a61.732,61.732,0,0,0-4.387-4.877c-1.319-1.2-2.195-1.963-2.195-1.963l-1.231,6.3a4.2,4.2,0,0,1,2.191.137,81.556,81.556,0,0,1,5.693,6.226,1.666,1.666,0,0,1-.275,2.238c-3.369,3.166-7.185,8.3-9.124,10.734-2.333,2.913-5.5,9.217-6.368,11.2-.23.514-.412-.138-1.706.065a27.682,27.682,0,0,0-3.234.813l3.087,4.064a8.634,8.634,0,0,1,3.062-1.167,3.1,3.1,0,0,1,2.905.762,3.234,3.234,0,0,1,.96,2.636,4.3,4.3,0,0,1-1.573,2.642c-1.035.877-1.008.888-1.216,2.11-.08.515.337,1.73,1.25,1.476,1.671.089.924-2.163.924-2.163s-.14-.273.137-1.356,1.71-1.085,2.262-2.367a7.846,7.846,0,0,0,.266-4.313c-.283-1.019-1.429-1.374-2.118-1.847a1.06,1.06,0,0,1-.41-1.219,64.118,64.118,0,0,1,4.458-8.057c3.285-5.282,8.619-10.053,10.965-12.322,8.428-8.155,20.2-12.785,23.764-13.912a76.851,76.851,0,0,1,19.085-3.157V225.6A6.148,6.148,0,0,1,769,226.546Zm-3.577,6.775a6.309,6.309,0,0,1-.083-1.562c.208-.676,1.465-.635,1.465-.635l.03,2.2Zm-25.583,12.757a62.6,62.6,0,0,0-11.707,7.752s-2.279-1.222-1.035-2.244c1.229-1.012,5.236-3.645,7.958-5.473a52.157,52.157,0,0,1,9.326-4.743,7.169,7.169,0,0,1,3.09-.476,3.07,3.07,0,0,1,1.455,1.153S743.357,244.315,739.835,246.078Z" transform="translate(-703.036 -225.6)" fill="#221e20"/>
            </g>
          </g>
        </g>
      </g>
      <g id="Group_46" data-name="Group 46" transform="translate(621.309 197.229)">
        <g id="Group_45" data-name="Group 45" transform="translate(0)">
          <g id="Group_44" data-name="Group 44">
            <path id="Path_15" data-name="Path 15" d="M713.869,382.362A92.566,92.566,0,1,1,806.442,289.8,92.667,92.667,0,0,1,713.869,382.362Zm0-183.514A90.948,90.948,0,1,0,804.823,289.8,91.045,91.045,0,0,0,713.869,198.847Z" transform="translate(-621.309 -197.229)" fill="#891638"/>
          </g>
        </g>
      </g>
      <g id="Group_151" data-name="Group 151" transform="translate(667.735 245.114)">
        <g id="Group_49" data-name="Group 49" transform="translate(42.492 45.096)">
          <g id="Group_48" data-name="Group 48">
            <g id="Group_47" data-name="Group 47">
              <path id="Path_16" data-name="Path 16" d="M941.264,535.431l-.191-.316a57.184,57.184,0,0,1,6.752-3.512l.133.345A56.786,56.786,0,0,0,941.264,535.431Z" transform="translate(-941.073 -531.604)" fill="#1d1c1a"/>
            </g>
          </g>
        </g>
        <g id="Group_62" data-name="Group 62" transform="translate(28.551 43.537)">
          <g id="Group_52" data-name="Group 52" transform="translate(0 3.335)">
            <g id="Group_51" data-name="Group 51">
              <g id="Group_50" data-name="Group 50">
                <path id="Path_17" data-name="Path 17" d="M892.558,542.632a47.249,47.249,0,0,1-1.62-4.639h.515c.02.274.832,2.5,1.585,4.453Z" transform="translate(-890.938 -537.993)" fill="#1d1c1a"/>
              </g>
            </g>
          </g>
          <g id="Group_55" data-name="Group 55" transform="translate(12.951 1.172)">
            <g id="Group_54" data-name="Group 54">
              <g id="Group_53" data-name="Group 53">
                <path id="Path_18" data-name="Path 18" d="M938.027,533.36l-.515,0a17.367,17.367,0,0,1,.15-3.142l.463.225C938.077,530.611,938.035,532.065,938.027,533.36Z" transform="translate(-937.512 -530.214)" fill="#1d1c1a"/>
              </g>
            </g>
          </g>
          <g id="Group_58" data-name="Group 58" transform="translate(3.27 1.44)">
            <g id="Group_57" data-name="Group 57">
              <g id="Group_56" data-name="Group 56">
                <path id="Path_19" data-name="Path 19" d="M904.317,535.813a47.32,47.32,0,0,1-1.619-4.638h.515c.02.273.832,2.5,1.585,4.453Z" transform="translate(-902.698 -531.175)" fill="#1d1c1a"/>
              </g>
            </g>
          </g>
          <g id="Group_61" data-name="Group 61" transform="translate(6.9)">
            <g id="Group_60" data-name="Group 60">
              <g id="Group_59" data-name="Group 59">
                <path id="Path_20" data-name="Path 20" d="M917.109,530.173c-.318-.887-1.356-3.806-1.356-4.175h.514c.017.247.7,2.247,1.326,4Z" transform="translate(-915.753 -525.998)" fill="#1d1c1a"/>
              </g>
            </g>
          </g>
        </g>
        <g id="Group_65" data-name="Group 65" transform="translate(18.155 43.242)">
          <g id="Group_64" data-name="Group 64">
            <g id="Group_63" data-name="Group 63">
              <path id="Path_21" data-name="Path 21" d="M856.739,524.939s-.992.543-1.509.871-1.63.913-1.63.913a2.806,2.806,0,0,0,.057,1.247c.2.32.984.581.984,1.036s-.518,4.444-.784,5.611c-.1.457.067.654.2,1.048s.264.191.651.718a5.779,5.779,0,0,1,.589,2.411,3.706,3.706,0,0,0,2.276,2.612c1.049.278,2.228.085,4.18-.782a8.241,8.241,0,0,1,5.156-.394c1.694.394,2.414,1.238,4.569.786,1.191-.263,3.061-1.435,4.563-1.632s1.7.2,1.7.2a16.592,16.592,0,0,0,1.177-3.786,28.483,28.483,0,0,0,.325-3.129s-2.349-5.276-4.145-4.936c-1.609.307-4.792,2.386-7.468,4.016a31.4,31.4,0,0,0-4.7,3.4,5.2,5.2,0,0,1-4.131,1.217c-1.823-.274-2.045-.25-3.093-1.026a4.709,4.709,0,0,0-1.522-.846,4.665,4.665,0,0,1,.393-1.108c.195-.256,1.759-1.465,2.4-1.979.851-.683,1.451-1.109,1.451-1.109a15.73,15.73,0,0,0-.6-1.538,3.931,3.931,0,0,1-.529-1.431C856.968,526.083,856.739,524.939,856.739,524.939Z" transform="translate(-853.553 -524.939)" fill="#8e1735"/>
            </g>
          </g>
        </g>
        <g id="Group_68" data-name="Group 68" transform="translate(51.632 24.474)">
          <g id="Group_67" data-name="Group 67">
            <g id="Group_66" data-name="Group 66">
              <path id="Path_22" data-name="Path 22" d="M996.939,492s-2.294-.01-3.9,0c-1.831.012-1.437-.754-3.918-.03a12.628,12.628,0,0,1-4,.822c-2.477.259-2.159-.042-4.111-.239s-1.831-.786-3.827-.784a8.961,8.961,0,0,0-3.238.39s.167-1.826,1.276-2.284.984-.913,3.463-.913a17.86,17.86,0,0,0,4.112-.322c.712-.185,2.265-.086,1.954-2.22-.324-2.316-2.025-10.379-2.146-12.529-.1-1.515-.854-11.222-.854-11.222s.321-2.091.388-2.677.659-2.544.659-2.544,1.234.066,1.443.585c.188.524,1.116.651.784,1.432-.479,1.106-.531,5.895-.138,9.062.338,2.665.772,6.049,1.114,8.171.4,2.479,1.691,8.677,2.545,9.85.48.7.847.328,1.3.068s1-5.08,1.234-7.111a75.572,75.572,0,0,0-.162-7.644,25.089,25.089,0,0,0-3.357-11.541c-.62-1.029,0,.068.059-.587s.07-1.108.07-1.108a12.2,12.2,0,0,1,1.3.195,1.89,1.89,0,0,1,.655.2,16.323,16.323,0,0,1,2.669,5.217,30.113,30.113,0,0,1,1.636,10.243c-.115,3.462-.393,11.683-.393,11.683a2.753,2.753,0,0,0,1.887.911c1.307.133,4.791-.062,7.2.33l-5.075,5.077Z" transform="translate(-973.942 -457.444)" fill="#8e1735"/>
            </g>
          </g>
        </g>
        <g id="Group_71" data-name="Group 71" transform="translate(37.913 46.262)">
          <g id="Group_70" data-name="Group 70">
            <g id="Group_69" data-name="Group 69">
              <path id="Path_23" data-name="Path 23" d="M924.923,548.148l-.315-.193a8.192,8.192,0,0,0,.918-2.139,51.635,51.635,0,0,0,.593-5.978,32.735,32.735,0,0,1,.432-4.039l.364.06a33.16,33.16,0,0,0-.427,3.979,51.063,51.063,0,0,1-.6,6.049A8.406,8.406,0,0,1,924.923,548.148Z" transform="translate(-924.608 -535.799)" fill="#fff"/>
            </g>
          </g>
        </g>
        <g id="Group_74" data-name="Group 74" transform="translate(16.509 58.018)">
          <g id="Group_73" data-name="Group 73">
            <g id="Group_72" data-name="Group 72">
              <path id="Path_24" data-name="Path 24" d="M847.635,579.558a3.767,3.767,0,0,1,4.2-.2c2.274,1.357,3.8.679,5.85-.165a7.459,7.459,0,0,1,6.071.092,5.317,5.317,0,0,0,4.494-.036,8.893,8.893,0,0,1,7.886-.5c4.364,1.633,4.18.788,5.336.605a19.468,19.468,0,0,1,8.638.2c3.924,1.1,9.28-1.046,9.28-1.046s3.963-.513,6.566.807c0,0-14.907,13.306-29.32,19.31C876.636,598.63,851.918,584.934,847.635,579.558Z" transform="translate(-847.635 -578.076)" fill="#fff"/>
            </g>
          </g>
        </g>
        <g id="Group_120" data-name="Group 120" transform="translate(15.847 57.667)">
          <g id="Group_79" data-name="Group 79" transform="translate(2.956 2.162)">
            <g id="Group_78" data-name="Group 78">
              <g id="Group_77" data-name="Group 77">
                <g id="Group_76" data-name="Group 76">
                  <g id="Group_75" data-name="Group 75">
                    <path id="Path_25" data-name="Path 25" d="M855.885,585.845s3.773,1.361,5.6.844c1.122-.318,2.195-1.558,4.35-1.558s3.031,1.108,5.9,1.3,3.734-1.118,4.646-1.379a6.04,6.04,0,0,1,4.561-.042c1.893.623,3.1,1.422,4.467,1.422a22.2,22.2,0,0,0,4.974-1.186,7.458,7.458,0,0,1,3.605.044,19.843,19.843,0,0,0,4.158.874c2.395.1,6.668-1.52,7.782-1.532a13.366,13.366,0,0,1,3.637.883l-.569.573a7.963,7.963,0,0,0-3.068-.854c-1.89,0-4.026,1.536-6.841,1.709-2.318.143-4.877-1.45-7.522-1.2-1.111.107-4.311,1.538-5.81,1.538s-5.745-2.137-6.838-2.137c-2.226,0-3.59,1.8-5.981,2.049-2.156.237-5.042-1.45-7.352-1.363-1.716.062-2.674,1.407-3.42,1.625a9.014,9.014,0,0,1-4.87-.346Z" transform="translate(-855.885 -584.59)" fill="#169ad7"/>
                  </g>
                </g>
              </g>
            </g>
          </g>
          <g id="Group_84" data-name="Group 84" transform="translate(7.612 4.303)">
            <g id="Group_83" data-name="Group 83">
              <g id="Group_82" data-name="Group 82">
                <g id="Group_81" data-name="Group 81">
                  <g id="Group_80" data-name="Group 80">
                    <path id="Path_26" data-name="Path 26" d="M872.627,594.811c1.118-.312,3.136-1.984,5.291-1.984s3.031,1.108,5.9,1.3,3.735-1.116,4.646-1.383a6.1,6.1,0,0,1,4.561-.034c1.893.617,3.1,1.418,4.467,1.418a22.635,22.635,0,0,0,4.974-1.18,7.361,7.361,0,0,1,3.606.04,30.576,30.576,0,0,0,4.158.873c3.408.352,6.668-2.3,9.143-1.359.485.187.259.682-.253.682-1.9,0-5.134,1.287-7.949,1.458-2.318.139-4.877-1.458-7.522-1.2-1.111.108-4.311,1.538-5.81,1.538s-5.745-2.137-6.838-2.137c-2.226,0-3.59,1.8-5.981,2.051-2.156.233-5.042-1.452-7.352-1.363-1.716.062-3.75,1.614-4.441,1.964Z" transform="translate(-872.627 -592.289)" fill="#169ad7"/>
                  </g>
                </g>
              </g>
            </g>
          </g>
          <g id="Group_89" data-name="Group 89" transform="translate(9.748 6.655)">
            <g id="Group_88" data-name="Group 88">
              <g id="Group_87" data-name="Group 87">
                <g id="Group_86" data-name="Group 86">
                  <g id="Group_85" data-name="Group 85">
                    <path id="Path_27" data-name="Path 27" d="M880.309,602.458c1.125-.318,1.01-.957,3.154-1.13,3-.239,3.031,1.108,5.9,1.3s3.735-1.122,4.647-1.382a6.078,6.078,0,0,1,4.561-.04c1.893.623,3.1,1.421,4.467,1.421a22.637,22.637,0,0,0,4.974-1.182,7.386,7.386,0,0,1,3.605.042,19.852,19.852,0,0,0,4.158.869c2.395.1,6.234-1.6,7.348-1.611l-.938.854c-1.891,0-3,1.259-5.814,1.54-2.561.251-4.533-1.458-7.177-1.2-1.111.1-4.311,1.54-5.81,1.54s-5.745-2.143-6.838-2.143c-2.226,0-3.59,1.8-5.981,2.053-2.156.233-5.075-1.791-7.352-1.365-1.365.257-1.649.814-2.392,1.023Z" transform="translate(-880.309 -600.749)" fill="#169ad7"/>
                  </g>
                </g>
              </g>
            </g>
          </g>
          <g id="Group_94" data-name="Group 94" transform="translate(11.542 8.916)">
            <g id="Group_93" data-name="Group 93">
              <g id="Group_92" data-name="Group 92">
                <g id="Group_91" data-name="Group 91">
                  <g id="Group_90" data-name="Group 90">
                    <path id="Path_28" data-name="Path 28" d="M886.759,609.7c3.078-.854,4.392.832,7.264,1.023s3.735-1.116,4.646-1.379a6.072,6.072,0,0,1,4.561-.036c1.893.623,3.1,1.415,4.467,1.415a22.875,22.875,0,0,0,4.974-1.178,7.382,7.382,0,0,1,3.605.042,39.386,39.386,0,0,0,5.7,1.052l-.6.6c-2.4-.086-4.878-1.454-7.523-1.2-1.111.108-4.311,1.538-5.81,1.538s-5.745-2.137-6.838-2.137c-2.226,0-3.6,1.731-5.981,2.055-3.168.422-5.042-1.8-7.438-.945Z" transform="translate(-886.759 -608.88)" fill="#169ad7"/>
                  </g>
                </g>
              </g>
            </g>
          </g>
          <g id="Group_99" data-name="Group 99" transform="translate(15.131 11.054)">
            <g id="Group_98" data-name="Group 98">
              <g id="Group_97" data-name="Group 97">
                <g id="Group_96" data-name="Group 96">
                  <g id="Group_95" data-name="Group 95">
                    <path id="Path_29" data-name="Path 29" d="M899.668,617.638c2.153,0,.718.569,3.59.77s3.819-1.118,4.731-1.381a6.047,6.047,0,0,1,4.561-.032c1.893.615,3.1,1.413,4.467,1.413a22.508,22.508,0,0,0,4.974-1.182,7.531,7.531,0,0,1,3.605.038c1.165.263,1.2.348,2.872.631.518.083-.343.513-.343.513-1.96,0-2.308-.945-4.953-.684-1.111.107-4.311,1.538-5.81,1.538s-5.745-2.139-6.838-2.139c-2.226,0-3.59,1.8-5.981,2.049-2.156.237-2.48-.764-3.678-.764Z" transform="translate(-899.668 -616.568)" fill="#169ad7"/>
                  </g>
                </g>
              </g>
            </g>
          </g>
          <g id="Group_104" data-name="Group 104" transform="translate(19.663 13.259)">
            <g id="Group_103" data-name="Group 103">
              <g id="Group_102" data-name="Group 102">
                <g id="Group_101" data-name="Group 101">
                  <g id="Group_100" data-name="Group 100">
                    <path id="Path_30" data-name="Path 30" d="M915.966,626.266a5.694,5.694,0,0,0,4.012-1.241c.819-.384,1.8-.925,4.338-.092,1.893.617,3.1,1.417,4.467,1.417a22.64,22.64,0,0,0,4.974-1.182,9.551,9.551,0,0,1,4.088.074l-.771.6c-2.225-.772-6.446,1.367-7.945,1.367s-5.745-2.157-6.838-2.139c-2.476.044-2.391,1.5-5.083,1.755Z" transform="translate(-915.966 -624.495)" fill="#169ad7"/>
                  </g>
                </g>
              </g>
            </g>
          </g>
          <g id="Group_109" data-name="Group 109" transform="translate(22.182 15.431)">
            <g id="Group_108" data-name="Group 108">
              <g id="Group_107" data-name="Group 107">
                <g id="Group_106" data-name="Group 106">
                  <g id="Group_105" data-name="Group 105">
                    <path id="Path_31" data-name="Path 31" d="M925.022,633.613c1.494-.3,1.7-.869,2.605-1.15.684-.213.734-.332,3.269.5,1.888.617,3.1,1.415,4.473,1.415,1.362,0,4.016-1.592,4.96-1.178.162.07-.65.629-.65.629-1.626.125-2.522,1.237-4.31,1.237-1.889,0-5.775-2.222-6.884-2.009a4.949,4.949,0,0,0-2.436.941Z" transform="translate(-925.022 -632.307)" fill="#169ad7"/>
                  </g>
                </g>
              </g>
            </g>
          </g>
          <g id="Group_114" data-name="Group 114" transform="translate(24.658 17.528)">
            <g id="Group_113" data-name="Group 113">
              <g id="Group_112" data-name="Group 112">
                <g id="Group_111" data-name="Group 111">
                  <g id="Group_110" data-name="Group 110">
                    <path id="Path_32" data-name="Path 32" d="M933.929,640.044c.475-.131.39-.5,2.929.33,1.89.621,3.1,1.422,4.466,1.422l-.681.382c-1.5,0-4.4-1.751-5.9-1.665Z" transform="translate(-933.929 -639.848)" fill="#169ad7"/>
                  </g>
                </g>
              </g>
            </g>
          </g>
          <g id="Group_119" data-name="Group 119">
            <g id="Group_118" data-name="Group 118">
              <g id="Group_117" data-name="Group 117">
                <g id="Group_116" data-name="Group 116">
                  <g id="Group_115" data-name="Group 115">
                    <path id="Path_33" data-name="Path 33" d="M845.253,578.172s3.215-1.154,4.451-.392c.969.615,1.438,1.3,2.857,1.206,1.662-.117,3.062-1.287,5.352-1.506a11.709,11.709,0,0,1,3.848.461,6.388,6.388,0,0,0,5.032-.117,8.032,8.032,0,0,1,5.343-.86c2.542.454,4.186,1.405,5.688,1.405,1.629,0,5.446-1.016,7.865-.545a26.622,26.622,0,0,0,5.64.857c1.792-.089,4.95-1.153,6.958-1.408a16.3,16.3,0,0,1,5.366.6,6.29,6.29,0,0,1,1.235.459l-1.258.259s-.5-.088-1.367-.336a6.7,6.7,0,0,0-3.937-.432c-2.02.4-5.12,1.371-6.917,1.371a30.644,30.644,0,0,1-6.411-.77c-1.7-.39-5.8.658-7.266.6-2.175-.081-4.569-1.747-7.651-1.574-1.642.088-3.157,1.407-5.039,1.574-2.672.245-2.943-.33-4.574-.6s-2.742-.615-4.574.167a9.876,9.876,0,0,1-3.631,1.029,4.021,4.021,0,0,1-2.221-.768,4.895,4.895,0,0,0-2.35-.515,4.416,4.416,0,0,0-1.5.515Z" transform="translate(-845.253 -576.815)" fill="#169ad7"/>
                  </g>
                </g>
              </g>
            </g>
          </g>
        </g>
        <g id="Group_135" data-name="Group 135" transform="translate(0 41.78)">
          <g id="Group_127" data-name="Group 127">
            <g id="Group_123" data-name="Group 123" transform="translate(0.388 0.244)">
              <g id="Group_122" data-name="Group 122">
                <g id="Group_121" data-name="Group 121">
                  <path id="Path_34" data-name="Path 34" d="M789.659,520.557a43.552,43.552,0,0,0,6.576,11.613,87.522,87.522,0,0,0,12.056,11.967c6.428,5.316,18.792,14.042,26.639,16.654,4.626,1.546,9.862,3.551,9.862,3.551a1.254,1.254,0,0,1,.59,1.5,9.539,9.539,0,0,1-1.443,1.9c-.582.78-.685,1.438-.316,1.892a1.5,1.5,0,0,0,2.018.523c1.512-.605,1.366-1.176,1.9-2.547a6.813,6.813,0,0,0,.4-2.686,2.75,2.75,0,0,1,1.59.08,12.927,12.927,0,0,0,3.228.523c1.3.2,2.213-.46,2.545.062s.653,1.241,1.521,1.4a2.413,2.413,0,0,0,2.591-.684,2.543,2.543,0,0,0-.2-3.132c-.653-.782-2.023-1.044-4.309-1.434s-3.708-.195-4.3-.587-.981-.654-.917-1.172a2.881,2.881,0,0,1,.394-1.761,8.186,8.186,0,0,1,1.17-1.568,1.233,1.233,0,0,0-.321-1.826,2.225,2.225,0,0,0-2.808.653,4.717,4.717,0,0,0-.848,2.74,6.941,6.941,0,0,1-.13,1.761c-.26,1.039-1.092.909-3,.324a76.8,76.8,0,0,1-18.208-8.092c-9.942-5.791-20.492-13.3-28.261-21.7C794.238,526.8,789.659,520.557,789.659,520.557Z" transform="translate(-789.659 -520.557)" fill="#fff"/>
                </g>
              </g>
            </g>
            <g id="Group_126" data-name="Group 126">
              <g id="Group_125" data-name="Group 125">
                <g id="Group_124" data-name="Group 124">
                  <path id="Path_35" data-name="Path 35" d="M843.822,570.1a1.89,1.89,0,0,1-1.529-.855c-.284-.35-.628-1.135.31-2.392.226-.3.459-.562.674-.8a3.366,3.366,0,0,0,.708-.976c.111-.328.08-.613-.4-1-.59-.225-5.484-2.084-9.787-3.522-8.037-2.675-20.413-11.469-26.771-16.727A88.114,88.114,0,0,1,794.915,531.8a44.361,44.361,0,0,1-6.65-11.739l.72-.383c.045.062,4.6,6.266,7.983,9.908,8.645,9.349,20.088,16.919,28.166,21.624a76.558,76.558,0,0,0,18.122,8.055,7.817,7.817,0,0,0,1.908.432c.353,0,.482-.1.571-.461a2.047,2.047,0,0,0,.083-.686c0-.211.012-.514.035-1a5,5,0,0,1,.852-2.835,2.417,2.417,0,0,1,2.206-1.193,2.3,2.3,0,0,1,1.238.312,1.813,1.813,0,0,1,.781,1.3,1.407,1.407,0,0,1-.4,1.159,5.593,5.593,0,0,0-.855,1.1l-.263.4a1.7,1.7,0,0,0-.306,1.114,3.557,3.557,0,0,1-.022.474c-.029.233.122.367.736.774a4.233,4.233,0,0,0,1.529.24,23.822,23.822,0,0,1,2.617.285c2.414.411,3.815.687,4.556,1.575a2.951,2.951,0,0,1,.222,3.629c-.569.822-1.565,1.11-3,.857a2.474,2.474,0,0,1-1.677-1.388l-.12-.2a2.205,2.205,0,0,0-.594.05,4.929,4.929,0,0,1-1.665.075c-.435-.067-.851-.1-1.242-.136a5.86,5.86,0,0,1-2.109-.426,2.057,2.057,0,0,0-.982-.1,7.26,7.26,0,0,1-.437,2.485c-.1.271-.181.508-.249.719a2.646,2.646,0,0,1-1.878,2.065A2.7,2.7,0,0,1,843.822,570.1Zm-53.481-47.253a39.6,39.6,0,0,0,5.2,8.425,87.423,87.423,0,0,0,12,11.915c6.069,5.018,18.632,13.959,26.507,16.58,4.582,1.531,9.827,3.537,9.879,3.557l.106.059a1.651,1.651,0,0,1,.728,1.952,3.823,3.823,0,0,1-.874,1.265c-.2.225-.419.469-.629.749-.258.346-.646.989-.325,1.385a1.131,1.131,0,0,0,1.549.4,1.877,1.877,0,0,0,1.4-1.554c.072-.224.154-.474.263-.758a6.467,6.467,0,0,0,.373-2.5l-.03-.35.34-.085a3.944,3.944,0,0,1,.855-.1,2.274,2.274,0,0,1,1.02.21,5.375,5.375,0,0,0,1.811.341c.407.035.841.073,1.295.142a4.146,4.146,0,0,0,1.4-.072c.736-.129,1.18-.075,1.431.32l.13.212c.277.461.54.9,1.118,1,1.078.193,1.8.029,2.177-.513a2.145,2.145,0,0,0-.176-2.634c-.555-.664-1.9-.924-4.062-1.292a23.42,23.42,0,0,0-2.532-.275,4.164,4.164,0,0,1-1.928-.374c-.615-.408-1.2-.793-1.1-1.567a2.822,2.822,0,0,0,.015-.367,2.5,2.5,0,0,1,.443-1.57l.261-.4a6.39,6.39,0,0,1,.962-1.237.592.592,0,0,0,.16-.494.98.98,0,0,0-.416-.7,1.523,1.523,0,0,0-.783-.174,1.664,1.664,0,0,0-1.439.686,4.388,4.388,0,0,0-.8,2.558c-.022.471-.029.769-.034.976a2.783,2.783,0,0,1-.11.874,1.29,1.29,0,0,1-1.367,1.078,8.057,8.057,0,0,1-2.149-.468,77.279,77.279,0,0,1-18.3-8.131c-8.126-4.732-19.642-12.353-28.355-21.776C794.379,528.009,792,525,790.341,522.848Z" transform="translate(-788.265 -519.681)" fill="#1d1c1a"/>
                </g>
              </g>
            </g>
          </g>
          <g id="Group_134" data-name="Group 134" transform="translate(20.482)">
            <g id="Group_130" data-name="Group 130" transform="translate(0.414 0.244)">
              <g id="Group_129" data-name="Group 129">
                <g id="Group_128" data-name="Group 128">
                  <path id="Path_36" data-name="Path 36" d="M933.618,520.557a43.776,43.776,0,0,1-6.587,11.613,87.179,87.179,0,0,1-12.054,11.967c-6.418,5.316-18.794,14.042-26.643,16.654-4.623,1.546-9.859,3.551-9.859,3.551a1.248,1.248,0,0,0-.58,1.5,9.447,9.447,0,0,0,1.436,1.9c.587.78.688,1.438.325,1.892a1.517,1.517,0,0,1-2.028.523c-1.516-.605-1.365-1.176-1.89-2.547a6.759,6.759,0,0,1-.409-2.686,2.732,2.732,0,0,0-1.585.08,12.888,12.888,0,0,1-3.225.523c-1.314.2-2.211-.46-2.548.062s-.656,1.241-1.524,1.4a2.41,2.41,0,0,1-2.586-.684,2.534,2.534,0,0,1,.2-3.132c.649-.782,2.021-1.044,4.308-1.434s3.719-.195,4.307-.587.976-.654.913-1.172a2.822,2.822,0,0,0-.385-1.761,8.438,8.438,0,0,0-1.181-1.568,1.236,1.236,0,0,1,.328-1.826,2.217,2.217,0,0,1,2.8.653,4.658,4.658,0,0,1,.847,2.74,6.283,6.283,0,0,0,.14,1.761c.256,1.039,1.089.909,3,.324a76.928,76.928,0,0,0,18.2-8.092c9.946-5.791,20.486-13.3,28.262-21.7C929.034,526.8,933.618,520.557,933.618,520.557Z" transform="translate(-863.411 -520.557)" fill="#fff"/>
                </g>
              </g>
            </g>
            <g id="Group_133" data-name="Group 133">
              <g id="Group_132" data-name="Group 132">
                <g id="Group_131" data-name="Group 131">
                  <path id="Path_37" data-name="Path 37" d="M877.371,570.1a2.674,2.674,0,0,1-.965-.2,2.632,2.632,0,0,1-1.88-2.066c-.068-.212-.144-.449-.247-.718a7.219,7.219,0,0,1-.447-2.488,2.051,2.051,0,0,0-.978.1,5.86,5.86,0,0,1-2.107.426c-.39.034-.806.07-1.241.136a4.99,4.99,0,0,1-1.67-.075,3.083,3.083,0,0,0-.491-.065l-.214.2a2.49,2.49,0,0,1-1.684,1.4c-1.434.257-2.434-.036-3-.855a2.941,2.941,0,0,1,.221-3.631c.735-.886,2.138-1.163,4.554-1.575a23.915,23.915,0,0,1,2.62-.285,4.2,4.2,0,0,0,1.527-.239c.612-.41.761-.545.732-.779a3.57,3.57,0,0,1-.018-.469,1.672,1.672,0,0,0-.3-1.114l-.248-.373a5.972,5.972,0,0,0-.881-1.132,1.4,1.4,0,0,1-.393-1.155,1.819,1.819,0,0,1,.786-1.305,2.272,2.272,0,0,1,1.231-.311,2.387,2.387,0,0,1,2.156,1.106,5.041,5.041,0,0,1,.9,2.923c.023.461.03.759.035.969a1.905,1.905,0,0,0,.088.7c.092.374.22.477.573.477a7.731,7.731,0,0,0,1.912-.432,76.724,76.724,0,0,0,18.116-8.055c8.066-4.7,19.5-12.26,28.167-21.624,3.378-3.643,7.941-9.846,7.987-9.909l.719.384a44.616,44.616,0,0,1-6.659,11.738,87.752,87.752,0,0,1-12.108,12.019c-6.1,5.052-18.762,14.06-26.775,16.727-4.3,1.437-9.184,3.294-9.781,3.522-.482.4-.511.678-.4,1a3.3,3.3,0,0,0,.7.981c.216.242.449.505.673.805.941,1.25.6,2.037.317,2.4A1.906,1.906,0,0,1,877.371,570.1Zm-3.869-6.316a3.913,3.913,0,0,1,.852.1l.34.085-.029.35a6.416,6.416,0,0,0,.384,2.5c.109.285.19.536.262.76a1.865,1.865,0,0,0,1.4,1.552,1.176,1.176,0,0,0,1.555-.4c.318-.4-.072-1.039-.334-1.385-.21-.281-.428-.526-.629-.751a3.793,3.793,0,0,1-.869-1.266,1.641,1.641,0,0,1,.716-1.946l.108-.061c.052-.02,5.3-2.026,9.875-3.557,7.907-2.631,20.458-11.566,26.511-16.58a86.983,86.983,0,0,0,12-11.916,39.725,39.725,0,0,0,5.205-8.416c-1.656,2.153-4.036,5.156-6.018,7.293-8.735,9.439-20.241,17.052-28.357,21.776a77.433,77.433,0,0,1-18.289,8.13,8.108,8.108,0,0,1-2.154.468h0a1.291,1.291,0,0,1-1.368-1.087,2.658,2.658,0,0,1-.117-.89c-.005-.206-.013-.5-.034-.95a4.206,4.206,0,0,0-.767-2.509,1.674,1.674,0,0,0-1.466-.736,1.5,1.5,0,0,0-.773.172.989.989,0,0,0-.424.7.589.589,0,0,0,.156.49,6.754,6.754,0,0,1,.986,1.259l.246.37a2.467,2.467,0,0,1,.44,1.58,2.615,2.615,0,0,0,.012.36c.094.769-.48,1.154-1.086,1.561a4.123,4.123,0,0,1-1.937.38,23.506,23.506,0,0,0-2.535.274c-2.16.369-3.511.628-4.06,1.291a2.137,2.137,0,0,0-.176,2.636c.372.539,1.093.706,2.174.512.581-.106.845-.547,1.126-1.013l.122-.2c.259-.4.7-.451,1.431-.323a4.218,4.218,0,0,0,1.405.072c.452-.069.885-.107,1.292-.142a5.375,5.375,0,0,0,1.809-.341A2.263,2.263,0,0,1,873.5,563.785Z" transform="translate(-861.923 -519.681)" fill="#1d1c1a"/>
                </g>
              </g>
            </g>
          </g>
        </g>
        <g id="Group_138" data-name="Group 138" transform="translate(19.722 47.838)">
          <g id="Group_137" data-name="Group 137">
            <g id="Group_136" data-name="Group 136">
              <path id="Path_38" data-name="Path 38" d="M862.852,550.089a7.765,7.765,0,0,1-3.662-.859l.159-.265a8.246,8.246,0,0,0,8.146-.535c1.526-.913,3.2-1.973,4.828-3,3.79-2.394,6.172-3.878,6.889-3.929a.725.725,0,0,1,.476.007c.663.2,1.806,1.184,3.482,4.726l-.28.132c-1.681-3.551-2.759-4.374-3.252-4.549a.446.446,0,0,0-.316-.027l-.074.018c-.615,0-3.74,1.974-6.761,3.882-1.625,1.026-3.305,2.088-4.834,3A9.263,9.263,0,0,1,862.852,550.089Z" transform="translate(-859.19 -541.468)" fill="#fff"/>
            </g>
          </g>
        </g>
        <g id="Group_141" data-name="Group 141" transform="translate(19.253)">
          <g id="Group_140" data-name="Group 140">
            <g id="Group_139" data-name="Group 139">
              <path id="Path_39" data-name="Path 39" d="M882.575,414.018s-4.219-5.359-12.5-1.333c0,0-5.747,2.947-5.361,8.384,0,0-13.711-17.522-3.33-51.637l20.487,30.621Z" transform="translate(-857.501 -369.432)" fill="#1d1c1a"/>
            </g>
          </g>
        </g>
        <g id="Group_148" data-name="Group 148" transform="translate(18.777 0.337)">
          <g id="Group_144" data-name="Group 144" transform="translate(0.226 0.601)">
            <g id="Group_143" data-name="Group 143">
              <g id="Group_142" data-name="Group 142">
                <path id="Path_40" data-name="Path 40" d="M882,418.786s-4.8-5.877-13.082-1.716c0,0-5.747,3.046-5.361,8.665,0,0-13.384-17.672-3-52.929l20.588,30.882Z" transform="translate(-856.605 -372.805)" fill="#fff"/>
              </g>
            </g>
          </g>
          <g id="Group_147" data-name="Group 147">
            <g id="Group_146" data-name="Group 146">
              <g id="Group_145" data-name="Group 145">
                <path id="Path_41" data-name="Path 41" d="M863.283,425.017l-.521-.688c-.135-.178-13.344-18.18-3.046-53.157l.156-.529,20.933,31.4L881.712,418l-.5-.61a9.764,9.764,0,0,0-7.126-3.111,12.592,12.592,0,0,0-5.642,1.463c-.051.027-5.589,3.034-5.221,8.416Zm-3.227-53.17c-8.82,30.518.382,47.845,2.643,51.459.219-5.159,5.453-8,5.509-8.024a13.1,13.1,0,0,1,5.878-1.52,10.225,10.225,0,0,1,7.028,2.78l-.815-14.33Z" transform="translate(-855.792 -370.643)" fill="#1d1c1a"/>
              </g>
            </g>
          </g>
        </g>
        <g id="Group_150" data-name="Group 150" transform="translate(49.613 5.368)">
          <g id="Group_149" data-name="Group 149">
            <path id="Path_42" data-name="Path 42" d="M987.712,401.806s.633-1.977,3.835-1.977c.467,0,.944.069,1.409.091-.309-1.035-1.873-1.615-2.8-1.646a5.289,5.289,0,0,0-3.751.69c-.279.208-.38-1.34,2.931-2.1a8.054,8.054,0,0,1,2.651-.074c.41.038,1.329.416,1.589.125-1.406-1.766-2.479-2.877-4.846-2.961a4.9,4.9,0,0,0-2.108.217,5.178,5.178,0,0,0-3.277,1.944s-.232-.289.778-1.991a4.555,4.555,0,0,1,2.227-1.6,4.828,4.828,0,0,1,2.459-.236,7.111,7.111,0,0,0-3.655-.966,5.323,5.323,0,0,0-3.86,1.862c-.358.389-.116-.128-1.283,1.546-.348.509.2-1.052.529-1.525a5.108,5.108,0,0,1,1.08-1.16c.341-.268,2.089-1.371,2.367-1.685-1.742-.826-5.651.408-6.158,1.929a4.046,4.046,0,0,1,.064-1.221c.449-2.185.993-2.329.993-2.329-.754.373-1.675.061-3.457,1.864-1.928,2.188-.927,2.934-1.876,2.889a4.569,4.569,0,0,0-3.4.911,8.29,8.29,0,0,0-2.921,4.272c-.255.987,2.093-2.99,5.422-1.9-1.339.083-4.965.765-5.973,7.732a6.437,6.437,0,0,1,4.367-3.748c.341-.077-.151.2-1.537,1.737a8.308,8.308,0,0,0-2.029,7.346,5.3,5.3,0,0,1,4.258-4.427s-4.332,3.541-1.265,9.948l.638.97s-.3-5.269,1.893-7.207c1.643-1.46-1.053,3.118,3.111,8.679,0,0-1.648-6.217,1.428-8.974,1.183-1.058,1.095-1.687,2.575,2.862,1.359,4.224-.3,6.036-.3,6.036a9.981,9.981,0,0,0,3.1-8.046,5.194,5.194,0,0,1,4.191,2.469c1.48,2.46,1.317-2.967-1.144-4.174,0,0,2.462-.557,4.352,2.936a10.354,10.354,0,0,1,1.47,4.778c0-1.028.3-1.891.3-2.925a7.335,7.335,0,0,0-.586-3.13,8.441,8.441,0,0,0-1.873-2.5,8.184,8.184,0,0,0-2.048-1.282c-.576-.269-1.389-.2-1.87-.563a.778.778,0,0,1,.435-.387,3.3,3.3,0,0,1,2.691.1c2.459.987,4.184,5.42,4.184,5.42a6.5,6.5,0,0,0-5.313-8.618" transform="translate(-966.684 -388.738)" fill="#00a24b"/>
          </g>
        </g>
      </g>
      <g id="Group_182" data-name="Group 182" transform="translate(632.794 298.008)">
        <g id="Group_152" data-name="Group 152" transform="translate(12.943 1.531)">
          <path id="Path_43" data-name="Path 43" d="M709.871,569.333l1.856.722.934-1.762-1.641-.682.9-1.73-1.831-.727-.933,1.918,1.509.522Z" transform="translate(-709.156 -565.154)" fill="#fff"/>
        </g>
        <g id="Group_153" data-name="Group 153" transform="translate(0 12.205)">
          <path id="Path_44" data-name="Path 44" d="M665.272,604.052l-1.882-.513-.779,1.981,1.567.332-.652,1.813,1.917.544.775-1.847-1.723-.516Z" transform="translate(-662.612 -603.539)" fill="#fff"/>
        </g>
        <g id="Group_154" data-name="Group 154" transform="translate(17.402 13.778)">
          <path id="Path_45" data-name="Path 45" d="M727.741,609.539l-1.949-.344-.6,2,1.926.284Z" transform="translate(-725.194 -609.195)" fill="#fff"/>
        </g>
        <g id="Group_155" data-name="Group 155" transform="translate(3.15 2.572)">
          <path id="Path_46" data-name="Path 46" d="M682.413,588.071a13.531,13.531,0,0,0,2.175-1.02,9.863,9.863,0,0,0,1.762-1.319q1.561-1.511,1.164-2.581a1.51,1.51,0,0,0-.915-.933,4.96,4.96,0,0,0-1.776-.23q-.816.015-1.523.066a4.48,4.48,0,0,0-1.248.251,2.439,2.439,0,0,0-.636.353,2.041,2.041,0,0,0-.493.532,1.705,1.705,0,0,0-.249.675,1.583,1.583,0,0,0,.1.79,2.484,2.484,0,0,0,.821,1.215,2.032,2.032,0,0,0,.631.279,5.3,5.3,0,0,0,.87.149,10.44,10.44,0,0,1-1.24,1.049.761.761,0,0,1-.8-.249,4.841,4.841,0,0,1-.827-1.083,14.261,14.261,0,0,1-.786-1.563c-.247-.568-.728-2.1-.939-2.673a2.726,2.726,0,0,1-.053-.622,1.694,1.694,0,0,1,.2-.725,1.667,1.667,0,0,1,.457-.522,3.391,3.391,0,0,1,.654-.384l.009-.162a5.751,5.751,0,0,1-1.018-.369,2.965,2.965,0,0,1-.732-.493,2.535,2.535,0,0,1-.505-.661c-.135-.251-.541-1.681-.636-2.03-.014-.147-.022-.282-.021-.4a1.744,1.744,0,0,1,.106-.637.965.965,0,0,1,.335-.435,2.038,2.038,0,0,1,.6-.286c.075-.022.175-.054.3-.1s.289-.1.486-.161l.709-.233q.412-.136.981-.312,1.113-.349,1.932-.62t1.369-.483l-.011-.063q-1.432-.977-1.874-.9a4.549,4.549,0,0,0-.714.24,5.77,5.77,0,0,1-.638.227,17.862,17.862,0,0,0-1.59-1.823,2.885,2.885,0,0,0-1.291-.611,6.638,6.638,0,0,0-2.238-.292,1.1,1.1,0,0,0-.8.789,2.314,2.314,0,0,0-.137,1.248q.166.961,2.374,1.987a12.931,12.931,0,0,0-1.28.507,4.507,4.507,0,0,0-.944.566,1.674,1.674,0,0,0-.5.756,2.6,2.6,0,0,0-.03,1.262c.015.073.033.137.05.2h0l.037.135.012.045a11.851,11.851,0,0,0,.5,1.516,2.847,2.847,0,0,0,.549.722,2.8,2.8,0,0,0,.756.506,5.159,5.159,0,0,0,1.015.336l.01.037a5.547,5.547,0,0,0-.624.516,2.821,2.821,0,0,0-.482.6,1.952,1.952,0,0,0-.248.7,1.893,1.893,0,0,0,.057.8c.012.046.036.081.05.125l-.013,0c.2.529.569,1.808.807,2.326a11.55,11.55,0,0,0,.792,1.451,6.988,6.988,0,0,0,.964,1.2,4.135,4.135,0,0,0,1.158.816,3.46,3.46,0,0,0,1.384.314A4.387,4.387,0,0,0,682.413,588.071Zm1.044-4.837a.743.743,0,0,1,.451-.428.468.468,0,0,1,.239-.02.9.9,0,0,1,.265.086.982.982,0,0,1,.239.165.557.557,0,0,1,.149.218,1.861,1.861,0,0,1-.3,1.48,1.425,1.425,0,0,1-1.009-.762A1.006,1.006,0,0,1,683.457,583.234Zm-5.948-12.922q.531-.092,1.969,1.68a7.784,7.784,0,0,1-1.7.591q-.379.065-.455-.377Q677.016,570.4,677.509,570.312Z" transform="translate(-673.941 -568.897)" fill="#fff"/>
        </g>
        <g id="Group_156" data-name="Group 156" transform="translate(23.016 27.451)">
          <path id="Path_47" data-name="Path 47" d="M747.554,658.368h-1.992l-.181,2.04,1.957-.008Z" transform="translate(-745.381 -658.367)" fill="#fff"/>
        </g>
        <g id="Group_157" data-name="Group 157" transform="translate(27.927 36.059)">
          <path id="Path_48" data-name="Path 48" d="M765.083,691.36l-.073-2.037-1.967.316.1,2.085Z" transform="translate(-763.044 -689.323)" fill="#fff"/>
        </g>
        <g id="Group_158" data-name="Group 158" transform="translate(25.34 37.44)">
          <path id="Path_49" data-name="Path 49" d="M755.481,696.423l.133,1.87,1.947-.3-.056-2.018-1.772.268-.052-1.953-1.941.327.139,2.116Z" transform="translate(-753.74 -694.29)" fill="#fff"/>
        </g>
        <g id="Group_159" data-name="Group 159" transform="translate(9.802 21.006)">
          <path id="Path_50" data-name="Path 50" d="M721.953,661a30.544,30.544,0,0,1,1.976-2.833,2.809,2.809,0,0,1,2.117-.858,9.333,9.333,0,0,1,.325-2.571,5.016,5.016,0,0,0-1.573.157,2.465,2.465,0,0,0-1.007.718,13.309,13.309,0,0,0-.966,1.306q-.632.934-1.568,2.456a32.665,32.665,0,0,1-2.577,3.81,1.242,1.242,0,0,1-.561.394,1.035,1.035,0,0,1-.568,0,1.852,1.852,0,0,1-.593-.3c-.2-.144-1.873-1.464-2.141-1.7-.061-.09-.129-.184-.181-.269a2.639,2.639,0,0,1-.357-.882,1.752,1.752,0,0,1,.048-.838,2.862,2.862,0,0,1,.476-.88l-.2-.235q-1.371.7-2.083-.141-.745-.883.4-1.851l-.148-.295a3.555,3.555,0,0,1-3.81-1.472q-.719-.853.216-1.894l-.046-.1a6.107,6.107,0,0,1-.876.016,2.116,2.116,0,0,1-.671-.139,2.558,2.558,0,0,1-.782-.549c-.281-.268-1.138-1.793-1.44-2.169-.164-.286-.316-.575-.448-.87a2.566,2.566,0,0,1-.256-.887,5.12,5.12,0,0,0,1.532-.029,4.077,4.077,0,0,0,1.413-.527,6.1,6.1,0,0,0,1.9-1.668q.615-.895.265-1.477-.568-.946-2.977-1.116a6.549,6.549,0,0,0-3.843.707.9.9,0,0,0-.415.579,2.444,2.444,0,0,1-.632-.564c-.177-.223-.785-1.434-.926-1.681a3.367,3.367,0,0,1-.169-.554,1.59,1.59,0,0,1,.016-.74,1.312,1.312,0,0,1,.346-.571,3.233,3.233,0,0,1,.639-.477q.5-.3,1.4-.831t2.2-1.328q2.715-1.67,3.547-2.252-1.172-.335-1.509-.388a1.959,1.959,0,0,0-1.134.158,11,11,0,0,0-1.365.952q-.681.51-1.667,1.125t-2.286,1.407q-.969.592-1.669,1.061a4.948,4.948,0,0,0-1.034.872,1.962,1.962,0,0,0-.307.488,1.524,1.524,0,0,0-.119.555,2.314,2.314,0,0,0,.088.677,4.758,4.758,0,0,0,.267.711h0l.012.02c.014.031.024.06.039.091a2.552,2.552,0,0,0,.261.428,15.763,15.763,0,0,0,1.4,2.182,7.966,7.966,0,0,0,1.812,1.471,6.427,6.427,0,0,0,.163,1.766,6.065,6.065,0,0,0,.722,1.7c.018.031.044.053.063.083.346.489,1.16,2.073,1.385,2.271a2.716,2.716,0,0,0,.716.47,2.1,2.1,0,0,0,.755.169,4.445,4.445,0,0,0,.926-.076l.025.029a2.139,2.139,0,0,0,.238,2.67,2.832,2.832,0,0,0,3.184,1.009l.025.029q-.813,1.306-.109,2.14.852,1.011,3.049.132l.016.019a7.31,7.31,0,0,0-.624,1.122,2.74,2.74,0,0,0-.23.891,1.921,1.921,0,0,0,.1.81,2.845,2.845,0,0,0,.55.921,3.3,3.3,0,0,0,.39.39l0,0c.018.015.046.037.07.056l.034.027c.357.274,1.2.8,1.431.985a5.146,5.146,0,0,0,.774.522,2.813,2.813,0,0,0,.8.3,2.226,2.226,0,0,0,.868-.005,4.95,4.95,0,0,0,2.6-1.666A28.279,28.279,0,0,0,721.953,661Zm-16.917-16.737a.948.948,0,0,1,.9,0,1.925,1.925,0,0,1,.861.785,1.584,1.584,0,0,1,.195,1.171,1.355,1.355,0,0,1-.636.936q-.649.391-2.021-.9Q704.541,644.561,705.036,644.264Z" transform="translate(-697.862 -635.188)" fill="#fff"/>
        </g>
        <g id="Group_160" data-name="Group 160" transform="translate(32.75 45.768)">
          <path id="Path_51" data-name="Path 51" d="M785.5,725.329a12.377,12.377,0,0,0-1.027,1.69q-.706,1.321-1.4,2.65a36.568,36.568,0,0,1-2.69,4.218l.374.292a8.665,8.665,0,0,0,2.376-2.021,41.243,41.243,0,0,0,2.424-3.709q1.693-2.815,2.654-4.213a13.951,13.951,0,0,0-1.482.292A2.4,2.4,0,0,0,785.5,725.329Z" transform="translate(-780.386 -724.237)" fill="#fff"/>
        </g>
        <g id="Group_161" data-name="Group 161" transform="translate(30.494 53.813)">
          <path id="Path_52" data-name="Path 52" d="M782.41,753.644a6.681,6.681,0,0,0-1.239.879,5.966,5.966,0,0,0-.983,1.142,1.981,1.981,0,0,0-.3.708,1.73,1.73,0,0,0,0,.717,1.838,1.838,0,0,0,.291.663,2.034,2.034,0,0,0,.558.541,2.729,2.729,0,0,0,2.343.14l-.178.267q-1.329,2-4.824,2.48a9.99,9.99,0,0,1-2.654.062,4.523,4.523,0,0,1-1.943-.683,3.477,3.477,0,0,1-.369-.291,6.2,6.2,0,0,1-.458-.459l-.38.132a10.1,10.1,0,0,0,2.527,3.037,4.025,4.025,0,0,0,4.2.144,12.368,12.368,0,0,0,4.982-4.363,8.643,8.643,0,0,0,1.409-3.256q.282-1.538-.476-2.043A2.3,2.3,0,0,0,782.41,753.644Zm.943,3.31a2.911,2.911,0,0,1-1.118-.4q-1.048-.7-.657-1.284a.587.587,0,0,1,.192-.173.779.779,0,0,1,.3-.1,1.163,1.163,0,0,1,.379.021,1.25,1.25,0,0,1,.427.192A1.386,1.386,0,0,1,783.354,756.954Z" transform="translate(-772.273 -753.169)" fill="#fff"/>
        </g>
        <g id="Group_162" data-name="Group 162" transform="translate(54.225 53.941)">
          <path id="Path_53" data-name="Path 53" d="M860,755.584l1.085,1.573,1.572-1.223-1.034-1.706-1.426,1.06-1.025-1.66-1.562,1.2,1.168,1.785Z" transform="translate(-857.614 -753.628)" fill="#fff"/>
        </g>
        <g id="Group_163" data-name="Group 163" transform="translate(56.324 70.419)">
          <path id="Path_54" data-name="Path 54" d="M870.271,814.883l-1.183-1.617-1.319,1.213-1.136-1.59-1.472,1.33,1.3,1.689,1.142-1.156,1.217,1.493Z" transform="translate(-865.162 -812.889)" fill="#fff"/>
        </g>
        <g id="Group_164" data-name="Group 164" transform="translate(50.285 58.169)">
          <path id="Path_55" data-name="Path 55" d="M850.754,779.659a6.414,6.414,0,0,0,1.028.138,4.1,4.1,0,0,0,1.006-.067,2.079,2.079,0,0,0,.88-.4,5.048,5.048,0,0,0,1.66-2.744,6.407,6.407,0,0,0,.224-1.658,13.538,13.538,0,0,0-.138-2.027l-.062-.017a12.566,12.566,0,0,0-1.881,2.347,1.305,1.305,0,0,0,.225.945q.343.578.276.813a.374.374,0,0,1-.322.262,2.166,2.166,0,0,1-.643.011,6.773,6.773,0,0,1-.826-.148c-.288-.069-1.427-.359-1.745-.447a4.837,4.837,0,0,1-.577-.282,1.747,1.747,0,0,1-.492-.417.96.96,0,0,1-.2-.511,2.023,2.023,0,0,1,.063-.663c.019-.075.044-.178.072-.31s.064-.3.11-.5.1-.444.164-.728.141-.617.235-1q.271-1.133.459-1.975t.287-1.423l-.06-.023q-1.573.728-1.735,1.147a4.461,4.461,0,0,0-.16.736,5.827,5.827,0,0,1-.132.664,17.819,17.819,0,0,0-2.381.431,2.889,2.889,0,0,0-1.186.794,6.649,6.649,0,0,0-1.4,1.771,1.1,1.1,0,0,0,.266,1.094,2.318,2.318,0,0,0,1,.757q.91.351,2.924-1.019a12.822,12.822,0,0,0-.221,1.359,4.521,4.521,0,0,0,0,1.1,1.673,1.673,0,0,0,.4.813,2.585,2.585,0,0,0,1.068.673c.143.05.277.089.406.12h0C849.64,779.359,850.414,779.585,850.754,779.659Zm-2.839-5.522c-.093.24-.279.305-.558.2q-1.713-.66-1.533-1.128.194-.5,2.452-.829A7.782,7.782,0,0,1,847.914,774.137Z" transform="translate(-843.445 -768.833)" fill="#fff"/>
        </g>
        <g id="Group_165" data-name="Group 165" transform="translate(59.547 64.728)">
          <path id="Path_56" data-name="Path 56" d="M883.243,795.124q-.094.439.709,1.649a2.8,2.8,0,0,1,.623,2.051q-.313,1.455-2.566,2.717a5.919,5.919,0,0,1-4.1.89,3.278,3.278,0,0,1-.911-.34l-.241.329a6.5,6.5,0,0,0,2.914,1.952,3.9,3.9,0,0,0,3.551-1.311,8.055,8.055,0,0,0,2.335-4.263,8.81,8.81,0,0,0-1.071-6.374A24.365,24.365,0,0,0,883.243,795.124Z" transform="translate(-876.752 -792.423)" fill="#fff"/>
        </g>
        <g id="Group_166" data-name="Group 166" transform="translate(72.274 59.226)">
          <path id="Path_57" data-name="Path 57" d="M923.187,773.656a2.4,2.4,0,0,0-.63,1.323,12.449,12.449,0,0,0,.005,1.977q.087,1.5.186,2.993a36.518,36.518,0,0,1-.1,5l.472.054a8.647,8.647,0,0,0,.973-2.963,41.252,41.252,0,0,0,.135-4.428q-.024-3.285.068-4.979A14.1,14.1,0,0,0,923.187,773.656Z" transform="translate(-922.521 -772.634)" fill="#fff"/>
        </g>
        <g id="Group_167" data-name="Group 167" transform="translate(76.454 62.103)">
          <path id="Path_58" data-name="Path 58" d="M940.932,782.981l-1.308,3.034q1.846.942,2.66,1.455,1.741,1.095,1.729,1.852-.017,1.026-4.624.951-.6-.01-1.231-.071l-.6,3.225a13.5,13.5,0,0,0,1.859.159,7.588,7.588,0,0,0,4.315-.932,3.294,3.294,0,0,0,1.2-2.894,7.049,7.049,0,0,0-1.718-4.842A12.4,12.4,0,0,0,940.932,782.981Z" transform="translate(-937.554 -782.981)" fill="#fff"/>
        </g>
        <g id="Group_168" data-name="Group 168" transform="translate(85.794 55.563)">
          <path id="Path_59" data-name="Path 59" d="M981.4,772.352a11.984,11.984,0,0,0-.812-1.675,9.562,9.562,0,0,0,.409-1.612q.107-.715.134-1.082.009-.208-.01-.627t-.075-.949q-.055-.53-.127-1.136t-.152-1.177a7.142,7.142,0,0,1-.114-1.734,3.106,3.106,0,0,1,.531-1.111,12.878,12.878,0,0,1-1.067-.913,6.908,6.908,0,0,1-.778-.875,2.919,2.919,0,0,0-.894,2.121,10.407,10.407,0,0,0,.624,1.675,8.051,8.051,0,0,1,.272.784q.135.455.248.938t.2.943q.091.461.139.8a8.923,8.923,0,0,1,.124,1.434q-.013.183-.025.606a3.835,3.835,0,0,1-.14.894,24.851,24.851,0,0,0-1.876-2.426q-1.027-1.171-2.064-2.192-.36-.351-.9-.827t-1.09-.884a11.321,11.321,0,0,0-1.023-.686,1.273,1.273,0,0,0-.7-.245c-.076.011-.178.133-.3.367a7.761,7.761,0,0,0-.374.8q-.182.454-.31.886a1.7,1.7,0,0,0-.1.623,3.356,3.356,0,0,0,1.542,1.935q1.2.87,1.452.833.369-.052.718-1.073a22.809,22.809,0,0,1,2.219,1.873,32.033,32.033,0,0,1,2.286,2.433,15.586,15.586,0,0,1-2.1,2.654l-.992.14.4,2.834,1.957-.274a4.977,4.977,0,0,0,2.691-.961,1.982,1.982,0,0,0,.437-1.785A6.451,6.451,0,0,0,981.4,772.352Zm-1.149.913a4.641,4.641,0,0,1-.883.175l-.623.088a7.613,7.613,0,0,0,1.165-1.577l.161.224a2.853,2.853,0,0,1,.452.727Q980.565,773.17,980.254,773.265Z" transform="translate(-971.143 -759.461)" fill="#fff"/>
        </g>
        <g id="Group_169" data-name="Group 169" transform="translate(90.527 73.584)">
          <path id="Path_60" data-name="Path 60" d="M988.943,826.077a1.451,1.451,0,0,1,.792-.539,2.144,2.144,0,0,1,1.089.275,1.814,1.814,0,0,0,.247-.915q-.1-.712-.761-.619-.979.137-1.861,1.79a.959.959,0,0,0-.138.59q.082.584.978.874a3.249,3.249,0,0,0-.852.573,1.217,1.217,0,0,0-.272.738l3.367-1.5a.516.516,0,0,0,.255-.4,2.9,2.9,0,0,0,.061-.489,4.421,4.421,0,0,1-.966.318A2.881,2.881,0,0,1,988.943,826.077Z" transform="translate(-988.164 -824.268)" fill="#fff"/>
        </g>
        <g id="Group_170" data-name="Group 170" transform="translate(98.541 57.163)">
          <path id="Path_61" data-name="Path 61" d="M1019.586,769.868q-1.238-3.042-1.782-4.65a14.039,14.039,0,0,0-.654,1.361,2.4,2.4,0,0,0-.1,1.462,12.437,12.437,0,0,0,.738,1.834q.635,1.357,1.281,2.711a36.607,36.607,0,0,1,1.764,4.682l.458-.125a8.65,8.65,0,0,0-.194-3.112A41.252,41.252,0,0,0,1019.586,769.868Z" transform="translate(-1016.982 -765.218)" fill="#fff"/>
        </g>
        <g id="Group_171" data-name="Group 171" transform="translate(108.186 51.919)">
          <path id="Path_62" data-name="Path 62" d="M1055.933,746.773l-1.951-.414-.2,1.765-1.912-.39-.2,1.961,2.1.37.087-1.595,1.89.286Z" transform="translate(-1051.669 -746.359)" fill="#fff"/>
        </g>
        <g id="Group_172" data-name="Group 172" transform="translate(122.736 62.177)">
          <path id="Path_63" data-name="Path 63" d="M1103.992,783.246l.007,1.985,2.054.207-.018-1.979Z" transform="translate(-1103.992 -783.246)" fill="#fff"/>
        </g>
        <g id="Group_173" data-name="Group 173" transform="translate(111.436 54.273)">
          <path id="Path_64" data-name="Path 64" d="M1072.361,756.106a13.735,13.735,0,0,0-1.568-1.283l-.056.033q.107,1.327.215,2.07a3.371,3.371,0,0,0,.2.9,1.307,1.307,0,0,0,.843.483q.655.146.781.355a.367.367,0,0,1-.03.4,2.192,2.192,0,0,1-.418.475,5.784,5.784,0,0,1-.665.5c-.248.163-1.178.769-1.467.945a5.029,5.029,0,0,1-.682.263,1.76,1.76,0,0,1-.641.074.968.968,0,0,1-.511-.2,2.054,2.054,0,0,1-.44-.5q-.062-.1-.177-.264c-.077-.11-.173-.251-.29-.423l-.418-.618q-.245-.36-.57-.859-.641-.973-1.126-1.687t-.84-1.184l-.058.028a3.788,3.788,0,0,0-.353,2.049,4.493,4.493,0,0,0,.427.621,5.777,5.777,0,0,1,.394.552,17.9,17.9,0,0,0-1.317,2.029,2.9,2.9,0,0,0-.233,1.409,6.643,6.643,0,0,0,.334,2.232,1.1,1.1,0,0,0,.979.555,2.309,2.309,0,0,0,1.237-.212q.879-.422,1.259-2.828a12.881,12.881,0,0,0,.839,1.092,4.509,4.509,0,0,0,.8.752,1.678,1.678,0,0,0,.863.268,2.591,2.591,0,0,0,1.222-.317c.094-.049.178-.1.261-.15v0c.3-.18,1.125-.67,1.419-.871a5.97,5.97,0,0,0,.8-.651,3.72,3.72,0,0,0,.6-.757,2.145,2.145,0,0,0,.291-.9,5.05,5.05,0,0,0-.861-3.089A6.365,6.365,0,0,0,1072.361,756.106Zm-6.056,5.561q-1.653.8-1.871.345-.233-.485,1.075-2.354a7.765,7.765,0,0,1,1.034,1.468Q1066.71,761.471,1066.305,761.666Z" transform="translate(-1063.358 -754.823)" fill="#fff"/>
        </g>
        <g id="Group_174" data-name="Group 174" transform="translate(121.503 41.933)">
          <path id="Path_65" data-name="Path 65" d="M1099.9,714.321l2.126-.151-.354-1.55,1.918-.177-.345-2-2,.079.279,1.8-1.962.047Z" transform="translate(-1099.557 -710.447)" fill="#fff"/>
        </g>
        <g id="Group_175" data-name="Group 175" transform="translate(119.505 44.987)">
          <path id="Path_66" data-name="Path 66" d="M1105.157,724.877a13.618,13.618,0,0,0-1.7-1.7,9.869,9.869,0,0,0-1.839-1.209q-1.951-.954-2.824-.217a1.508,1.508,0,0,0-.565,1.16,4.91,4.91,0,0,0,.386,1.767q.281.771.575,1.414a4.641,4.641,0,0,0,.665,1.084,2.467,2.467,0,0,0,.548.478,2.05,2.05,0,0,0,.669.283,1.7,1.7,0,0,0,.718.005,1.587,1.587,0,0,0,.71-.365,2.489,2.489,0,0,0,.864-1.185,2.018,2.018,0,0,0,.047-.688,5.223,5.223,0,0,0-.155-.869,10.591,10.591,0,0,1,1.408.809.725.725,0,0,1,.074.753,3.961,3.961,0,0,1-.626,1.059,12.3,12.3,0,0,1-1.167,1.273c-.461.445-1.719,1.436-2.294,1.919a3.793,3.793,0,0,1-.682.362,1.579,1.579,0,0,1-.732.107,1.306,1.306,0,0,1-.62-.246,3.283,3.283,0,0,1-.577-.552q-.374-.443-1.051-1.238t-1.674-1.945q-2.1-2.4-2.809-3.124-.137,1.211-.132,1.552a1.953,1.953,0,0,0,.344,1.092,10.883,10.883,0,0,0,1.166,1.189q.616.587,1.385,1.458t1.767,2.021q.745.858,1.324,1.47a4.935,4.935,0,0,0,1.031.875,1.966,1.966,0,0,0,.532.222,1.541,1.541,0,0,0,.567.025,2.292,2.292,0,0,0,.653-.2,4.879,4.879,0,0,0,.76-.448,2.666,2.666,0,0,0,.317-.266,26.751,26.751,0,0,0,2.436-2.164,7.034,7.034,0,0,0,1.247-1.973,3.789,3.789,0,0,0,.252-1.987A4.032,4.032,0,0,0,1105.157,724.877Zm-4.22.377a1,1,0,0,1-.684.285.744.744,0,0,1-.556-.278.462.462,0,0,1-.1-.218.877.877,0,0,1-.009-.279.994.994,0,0,1,.074-.28.571.571,0,0,1,.153-.215,1.868,1.868,0,0,1,1.494-.222A1.426,1.426,0,0,1,1100.937,725.254Z" transform="translate(-1092.376 -721.431)" fill="#fff"/>
        </g>
        <g id="Group_176" data-name="Group 176" transform="translate(131.146 33.446)">
          <path id="Path_67" data-name="Path 67" d="M1143.514,693.064l.318-.318a3.346,3.346,0,0,0,.442-.535h0c.222-.272.6-.773.793-1.036a5.2,5.2,0,0,0,.485-.8,2.853,2.853,0,0,0,.26-.815,2.234,2.234,0,0,0-.046-.867,4.955,4.955,0,0,0-1.786-2.52,28.219,28.219,0,0,0-3.28-2.132,30.317,30.317,0,0,1-2.922-1.841,2.8,2.8,0,0,1-.957-2.074,9.365,9.365,0,0,1-2.584-.2,5.015,5.015,0,0,0,.231,1.564,2.47,2.47,0,0,0,.764.972,13.522,13.522,0,0,0,1.35.9q.963.587,2.527,1.451a32.7,32.7,0,0,1,3.926,2.4,1.238,1.238,0,0,1,.419.541,1.04,1.04,0,0,1,.026.568,1.846,1.846,0,0,1-.272.607c-.137.208-.673,1.043-.857,1.269a3.648,3.648,0,0,1-.658.54,1.684,1.684,0,0,1-.608.236,1.9,1.9,0,0,1-.649-.013,6.73,6.73,0,0,1-.8-.208l-.045.045.536,2.641a4.918,4.918,0,0,0,.876.313,9.343,9.343,0,0,0,1.229.231q.581.073,1.253.109.964,5.263-1.1,7.334a7.808,7.808,0,0,1-1.007.772l.109.381q.708-.164,1.184-.286a7.412,7.412,0,0,0,.74-.222,4.59,4.59,0,0,0,1.651-1.053,3.464,3.464,0,0,0,.779-3.3A11.428,11.428,0,0,0,1143.514,693.064Z" transform="translate(-1134.237 -679.927)" fill="#fff"/>
        </g>
        <g id="Group_177" data-name="Group 177" transform="translate(136.248 30.934)">
          <path id="Path_68" data-name="Path 68" d="M1160.737,675.592a41.567,41.567,0,0,0-3.82-2.246q-2.892-1.557-4.334-2.452a14.059,14.059,0,0,0,.362,1.467,2.4,2.4,0,0,0,.857,1.188,12.478,12.478,0,0,0,1.737.945q1.353.643,2.714,1.275a36.555,36.555,0,0,1,4.34,2.489l.274-.388A8.667,8.667,0,0,0,1160.737,675.592Z" transform="translate(-1152.584 -670.893)" fill="#fff"/>
        </g>
        <g id="Group_178" data-name="Group 178" transform="translate(140.756 18.871)">
          <path id="Path_69" data-name="Path 69" d="M1169.892,632.477l1.858-1.05-.946-1.286,1.641-.98-1.118-1.648-1.77.921.964,1.493-1.724.913Z" transform="translate(-1168.797 -627.512)" fill="#fff"/>
        </g>
        <g id="Group_179" data-name="Group 179" transform="translate(147.572 14.678)">
          <path id="Path_70" data-name="Path 70" d="M1194.637,615.739q.52.184,1.169-.459a2.334,2.334,0,0,0,.123.887,2.122,2.122,0,0,0,.529.663l.14-3.217a1.729,1.729,0,0,0-.061-.716,1.432,1.432,0,0,0-.56-.456,2.089,2.089,0,0,1-.148,1.077,3.279,3.279,0,0,1-1.465,1.376,1.127,1.127,0,0,1-.154-.952,2.186,2.186,0,0,1,.765-.819,2.266,2.266,0,0,0-.769-.638.585.585,0,0,0-.831.429,1.941,1.941,0,0,0,.226,1.481Q1194.189,615.582,1194.637,615.739Z" transform="translate(-1193.306 -612.432)" fill="#fff"/>
        </g>
        <g id="Group_180" data-name="Group 180" transform="translate(159.386 11.366)">
          <path id="Path_71" data-name="Path 71" d="M1239.117,601.954l-1.384-1.432-1.6,1.208,1.23,1.311-1.571,1.162,1.37,1.388,1.668-1.322-1.188-1.074Z" transform="translate(-1235.794 -600.522)" fill="#fff"/>
        </g>
        <g id="Group_181" data-name="Group 181" transform="translate(145.076)">
          <path id="Path_72" data-name="Path 72" d="M1198.826,568.685a4.107,4.107,0,0,0-.114-1.076,5.055,5.055,0,0,0-.41-1.089,12.164,12.164,0,0,0-.77-1.287,12.71,12.71,0,0,0,1.97-3.606q.091-.6-.731-1.164a4.843,4.843,0,0,0-2.065-.759,5.891,5.891,0,0,0-4.556,1.43,5.109,5.109,0,0,0-2.192,2.858,1.253,1.253,0,0,0,.38,1.162,5.749,5.749,0,0,0,1.853.96,1.775,1.775,0,0,1,.007-.635,2.659,2.659,0,0,1,.221-.68l1.216,1.3a3.562,3.562,0,0,0,.811.677,2.085,2.085,0,0,0,.705.271,1.463,1.463,0,0,0,.911-.185,2.4,2.4,0,0,1,.068.828c-.023.317-.26,1.251-.315,1.615l.012.007a.938.938,0,0,0-.058.124,3.093,3.093,0,0,1-.385.92,1.6,1.6,0,0,1-1.19.751,3.338,3.338,0,0,1-.758,0l-.089.135a5.817,5.817,0,0,1,.695.83,2.967,2.967,0,0,1,.386.794,2.533,2.533,0,0,1,.105.825,11.145,11.145,0,0,1-.3,1.491,4.073,4.073,0,0,1-.363.8,1.416,1.416,0,0,1-.417.452,1.1,1.1,0,0,1-.531.174,2.765,2.765,0,0,1-.7-.048l-.1.128a4.172,4.172,0,0,1,.487.763,2.718,2.718,0,0,1,.232.674,2.556,2.556,0,0,1-.061.985c-.087.373-.408,1.464-.551,1.872a5.214,5.214,0,0,1-.4.722,1.761,1.761,0,0,1-.448.464.965.965,0,0,1-.523.168,2.056,2.056,0,0,1-.658-.107q-.111-.037-.3-.091c-.129-.036-.293-.084-.492-.143l-.716-.211q-.417-.123-.985-.3-1.113-.346-1.941-.587t-1.4-.38l-.027.058q.623,1.618,1.031,1.807a4.529,4.529,0,0,0,.724.208,5.672,5.672,0,0,1,.654.175,17.885,17.885,0,0,0,.274,2.4,2.9,2.9,0,0,0,.715,1.236,6.626,6.626,0,0,0,1.677,1.511,1.094,1.094,0,0,0,1.108-.194,2.317,2.317,0,0,0,.821-.949q.41-.885-.825-2.985a12.809,12.809,0,0,0,1.342.31,4.515,4.515,0,0,0,1.1.07,1.681,1.681,0,0,0,.837-.341,2.593,2.593,0,0,0,.741-1.022c.054-.127.1-.248.138-.365h0c.117-.331.417-1.143.489-1.44a2.936,2.936,0,0,0,.083-.875,2.469,2.469,0,0,0-.2-.84,3.133,3.133,0,0,0-.578-.85l.012-.036a2.319,2.319,0,0,0,1.381-.4,2.3,2.3,0,0,0,.809-1.138c.01-.029.016-.057.025-.086l0,0a13.571,13.571,0,0,0,.406-1.7,2.763,2.763,0,0,0-.511-1.717,5.22,5.22,0,0,0-.709-.8l.01-.037a5.5,5.5,0,0,0,.8-.132,2.837,2.837,0,0,0,.719-.28,1.941,1.941,0,0,0,.566-.48,1.91,1.91,0,0,0,.351-.717c.019-.072.03-.142.044-.212l0,0A9.635,9.635,0,0,0,1198.826,568.685Zm-9.208,15.385q-.771,1.666-1.225,1.456-.489-.226-.667-2.5a7.736,7.736,0,0,1,1.731.476Q1189.807,583.662,1189.619,584.07Zm4.8-18.25a.941.941,0,0,1-.62-.524,1.529,1.529,0,0,1-.2-1.044.93.93,0,0,1,.149-.379,1.138,1.138,0,0,1,.644-.472.934.934,0,0,1,.407-.029q.647.1.818,1.269Q1194.95,565.9,1194.417,565.819Zm.1-3.451a7.114,7.114,0,0,1,1.451-1.245,2.054,2.054,0,0,1,1.152-.485c.144.022.2.139.167.35a11.015,11.015,0,0,1-1.018,2.4A4.5,4.5,0,0,0,1194.519,562.368Z" transform="translate(-1184.333 -559.648)" fill="#fff"/>
        </g>
      </g>
    </g>
  </g>
</svg>
