<svg xmlns="http://www.w3.org/2000/svg" width="14.729" height="17.58" viewBox="0 0 14.729 17.58">
  <g id="location" transform="translate(14940.442 -8139.479)">
    <path id="Path_3544" data-name="Path 3544" d="M1055.79,7160.473a1.465,1.465,0,1,1,1.465-1.464A1.465,1.465,0,0,1,1055.79,7160.473Zm0-4.394a2.93,2.93,0,1,0,2.93,2.93A2.929,2.929,0,0,0,1055.79,7156.079Z" transform="translate(-15988.868 987.796)" fill="#808184"/>
    <path id="Path_3545" data-name="Path 3545" d="M1055.791,7153.282a5.774,5.774,0,0,0-5.768,5.767c0,1.472,1.387,4.2,3.9,7.665a2.3,2.3,0,0,0,3.728,0c2.516-3.47,3.9-6.193,3.9-7.665a5.774,5.774,0,0,0-5.767-5.767Zm0,15.981a3.863,3.863,0,0,1-3.158-1.612c-2.791-3.85-4.207-6.745-4.207-8.6a7.365,7.365,0,0,1,14.729,0c0,1.859-1.416,4.754-4.207,8.6a3.863,3.863,0,0,1-3.157,1.612Z" transform="translate(-15988.868 987.796)" fill="#808184"/>
  </g>
</svg>
