<svg xmlns="http://www.w3.org/2000/svg" width="20.514" height="20.518" viewBox="0 0 20.514 20.518">
  <g id="time" transform="translate(14730.665 -8130.731)">
    <path id="Path_3540" data-name="Path 3540" d="M1260.767,7154.049a7.693,7.693,0,1,1,7.693,7.693,7.694,7.694,0,0,1-7.693-7.693Zm8.548-9.358v-.9a.855.855,0,0,0-1.71,0v.9a9.385,9.385,0,0,0-6.256,15.492,2.582,2.582,0,0,0-1.436,2.413.854.854,0,1,0,1.709,0,1.026,1.026,0,0,1,.949-1.05.776.776,0,0,0,.171-.053,9.338,9.338,0,0,0,11.445,0,.924.924,0,0,0,.155.055,1.026,1.026,0,0,1,.956,1.048.855.855,0,0,0,1.71,0,2.585,2.585,0,0,0-1.437-2.413,9.385,9.385,0,0,0-6.256-15.492Z" transform="translate(-15988.868 987.796)" fill="#808184"/>
    <path id="Path_3541" data-name="Path 3541" d="M1274.627,7142.938a.854.854,0,1,0,0,1.709,2.212,2.212,0,0,1,2.38,2.137.855.855,0,0,0,1.71,0,3.931,3.931,0,0,0-4.09-3.846Z" transform="translate(-15988.868 987.796)" fill="#808184"/>
    <path id="Path_3542" data-name="Path 3542" d="M1259.912,7146.784a2.214,2.214,0,0,1,2.381-2.137.854.854,0,1,0,0-1.709,3.93,3.93,0,0,0-4.09,3.846.854.854,0,1,0,1.709,0Z" transform="translate(-15988.868 987.796)" fill="#808184"/>
    <path id="Path_3543" data-name="Path 3543" d="M1269.315,7152.84v-3.92a.855.855,0,0,0-1.71,0v4.274a.85.85,0,0,0,.251.6l2.564,2.565a.855.855,0,0,0,1.209-1.209Z" transform="translate(-15988.868 987.796)" fill="#808184"/>
  </g>
</svg>
