<svg id="Layer_1" data-name="Layer 1" xmlns="http://www.w3.org/2000/svg" xmlns:xlink="http://www.w3.org/1999/xlink" viewBox="0 0 406 344.52"><defs><style>.cls-1{fill:none;}.cls-2{clip-path:url(#clip-path);}.cls-3{fill:#3f8bd7;}.cls-4{clip-path:url(#clip-path-2);}</style><clipPath id="clip-path" transform="translate(0)"><rect class="cls-1" y="13.34" width="258.06" height="331.17"/></clipPath><clipPath id="clip-path-2" transform="translate(0)"><rect class="cls-1" x="147.94" y="13.34" width="258.06" height="331.17"/></clipPath></defs><g id="surface1"><g class="cls-2"><path class="cls-3" d="M96,13.92c-10.58,9.28-17.63,21.23-25.76,32-6.75,8.93-16,14.46-24,22,4.3-8.93,5.1-19.17,10.56-27.81C66.15,25.27,81.6,19.53,96,13.92ZM38.15,46.24c5.5-6.1,11.67-10.85,19-12.73-14.25,9.8-13.48,27.32-17.84,42-1.6,5.36-3.94,10.37-5.19,15.91l.36.29A47,47,0,0,1,46.23,74.4c10-9.46,25.1-15.19,30.06-29C76.06,64.6,59.67,79.22,44.71,90.52a54.51,54.51,0,0,0-15.9,19,71.14,71.14,0,0,0,.37-14.92C27.64,77.83,26.64,59,38.15,46.24ZM9.32,103.63c0-17,6.63-30.89,16.56-43.56.29-.14.49-.43.87-.36-10.94,16.64-1,37.64-2.39,56.51l-1.44,19.37c.21.14.21.73.72.51a57.88,57.88,0,0,0,1.22-6.69c2.63-15.62,16.34-26.49,28-37.52a24.62,24.62,0,0,0,6.06-9,72.11,72.11,0,0,1-6.62,22.82c-9,18.12-26.24,32.75-29.35,53.35C21.41,139.32,9.32,124.65,9.32,103.63ZM1,127.82C2.27,122.5,3.21,117,5.52,112.11,1.14,134.6,16.09,150.83,21.2,170.29c1.92,7.33,2.58,15.11,5.55,22,.28.14.52-.14.68-.37-7.37-20.7,3.44-39.83,14-56.15,2.77-4.28,4.1-9.28,5.4-14.33,1.14,9.37-.86,20.22-2.59,29.89-2.23,12.45-6.49,24.12-9.87,36.13-2.23,7.5-1.64,16-.5,23.84l-1.07-.86c-7.85-14.49-23.33-25.8-28-41.61C1,156.16-1.54,141.56,1,127.82ZM.33,171.73c1.73,23.83,27.1,36.56,39.21,56.15,2.58,4.19,5.24,8.51,9,11.89-.58-2.54-2.67-4.79-3.82-7.28A54.63,54.63,0,0,1,40,204.36c1.18-12.17,6.25-23.48,4.31-36.28,10.42,22.51,7.06,50.65,13.09,75,1.33,5.38,4.61,10.09,6.63,15.19-10.25-7.79-23.67-14.71-34.92-23.58C18.27,226.11,8.83,216.06,3.92,203,.39,193.57-.53,182.33.33,171.73Zm12.81,54.73c11.94,27,42,29.17,61.92,45.76a55.2,55.2,0,0,0,11.73,8L87,280a87.27,87.27,0,0,1-13.16-14.32c-11.4-16.58-7.61-39.23-16.4-56.81,8,9.57,15.48,19.43,20.08,30.38,7.41,17.63,9.92,37.74,26.53,51.14-18-5.93-38.71-4.75-54.89-15.35C32.14,263.91,16.38,246.32,13.14,226.46Zm30.7,50.46c19.15,21.81,50.4,14.79,76,20.24,3.55.75,6.9,1.93,10.72,1.35-3-1.93-7.07-2.14-10.59-3.47-19.83-7.47-22.93-28.71-33.79-43.32,13.87,9.22,25.36,21.84,38.33,33.71,9,8.25,20.27,11.78,31.93,14.16-2.8,1-6.46.78-9.48,1.53-21,5.2-44.18,13.4-66.47,6C66.08,302.41,51.11,291.17,43.84,276.92ZM257.66,337a66.47,66.47,0,0,1-8.24,7.5c-18.49-19.11-40.2-40.29-60.83-40.29-12.79,0-22,9.74-32.76,16.61-14.91,9.53-35.37,14.91-52.91,7.91-9.43-3.59-18.57-8.86-25.4-17.43,13.8,9.52,34.47,10.8,50.05,4.33C144.79,308.51,162.32,299,182,299c28.93,0,56.43,19.58,75.71,38" transform="translate(0)"/></g><g class="cls-4"><path class="cls-3" d="M310,13.92c10.58,9.28,17.63,21.23,25.76,32,6.76,8.93,16,14.46,24,22-4.3-8.93-5.09-19.17-10.56-27.81C339.85,25.27,324.4,19.53,310,13.92Zm57.85,32.32c-5.5-6.1-11.67-10.85-19-12.73,14.25,9.8,13.48,27.32,17.84,42,1.6,5.36,3.94,10.37,5.19,15.91l-.36.29A47,47,0,0,0,359.77,74.4c-10-9.46-25.1-15.19-30.06-29,.23,19.22,16.62,33.84,31.58,45.14a54.51,54.51,0,0,1,15.9,19,71.14,71.14,0,0,1-.37-14.92C378.36,77.83,379.36,59,367.85,46.24Zm28.83,57.39c0-17-6.63-30.89-16.56-43.56-.29-.14-.49-.43-.87-.36,10.94,16.64,1,37.64,2.39,56.51l1.44,19.37c-.21.14-.21.73-.72.51a57.88,57.88,0,0,1-1.22-6.69c-2.63-15.62-16.34-26.49-28-37.52a24.62,24.62,0,0,1-6.06-9,72.11,72.11,0,0,0,6.62,22.82c8.95,18.12,26.24,32.75,29.35,53.35C384.59,139.32,396.68,124.65,396.68,103.63ZM405,127.82c-1.23-5.32-2.17-10.83-4.48-15.71,4.38,22.49-10.57,38.72-15.68,58.18-1.92,7.33-2.58,15.11-5.55,22-.28.14-.52-.14-.68-.37,7.37-20.7-3.44-39.83-14-56.15-2.77-4.28-4.1-9.28-5.39-14.33-1.15,9.37.85,20.22,2.58,29.89,2.23,12.45,6.49,24.12,9.87,36.13,2.23,7.5,1.64,16,.5,23.84l1.07-.86c7.85-14.49,23.33-25.8,28-41.61C405,156.16,407.54,141.56,405,127.82Zm.71,43.91c-1.73,23.83-27.1,36.56-39.21,56.15-2.58,4.19-5.24,8.51-9,11.89.58-2.54,2.67-4.79,3.82-7.28A54.63,54.63,0,0,0,366,204.36c-1.18-12.17-6.25-23.48-4.31-36.28-10.42,22.51-7.06,50.65-13.09,75-1.33,5.38-4.61,10.09-6.63,15.19,10.25-7.79,23.67-14.71,34.92-23.58,10.88-8.57,20.32-18.62,25.23-31.69C405.61,193.57,406.53,182.33,405.67,171.73Zm-12.81,54.73c-11.94,27-42,29.17-61.92,45.76a55.2,55.2,0,0,1-11.73,8L319,280a87.27,87.27,0,0,0,13.16-14.32c11.4-16.58,7.61-39.23,16.4-56.81-8,9.57-15.48,19.43-20.08,30.38C321.07,256.89,318.56,277,302,290.4c18-5.93,38.71-4.75,54.89-15.35C373.86,263.91,389.62,246.32,392.86,226.46Zm-30.7,50.46c-19.15,21.81-50.4,14.79-76,20.24-3.56.75-6.91,1.93-10.73,1.35,3-1.93,7.07-2.14,10.59-3.47,19.83-7.47,22.93-28.71,33.79-43.32-13.87,9.22-25.36,21.84-38.33,33.71-9,8.25-20.27,11.78-31.93,14.16,2.8,1,6.46.78,9.48,1.53,20.95,5.2,44.17,13.4,66.47,6C339.93,302.41,354.89,291.17,362.16,276.92ZM148.34,337a66.47,66.47,0,0,0,8.24,7.5c18.49-19.11,40.2-40.29,60.83-40.29,12.79,0,22,9.74,32.76,16.61,14.91,9.53,35.37,14.91,52.91,7.91,9.43-3.59,18.57-8.86,25.4-17.43-13.8,9.52-34.47,10.8-50.05,4.33C261.21,308.51,243.68,299,224.05,299c-28.93,0-56.43,19.58-75.71,38" transform="translate(0)"/></g><path class="cls-3" d="M332.19,206.09l-3.12-1.7a140.79,140.79,0,0,1-25.89,36.84L284.93,223a114.35,114.35,0,0,0,21.46-31l-3.11-1.7a111.11,111.11,0,0,1-20.83,30.2L265.92,204a87.49,87.49,0,0,0,16.79-24.89l-3.09-1.69a84,84,0,0,1-16.18,24.11l-18.27-18.27a57.7,57.7,0,0,0,11.67-18.28l-3.08-1.69a54.78,54.78,0,0,1-11,17.51l-16.59-16.58a30.77,30.77,0,0,0,7.86-19h23.47a54.25,54.25,0,0,1-3.69,18l3.08,1.69a57.65,57.65,0,0,0,4.07-19.72h25.88a83.42,83.42,0,0,1-7.17,32.16l3.09,1.69a86.89,86.89,0,0,0,7.53-33.85h23.43a110.12,110.12,0,0,1-10.39,45.08l3.11,1.7a113.8,113.8,0,0,0,10.75-46.78H343a139.3,139.3,0,0,1-13.94,59.17l3.12,1.7a144.09,144.09,0,0,0,3.9-116.42l-3.2,1.38A139.64,139.64,0,0,1,343,141.76H317.14a114,114,0,0,0-8-40.48l-3.19,1.36a110.38,110.38,0,0,1,7.77,39.12H290.24a87.17,87.17,0,0,0-5.87-29.86l-3.18,1.37a83.67,83.67,0,0,1,5.6,28.49H260.91a57.69,57.69,0,0,0-3.51-18.27l-3.18,1.37a54.31,54.31,0,0,1,3.23,16.9H234a30.81,30.81,0,0,0-7.85-18.95l16.6-16.6a54.16,54.16,0,0,1,11.49,18.65l3.18-1.37a57.65,57.65,0,0,0-12.23-19.73l18.3-18.29a83.36,83.36,0,0,1,17.72,27.8l3.18-1.37A87,87,0,0,0,265.92,83l16.56-16.57a110.28,110.28,0,0,1,23.43,36.19l3.19-1.36A113.7,113.7,0,0,0,284.93,64l18.3-18.3a139.69,139.69,0,0,1,29.66,45.34l3.2-1.38a144.17,144.17,0,0,0-79.47-79.35l-1.28,3.25a139.42,139.42,0,0,1,45.44,29.7l-18.3,18.29a113.91,113.91,0,0,0-36.59-23.87l-1.26,3.21A110.44,110.44,0,0,1,280,64L263.47,80.6a87.1,87.1,0,0,0-27.41-17.88l-1.26,3.22A83.74,83.74,0,0,1,261,83.05l-18.3,18.3A57.85,57.85,0,0,0,225.34,90l-1.27,3.23a54.17,54.17,0,0,1,16.21,10.53l-16.59,16.6a30.77,30.77,0,0,0-19-7.84V89.07a54.1,54.1,0,0,1,19.34,4.19L225.34,90a57.93,57.93,0,0,0-20.61-4.42V59.73a83.52,83.52,0,0,1,30.07,6.21l1.26-3.22a87.08,87.08,0,0,0-31.33-6.44V32.84a110.26,110.26,0,0,1,39.9,8.06l1.26-3.22a113.78,113.78,0,0,0-41.16-8.3V3.5a139.7,139.7,0,0,1,50.61,10.08l1.28-3.24A143.54,143.54,0,0,0,138.8,15.22l1.58,3A139.07,139.07,0,0,1,201.28,3.5V29.38a113.28,113.28,0,0,0-48.87,11.85l1.56,3a110,110,0,0,1,47.31-11.41V56.26a86.76,86.76,0,0,0-36.42,8.79l1.59,3a83.37,83.37,0,0,1,34.83-8.35V85.6A57.59,57.59,0,0,0,178.46,91l1.59,3a54.28,54.28,0,0,1,21.23-5v23.48A30.83,30.83,0,0,0,191,114.92l1.59,3a27.63,27.63,0,1,1-9.07,6,27.49,27.49,0,0,1,9.07-6l-1.59-3a30.77,30.77,0,0,0-8.63,5.47l-16.61-16.61a54.36,54.36,0,0,1,14.33-9.71l-1.59-3a58.06,58.06,0,0,0-15.17,10.32L145,83a83.92,83.92,0,0,1,21.47-15l-1.59-3a87.45,87.45,0,0,0-22.3,15.57L126,64a110.93,110.93,0,0,1,28-19.78l-1.57-3a114.53,114.53,0,0,0-28.85,20.39L105.22,43.28a140,140,0,0,1,35.15-25l-1.58-3a144.39,144.39,0,0,0-64.54,65l3,1.62a140.13,140.13,0,0,1,25.51-36.09l18.34,18.33a114.31,114.31,0,0,0-21,30.1l3,1.61a110.84,110.84,0,0,1,20.44-29.3l16.59,16.6A87.51,87.51,0,0,0,123.79,107l3,1.62a83.46,83.46,0,0,1,15.74-23.1l18.31,18.32a58.27,58.27,0,0,0-11.2,17.13l3,1.64a54.16,54.16,0,0,1,10.6-16.34l16.61,16.6a30.91,30.91,0,0,0-7.86,19H148.54a54.3,54.3,0,0,1,4.13-19.21l-3-1.64a57.71,57.71,0,0,0-4.55,20.85H119.21a83.38,83.38,0,0,1,7.58-33.2l-3-1.62a86.56,86.56,0,0,0-8,34.82H92.32a110.26,110.26,0,0,1,10.76-46l-3-1.62a113.41,113.41,0,0,0-11.22,47.63H63a139.3,139.3,0,0,1,14.26-60l-3-1.62a142.53,142.53,0,0,0-14.76,63.31A144.08,144.08,0,0,0,65.26,184l3.39-.86A140.29,140.29,0,0,1,63,145.24H88.86a114.6,114.6,0,0,0,4.9,31.54l3.36-.85a110.43,110.43,0,0,1-4.8-30.69h23.43a87.63,87.63,0,0,0,4.14,25l3.36-.85a84,84,0,0,1-4-24.11h25.88A58,58,0,0,0,148.42,163l3.36-.84a54.85,54.85,0,0,1-3.24-16.93H172a30.79,30.79,0,0,0,7.85,18.95l-16.6,16.6a54.22,54.22,0,0,1-11.49-18.62l-3.36.84a57.39,57.39,0,0,0,12.41,20.22l-18.3,18.31a83.47,83.47,0,0,1-19.27-32.18l-3.36.84A86.67,86.67,0,0,0,140.09,204l-16.57,16.56a110.06,110.06,0,0,1-26.4-44.61l-3.35.85A113.49,113.49,0,0,0,121.08,223l-18.3,18.3a139.34,139.34,0,0,1-34.12-58.19l-3.39.85a144.14,144.14,0,0,0,75.85,89.1l1.71-3a140.18,140.18,0,0,1-37.61-26.28l18.3-18.29a114.07,114.07,0,0,0,32.08,22l1.71-3A110.63,110.63,0,0,1,126,223l16.57-16.57a87,87,0,0,0,26.33,17.43l1.71-3A83.84,83.84,0,0,1,145,204l18.3-18.3a57.61,57.61,0,0,0,20.14,12.38l1.73-3.06a54.37,54.37,0,0,1-19.43-11.76l16.6-16.61a30.77,30.77,0,0,0,19,7.86V198a54.6,54.6,0,0,1-16.13-3l-1.73,3.06a57.92,57.92,0,0,0,17.86,3.36v25.87a83.29,83.29,0,0,1-30.7-6.46l-1.71,3a86.79,86.79,0,0,0,32.41,6.9v23.44a110.29,110.29,0,0,1-44-9.83l-1.71,3a113.55,113.55,0,0,0,45.68,10.25v25.88A139.54,139.54,0,0,1,142.84,270l-1.71,3.05a144,144,0,0,0,126.55-1.4l-1.63-3.17a139.22,139.22,0,0,1-61.31,15V257.66a113.63,113.63,0,0,0,49.48-12.08l-1.62-3.13a110,110,0,0,1-47.86,11.76V230.77a86.57,86.57,0,0,0,37.15-9.1l-1.61-3.11a83.2,83.2,0,0,1-35.54,8.75V201.44a57.37,57.37,0,0,0,23.7-5.84l-1.59-3.09A54.18,54.18,0,0,1,204.74,198V174.51a30.79,30.79,0,0,0,19-7.86l16.58,16.59a54.79,54.79,0,0,1-13.43,9.27l1.59,3.09a57.66,57.66,0,0,0,14.3-9.9L261,204a84.06,84.06,0,0,1-20.73,14.59l1.61,3.11a87.11,87.11,0,0,0,21.59-15.22L280,223a111,111,0,0,1-27.42,19.48l1.62,3.13a114.18,114.18,0,0,0,28.28-20.12l18.25,18.25a140.66,140.66,0,0,1-34.7,24.8l1.63,3.17a144.37,144.37,0,0,0,64.53-65.56l0,0" transform="translate(0)"/><path class="cls-3" d="M211.22,110.28l-.87,0,0,1,.87,0,0-1" transform="translate(0)"/><path class="cls-3" d="M209.08,108.9h1.15v.88h-1.15v-.88" transform="translate(0)"/><path class="cls-3" d="M207,108.59l1,.15.12-.87-1-.14-.12.86" transform="translate(0)"/><path class="cls-3" d="M206.14,108.3l-1-.15.13-.88,1,.15-.12.88" transform="translate(0)"/><path class="cls-3" d="M197.79,107.13H199V108h-1.16v-.88" transform="translate(0)"/><path class="cls-3" d="M195.27,108.89l1,.14.12-.87-1-.14-.12.87" transform="translate(0)"/><path class="cls-3" d="M195.37,110.22l-1.16-.29.22-.86,1.16.29-.22.86" transform="translate(0)"/><path class="cls-3" d="M193.3,111.3l-.14-.88.86-.14.14.88-.86.14" transform="translate(0)"/><path class="cls-3" d="M79.67,201.45v1.91h.87l-.15-2.2-1.16-.45V200h-.72v1.47h1.16" transform="translate(0)"/><path class="cls-3" d="M85.74,206.74l2.17,1,.73,2.06,1,.74,1,2.2-.58,1-1.59-1.47-1.16-1.61-.58-1.33-1-2.64" transform="translate(0)"/><path class="cls-3" d="M122.37,252l.72,1.91-1,.59-.58-.88-1.45-.45-.14-1.32-1.16-1.77,1.74.3,1.88,1.62" transform="translate(0)"/><path class="cls-3" d="M198.52,119.77h-1.6l-.29-3.24.87-.59v-1.61h-5.06l-.15-1.62.73-.44-1.17-.44L191,113l-.29,1.32-1.45.3v.73h-1v1.91l-4.05,3.38-8.11-.3c-.58,1.32-2-.14-2-.14-.29-.89-2.31,0-2.31,0,0,1.61-2.75-.74-2.75-.74l-5.07-3.67c-2.9-2.65-7.24.73-7.38,1.47.14,2-3.33.44-3.33.44s-2.9-.88-3.33.29-2.32.88-2.32.88l-.29.59-1.45.3-.29.88-1.74.29,4.35-.14c1.16-.15-.44,2.49-1.16,2.35l-2,.14-.72.73h-1.88l-.87,1.18-2.75-.15s-1.59,1.33-1.44,1.77-.3,1.76-.73,1.76-1.3,1.32-1,1.76-.86,1.91-.86,1.91l-.29,1.48-.87.29v4l-1.74,1.17v1.76l-2.61,2.79.29,2.35-2.16,2.36.28,2.35-1.3.44-.29,1-.57,3.08,1.44.15c.72-.3.58,1.91,0,2.2s-2.17.88-1.3,1.47-2.32.44-2.32-.44-1.74-1.62-2.17-1.32-1.16-1.32-1.16-1.32c-1.59-1.62-6.51.14-6.51.14l-.73,2.35c-1.59.3-2.6,2.94-2.6,2.94-1.31.44-2.32,2.06-1.88,2.5s-.73.59-.73.59v3.23l-.72,1,.14,3.53c.87,0,.73,1.62.73,1.62-1.45.15-1.16,2.05-1.16,2.05l-3,1-.58.89-3.76-.15-1,1-1-1H89.8l-.29-.74-1.44-.29-.15-1.62-2.17.15-.44.88-2.32.15c.15,1.47-2.31,3.67-2.6,3.09s-1.88-2.21-1.16-2.5a17.29,17.29,0,0,1,2.61-.59v-1l-5.35-.15-.58.88-2.18.15v2.35l-1,.3c-.73.43.14,2,.14,2,1,1-.14,2.65-.14,2.65-.87.88.72,2.49.72,2.49,1.16.3-.72,1.18-.72,1.18a2.66,2.66,0,0,0,1.16,1.91,1.49,1.49,0,0,0,.58,2.2l.14,2.5,1,.59V196l.57,1h2.32l-.14-3.67c-2-2.35,1.73-2.94,1.88-2.06S82,192.63,82,192.63c.29,2.21,2.75,3.53,3.47,1.33s1.3-.88,1.74.14,3.18,3.53,3.18,3.53h2.17l.29,2.06c2.46-.15,3.19.15,4.2,3.52a6.37,6.37,0,0,0,3.76,4.26l2-.15c0-1.76,2,.3,2,1.19s3.9,4.25,3.9,4.25l3.91.88,3.62,2.94,2.76-.29h1.15c.73-2.5,4.2.14,4.49,1s2.61,2.35,2.89,1.61,1.88-.29,2.18,1.91,1.29,1.77,1.29,1.77l8.26-.15,2.89-2.5,7.39-.14c3.76-.15,1.44-5.3.72-5.3-1.3-1,.44-5.28.44-5.28l-10.57-9.85c-2.46,0-.29-3.52-.29-3.52,1.88-1.18-.44-3.09-.44-3.09a6.61,6.61,0,0,0-1-3.82c-2.61-1.76-1.88-5.14-1.88-5.14v-2.35c-2.17-2.06.87-2.35.87-2.35a2.45,2.45,0,0,0-.73-3.09l-.14-1.91-2.32-.29-.29-6.91-5.21-7.49c-1-.3-.29-2.06-.29-2.06,1.31-.73-.29-2.49-.29-2.49l-.14-3.23,3-.3.73-1.18h1.45l-.15-3.82a1.63,1.63,0,0,1,2.46-.88l2,.15,1.16-2.2.29-1.77-1.59-.15c-1.74-1-.87-4.84-.87-4.84,2.75-4.12,5.93-1.76,5.93-1.76l2-.15c3,2.05.29,5.87.29,5.87-.58.88-.29,3.68-.29,3.68l.72,4.7-1.88,1.62c-1.59.88-1.59,2.93.15,3.37,1.15.15.72,2.94-1,1-2.6,0,1.45,2.35.29,1.76,2.61,1.33,2-1.17,2-1.17l3.47-2.8c1.31-1,3.63,2.21,3.63,2.65s5.78.15,5.78.15c1.59,1,2.18,3.67,2.18,3.67,1.59-2.05,4.92-.15,2.46,1,2.31,1.47,2.31,2.79,2.31,2.79,1.89-.59,1.89.88,1.89,1.32a15.1,15.1,0,0,0,.58-2.2c-2.18-1.61,2.89-2.21,1.44.74l-.87,1.32,1.45,1.17.14,3.38c3.19-.29,2.32-4.26,2.32-4.26l1.45-.29c0-1.32,1-.59,1-.59-1-5,2.32-5.87,2.32-5.87,1.88-.45,2-4.42,2-4.42-1.3-.59-.57-2.64.87-.88s-.87-3.52-.87-3.52l-1.15-1-1.6-.15-.14-1.61h-2.61l-.43,2.06-1,.29-.29-.59-.44,1.62h-2.6l-.15-1.77,1.59-.44.58-.88.44-2.35h1.88l2.46-.73c.15-2.5,1.45-1.92,1.45-1.92l.87.74,1.3,1,.15.88-.87.44-.15,1.18.44,1.61h1.15a2.43,2.43,0,0,1,4.35-.88l.87-2.06c-2-1,0-2.64.54-1.91s1.92-1.91,1.92-1.91,1,1.32,0-.44a1.81,1.81,0,0,1,.72-2.64c-.29-1.77,1.88-1.47,1.88-1.47l.15-2.35-2-.15c-.43,2.06-2.17.3-1.3-.15a7.94,7.94,0,0,0,1.73-1.32v-1.47l.87-.29.15-1.47h2.17l1.88-.88.44-.74,2-.14,2.9-2.65-.29-1.17c-1.74,0,0-1.32,0-1.32l.29-2.2" transform="translate(0)"/><path class="cls-3" d="M140.18,148.85l-2.61-.29.15,1h.72c1.16,2.06.14,7,.14,7s-1.73.14-2-.74-1,1.92-.43,2.35,2.6,0,2.75,1.62,1.3-1,1.3-1v-10" transform="translate(0)"/><path class="cls-3" d="M137.57,160.76v3.52l2.32,3.08.86-2.05.3-1.33-1-.43.15-2.21.87-.15.14-1L139,161.64l-1.45-.88" transform="translate(0)"/><path class="cls-3" d="M141.34,170.59v-1.46l-1,.14-.14,1.18,1.16.14" transform="translate(0)"/><path class="cls-3" d="M140,177.65v-1l-1.23.14v1l1.23-.14" transform="translate(0)"/><path class="cls-3" d="M141.74,173.13a.61.61,0,0,0,.61-.62.61.61,0,0,0-.61-.62.62.62,0,0,0-.62.62.62.62,0,0,0,.62.62" transform="translate(0)"/><path class="cls-3" d="M142.74,175a.63.63,0,1,1-.61.63.62.62,0,0,1,.61-.63" transform="translate(0)"/><path class="cls-3" d="M142.78,158.19a.62.62,0,1,1-.61.62.61.61,0,0,1,.61-.62" transform="translate(0)"/><path class="cls-3" d="M189.25,138.86h.87l.14.88-.58.59-.28.74-1.16.29-2.61,2.5-.14,1.17-.73,1-.86,2.21-3,.14-.58,2.65.43,2.2,2.6,1,.29-1.47.87-.44.15-1.47.57-1,.88-1,.28-1.18,1.45-.87,1.74-.3.72-.88.3-1.76.1-1.32.62-.89,1.74-.73v-2.79h-.87l-.15-1-1.59-.15-.29.74h-.72l-.15,1.17" transform="translate(0)"/><path class="cls-3" d="M196.05,147.09V145l-.29-1.91-2.17-1L192,143.57l-.29,2.05v1.32l-1.45.3-.29,4-1.16.44.15,1.47-3.18.88-.29,1.91-1.16.73-.58,1.77-.73,4.26s1.31,2.49,2,1.32a2.81,2.81,0,0,1,1.88-1.32l.44-1,3.9.14c.29-1.61,2.18-1,2.18-.29s1.45.15,1.45.15l1-1.62h1.6l.14-1.76.73-.44v-2.65a2.76,2.76,0,0,0,2-2.94l.59-.73-.3-1c-1.16-.44-.58-1.47.15-1.17s-1-1.33-1-1.33c-.87.74-1.6-.88-1.6-.88h-2.17" transform="translate(0)"/><path class="cls-3" d="M198.37,164.87c-.15,1.76-2.32,2.35-2.32,2.35l-1.59-.44-.87-.74-.14-2,1.3-.15.29.88,3.33.15" transform="translate(0)"/><path class="cls-3" d="M206.18,155.47c.32,1.28.3-2.06.87-1.91s.15-2.06.15-2.06l-2.61,1.91c1.31.15,1.45,1.47,1.59,2.06" transform="translate(0)"/><path class="cls-3" d="M213.86,147.82c.58,1.33.43,3.24,2.6,4.71.74.49-.43,1.47-1.15,1s-2.76-3.67-2.76-3.67V148c.44-1.17,1.06-.72,1.31-.15" transform="translate(0)"/><path class="cls-3" d="M213.86,192.49l.43.43.43.74,1-1.61-.87-.3-1,.74" transform="translate(0)"/><path class="cls-3" d="M231.17,188l1.16-.73-.46-.75-1.16.73.46.75" transform="translate(0)"/><path class="cls-3" d="M273.07,218.64l1.3.58.14,2.5c1.74,1.77,7.39.3,7.39-.14s-.29-5.44-.29-5.44l-.73-.73-.14-3.68c.57-1.91-2.75-4.7-3-4.11s-2.17.14-2.17.73-1.16,3.53-.58,4.56-.44,1-.58,2.06-1.59,2.79-1.3,3.67" transform="translate(0)"/><path class="cls-3" d="M269.88,212.76c-.27,1.12-1.3,1.76-1.88,1.32s.72.74,1,1.33a.82.82,0,0,0,1.45,0c.29-.6.14-1.91.44-2.5s-.87-.73-1-.15" transform="translate(0)"/><path class="cls-3" d="M263.15,185.81h1v2.79h-1v-2.79" transform="translate(0)"/><path class="cls-3" d="M278.13,157.52c-.63-.85,2.9-2.35,3.48-.58s0,1.47-.58,1.32-2,.44-2.9-.74" transform="translate(0)"/><path class="cls-3" d="M281.25,137.85l-.15.86,1.59.29.15-.87-1.59-.28" transform="translate(0)"/><path class="cls-3" d="M277.19,140.37l.11.27.8-.33-.29-.73-.18-.46-.43.24-1.08.61-.94-.59-.46.73,1.16.74.22.14.21-.13.88-.49" transform="translate(0)"/><path class="cls-3" d="M282.62,104.63h-2.17s.72.29-1.3-1.62a2,2,0,0,0-3.33.45l-2.32.29v2.35l-1.16.44.15,1.47,1.59-.14s0,1.76.43,1,4.06.15,3.77,1.91c-.12.72,3.62,2.64,3.18,5a1.76,1.76,0,0,1,1.45,2.2l2.46.29.72-1.47.73.15v-.88l-1.59-.44-.29-4.7-1-.74.28-1.17-1.15-.44.58-1.91-1-2.06" transform="translate(0)"/><path class="cls-3" d="M289,119.62l-1.16-.15-2.61.44-1.45,2.79a4.25,4.25,0,0,1,1.3,1.47c.59,1,.87,7-.86,8.08s.14.44.14.44l-.29,3.24c.44,1.46,1.16.73,1.6,0s.87-.88,1.45-1.62a8,8,0,0,0,1.59-3.09c.14-1,.87-2.64.43-3.08s.44-2.49.44-2.49a2.94,2.94,0,0,0,0-2.36,3.16,3.16,0,0,1,.57-3.08l-1.15-.59" transform="translate(0)"/><path class="cls-3" d="M290.73,125.61l.15-1.17.87.11-.15,1.17-.87-.11" transform="translate(0)"/><path class="cls-3" d="M290.68,129.67l-.77-.39.43-.88.78.39-.44.88" transform="translate(0)"/><path class="cls-3" d="M289.42,118l-.58-1.33a5.23,5.23,0,0,1,.29-1.76c.29-.59-.58-1.17-1-1.32s-.29-1.32-.44-1.91-1.15-1-1.15-1-.3-2.2-.3-2.64-1.3-1-.86-1.48a11,11,0,0,1,1.16-1.32c.43-.29-.44-2.35.29-1.9s.72,1.17,1,1.76-.15,2.64.58,3.09-.15,1.9,1,1.9.44,2.8.44,2.8-.29,2,.43,2.2.29,3.67.29,3.67l-1.16-.73" transform="translate(0)"/><path class="cls-3" d="M280,94.2c.43.59,1.3,1,1.3,1.62s-.29,1,.58,1.17,1.45-.15,1.74.59a4.88,4.88,0,0,1,.14,2.49c-.14.6.15,1.47.87,1.47s.87.15.87.59.87-1.62.87-1.62a6,6,0,0,1-1.31-1.9,23.55,23.55,0,0,1-.72-2.35c0-.3-1-.6-1.45-.74s-1.16-1.47-1.16-1.47L280,94.2" transform="translate(0)"/><path class="cls-3" d="M281.46,92.88A4,4,0,0,0,280,91.56a3.53,3.53,0,0,0-1.59-.59,1,1,0,0,1-.87-1.32c.29-.73-.43-1-.43-1.62s.43-.58,1.16-.14.58.58,1.16,1.32.86,1.47,1.44,1.32,1,1.32,1.6.89.43,1,.43,1l-1.45.44" transform="translate(0)"/><path class="cls-3" d="M264.53,109.48c.79.81-4.35.59-4.35,0s.44-2.64,1.74-2.21,1.45-2.64,1.45-2.64-1.16.15-.15-.44,0-1.47-.44-1.91a7.39,7.39,0,0,1-.86-1.17h2c.87-.59,1.15-3.38,1.15-3.38a2.27,2.27,0,0,0,2.61-.59,6,6,0,0,0,.87,1.62c.58.73-1.45,1-.73,1.47a2,2,0,0,1,.73,2.2c-.29.44-1.89.15-1.89-.44s-.57.73,0,1.47-.72,1.76-1,1.76-2.17.29-.58,1.18a5.09,5.09,0,0,0,3.33.44s1.31-.15,1.74.59-.14.87-.87.87-4.2-.29-4.2-.29-1,1-.57,1.47" transform="translate(0)"/><path class="cls-3" d="M255.26,110.8c.72-.14,2.46-.29,2.75.15s-1,1-1,1l-1.74.3c-.58-.74-.72-1.33,0-1.48" transform="translate(0)"/><path class="cls-3" d="M273.94,98.47c1.15-.59,3.62-.59,3.47-1.48s1.45-1.17,1.45-1.17l.43,1.77,1.31.87.14,1.62s.44-.29-1.15.15-.59,1.17-.59,1.17l-3.47.15-.43-1.47-1.16-1.61" transform="translate(0)"/><path class="cls-3" d="M268.28,90.53c.89,0-.28,3.38,2,3.09s.15,1,1.88,1.17,1.31-1.32,1.89-2.35.29-1.62-.73-1.91-1-.29-1.3-1.47a2.13,2.13,0,0,0-1.45-1.47l-.43-1.76L268.28,87l-1.87,2.5c0,1.92,1,1,1.87,1" transform="translate(0)"/><path class="cls-3" d="M272.12,103l.43-.89.78.4-.43.88-.78-.39" transform="translate(0)"/><path class="cls-3" d="M270.6,101.55h.87v1h-.87v-1" transform="translate(0)"/><path class="cls-3" d="M271.33,82l.15,1.32-.86.1-.15-1.32.86-.1" transform="translate(0)"/><path class="cls-3" d="M268.87,95.67h.87v.74h-.87v-.74" transform="translate(0)"/><path class="cls-3" d="M266.59,95.66l-.08-.88,1.44-.15.09.88-1.45.15" transform="translate(0)"/><path class="cls-3" d="M254.65,109.79l-.8-.35.44-1,.79.35-.43,1" transform="translate(0)"/><path class="cls-3" d="M250.1,107.11l-.08-.87,1.45-.15.08.88-1.45.14" transform="translate(0)"/><path class="cls-3" d="M225,106.84l-3.17.14,0,.89,3.18-.15,0-.88" transform="translate(0)"/><path class="cls-3" d="M219.67,108.11l-.28-1.32.84-.19.29,1.32-.85.19" transform="translate(0)"/><path class="cls-3" d="M219.06,109l-.27-.84.43-.15.28.84-.44.15" transform="translate(0)"/><path class="cls-3" d="M226.3,106.54l-.14,1,1.59.15s.72.59.72,1,1,.88,1.6.88a7.24,7.24,0,0,0,2.17-1.17s.72-2.06.14-1.92-1.73,1-1.88.15-1.88-.44-1.88-.44l-2.32.29" transform="translate(0)"/><path class="cls-3" d="M233.54,104.93c0,.44-.29,1,.58,1.17s2.46-.59,2.61.3.14,1.47,1.3,1.91a7.14,7.14,0,0,0,2.75.59,25.9,25.9,0,0,0,2.75-.3,7.82,7.82,0,0,1,2.46.73c1.59,1.62,2.61,2.06,3,1.33s-.14-2.35-.29-2.94-2.17-3.38-2.89-2.79-.87,0-2.18.44-4,.14-4.19-.44-2.17-.88-2.17-1.47-1.45-1.33-1.31-.44-1,1.32-1.3,1-1.16.88-1.16.88" transform="translate(0)"/><path class="cls-3" d="M266.84,86.12l1-3.23c-1.44-.3-1.15-1.91-1.15-1.91-.15-1.33-2.17-2.8-2.9-2.35s-.43-3.09-.43-3.09,1.3-.88,1.88-.44-4.92-7.35-6.08-6.61-3.76-.74-3.62-2.06-5.21-5.73-5.21-5.73-1.74-1.17-2-.29-.86,1.47,0,1.91.73-.74,1.74.29,2.9,2.35,2.17,3.23A3.84,3.84,0,0,1,250.63,67l1,1.18h1.59l.29,2.49a5.57,5.57,0,0,1,2.18,1.91c.43,1,.43,1.62,0,2.21s-1.3,1.61-1.16,2.64a2.11,2.11,0,0,0,1.3,1.47l1.16.15.87.44v1.91c1.15-.29,3,1.32,2.89,2.35s.29.44,1.74,1.47,1,1.17,2,1.91,1.88.29,2.31-1" transform="translate(0)"/><path class="cls-3" d="M243,66.14c-.14-.59-.43-2.65.44-2.5s.29,0,1.3.44,1.16-.73,1.16-.73h1.59l2,1.61-.29,1.33-1.45.14c-.72-1.17-2.17-.73-1.88.3s-.72,2.93-1.3,3.08-2.47.15-2.32-.73.72-2.94.72-2.94" transform="translate(0)"/><path class="cls-3" d="M241.8,62.17V61s-.15-1.18-.87-1.18-2-.88-1.74-1.47-2.46-1.17-2.46-1.17-2.46-2.35-1.59-2.06.43-1,.43-1a9.15,9.15,0,0,1-2.17.15c-.44-.15-.29-1.47-.29-1.47s-1.74-.44-1.74,0,.58.44.87,1.32.15,2.35,1.45,2.64,1.59.59,1.74,1.18,1.74.73,1.74.73l1.16.59,3.47,2.94" transform="translate(0)"/><path class="cls-3" d="M226.16,47.19,225.73,46l-1.16-.29V47l1.59.15" transform="translate(0)"/><path class="cls-3" d="M225.73,41c-1.51-1.15,2,.88,2,.88a1.85,1.85,0,0,1,1.89,1.32c0,.44,1.59.3,1.59.3l.14-1L230.21,41l-1-.74s-1.59-.14-1.59-.58-1.3,1.76-1.88,1.32" transform="translate(0)"/><path class="cls-3" d="M252.36,41.89c-.43,1.29-.58,3.09-1.3,3.09s-.44,1.91-.44,1.91a17.27,17.27,0,0,1,2.47.15c.57.15.57,1.62.57,1.62,2.18-.15,3,2.79,2.75,3.52s.87.73.87.73a12.42,12.42,0,0,1-.29,3c-.29.58,1.88,1,2.46,1.9s-.29,3.82-.72,4,1.16.59,1,1.32.44,0,.58,1.18.43,3.67.43,3.67l2,.15c.29-1.91,4-2,4.63-1.77,2.46.89,4.35,4.7,4.35,5.59s-1.59,1-1.59,1l.29,4.25c2.46.74,4.48,4.27,4.19,4.85s1.74.45,1.74.45c.29-2.65,2.75-1.77,2.89-.89s.58,2.8.58,2.8l.72,1.32,1,1,1.59-.15.44.88,1.88.29a16.88,16.88,0,0,1,1.74,2.21c.14.44,2.31.29,2.89.44s1.45.59,1.59,1.32a6.82,6.82,0,0,0,1,1.91s1.73.44,1.88,1a13,13,0,0,0,.87,1.91l1.44,1.17.15,1.33,1.59.15.44,1.76,2.6-.15,1.45-1c1.88-1,3.19-2.35,3.33-2.94s.43-2.79,1.88-2.34.43-3.24.43-3.24-2-1.47-1.88-2.2-2-2.21-1.88-2.79-1.88-1.77-1.74-2.35-1-2.21-1-2.21l-2.17-2.06-.29-1.32-1.74-.15-3.47-4.25.14-1.18-1-.15V71l-1-.59-1.6-.15L288,66.73l-.29-1.62h-1.59l.29-3.08c1-1.33.43-3.83.43-3.83s-2,1-3,.59.43-1.47.43-1.47V56.15l-.86-.89s-2.46.3-2.61-.14-.58-2.35-.58-2.35l-.14-2.5-1-.44-.14-.88-1.59.14V47.33l-.87-.29-.87-.44-.14-1.76-3.19-.15-1-1.47L270,41.46l-3.62-.3-.87-.88L264.09,40l-1-.44-.43.73-2.75.15-.15.88c-1.45.74-7.23.15-7.38.58" transform="translate(0)"/><path class="cls-3" d="M267.56,38.08c-.23-1.16,2.9-2.2,3.62-1.32s2.75,1,3,5.44c.11,1.58-2.6-1.62-2.6-1.62l-2.18-.74a2.35,2.35,0,0,1-1.88-1.76h0" transform="translate(0)"/><path class="cls-3" d="M225.1,39.88l-.79-.36.58-1.32.8.35-.59,1.33" transform="translate(0)"/><path class="cls-3" d="M217.62,25.45l-1.88-1.91V21.92l-.58-.59-.58-2.06-1.88-.58-1.88.73-2,1.32-2.17.3-1.16,1.32,4.63.44.87,1.47,3.33.29,2.17,2.21c1.89.59,2.32-.3,1.16-1.32" transform="translate(0)"/><path class="cls-3" d="M217.33,18.24c-.31-1.29-2.17,1.62-.28,2.21a7,7,0,0,0,3.76,0l.43-.88,7.24.14a4.34,4.34,0,0,0,.87-1.47,5.2,5.2,0,0,1,2.46-.29c.72.29.15-2.06-.58-1.76a6.12,6.12,0,0,1-2.17.14h-2.61c-.14-1-2.46-.58-2.6,0s-1,.74-1,.74l-3.33.29c-.29.88-2,1.47-2.18.88" transform="translate(0)"/><path class="cls-3" d="M203,43c2.22.7,3,.18,3.18-.41s.29-.73,1.17-.88-.15-1.91-1-1.76a1.56,1.56,0,0,1-1.88-1c-.15-.73-1.6-2.64-1.74-1.18s-1,1.48-.87,2.5.58,2.57,1.16,2.76" transform="translate(0)"/><path class="cls-3" d="M186.36,44.69c-.11-.52,2.89-.58,3.33-.14s.14,1.17,1.45,1.17.72.88.58,1.32-1.59.29-1.75-.14-2.31-.59-2.31-.59-1.16-.89-1.3-1.62" transform="translate(0)"/><path class="cls-3" d="M234.11,15l.27.28.3-.25,1.46-1.17-.55-.69-1.14.93-.74-.75-.62.62,1,1" transform="translate(0)"/><path class="cls-3" d="M227.61,11.57l.23-.15,1.6-1L229,9.65l-1.36.87-.93-.58-.46.74,1.16.74.23.15" transform="translate(0)"/><path class="cls-3" d="M222.44,41.58l.9,1.43.73-.47-1-1.61-.12-.18-.21,0-1.45-.16-.08.89,1.24.12" transform="translate(0)"/><path class="cls-3" d="M175.07,81.71l.14,1.62h2.17c.87,0-.72-1-.72-1s-1.74.15-1.59-.59" transform="translate(0)"/><path class="cls-3" d="M177.82,81.76l.56-.68.87.73-.56.68-.87-.73" transform="translate(0)"/><path class="cls-3" d="M151.45,54.27l.61-.62.87.88-.61.63-.87-.89" transform="translate(0)"/><path class="cls-3" d="M192.27,244.18l.62.63.72-.74.43-.43-.54-.27-1.45-.73-.39.78.91.46-.3.3" transform="translate(0)"/><path class="cls-3" d="M180.89,233.54l1,.74.51-.72-.56-.41.44-.36-.55-.68-.88.73-.43.37.46.33" transform="translate(0)"/><path class="cls-3" d="M289.94,204.92a1.81,1.81,0,0,0-1.13-1.09l-.28.84h0a1.54,1.54,0,0,1,.27.15l.18.76-.2.25.64.6a1.65,1.65,0,0,0,.52-1.5" transform="translate(0)"/><path class="cls-3" d="M291.27,202.14l-1.41-.1.11-1.33,1.41.23-.11,1.2" transform="translate(0)"/><path class="cls-3" d="M324.82,190.69c.62-.39,1.41-1.11,1.31.55s-.77,1.1-1.31,1.65-.87-1.65,0-2.2" transform="translate(0)"/><path class="cls-3" d="M332.19,184.45l0-.2a2.39,2.39,0,0,0-.22-.92l-.77.39a1.91,1.91,0,0,1,.13.61.94.94,0,0,0,.29.73.69.69,0,0,0,.59.11l-.17-.85.18.13" transform="translate(0)"/><path class="cls-3" d="M330.25,185.17a18.54,18.54,0,0,0,.56,1.81l.82-.3a14.33,14.33,0,0,1-.53-1.72l-.85.21" transform="translate(0)"/><path class="cls-3" d="M327.09,188.64l-.86-.09c-.07.7.1,1.55.78,1.69l.17-.86h0a1.31,1.31,0,0,1-.1-.74" transform="translate(0)"/><path class="cls-3" d="M323.29,171.11a.8.8,0,0,0-.48-.62,2.9,2.9,0,0,0-2.26.55l.49.73a2.36,2.36,0,0,1,1.43-.47l0,0,.86-.15" transform="translate(0)"/><path class="cls-3" d="M283.2,124.17a4.73,4.73,0,0,1-1.89.88l-.43,1.62-.73.59a3.53,3.53,0,0,1,0,1.47c-.14,1-1.44,1.61-1.44,1.61l-.58.74a26.68,26.68,0,0,1-3.91,0,1.17,1.17,0,0,1,.44-2.21c.86.15-.15-2.49-.15-2.49l1.16-.15s.14-2.64.58-2.64-.14-.89-.73-1.33-1.3-1.91-1.88-1.76a19.6,19.6,0,0,1-2.9,0l-.43.88-1.59.29s.13,1.14-.14,1.48c-.87,1-4.2,3.23-2.76-.45l.44-.88V120.5l-2.61-.15s-1.3-.44-1.3-1a8.39,8.39,0,0,0-.14-1.31l-3-3.38-3.62-.45-.29-.73-2.16-.3c-2.61-1.31-4.93-.14-4.49,2.06s1.15,3.09-.29,3.09a1.69,1.69,0,0,1-1.74-1.18s-1.16-.44-1.16.15-.43,1.76,0,2.35-.58,1.47-1,1-1.59-1.76-1.3-2.2-2-3.24.29-3.68-.15-1.76.72-2l1.16-.59h1.15l.73-.59-1.88-.29-1.16-.15-2.17-.15a6.2,6.2,0,0,0-2.61,3.24c-1.16,2.2-3.9-.88-2.89-2.06s-3.19-.15-3.91.44-2.89.29-2.89.29c-.44,1.33-2.46-.14-1.89-1a3,3,0,0,0,.58-1.47l-.72-.15-.87,1.62c-2,0-2.61,1.17-2.17,1.9s-.58-.14-.87.89.14,1,1,1.46-.43.44.15,1.18,2.32,0,1.3,1-3,.59-3,.59c-.15,1.32-2.9,1-3.18.59s-2.46-3.09-2.46-3.09l-2.76-.15c-.28-2,1.31-1,1.88-2.64a23.1,23.1,0,0,0,.88-4.26s-2.32-.15-2.47.59-1.59,1.17-1.59,1.17-1.16.44-.72,1-.87.88-.87.88.23.95-.14,1.32c-1.16,1.18-4.06.15-4.49-.29l-1.74-.74-1.74-1.17-2,.88-.58.59H199l-.15,1.76,3.91.44.29,3.64-1.59-.56h-1L200,118l-.87-.15v3.24l.87.73.72.74,1.45.14.29,1.76,3.62.16.43.73,2.18.14,4.2,4.27-.3,1.32-.72.44c.29,1-1.88.44-1.88.44v.88l1,.15,1,.59,1.44-2.5c1.59-1,2.32.44,2.46,1.32s-.72.73-.72.73v2.06l.87.29a1.73,1.73,0,0,1-.58,2.8l-.44,1.46c-.43,1.33-2,1-2,1l-.58.89-1.74.44,3.44.43c.33-1.17,1.19-1.46,1.63-.88a3.27,3.27,0,0,1,.43,1.62l.87.15L216.9,145l.86.3V150l1,1.17c1.73-.73,1.73.45.87,1s-.3,3.24-.3,3.24l-.72.73v1.17l-.87.59v1.62a3.81,3.81,0,0,0-3.62,0c-1.3-.89-4-.59-4,.15.87,1.17-1,1.47-1,1.47l-1,1.17c.73,1.47-.72,1.62-.72,1.62v2.79l-1.74,1.62.15,3.82c0,1,2.17,1.17,2.6.58s2.18,1.18,2.18,1.18h1.3l.29-2.65-.87-.44v-4.26L212.7,165c1.74-.59,1.16,3.82,1.16,4.26.14,1.62.86,1.48,1.59,1.18,1.45-.59.29,1.62-.87,1.47s-.43,1.47-.43,1.47l.72.29-1.31,1L212.41,176l-1.45-.44-1.74-.14-.58-1-1-.15-.15,2.06-.72.88L205,179c2.32,0-.29,1.61-.86,1.61,1.3.45-.15,1.77-3.48.74v1l-1.16.15,1,1.17,1.16.15-.44,2.5c0,1.91-4.78.58-5.21.14l-.15,2.65-.86.14.14,1.77-.14,2.49,1.59-.29v1l3.91.15,5.64-6,3.33-.73c.29-1.47,1.74.3,1.74.3,1.44-.16,1.73.87,1.73.87l1.89.3c1.59.44.63.59.72,1.18.15.87.87.58.87.58l.29-1.91.87.15-.87-1-1.59-.74-1.74-.73c-1.16-1.62.29-1.32,1.45-1.17h1.88s2.17,2.93,2.17,3.67,1,.88,1,.88l1.3-.15.43,1H223l.44.88H226l.14-1.32L223.7,190l-.15-1.47-1.73-.44c-.58-2.49.43-3.23,1.15-2.06l.87.15-.29-2.21,1-.29-.28-3.09-.87-.29v-1l3.61.15a5.17,5.17,0,0,1,.15-2.79h1l.15.74,4.43.41,3.13-3.59c-.16-.27.31-.44,0-.79s-1,0-1.74-.44,0-2.94-.14-3.53,2.46-1.47,2-.15,0,1.92,0,1.92c1.89-1.77,3.48.14,3.33.58s1,.88,1.74.44,1.59,1.33,1.3,2.2-2.89.74-3-.14-.58-.59-.87-.15a2.07,2.07,0,0,1-2.31.29.6.6,0,0,1-.26-.23l-3.13,3.59.2,0c1.74,1,.87,2.36.29,2.65a4.44,4.44,0,0,1-1.59.29l-.29.59-3.76.29-.3,1.48a2.05,2.05,0,0,0-2.16,2.78,2.48,2.48,0,0,1,0,1.91l1.59.74,2-.58c.29-1.48,1.6-1.77,2.76-2.65s3,1.61,2.46,2.79a4.43,4.43,0,0,0-.59,1.61l.15,1.33-1.45.58-1.16.59-.14.74h-3.91l-.72.73-1.88.15-.58.88-1.31.15s-2.17,1-1.3,2.2-3.62,1-4.63-.59c-.29,1.47-1.88.15-1.88.15l-1.6-.44-.14-2.2c-.29-1.47-3-1.47-2.9-.45s-5.21.45-5.21.45l-1.73.84-1.6.92-.14.73-2.61.3-1.16.58-.43-.88H195.9l-1.16,1.62c-3,.15-5.93,1.91-5.64,2.64s-1.16,1.48-1.16,1.48l-1.3.43-.87,1.33-1.74.59-.29,3.08-.87.59v1.32l-1,.3v.73l-1.45.15.87,2.2,1.16.59c2,.29,1.16,2.79,1.16,2.79l1.16.15.58,1.61,1.15,2.35c.44,1.77,1.74,1.33,2.32,1.18s1.15,1.76,1.15,1.76l5.8.15s-.29.59.72.88,7.67.59,8,.15c-.29-1.32,3.62-1.62,5.21-.44a4.58,4.58,0,0,0,3.77.44l2.17,2.64L217,230.4l2.46.73,1.74.44.57,2.5,1.31.14.43,1.62c1.59,1.17-.43,3.67-.43,3.67v3.24l1.15.58-.14,1.18,1.88,1.91,2.17.14,5.5,5.88,4.35,1.32.72,2.36,1.16-.15.87-.74,3.47-.14,1.74-1.62,1.88-.29,16.07-13.67-1.45-.88v-3.23c2.6-1.91,2.75-5.29.29-5.58-1.87-.23-1-2.21.72-2.5l1-.44v-1.32l3.33-3.08v-2.36l-7.24-6c-3.18-1.18,0-8.23,2.17-8.08s-.14-10.87-.14-10.87l-1.16-.59.29-3.53h-1.59l-2.61,3.38-.72,2.35c-.29,3.09-9.27,2.5-9.7,2.06a26.06,26.06,0,0,0-3.48-1.77s-2.31-1.9-2.75-1.32-2.46-.73-2.46-.29-1.88-1-1.88-1l-2.9-1,2.18-.44-.44-1.76,3.77,1.91c.43.58,2.31.44,2.31.44l.58.74A2.23,2.23,0,0,1,244,195c.73.88,4.49.15,4.49.15l1,.88,1.6.58,4.48.15.15-2.79.87-.88-.15-1.76,1-.89V189l.86-.3.15-3.23.72-.15v-7L257,176.19c-.14.73-2.46.73-2.46.73s-.58,1-1,1,.58,1.32.29,2.2-1.45.88-1.45.88l-2.17.59-.59.74h-2.31l-.29-1.92,2.6-.73,1.45-.73.73-1.47c.14-1.47,1.88-1.32,1.88-1.32s3.33-2.8,3.47-4.12,1.31-5,3.33-5h3.77c1.45-.59,1-2.5,1-2.5l1.88-.29.29,1s2.61.29,2.9-.15.87-1.47,1.59-1,3-1,3-1c.14-1,3.76-.59,3.76-.59l.44-1.32s-2.46-3.38-2.9-3.38-2.75-2.06-3-1.32c-2.31-.59-2.17-3.82-2.17-3.82l-.86-2.06c0-1.17-2.17-3.67-2.61-3.38-2.17-1.61-.58-3.52,0-3.67s2-2.2,2-2.2l.72-2.06,2.46-.73.29-1.92-1.3-.14s1.44-2.65,2.17-2.65,5.5,0,5.93-.29a8.12,8.12,0,0,0,1.31-3.09c0-.43,1.16-.58,1.59-.73a5.72,5.72,0,0,0,1.74-1.91c.29-.59-.73-4.26-1.3-3.68" transform="translate(0)"/><path class="cls-3" d="M203,177.14c.22-.22.43.66.87.55s.65.77.22.77-.44.55-.44.77a1.61,1.61,0,0,1-.32,1.1c-.33.34-.66.11-1.09-.11A2.12,2.12,0,0,0,201,180c-.54,0-.1.88-.1.88s-2.29-.1-1.85-.44.87-.44.54-.66,0-.44,0-.88,1.09-.22.76-.55,0-1.61.55-.88l.32-.77c-.32-.34-.11-.45-.76-.66s-.11-1.55-.11-1.55l.11-.88c.22-1.1,2.39-1.21,2.5-.22a6.61,6.61,0,0,1,0,1.65l.65.22s-.11.67-.65.67,0,.33-.33.66l.33.55" transform="translate(0)"/><path class="cls-3" d="M195.84,178.24c.32-.66,1.08-3.53,1.95-2.64s1.41,0,1.41,0a1.43,1.43,0,0,1,.22,1.32c-.22.88-.44,1.77-1,1.87s-1,.45-1.63.56-1-1.11-1-1.11" transform="translate(0)"/></g></svg>